<?xml version="1.0" encoding="UTF-8" standalone="no"?>
<!-- Created with Inkscape (http://www.inkscape.org/) -->

<svg
   version="1.1"
   id="svg1"
   width="987"
   height="122"
   viewBox="0 0 987 122"
   xmlns="http://www.w3.org/2000/svg"
   xmlns:svg="http://www.w3.org/2000/svg">
  <defs
     id="defs1" />
  <g
     id="g1">
    <path
       style="fill:#c2185b;fill-opacity:1"
       d="m 159.58434,118.08279 c -2.98134,-2.66311 -3.26569,-3.42521 -3.26477,-8.75 5.5e-4,-3.20804 0.65309,-9.333916 1.45008,-13.613051 1.14872,-6.16758 1.21418,-8.90019 0.3158,-13.18323 -1.34658,-6.41988 -4.00595,-10.98033 -5.64336,-9.67758 -0.61794,0.49165 -2.02353,0.56179 -3.12353,0.15587 -1.1,-0.40591 -2.5625,-0.52716 -3.25,-0.26942 -0.6875,0.25773 -1.25,-0.0846 -1.25,-0.76083 0,-0.96301 -0.31556,-0.96754 -1.4562,-0.0209 -0.8228,0.68286 -2.01895,0.85828 -2.75,0.40329 -0.71159,-0.44288 -2.3063,-0.67441 -3.5438,-0.51452 -1.58188,0.20439 -2.25,-0.22544 -2.25,-1.44752 0,-0.95603 -0.28417,-1.45407 -0.63148,-1.10675 -0.34732,0.34732 -1.47899,0.17791 -2.51484,-0.37646 -1.43206,-0.76641 -2.02525,-0.63817 -2.47551,0.53519 -0.32568,0.84872 -1.04215,1.54312 -1.59215,1.54312 -0.55,0 -0.76711,-0.60688 -0.48248,-1.34863 0.39115,-1.01932 -0.8331,-1.39277 -5.01365,-1.52938 -3.04214,-0.0994 -6.37688,-0.63336 -7.41053,-1.18655 -1.27657,-0.6832 -1.87936,-0.67378 -1.87936,0.0294 0,1.49583 -1.62092,1.27141 -3.35714,-0.46482 -1.92925,-1.92924 -2.64286,-1.89618 -2.64286,0.12245 0,1.18457 -0.33735,1.34246 -1.25,0.58503 -1.18635,-0.98458 -1.7669,-1.18741 -3.5,-1.22279 -0.4125,-0.008 -0.075,-0.45153 0.75,-0.98469 0.90129,-0.58246 1.02463,-0.97548 0.30901,-0.98469 -1.95933,-0.0252 -2.5732,1.95999 -1.1451,3.70314 1.04065,1.27023 0.67273,1.20814 -1.66391,-0.28084 -1.650002,-1.05142 -3.594652,-2.48001 -4.321432,-3.17464 -1.77535,-1.6968 -2.32463,-1.59006 -1.97241,0.38329 0.16161,0.90544 -0.24877,1.83631 -0.91196,2.0686 -0.75006,0.26271 -1.06043,-0.33247 -0.82118,-1.57478 0.31313,-1.62597 -0.11322,-1.96394 -2.29421,-1.8186 -1.47335,0.0982 -3.00942,0.62852 -3.4135,1.17852 -0.44251,0.60231 -0.74078,0.4542 -0.75,-0.37244 -0.013,-1.16326 -0.27248,-1.16326 -1.70254,0 -1.474301,1.19924 -1.606015,1.15563 -1.04368,-0.34553 0.35396,-0.94489 0.14368,-2.02692 -0.467274,-2.40451 -0.672654,-0.41572 -0.829377,-0.23113 -0.39731,0.46797 0.865264,1.40003 -0.355798,1.47849 -2.404508,0.15451 -1.089966,-0.70439 -1.142172,-0.97356 -0.190983,-0.98469 0.719959,-0.008 1.017397,-0.48716 0.660972,-1.06387 -0.441775,-0.7148 -1.104436,-0.66978 -2.081909,0.14145 -1.15141,0.95558 -1.319436,0.8918 -0.852973,-0.32378 0.67834,-1.76773 -3.844985,-3.05923 -5.370753,-1.53346 -0.584825,0.58482 -1.175776,0.55489 -1.567798,-0.0794 -0.346049,-0.55992 -0.168388,-1.30282 0.394803,-1.65089 0.653469,-0.40387 0.504299,-1.15254 -0.41226,-2.0691 -1.648041,-1.64804 -3.000244,-1.92669 -2.073568,-0.42729 1.136589,1.83904 -0.485277,4.93605 -2.233608,4.26515 -1.430331,-0.54887 -1.402113,-0.70226 0.234815,-1.27647 1.175658,-0.4124 1.454495,-0.90356 0.757505,-1.33432 -0.606652,-0.37493 -1.782924,-0.002 -2.613938,0.82924 -2.055236,2.05523 -6.917491,0.3673 -5.979933,-2.07594 0.506575,-1.32011 0.204769,-1.51176 -1.5191,-0.96463 -1.763425,0.55969 -2.172186,0.265 -2.267273,-1.6346 -0.07573,-1.5128 -0.267602,-1.74707 -0.552644,-0.67477 -0.302905,1.13951 -1.109659,1.46698 -2.633998,1.06919 -2.511672,-0.65545 -5.480336,-3.2118 -3.72983,-3.2118 0.610711,0 0.192853,-0.98485 -0.928572,-2.18856 -1.121425,-1.20371 -2.038955,-2.58027 -2.038955,-3.05902 0,-0.47875 -0.476928,-0.57569 -1.059841,-0.21543 -0.673117,0.416 -0.399451,1.1971 0.75,2.14065 1.664491,1.36632 1.669297,1.44144 0.05984,0.93538 -1.180964,-0.37133 -1.75,-0.0148 -1.75,1.09651 0,1.01143 -1.124821,0.13818 -2.91556,-2.26351 -1.603558,-2.15064 -2.702001,-4.2558 -2.440983,-4.67814 0.6596,-1.06725 -0.419015,-0.95836 -2.723473,0.27494 -1.459454,0.78108 -1.8822,0.72974 -1.684257,-0.20454 0.145351,-0.68605 -0.298226,-1.32407 -0.985726,-1.41782 -2.575628,-0.35123 -2.698165,-0.5833 -0.75,-1.42046 1.908356,-0.82005 1.896901,-0.86265 -0.25,-0.92971 -1.2375,-0.0387 -2.25,0.37971 -2.25,0.92971 0,0.55 -0.5625,0.98503 -1.25,0.96673 -0.6875,-0.0183 -0.173752,-0.92955 1.141663,-2.025 1.315414,-1.09546 2.095414,-2.28798 1.733333,-2.65007 -0.362081,-0.36208 -1.190829,-0.12583 -1.841663,0.52501 -1.400794,1.40079 -3.15331,1.59098 -2.326038,0.25243 0.316431,-0.512 0.117988,-1.21355 -0.440983,-1.55902 -0.558972,-0.34546 -1.051838,0.18595 -1.095259,1.1809 -0.04627,1.06014 -0.28861,1.28897 -0.585411,0.55279 -0.278554,-0.69093 -0.870875,-1.03101 -1.316267,-0.75574 -0.445393,0.27527 -1.067835,-0.17193 -1.383205,-0.99377 -0.370703,-0.96604 0.03413,-1.49967 1.145215,-1.50957 1.475195,-0.0131 1.506159,-0.15261 0.218615,-0.98469 -1.333333,-0.86166 -1.333333,-0.97888 0,-1.05497 1.010486,-0.0577 0.847314,-0.36607 -0.5,-0.94503 -2.803976,-1.20491 -4.5,-1.18267 -4.5,0.059 0,0.58246 0.418906,0.80012 0.930902,0.48369 0.511996,-0.31643 1.181751,-0.16945 1.488345,0.32663 0.306594,0.49608 -0.57351,1.11816 -1.955786,1.3824 -2.174542,0.41569 -2.428888,0.19526 -1.887371,-1.63565 0.344223,-1.16385 1.255422,-2.6157 2.024885,-3.22633 1.617788,-1.28385 1.865684,-3.38976 0.399025,-3.38976 -0.55,0 -1,-0.675 -1,-1.5 0,-0.825 -0.401855,-1.5 -0.893011,-1.5 -1.417108,0 -2.163316,2.9274 -1.460254,5.72862 0.412929,1.64524 0.275687,2.34147 -0.38149,1.93531 -1.307736,-0.80822 -2.27355,-5.66393 -1.126573,-5.66393 0.47373,0 0.861328,-0.45 0.861328,-1 0,-0.55 -0.675,-1 -1.5,-1 -0.825,0 -1.5,0.70156 -1.5,1.55902 0,2.38167 -1.9837206,0.63042 -2.1160016,-1.86804 -0.08957,-1.69179 -0.220196,-1.79226 -0.573324,-0.44098 -0.251527,0.9625 -0.960335,1.75 -1.575128,1.75 -0.614793,0 -0.244297,0.66069 0.823324,1.4682 1.6894566,1.27784 1.7229746,1.47232 0.258517,1.5 -1.959702,0.037 -3.682043,-4.17998 -1.943853,-4.75938 0.62641,-0.2088 0.884565,-0.7912 0.573679,-1.29423 -0.310886,-0.50302 0.568099,-0.91459 1.953301,-0.91459 2.6587546,0 7.5994856,-4.45759 7.5994856,-6.85636 0,-0.9374599 0.815757,-1.2208499 2.556452,-0.8880999 1.440301,0.27533 3.151623,-0.10647 3.919643,-0.87449 1.057476,-1.05748 1.475639,-1.08486 1.8646,-0.12212 0.39675,0.98202 0.517889,0.98016 0.580358,-0.009 0.04342,-0.6875 0.952389,-1.25 2.01993,-1.25 1.067541,0 2.219098,-0.45 2.559017,-1.0000005 0.940881,-1.52238 2.511218,-1.19281 1.900442,0.3988505 -0.834236,2.17398 1.248753,2.8091 3.109689,0.94816 1.106981,-1.10698 1.896125,-1.3077105 2.336954,-0.59443 0.460457,0.74504 1.225125,0.66779 2.481162,-0.25065 1.346783,-0.9847905 1.474251,-1.4391805 0.493666,-1.7597805 -0.727052,-0.2377 -0.140016,-0.25339 1.304525,-0.0349 1.495857,0.2263 4.270435,-0.52604 6.445582,-1.74775 3.449611,-1.93753 3.931835,-1.99097003 4.983805,-0.55232 0.640563,0.87603 1.875993,1.59277 2.745401,1.59277 0.869407,0 1.858855,0.45 2.198774,1 0.339919,0.55 1.073619,1 1.630446,1 0.556826,0 0.305268,-0.70714 -0.559017,-1.57143 -0.864286,-0.86428 -1.564538,-2.10178 -1.556116,-2.75 0.0096,-0.73626003 0.350797,-0.64859 0.909249,0.23361 0.754045,1.19119 1.159297,1.14682 2.589651,-0.28353 1.31087,-1.31087003 3.278376,-1.65578003 8.669275,-1.51973003 3.835458,0.0968 6.440181,0.50563 5.788273,0.90853003 -0.789565,0.48798 -0.83885,0.94666 -0.147622,1.37386 0.570715,0.35272 1.336959,0.15705 1.702763,-0.43484 0.429923,-0.69563 1.179857,-0.4362 2.120878,0.73369 1.36601,1.69824 1.417598,1.6711 0.836611,-0.44016 -0.3618,-1.31475003 -0.175489,-2.25000002957 0.448221,-2.25000002957 0.587064,0 1.067388,0.64843999957 1.067388,1.44098002957 0,0.79255 0.526472,1.76637 1.169942,2.16405 0.78665,0.48618 0.96074,0.1779 0.53138,-0.94098 -0.40641,-1.0591 -0.13438,-1.66405003 0.74827,-1.66405003 0.76276,0 2.15057,-0.29307 3.08402,-0.65127 1.3999,-0.53719 1.56918,-0.24795 0.96639,1.65127003 -0.58173,1.83286 -0.41446,2.18115 0.81999,1.70745 0.85294,-0.3273 1.72947,-0.0591 1.94785,0.59607 0.22336,0.67009 0.94534,0.16667 1.65043,-1.15081 1.1737,-2.19308003 1.10488,-2.30000003 -1.08245,-1.68183 -1.80948,0.51138 -1.99782,0.42349 -0.83582,-0.39006 2.23202,-1.56271003 4.30715,-1.32363003 3.63837,0.41918 -0.33966,0.88514 -0.012,1.5 0.79939,1.5 0.90166,0 1.20955,0.77456 0.8944,2.25 -0.46857,2.1936905 -0.4412,2.2014205 1.09362,0.30887 0.86582,-1.06762 1.58111,-1.51762 1.58953,-1 0.008,0.51762 0.45153,0.26613 0.98469,-0.55887 0.807892,-1.25013 0.971922,-1.17517 0.984682,0.45 0.0119,1.51667 0.28198,1.68333 1.21532,0.75 1.58924,-1.58924 0.0203,-3.12141 -3.494172,-3.41227 -5.09067,-0.42132 -2.71518,-1.77847003 2.886902,-1.64932003 3.07601,0.0709 5.06328,0.45616 4.41616,0.8561 -0.84716,0.52357003 -0.7563,0.88844003 0.32451,1.30319003 0.82559,0.31681 1.7126,0.0248 1.97111,-0.64886 0.6566,-1.71108003 7.8524,-2.12011003 7.62884,-0.43365 -0.31227,2.35571 0.0572,3.78481 0.97859,3.78481 0.50157,0 0.78818,-1.12745 0.63692,-2.50545 -0.24,-2.18633003 0.0832,-2.47816003 2.53718,-2.29117003 2.20027,0.16765 2.57467,0.50051 1.72059,1.52962003 -0.6004,0.72343 -0.80251,1.60446 -0.44913,1.95783 0.35337,0.35338 0.6425,0.16565 0.6425,-0.41717 0,-0.58283 0.7875,-1.35949 1.75,-1.72592 1.40315,-0.53418 1.50225,-0.41665 0.5,0.59302 -0.6875,0.69258 -1.25,1.65138 -1.25,2.13067 0,0.47929 0.73067,0.14076 1.62371,-0.75228 1.16679,-1.16679 2.50347,-1.43295 4.75,-0.9458 1.71946,0.37285 3.35129,0.95888 3.62629,1.30228 0.68324,0.85318 3.23092,0.73997 4.75,-0.21108 0.6875,-0.43042 1.25,-0.35417 1.25,0.16945 0,0.52361 0.7251,1.23027 1.61134,1.57035 1.21309,0.46551 1.45976,0.18301 0.99803,-1.14301 -0.51484,-1.47857 -0.33204,-1.44025 1.13866,0.23866 2.02687,2.3138205 5.25197,2.8959105 5.25197,0.94791 0,-0.73143 0.44485,-1.6048 0.98855,-1.94083 0.56686,-0.35034 0.7345,0.0511 0.39301,0.94098 -0.39136,1.01987 -0.0244,1.55194 1.07047,1.55194 1.00599,0 1.38294,-0.45801 0.9515,-1.1561 -0.5118,-0.8281 0.19482,-0.97423 2.49069,-0.51505 2.00268,0.40053 2.97682,0.27151 2.59647,-0.34391 -0.3348,-0.54171 -0.13217,-0.98494 0.45029,-0.98494 0.58246,0 1.05902,0.525 1.05902,1.16667 0,0.64166 0.2961,0.87057 0.65799,0.50867 0.3619,-0.36189 1.28729,-0.13572 2.05642,0.50261 1.0838,0.89947 1.32949,0.85927 1.09201,-0.17867 -0.20365,-0.89012 0.78354,-1.37951 2.94358,-1.45925 1.9599,-0.0724 3.25,0.36533 3.25,1.10261 0,1.7333605 3.83805,2.7366605 5.42635,1.41848 0.9208,-0.76419 2.13748,-0.79725 3.95201,-0.10736 1.842,0.7003205 2.62164,0.6703005 2.62164,-0.10095 0,-0.72548 0.51499,-0.67029 1.51876,0.16276 1.23822,1.0276305 1.85353,0.9574905 3.33115,-0.37974 0.99682,-0.9021 2.03873,-1.41386 2.31536,-1.13722 0.27663,0.27663 2.60262,0.11071 5.16885,-0.36872 3.17277,-0.59273 4.66588,-0.53182 4.66588,0.19035 0,0.58411 0.70837,0.18851 1.57416,-0.87911 0.86578,-1.06762 1.28923,-1.37863 0.94098,-0.69113 -0.68499,1.3523 0.95346,1.61428 8.36398,1.33734 3.44097,-0.1286 4.69691,0.29004 5.86247,1.95412 1.47522,2.1061605 1.49396,2.1003505 3.41533,-1.05909 1.60485,-2.63897 2.36193,-3.06896 4.47131,-2.53954 1.50841,0.37859 2.30041,0.25072 1.9508,-0.31496 -0.6719,-1.08715 1.30456,-0.95671 3.17097,0.20927 0.6875,0.42949 1.76953,0.45981 2.40451,0.0674 0.7153,-0.44208 0.88306,-0.27432 0.44098,0.44098 -0.39244,0.63498 -0.34947,1.18324 0.0955,1.21835 0.44496,0.0351 2.38402,0.21675 4.30902,0.40364 1.925,0.18689 3.86698,-0.17934 4.31551,-0.81384 0.47762,-0.67566 0.58273,-0.3142 0.25368,0.87244 -0.51108,1.8430805 -0.17831,1.9918905 3.68449,1.64757 2.33547,-0.20817 4.67381,-0.78241 5.19631,-1.27607 0.5225,-0.49367 1.895,-0.89758 3.05,-0.89758 1.155,0 2.64,-0.54 3.3,-1.2 0.93333,-0.93333 1.2,-0.92022 1.2,0.059 0,0.69246 0.41891,1.00012 0.9309,0.68369 0.512,-0.31643 1.15007,-0.22072 1.41794,0.2127 0.55404,0.89646 10.46777,0.76131 11.38428,-0.15519 0.99717,-0.99718 2.4299,-0.673 1.76688,0.39978 -0.33992,0.55 -0.14148,1 0.44098,1 0.58246,0 1.05902,-0.43588 1.05902,-0.96861 0,-0.53274 0.67242,-0.71059 1.49426,-0.39522 0.82184,0.31537 1.19449,1.08875 0.8281,1.71862 -0.36638,0.62986 0.23522,0.35673 1.3369,-0.60697 2.09915,-1.83626 3.54798,-1.45146 2.71437,0.7209 -0.26871,0.70026 0.27594,1.5665705 1.21034,1.9251305 1.49115,0.57221 1.52876,0.4428 0.30747,-1.05819 -1.22521,-1.5058205 -1.18237,-1.6317705 0.35856,-1.0542705 0.9625,0.36071 1.75,0.26209 1.75,-0.21915 0,-0.48125 1.0125,-0.65309 2.25,-0.38187 1.80765,0.39618 1.9551,0.28248 0.75,-0.57831 -0.90477,-0.64626 -1.03232,-1.07751 -0.32143,-1.08675 0.64822,-0.008 1.85228,0.6584 2.6757,1.48182 0.82342,0.82342 2.14754,1.24754 2.94249,0.94249 0.79495,-0.30505 2.14624,0.14624 3.00287,1.0028705 1.6845,1.68449 3.16429,2.11717 2.26513,0.6623 -0.3043,-0.49237 0.15595,-1.1673705 1.02277,-1.5000005 2.54289,-0.9758 7.23872,-0.69494 7.96255,0.47624 0.39691,0.6422205 1.7401,0.7955505 3.30901,0.3777405 3.87093,-1.0308505 11.54834,-1.1520405 12.22907,-0.19304 0.32349,0.45572 3.80383,0.83875 7.73409,0.85117 3.93026,0.0124 7.38415,0.40805 7.67532,0.87917 0.29117,0.47112 1.83946,0.48087 3.44064,0.0217 1.60118,-0.45921 3.1283,-0.61788 3.39359,-0.35259 0.26529,0.26529 1.89665,-0.24902 3.62525,-1.14292 1.7286,-0.8938905 3.90792,-1.3947405 4.84293,-1.1130005 3.59993,1.0847505 7.20002,1.4248405 7.20002,0.68018 0,-1.10488 9.96304,-0.52477 13.24132,0.7709905 3.09504,1.22333 6.87042,0.44475 4.6119,-0.9510905 -1.1445,-0.70734 6.23357,-0.42017 12.89678,0.5019805 1.2375,0.17126 2.25132,0.0363 2.25294,-0.2999405 0.002,-0.33623 1.57662,-0.64509 3.5,-0.68635 1.92338,-0.0413 3.49706,0.25641 3.49706,0.66151 0,0.8855505 2.01957,0.6574005 3.75,-0.42363 0.72028,-0.44997 1.25,-0.3071 1.25,0.33714 0,0.6149205 0.45318,0.8379605 1.00706,0.4956405 0.55389,-0.3423205 1.27604,0.0785 1.60479,0.93524 0.32874,0.8567 1.00791,1.30412 1.50925,0.99428 0.50134,-0.30985 0.68177,-0.93511 0.40096,-1.38947 -0.28082,-0.45437 0.0493,-1.0125705 0.73368,-1.2404605 1.9594,-0.65248 24.72668,-0.14614 25.43857,0.5657405 0.35146,0.35147 1.12652,0.63214 1.72236,0.62372 0.59583,-0.008 0.40833,-0.44392 -0.41667,-0.9677805 -1.35358,-0.85949 9.07006,-0.62 17,0.3905805 1.375,0.17523 2.91805,0.0789 3.42899,-0.21408 1.00657,-0.5771705 5.77815,-0.5197405 14.82312,0.17843 3.16365,0.2442 5.52116,0.0703 5.2389,-0.3863805 -0.28225,-0.4567 1.10771,-0.38282 3.08881,0.16419 1.98109,0.5470105 4.19209,0.7681205 4.91332,0.4913605 0.72123,-0.27677 1.59335,-0.22119 1.93804,0.1235 1.34624,1.34625 3.57044,0.97376 3.60062,-0.6029905 0.0273,-1.42723 0.23884,-1.3878 1.5,0.2796105 0.80751,1.06762 1.4682,1.45012 1.4682,0.85 0,-0.60012 1.54516,-1.09113 3.43369,-1.09113 1.88853,0 3.88243,-0.2773405 4.4309,-0.6163105 0.54847,-0.33897 1.30956,-0.11093 1.69131,0.50676 0.49179,0.7957305 0.94468,0.7276105 1.55379,-0.23369 0.47283,-0.74622 0.86748,-0.90676 0.877,-0.35676 0.01,0.55 1.61916,1.1144105 3.57696,1.2542505 2.18417,0.156 3.31981,-0.1338 2.93897,-0.7500005 -0.34136,-0.55234 0.10746,-1.00425 0.99738,-1.00425 1.02828,0 1.34431,0.45561 0.86706,1.2500005 -0.51748,0.86134 -0.22886,0.82655 0.92825,-0.1118705 1.01691,-0.82474 2.37447,-1.05793 3.44196,-0.59125 0.9695,0.42385 2.08462,0.7044005 2.47804,0.62344 0.39342,-0.081 1.85592,0.2864705 3.25,0.8164905 1.75372,0.66676 2.53469,0.62727 2.53469,-0.12819 0,-0.61257 0.91053,-0.8537705 2.07421,-0.54946 1.24851,0.32649 2.77449,-0.1578605 3.83334,-1.2167005 2.07026,-2.07027 4.75912,-2.3198 4.75912,-0.44167 0,1.05281 -0.30051,1.06955 -1.49596,0.0833 -1.22084,-1.00716 -1.40567,-0.95826 -1.005,0.26588 0.56616,1.7298005 4.83429,2.6741005 4.83429,1.06955 0,-0.58825 0.47656,-1.06955 1.05902,-1.06955 0.58246,0 0.73364,0.52647 0.33595,1.16994 -0.49297,0.7976505 -0.16751,0.9567605 1.02277,0.5000005 0.96021,-0.36847 2.15903,-0.6699405 2.66405,-0.6699405 0.50501,0 0.9251,-0.7875 0.93352,-1.75 0.0113,-1.2871 0.2308,-1.4104 0.82995,-0.46613 0.48934,0.7712 1.55085,1.00136 2.6583,0.57639 1.44568,-0.55476 1.70503,-0.34621 1.20143,0.96613 -0.71238,1.8564405 0.78256,2.3117905 1.86099,0.56685 0.47683,-0.77153 0.94441,-0.69581 1.54371,0.25 0.56786,0.8962105 0.86488,0.9549305 0.875,0.1729805 0.009,-0.7273405 1.01849,-1.0018705 2.61705,-0.7119905 1.43096,0.25948 3.24126,-0.059 4.02289,-0.70767 1.16158,-0.96402 1.31074,-0.83397 0.81663,0.712 -0.57843,1.8097805 -0.53625,1.8076405 0.9771,-0.0497 0.8699,-1.06762 1.58164,-1.43789 1.58164,-0.82282 0,0.66291 1.23477,0.96204 3.03217,0.73457 2.17828,-0.27568 2.8228,-0.044 2.28868,0.8228205 -0.40893,0.66361 0.4766,0.40869 1.96783,-0.5664905 1.49122,-0.97518 2.71132,-1.38559 2.71132,-0.91203 0,0.47356 1.575,0.92023 3.5,0.9926 2.4719,0.0929 3.5,-0.30009 3.5,-1.33797 0,-0.86678 0.9434,-1.46955 2.3,-1.46955 1.265,0 2.87029,-0.5625 3.56732,-1.25 1.01551,-1.00163003 1.53291,-0.89039003 2.604,0.55984 0.84333,1.14186 1.57844,1.41867 1.9917,0.75 0.36026,-0.58291 1.10501,-1.05984 1.65501,-1.05984 0.55,0 0.72189,0.45 0.38197,1 -0.54797,0.88663 1.55465,1.48792 3.82433,1.09365 0.45338,-0.0788 0.56543,0.2757 0.249,0.78769 -0.31643,0.512 -1.58737,0.73891 -2.82433,0.50426 -2.07131,-0.39294 -2.09099,-0.35591 -0.249,0.46874 1.1,0.4924705 2.30641,0.7193705 2.6809,0.5042205 0.3745,-0.2151505 0.96356,0.0662 1.30902,0.62513 0.34546,0.55897 1.10666,1.01631 1.69154,1.01631 0.62914,0 0.50294,-0.68904 -0.30902,-1.68723 -1.20186,-1.4775205 -1.15493,-1.6057105 0.37756,-1.0313805 1.09511,0.41041 1.75,0.17825 1.75,-0.62039 0,-0.8889 1.65186,-1.25087 5.44263,-1.19265 6.15406,0.0945 7.41782,0.78995 5.54225,3.0498705 -1.06703,1.28569 -1.06628,1.78305 0.004,2.77416 0.78442,0.7262699 1.05595,0.7626499 0.6812,0.0913 -0.34251,-0.614 0.25586,-1.91164 1.32992,-2.88365 1.07406,-0.9720105 1.71508,-2.1520005 1.42448,-2.6221905 -0.2906,-0.4702 0.15845,-0.59135 0.99788,-0.26923 1.34484,0.51606 1.35101,0.76091 0.0519,2.05998 -2.15035,2.1503505 -1.80202,2.6743905 0.6405,0.9635805 1.16314,-0.8146905 2.77587,-1.2275905 3.58385,-0.9175405 1.18904,0.45628 1.21721,0.7193705 0.1478,1.3803005 -0.9117,0.56346 -0.64921,0.76595 0.84688,0.65325 1.19246,-0.0898 1.94773,-0.51991 1.67837,-0.95573 -0.26935,-0.43583 0.88682,-0.8486705 2.56928,-0.9174205 4.2519,-0.17374 4.79575,-0.2784 5.59374,-1.07639 0.8348,-0.8348 6.57583,0.11141 7.88048,1.29883 0.5078,0.4621705 1.49523,0.0694 2.2182,-0.88224 1.21772,-1.60294 1.30507,-1.59265 1.3348,0.15725 0.0244,1.4391305 0.33815,1.6182005 1.35559,0.77379 0.96352,-0.79965 1.62994,-0.79251 2.44866,0.0262 0.83314,0.8331505 1.72167,0.7526005 3.4262,-0.31059 1.26574,-0.78949 3.59557,-1.99758 5.17739,-2.68464 2.67836,-1.16333 2.83945,-1.10925 2.34362,0.78679 -0.68582,2.6225805 0.75837,2.6193005 2.59713,-0.006 1.42918,-2.04045 1.43222,-2.0402 4.3067,0.35115 2.82987,2.3542305 5.16452,2.4569205 6.6112,0.2908 0.48994,-0.73361 0.73979,-0.63979 0.75,0.28161 0.0114,1.03335 1.02371,1.24641 4.01531,0.84516 3.57196,-0.4791 4.01241,-0.30593 4.116,1.6183305 0.091,1.69075 0.2145,1.77795 0.57333,0.40484 0.25152,-0.9625 0.53979,-1.7500005 0.6406,-1.7500005 0.1008,0 1.65149,0.4210805 3.44597,0.9357305 2.02572,0.58097 3.04344,0.58097 2.68438,0 -0.60643,-0.9812905 -0.0571,-1.1357305 4.03976,-1.1357305 10.55948,0 12.58919,0.24801 11.86706,1.4500005 -0.46932,0.78118 -0.0878,0.71153 1.0172,-0.1857 1.18669,-0.9635505 1.98975,-1.0876905 2.44196,-0.37747 0.80389,1.26258 7.17378,0.49953 7.17378,-0.8593505 0,-0.52003 0.5625,-0.59411 1.25,-0.16462 2.00688,1.2537405 3.74877,1.2531105 3.76531,-10e-4 0.0104,-0.79173 0.24921,-0.82359 0.75,-0.10008 0.96486,1.3939705 8.38681,1.2818105 7.85038,-0.11863 -0.27281,-0.71222 1.27385,-0.83115 4.73968,-0.36446 2.82955,0.38102 5.57213,0.29426 6.09463,-0.19279 1.5667,-1.46041 2.88862,-0.99849 1.59685,0.55799 -0.97944,1.1801505 -0.83196,1.4159705 0.80828,1.2924205 1.10347,-0.0831 1.83371,-0.43041 1.62276,-0.7717405 -0.4479,-0.72471 11.49847,-0.3212 12.23286,0.4131905 0.27219,0.2722 1.57363,0.0848 2.89207,-0.4165105 1.54928,-0.58903 2.39718,-0.554 2.39718,0.099 0,0.6582105 0.70214,0.6346505 2.01427,-0.0676 1.49069,-0.79779 1.94558,-0.77444 1.75,0.0898 -0.14535,0.6423005 0.29854,1.3741705 0.98641,1.6263805 0.75574,0.27709 1.03551,-0.10216 0.70697,-0.95833 -0.32436,-0.8452705 0.0788,-1.4169005 0.99932,-1.4169005 0.84867,0 1.54303,0.36342 1.54303,0.8076 0,0.9447105 8.04718,0.5659805 9.70176,-0.4566 0.62008,-0.38324 1.30453,-0.16545 1.521,0.48397 0.23558,0.7067105 2.46203,1.1747905 5.54575,1.1658905 2.83369,-0.008 4.91845,0.3633 4.63281,0.82548 -0.28564,0.46218 -0.0693,0.84033 0.48065,0.84033 0.55,0 1.2924,-0.47312 1.64978,-1.05137 0.41267,-0.66772 3.90084,-0.87771 9.55902,-0.57546 6.17302,0.32976 8.90923,0.13327 8.90923,-0.63975 0,-0.6136205 0.66069,-0.24217 1.4682,0.82545 0.9826,1.29912 1.47871,1.4872 1.5,0.56869 0.0263,-1.13596 0.3034,-1.14704 1.60802,-0.0643 1.19793,0.9942 1.75207,1.02361 2.30897,0.12252 0.55242,-0.89384 1.20694,-0.83888 2.65957,0.2233 1.25167,0.91525 2.5004,1.10195 3.56379,0.53284 1.90499,-1.01952 5.52126,-0.49403 7.4148,1.0774699 1.0374,0.86096 1.20435,0.65536 0.78134,-0.9622299 -0.30575,-1.16919 -0.056,-2.05715 0.57868,-2.05715 0.61415,0 1.11663,0.46583 1.11663,1.03519 0,0.68439 0.71385,0.65314 2.10657,-0.0922 1.15861,-0.62007 4.08361,-0.97016 6.5,-0.77798 2.86149,0.22758 4.39343,-0.0541 4.39343,-0.80778 0,-0.6558605 1.51635,-1.1572105 3.5,-1.1572105 1.925,0 3.5,0.45315 3.5,1.0069905 0,0.55384 0.69837,0.739 1.55194,0.41145 0.85356,-0.32754 1.31561,-0.21314 1.02676,0.25422 -0.59874,0.96878 7.65551,1.04075 8.4213,0.0734 1.18142,-1.4923405 6.85848,-1.8215405 7.98589,-0.46309 0.63819,0.76897 1.80244,1.15172 2.58722,0.85057 0.87105,-0.33425 1.42689,0.0784 1.42689,1.05944 0,0.88385 0.43588,1.6069899 0.96862,1.6069899 0.53273,0 0.68126,-0.7488199 0.33006,-1.6640399 -0.43997,-1.14654 -0.26109,-1.43076 0.57519,-0.91391 0.66756,0.41257 1.90332,0.17783 2.74615,-0.52166 1.24137,-1.0302505 1.68412,-1.0263205 2.3312,0.0207 0.56406,0.91267 1.00027,0.96644 1.48447,0.18299 0.41798,-0.67631 1.34523,-0.785 2.375,-0.27839 0.92912,0.4571 2.91736,0.711 4.41832,0.56423 1.50095,-0.14676 3.0197,0.20351 3.375,0.77839 0.43226,0.69941 0.89275,0.64596 1.39181,-0.16153 0.8865,-1.43438 7.5366,-1.61437 9.28122,-0.25119 0.67263,0.52556 2.26118,1.21016 3.53011,1.52132 1.77546,0.43538 2.0665,0.27579 1.26288,-0.6925 -0.82161,-0.98999 0.44201,-1.26706 5.92657,-1.2995 3.83397,-0.0227 6.74344,0.32671 6.46551,0.77642 -0.27794,0.44971 0.40439,0.74912 1.51628,0.66537 1.11188,-0.0838 2.02161,-0.50653 2.02161,-0.93948 0,-0.43296 2.7,-0.7872 6,-0.7872 3.33333,0 6,0.44445 6,1 0,0.55 0.47656,1 1.05902,1 0.58246,0 0.85033,-0.3375 0.59528,-0.75 -0.25506,-0.4125 0.95589,-0.67213 2.69098,-0.57696 1.7351,0.0952 3.15472,0.23867 3.15472,0.3189 0,0.0802 1.28641,0.31437 2.85868,0.52033 1.57228,0.20596 3.63271,1.07495 4.57874,1.9310999 0.94603,0.85615 2.27369,1.55663 2.95034,1.55663 0.67665,0 0.95534,0.44485 0.61932,0.98855 -0.69838,1.13 2.30411,0.23396 4.24292,-1.26623 0.87877,-0.67996 1.25,-0.50538 1.25,0.58785 0,0.85528 0.94114,1.85376 2.09142,2.21885 1.443,0.45799 1.93708,1.25398 1.59362,2.56739 -0.28747,1.09927 0.015,1.90359 0.71589,1.90359 0.71552,0 1.13222,-1.17679 1.0152,-2.86705 -0.21036,-3.0384 1.42694,-7.0496199 1.68698,-4.13295 0.0735,0.825 0.0897,1.80989 0.0358,2.18865 -0.10794,0.75878 3.295,0.27927 4.85343,-0.68389 0.56266,-0.34774 0.72951,0.0566 0.38926,0.9433 -0.56537,1.47334 -0.27356,1.62058 3.86844,1.95194 1.72342,0.13788 2.66947,2.77044 1.68115,4.67816 -0.67273,1.29855 -0.20754,1.55791 2.62564,1.4639 1.89371,-0.0628 3.44321,0.2395 3.44321,0.67185 0,0.43235 -0.675,0.78609 -1.5,0.78609 -0.825,0 -1.5,0.675 -1.5,1.5 0,0.825 0.675,1.5 1.5,1.5 0.825,0 1.5,-0.5051 1.5,-1.12244 0,-0.74522 0.5366,-0.67703 1.5969,0.2029 1.4532,1.20608 1.4377,1.38121 -0.1725,1.94606 -1.7548,0.61553 -2.8565,4.97348 -1.2573,4.97348 0.7687,0 1.2186,-1.50098 0.9633,-3.21401 -0.059,-0.39271 0.5631,-0.45706 1.3816,-0.14301 2.0023,0.76837 1.8739,1.69774 -0.5357,3.87841 -1.5458,1.39891 -1.7229,2.02224 -0.75,2.63967 0.9285,0.58925 0.7994,0.81247 -0.4763,0.82363 -0.9625,0.008 -1.75,0.53506 -1.75,1.1703 0,0.64688 -0.8988,0.3416 -2.04307,-0.69393 -1.92263,-1.73996 -2.00245,-1.74315 -1.35429,-0.0541 0.67056,1.74744 -0.91017,3.56238 -3.10268,3.56238 -0.55,0 -0.38515,-0.38952 0.36633,-0.8656 1.0827,-0.68592 1.11892,-1.25361 0.1745,-2.73469 -1.01902,-1.59807 -1.11294,-1.61533 -0.64772,-0.11909 0.67435,2.16886 -0.9529,2.33955 -1.77906,0.18662 -0.32996,-0.85986 -1.06044,-1.27876 -1.6233,-0.9309 -0.56286,0.34786 -0.70465,1.16389 -0.3151,1.81338 0.38955,0.6495 -0.0744,0.54563 -1.03103,-0.23083 -1.09416,-0.88809 -1.35084,-1.6518 -0.69203,-2.05897 0.68539,-0.42359 0.51108,-1.31795 -0.50444,-2.58827 -1.50799,-1.88634 -1.53426,-1.87764 -0.93254,0.30897 0.47371,1.72143 0.19222,2.26855 -1.19822,2.32895 -1.05006,0.0456 -1.28962,0.29191 -0.56739,0.58333 1.32934,0.5364 1.76751,4.33772 0.5,4.33772 -0.4125,0 -0.75,1.08203 -0.75,2.40451 0,1.32248 0.3375,2.19592 0.75,1.94098 0.4125,-0.25494 0.75,-1.11196 0.75,-1.90451 0,-0.79254 0.7875,-1.4765 1.75,-1.51993 1.04544,-0.0472 1.24674,-0.28201 0.5,-0.58333 -0.6875,-0.27741 -1.25,-0.97199 -1.25,-1.5435 0,-0.60113 0.6703,-0.48281 1.5903,0.28072 1.35024,1.1206 1.37862,1.47873 0.18803,2.37245 -2.01791,1.51474 -2.86833,4.34323 -1.47215,4.89638 0.6566,0.26015 -0.43647,0.23962 -2.42905,-0.0456 -1.99258,-0.28522 -3.90023,-0.0698 -4.23924,0.47872 -0.339,0.54852 0.16629,0.93561 1.12287,0.86021 1.29416,-0.10201 1.66381,0.50267 1.44449,2.36291 -0.23308,1.97692 -0.0794,2.18615 0.73469,1 0.71982,-1.04887 1.03404,-1.11661 1.04475,-0.22525 0.008,0.70111 -1.10969,1.70247 -2.48469,2.22525 -2.96874,1.12871 -3.30513,2.04021 -0.55768,1.5111 1.25106,-0.24093 1.77007,0.0748 1.45832,0.88723 -0.68845,1.79406 -4.96251,1.2575 -4.64508,-0.58313 0.14056,-0.81503 -0.42846,-1.48187 -1.26449,-1.48187 -1.01891,0 -1.32821,0.60442 -0.93817,1.83333 0.32916,1.0371 0.0927,1.83333 -0.54453,1.83333 -0.61952,0 -0.86751,-0.4189 -0.55108,-0.9309 0.31644,-0.512 0.11065,-1.21809 -0.45729,-1.5691 -0.56794,-0.35101 -0.77373,-1.0571 -0.45729,-1.5691 0.31643,-0.51199 -0.14207,-0.9309 -1.01888,-0.9309 -1.26626,0 -1.38125,0.39789 -0.55901,1.93426 1.39211,2.60119 1.30928,3.73984 -0.16482,2.26574 -0.66,-0.66 -1.8401,-1.2 -2.62244,-1.2 -1.11347,0 -1.1672,0.30756 -0.24736,1.4159 0.93719,1.12924 0.76985,1.54453 -0.82652,2.0512 -1.34837,0.42795 -1.80706,1.18971 -1.40547,2.33409 0.41179,1.17346 0.26757,1.38957 -0.46636,0.69881 -0.58437,-0.55 -1.26432,-2.125 -1.51099,-3.5 -0.32674,-1.8213 -0.48547,-1.48195 -0.58468,1.25 -0.0749,2.0625 -0.61274,3.75 -1.1952,3.75 -0.58246,0 -0.7809,-0.45 -0.44098,-1 0.33992,-0.55 0.18962,-1 -0.33399,-1 -0.52362,0 -1.2305,0.72568 -1.57085,1.61263 -0.49919,1.30086 -0.9046,1.37545 -2.09699,0.38585 -1.21694,-1.00997 -1.64546,-0.80896 -2.42478,1.13738 -0.52064,1.30028 -0.97514,1.77132 -1.01,1.04675 -0.0433,-0.9005 -0.77539,-1.09632 -2.31339,-0.6188 -3.2918,1.02204 -7.85764,4.45302 -7.24503,5.44424 0.29067,0.47031 -0.46927,1.55396 -1.68875,2.40812 -1.70756,1.19603 -2.39193,1.27034 -2.97724,0.32329 -0.57541,-0.93103 -1.07321,-0.83978 -2.04949,0.37568 -0.70922,0.88296 -2.13069,1.89975 -3.15882,2.25953 -1.56927,0.54914 -1.79218,0.25054 -1.38867,-1.86026 0.26436,-1.38293 0.0665,-2.51441 -0.43969,-2.51441 -0.50619,0 -0.64223,-0.45 -0.30231,-1 0.33992,-0.55 -0.11008,-1 -1,-1 -0.96448,0 -1.36302,-0.5049 -0.98668,-1.25 0.34724,-0.6875 -0.50445,0.0801 -1.89264,1.70579 -1.87636,2.19736 -2.24839,3.28787 -1.44989,4.25 0.82147,0.98981 0.5749,1.29421 -1.04835,1.29421 -1.25566,0 -2.12244,0.63669 -2.12244,1.55902 0,0.85746 0.45,1.2809 1,0.94098 0.55,-0.33992 1,0.11008 1,1 0,0.88992 -0.4125,1.3631 -0.91667,1.0515 -0.50416,-0.31159 -0.91666,1.45847 -0.91666,3.93347 0,2.475 0.41984,4.75948 0.93298,5.07662 0.51313,0.31713 0.70369,0.9476 0.42345,1.40103 -0.28023,0.45343 0.0993,2.55984 0.84344,4.6809 1.82773,5.209791 0.71502,13.719351 -2.17136,16.605731 -5.08723,5.08723 -13.38407,1.45742 -15.15944,-6.63214 -0.92097,-4.19642 -0.77399,-5.721206 1.04548,-10.845881 2.30121,-6.48153 2.01781,-14.77123 -0.50498,-14.77123 -0.7902,0 -1.19475,-0.96984 -1.03013,-2.46953 0.1491,-1.35824 -0.0253,-2.39409 -0.38751,-2.30188 -0.36223,0.0922 -1.72728,-0.19465 -3.03345,-0.63748 -1.63516,-0.55436 -2.64265,-0.38247 -3.23468,0.55188 -0.6181,0.97548 -0.88391,0.65412 -0.94544,-1.14299 -0.0597,-1.74426 -0.29108,-2.0402 -0.76532,-0.979 -0.37384,0.83656 -1.35471,1.50002 -2.17971,1.47436 -0.825,-0.0257 -2.09587,0.6399 -2.82416,1.479 -0.72828,0.8391 -1.06837,1.01029 -0.75574,0.38043 0.31263,-0.62987 -0.13252,-1.41419 -0.98923,-1.74294 -0.8567,-0.32875 -1.30349,-1.00893 -0.99287,-1.51153 0.31062,-0.50259 -0.33586,-0.67828 -1.43662,-0.39043 -1.10076,0.28786 -2.00138,0.0828 -2.00138,-0.45574 0,-0.53852 -1.21789,-0.84543 -2.70642,-0.68203 -1.48853,0.1634 -3.98256,-0.45675 -5.54229,-1.37811 -2.49071,-1.47129 -2.95057,-1.49376 -3.77827,-0.1846 -0.51832,0.81983 -0.94929,0.97493 -0.95771,0.34468 -0.009,-0.70134 -1.55972,-1.06705 -3.9962,-0.94265 -2.18948,0.11179 -4.17896,-0.27256 -4.42105,-0.85409 -0.25728,-0.61804 -0.47297,-0.53799 -0.51911,0.19265 -0.0911,1.44295 -3.07895,1.73166 -3.07895,0.29751 0,-0.96815 -5.16539,-0.68136 -6.88651,0.38235 -0.51847,0.32043 -1.17185,0.0173 -1.45195,-0.67363 -0.32974,-0.81337 -0.80051,-0.9037 -1.33541,-0.25623 -1.12155,1.3576 -6.32613,1.82592 -6.32613,0.56924 0,-0.55356 -0.74882,-0.71912 -1.66404,-0.36791 -1.11889,0.42935 -1.42717,0.25526 -0.94099,-0.53139 0.43396,-0.70216 0.0997,-1.16994 -0.83595,-1.16994 -0.85746,0 -1.55902,0.675 -1.55902,1.5 0,1.63056 -3.15998,1.89955 -6.5,0.5533 -1.13931,-0.45921 -2.53793,-0.37627 -3.25,0.19273 -0.84041,0.67156 -1.25,0.6551 -1.25,-0.0503 0,-1.44716 -3.03912,-1.99663 -5.75,-1.0396 -1.76638,0.62359 -2.25715,0.4235 -2.28327,-0.93092 -0.0292,-1.51635 -0.24113,-1.4782 -1.75,0.31509 -1.63972,1.94882 -6.28453,2.72589 -7.71863,1.29132 -0.36747,-0.36759 -2.01396,-0.19919 -3.65888,0.37423 -2.04324,0.71228 -3.31561,0.71772 -4.01616,0.0172 -0.63119,-0.63119 -2.13987,-0.70579 -3.92424,-0.19404 -1.88905,0.54177 -2.89882,0.4647 -2.89882,-0.22127 0,-0.61084 -0.71012,-0.47662 -1.69196,0.31981 -1.14966,0.93255 -1.45126,0.9718 -0.94098,0.12244 0.79117,-1.3169 -0.54006,-1.74366 -1.72934,-0.55439 -1.08081,1.08081 -3.63772,1.23257 -3.63772,0.21591 0,-0.50134 -0.47656,-0.91152 -1.05902,-0.91152 -0.58246,0 -0.80012,0.41891 -0.48369,0.9309 0.31644,0.512 0.11482,1.21552 -0.44804,1.56339 -0.56286,0.34786 -1.29849,-0.0845 -1.63474,-0.96071 -0.37977,-0.98968 -1.29223,-1.37708 -2.40878,-1.0227 -0.98858,0.31376 -2.06207,0.14225 -2.38554,-0.38113 -0.67366,-1.09001 -2.44523,-0.9697 -4.48771,0.30474 -1.0827,0.67557 -1.2838,0.40514 -0.87142,-1.17181 0.56969,-2.17853 -0.0372,-2.25454 -4.22106,-0.52873 -1.375,0.56717 -2.90703,0.78953 -3.40451,0.49413 -0.49748,-0.2954 -0.58342,-0.0176 -0.19098,0.61741 0.41622,0.67346 0.0987,1.15451 -0.76216,1.15451 -0.81163,0 -1.62568,-0.41237 -1.80902,-0.91638 -0.18798,-0.51677 -1.96857,-0.35013 -4.08333,0.38217 -2.0625,0.71419 -3.75,0.93456 -3.75,0.4897 0,-0.44486 0.7875,-1.01464 1.75,-1.26616 1.31691,-0.34415 1.19317,-0.48603 -0.5,-0.57333 -1.2375,-0.0638 -2.25,0.46047 -2.25,1.16505 0,0.79426 -1.28133,1.26924 -3.372,1.25 -2.1878,-0.0201 -3.21176,-0.44926 -2.91572,-1.22189 0.43457,-1.13415 -3.71611,-1.10001 -14.16488,0.11653 -2.81418,0.32765 -2.86106,0.27254 -1,-1.17549 1.9279,-1.50005 1.9273,-1.50955 -0.0474,-0.75139 -2.85266,1.09525 -7.78478,0.6524 -8.69541,-0.78075 -0.68909,-1.08449 -1.18744,-0.3403 -0.9572,1.42938 0.0463,0.35609 -0.80278,0.41548 -1.8869,0.13198 -1.08413,-0.28351 -2.65462,0.0518 -3.48998,0.74506 -0.83536,0.69329 -1.80797,0.9714 -2.16134,0.61802 -0.35338,-0.35337 -0.1925,-0.6425 0.3575,-0.6425 0.55,0 1,-0.69436 1,-1.54303 0,-0.91961 -0.57175,-1.32363 -1.41512,-1 -0.77832,0.29867 -1.62988,0.54303 -1.89235,0.54303 -0.26248,0 -0.24944,0.36858 0.029,0.81906 0.27841,0.45048 -0.82003,0.6244 -2.44098,0.3865 -1.62099,-0.23791 -2.94722,0.0235 -2.94722,0.58094 0,1.39619 -7.16731,1.29124 -8.94196,-0.13093 -1.09754,-0.87956 -1.27279,-0.87351 -0.73369,0.0253 0.38955,0.64949 0.25093,1.46355 -0.30804,1.80901 -0.55897,0.34546 -1.01631,0.1997 -1.01631,-0.32391 0,-0.52362 -0.69837,-1.22002 -1.55194,-1.54757 -0.85356,-0.32754 -1.33474,-0.2441 -1.06928,0.18543 0.26547,0.42953 -0.49299,0.85445 -1.68545,0.94428 -1.69015,0.12731 -1.843,-0.0376 -0.69333,-0.74815 1.13642,-0.70234 0.9558,-0.87237 -0.78722,-0.74107 -1.3215,0.0995 -2.06787,0.67633 -1.79508,1.3872 0.31051,0.80918 -0.2675,1.04811 -1.72538,0.71323 -1.20578,-0.27698 -2.86732,-0.58364 -3.69232,-0.68148 -0.825,-0.0978 -1.81329,-0.61527 -2.19621,-1.14985 -0.39711,-0.55441 -0.98008,-0.23221 -1.35698,0.75 -0.36343,0.94708 -1.27352,1.72197 -2.02241,1.72197 -0.7995,0 -1.124,-0.61926 -0.78603,-1.5 0.37368,-0.97378 -0.0257,-1.5 -1.13837,-1.5 -1.16533,0 -1.51605,0.5158 -1.09565,1.61134 0.43818,1.14188 0.18734,1.44595 -0.86098,1.04368 -0.81363,-0.31222 -1.74983,-0.12998 -2.08044,0.40497 -0.33062,0.53495 -1.1135,0.65597 -1.73973,0.26894 -1.73398,-1.07166 -5.7232,-1.30449 -5.7232,-0.33403 0,0.47215 0.7875,1.02215 1.75,1.22222 1.42247,0.29568 1.32864,0.47911 -0.50138,0.98006 -1.44785,0.39634 -2.01939,0.24094 -1.60138,-0.43543 0.41791,-0.67617 -0.29576,-0.87093 -1.99862,-0.54541 -1.45674,0.27848 -2.64862,0.11872 -2.64862,-0.35501 0,-0.47373 1.0125,-0.91353 2.25,-0.97733 1.76681,-0.0911 1.86387,-0.2162 0.45196,-0.58258 -0.98892,-0.25661 -2.45142,0.0757 -3.25,0.73845 -0.79858,0.66276 -1.45196,0.7764 -1.45196,0.25254 0,-0.52387 -1.60727,-0.89916 -3.57171,-0.83398 -1.96445,0.0652 -3.80232,-0.2546 -4.08416,-0.71063 -0.28184,-0.45604 -1.39339,-0.54955 -2.47009,-0.20782 -1.61816,0.51358 -8.82879,0.63435 -15.87404,0.26586 -0.825,-0.0431 -2.08157,-0.53804 -2.79238,-1.09976 -0.8955,-0.70768 -1.66323,-0.64763 -2.5,0.19555 -0.9465,0.95374 -0.79375,1.05919 0.70642,0.48768 1.23554,-0.4707 1.68389,-0.35678 1.26478,0.32135 -0.84621,1.36921 -5.67882,2.29107 -5.67882,1.08328 0,-0.51079 -0.96807,-0.62146 -2.15127,-0.24593 -1.71046,0.54288 -2.02425,0.35178 -1.53139,-0.93261 0.49727,-1.29586 -0.0662,-1.6154 -2.84872,-1.6154 -2.76778,0 -3.46862,0.3925 -3.46862,1.94258 0,1.40431 -0.55419,1.83586 -2,1.55742 -1.1,-0.21184 -2,0.039 -2,0.55742 0,0.51842 -0.675,0.94258 -1.5,0.94258 -1.81631,0 -1.99117,-1.63514 -0.25,-2.33772 0.96135,-0.38791 0.94772,-0.52261 -0.059,-0.58333 -0.71998,-0.0434 -1.03092,-0.52895 -0.691,-1.07895 1.047,-1.69408 -0.69405,-1.10427 -2.21391,0.75 -0.78892,0.9625 -1.15522,1.1968 -0.814,0.52067 0.79008,-1.56555 -1.1564,-5.27553 -2.75727,-5.25536 -0.76604,0.01 -0.66068,0.37908 0.28518,1 2.37213,1.55721 -0.22981,2.61092 -5.98714,2.42463 -2.75707,-0.0892 -5.01286,0.23388 -5.01286,0.71798 0,1.03952 -4.95008,-5.5e-4 -6.75,-1.41825 -0.87091,-0.68597 -1.25157,-0.56833 -1.25518,0.38789 -0.003,0.90222 -1.41899,1.4536 -4.13173,1.60932 -2.2696,0.13028 -4.75633,0.75956 -5.52607,1.39839 -1.09533,0.90903 -1.71187,0.74886 -2.83647,-0.73688 -1.40363,-1.85438 -1.43951,-1.85203 -1.54769,0.10161 -0.0609,1.1 -0.33773,1.4375 -0.61514,0.75 -0.59628,-1.47773 -3.33772,-1.69227 -3.33772,-0.2612 0,1.89446 -4.86666,0.62022 -5.54508,-1.45187 -0.57083,-1.74346 -0.73254,-1.79365 -1.1224,-0.34841 -0.56029,2.07704 -3.0569,2.72454 -6.20416,1.60906 -1.56427,-0.55442 -2.92597,-0.40772 -4,0.43093 -1.38519,1.08162 -1.46205,1.04749 -0.51467,-0.22851 1.29604,-1.74559 1.45429,-5.16005 0.20333,-4.38691 -0.4673,0.28881 -0.66454,0.83151 -0.43829,1.20601 0.22624,0.3745 -0.21043,1.25554 -0.97037,1.95789 -1.13175,1.04595 -1.68778,0.91954 -3.07342,-0.69878 -1.70537,-1.99172 -3.943,-1.87108 -2.69674,0.1454 0.40038,0.64783 0.20538,0.79775 -0.48369,0.37188 -0.63498,-0.39244 -1.15451,-1.36196 -1.15451,-2.15451 0,-1.87271 -1.74369,-1.84015 -3.65205,0.0682 -0.83005,0.83006 -1.97095,1.22381 -2.53533,0.875 -0.65195,-0.40292 -0.53139,-0.94768 0.33062,-1.49387 0.74622,-0.47283 0.88426,-0.86658 0.30676,-0.875 -0.5775,-0.008 -1.60123,0.53592 -2.27496,1.20964 -0.96661,0.96662 -1.6415,0.96483 -3.2,-0.009 -1.08627,-0.67836 -1.97504,-0.86878 -1.97504,-0.42312 0,1.27389 -7.41321,1.1561 -8.20833,-0.13042 -0.48938,-0.79184 -1.176,-0.52801 -2.19128,0.84195 -1.28899,1.73931 -1.75384,1.82689 -3.62528,0.68308 -1.83269,-1.12014 -2.71925,-1.02878 -6.06091,0.62454 -3.02888,1.49857 -3.9142,1.62776 -3.9142,0.5712 0,-0.98233 -1.23566,-1.30023 -4.40452,-1.13314 -3.2079,0.16915 -4.99392,-0.30116 -6.57398,-1.73109 -1.30985,-1.1854 -2.04109,-1.43431 -1.84548,-0.62821 0.18046,0.74369 -0.67273,1.5037 -1.92602,1.71566 -1.2375,0.2093 -2.25,-0.057 -2.25,-0.59174 0,-0.58246 -1.01323,-0.51063 -2.52713,0.17914 -1.84977,0.84282 -2.82426,0.8543 -3.63571,0.0428 -0.81145,-0.81145 -1.50398,-0.71319 -2.58377,0.3666 -1.30025,1.30024 -1.64021,1.26297 -2.86674,-0.31429 -1.28858,-1.65704 -1.34646,-1.65996 -0.78211,-0.0395 0.34121,0.97979 0.12223,1.75 -0.49755,1.75 -0.60885,0 -1.11388,-0.5625 -1.1223,-1.25 -0.0105,-0.85579 -0.24701,-0.9062 -0.75,-0.15984 -0.43682,0.64816 -3.67412,1.01945 -7.98469,0.91576 -3.9875,-0.0959 -7.25,0.20101 -7.25,0.65984 0,0.45883 -0.47656,0.83424 -1.05902,0.83424 -0.58246,0 -0.8504,-0.3375 -0.59543,-0.75 0.25497,-0.4125 -1.96847,-0.71102 -4.94098,-0.66338 -3.88698,0.0623 -5.40457,-0.28871 -5.40457,-1.25 0,-0.73514 -0.675,-1.33662 -1.5,-1.33662 -0.825,0 -1.5,0.45 -1.5,1 0,2.09076 -2.00432,0.89211 -2.09019,-1.25 -0.069,-1.72067 -0.31293,-1.47779 -1.03699,1.0324 -0.72623,2.51774 -1.63704,3.42045 -3.90981,3.875 -1.62965,0.32593 -2.96301,1.00409 -2.96301,1.50703 0,0.50293 -0.63192,0.33418 -1.40427,-0.375 -0.77235,-0.70919 -1.39406,-1.51443 -1.38158,-1.78943 0.17376,-3.82833 -1.80593,-4.80822 -4.42427,-2.18988 -0.65444,0.65444 -1.77107,1.18988 -2.48141,1.18988 -0.71034,0 -1.85358,0.9 -2.54054,2 -0.68696,1.1 -1.64588,2 -2.13092,2 -0.48505,0 -0.36732,-0.62003 0.26162,-1.37786 0.90046,-1.08498 0.69714,-1.49458 -0.95654,-1.92703 -1.52974,-0.40004 -1.95288,-0.1656 -1.55808,0.86322 0.43914,1.14439 0.18842,1.1916 -1.32123,0.2488 -1.02477,-0.63998 -1.63498,-1.75839 -1.35601,-2.48536 0.27896,-0.72697 0.0466,-1.32177 -0.51645,-1.32177 -0.56301,0 -1.25063,0.5625 -1.52804,1.25 -0.40351,1 -0.52017,1 -0.58333,0 -0.12263,-1.94166 -1.87375,-1.47188 -2.55878,0.68646 -0.4391,1.38346 -1.38645,1.86464 -3.31739,1.68496 -1.48653,-0.13832 -2.59028,-0.78473 -2.45278,-1.43646 0.31779,-1.5063 -0.27455,-1.49263 -2.81905,0.065 -1.72572,1.05644 -2.19768,0.97576 -3.04789,-0.52103 -0.55329,-0.97407 -1.42832,-1.51001 -1.94452,-1.19098 -0.5162,0.31902 -0.93854,0.10349 -0.93854,-0.47897 0,-1.65566 -2.79858,-1.24135 -3.80883,0.56387 -1.07758,1.92552 -10.19117,3.06989 -10.19117,1.27967 0,-0.6141 0.65208,-0.86631 1.44907,-0.56047 0.94137,0.36123 1.26465,0.0754 0.92268,-0.8157 -0.28951,-0.75446 -1.18997,-1.62639 -2.00101,-1.93762 -0.83465,-0.32028 -1.20758,-0.13378 -0.8593,0.42975 0.33843,0.54758 -0.2007,1.25028 -1.19806,1.56154 -0.99736,0.31127 -2.59477,0.98309 -3.54981,1.49294 -2.16801,1.1574 -3.04037,1.18389 -2.35285,0.0715 0.29082,-0.47055 -0.58263,-0.64309 -1.94098,-0.38342 -1.35836,0.25966 -2.46974,0.86966 -2.46974,1.35554 0,0.48588 -0.92656,0.88342 -2.05902,0.88342 -1.13246,0 -1.81241,-0.39901 -1.51101,-0.88669 0.30141,-0.48768 -0.12204,-1.44278 -0.94098,-2.12245 -1.24573,-1.03386 -1.50189,-0.84816 -1.56794,1.1367 -0.0434,1.30484 -0.30472,1.81354 -0.58067,1.13043 -0.3594,-0.88969 -1.03178,-0.95833 -2.3703,-0.24198 -1.36009,0.7279 -2.85091,0.5316 -5.47843,-0.72138 -3.13543,-1.49518 -3.73149,-1.52909 -4.53544,-0.25802 -0.68992,1.0908 -0.92948,1.12912 -0.9409,0.15053 -0.009,-0.78454 -0.92074,-1.18696 -2.26531,-1 -1.3502,0.18775 -2.15555,-0.17045 -2.01382,-0.89568 0.15704,-0.80359 -1.28391,-0.55695 -4.30041,0.73607 -2.49512,1.06954 -4.26234,1.50088 -3.92716,0.95854 0.33518,-0.54234 0.13287,-1.04232 -0.44959,-1.11107 -0.58246,-0.0687 -1.62152,-0.21104 -2.30902,-0.31621 -0.6875,-0.10517 -2.01019,0.1773 -2.93931,0.6277 -0.97711,0.47367 -1.95058,0.39619 -2.30902,-0.18378 -0.34084,-0.55149 -1.32325,-1.00271 -2.18313,-1.00271 -1.34515,0 -1.37181,0.24433 -0.19098,1.75 1.25646,1.60211 1.21811,1.62867 -0.45378,0.3143 -1.58695,-1.24759 -1.9596,-1.24759 -2.84433,0 -0.82099,1.15772 -0.90912,1.09686 -0.45517,-0.3143 0.62463,-1.94174 -0.12505,-2.19318 -2.34789,-0.78747 -0.97108,0.61411 -1.74484,0.52363 -2.269,-0.26531 -0.5777,-0.86955 -1.20074,-0.66594 -2.27639,0.74391 -1.38405,1.81405 -2.04288,1.11744 -1.59942,-1.69113 0.18414,-1.16621 -2.34912,-0.88246 -3.6392,0.40762 -0.87682,0.87682 -1.53174,0.84712 -2.7,-0.12244 -0.84831,-0.70404 -1.54238,-0.8472 -1.54238,-0.31814 0,0.52906 -1.125,1.47452 -2.5,2.10101 -1.92785,0.87838 -2.5035,0.8579 -2.51531,-0.0895 -0.01,-0.79056 -0.36092,-0.69379 -0.98469,0.27143 -0.53316,0.825 -0.97627,0.98999 -0.98469,0.36663 -0.008,-0.62335 -1.02781,-1.38847 -2.26531,-1.70026 -2.12785,-0.53612 -2.14857,-0.49105 -0.38167,0.83013 1.77242,1.32532 1.74675,1.38911 -0.5,1.24281 -1.30258,-0.0848 -2.93737,-0.93377 -3.63286,-1.88655 -0.82402,-1.12886 -2.04327,-1.53901 -3.5,-1.17739 -1.22951,0.30522 -3.99215,0.7073 -6.1392,0.89351 -2.14704,0.18622 -4.37454,0.8094 -4.95,1.38485 -0.57545,0.57545 -1.74377,1.03938 -2.59627,1.03096 -1.3658,-0.0135 -1.37174,-0.13052 -0.05,-0.98469 1.29735,-0.83841 1.27484,-0.97144 -0.16667,-0.98469 -0.91666,-0.008 -1.82138,0.44885 -2.01049,1.01617 -0.23197,0.69592 -1.40342,0.66209 -3.60098,-0.10398 -3.43738,-1.19828 -8.69231,-0.49771 -7.74645,1.03272 0.30647,0.49587 0.0303,1.22721 -0.61361,1.62519 -0.71366,0.44107 -0.90345,0.291 -0.48607,-0.38434 0.47968,-0.77613 -1.23936,-1.03002 -5.73996,-0.84774 -4.95438,0.20066 -6.30994,-0.0388 -5.92325,-1.04656 0.28458,-0.7416 -0.19355,-1.30677 -1.10553,-1.30677 -0.88385,0 -1.60699,0.43345 -1.60699,0.96323 0,0.52978 -2.8125,0.99255 -6.25,1.02839 -9.47088,0.0987 -11.75,0.33312 -11.75,1.20838 0,0.44 0.87344,0.8 1.94098,0.8 1.06754,0 2.16098,0.35596 2.42986,0.79101 0.26888,0.43506 -1.08256,0.60756 -3.0032,0.38333 -2.46406,-0.28766 -3.33581,-0.81491 -2.96124,-1.79101 0.30776,-0.802 -0.10476,-1.38333 -0.98162,-1.38333 -0.85645,0 -1.38501,0.71404 -1.21862,1.64626 0.16161,0.90544 -0.17437,1.81151 -0.74663,2.01349 -0.57226,0.20198 -1.02226,-0.87634 -1,-2.39626 0.0364,-2.48378 -0.26318,-2.73032 -2.95953,-2.43574 -1.65,0.18026 -3.82181,1.30526 -4.82625,2.5 l -1.82626,2.17225 0.43759,-2.75 c 0.24066,-1.5125 0.05,-2.75 -0.42375,-2.75 -0.47373,0 -0.86133,0.47656 -0.86133,1.05902 0,0.58246 -0.41891,0.80012 -0.9309,0.48369 -0.512,-0.31643 -1.25653,-0.0485 -1.65451,0.59549 -0.43548,0.70462 -0.29142,0.90371 0.3618,0.5 0.59698,-0.36895 1.36807,-0.21348 1.71353,0.34549 0.34546,0.55897 -0.0734,1.01631 -0.9309,1.01631 -0.85746,0 -1.55902,0.35357 -1.55902,0.78572 0,0.43214 -0.86696,0.78571 -1.92658,0.78571 -1.05962,0 -1.70806,-0.35357 -1.44098,-0.78571 0.72807,-1.17805 -1.0721,-0.94606 -2.31671,0.29855 -0.77903,0.77903 -1.50974,0.47683 -2.59559,-1.07344 -0.8352,-1.19241 -1.78451,-1.7157 -2.12196,-1.16968 -0.33585,0.54342 -0.0453,1.25646 0.64559,1.58453 0.69093,0.32807 0.16444,0.3879 -1.16996,0.13295 -2.4685,-0.47162 -8.07381,2.14154 -8.07381,3.76397 0,0.49026 -0.66059,0.63789 -1.46797,0.32806 -0.80739,-0.30982 -1.77692,-0.0634 -2.15451,0.54752 -0.41573,0.67266 -0.23113,0.82938 0.46797,0.39731 0.68411,-0.4228 1.15451,-0.0783 1.15451,0.84549 0,0.85746 -0.45,1.55902 -1,1.55902 -0.55,0 -1,0.87344 -1,1.94098 0,1.06755 -0.47698,2.23578 -1.05995,2.59607 -1.28754,0.79575 -0.27794,10.20303 1.69981,15.838675 0.74808,2.131646 1.36014,6.553756 1.36014,9.826916 0,5.2443 -0.34721,6.2984 -2.92308,8.87427 -3.87916,3.87917 -7.97284,3.88112 -12.31114,0.006 z M 923.58939,71.812499 c -0.2177,-0.65312 -0.93051,-1.36573 -1.58401,-1.58356 -0.73075,-0.24358 -0.95424,0.21359 -0.58051,1.1875 0.69752,1.81772 2.76448,2.19592 2.16452,0.39606 z m -784.77083,-2.3125 c 0,-0.825 -0.45,-1.5 -1,-1.5 -0.55,0 -1,0.675 -1,1.5 0,0.825 0.45,1.5 1,1.5 0.55,0 1,-0.675 1,-1.5 z m 9,-0.39235 c 0,-0.42587 -0.675,-0.77432 -1.5,-0.77432 -1.56742,0 -1.95189,0.88145 -0.86052,1.97282 0.74703,0.74703 2.36052,-0.0722 2.36052,-1.1985 z m 35.25,0.23007 c -0.6875,-0.27741 -1.8125,-0.27741 -2.5,0 -0.6875,0.27741 -0.125,0.50439 1.25,0.50439 1.375,0 1.9375,-0.22698 1.25,-0.50439 z m 10.27699,-0.29404 c -0.32507,-0.52598 -1.25163,-0.70284 -2.05902,-0.39302 -2.06711,0.79323 -1.82352,1.34934 0.59105,1.34934 1.13246,0 1.79305,-0.43035 1.46797,-0.95632 z m 352.90275,0.07 c 0.30127,-0.48747 -0.37289,-1.12707 -1.49814,-1.42133 -1.67795,-0.43879 -1.83375,-0.27939 -0.86631,0.88631 1.38094,1.66393 1.63167,1.72067 2.36445,0.53502 z m 8.57026,-1.1137 c 0,-0.55 -0.19844,-1 -0.44098,-1 -0.24254,0 -0.7191,0.45 -1.05902,1 -0.33992,0.55 -0.14148,1 0.44098,1 0.58246,0 1.05902,-0.45 1.05902,-1 z m 283,0 c 0,-0.55 -0.19844,-1 -0.44098,-1 -0.24254,0 -0.7191,0.45 -1.05902,1 -0.33992,0.55 -0.14148,1 0.44098,1 0.58246,0 1.05902,-0.45 1.05902,-1 z m 26,-1.57037 c 0,-0.275 -0.9,-0.0183 -2,0.57037 -1.1,0.5887 -2,1.29537 -2,1.57037 0,0.275 0.9,0.0183 2,-0.57037 1.1,-0.5887 2,-1.29537 2,-1.57037 z m -643.95034,0.0447 c 1.62269,-0.83912 2.95034,-1.725 2.95034,-1.96861 0,-0.54824 -3.14191,0.53657 -4.5,1.55371 -0.55,0.41192 -2.125,0.95578 -3.5,1.20858 -2.3838,0.43827 -2.39312,0.46597 -0.20034,0.59582 1.26481,0.0749 3.62731,-0.55037 5.25,-1.3895 z m 127.95034,0.0257 c 0.71755,-0.86459 0.81474,-1.5 0.22943,-1.5 -0.5585,0 -1.27447,0.675 -1.59106,1.5 -0.31658,0.825 -0.41982,1.5 -0.22943,1.5 0.19039,0 0.90637,-0.675 1.59106,-1.5 z m 311.72917,0.89583 c -0.33229,-0.33229 -1.1948,-0.36781 -1.91667,-0.0789 -0.79773,0.31923 -0.56078,0.55619 0.60417,0.60417 1.05416,0.0434 1.64479,-0.19293 1.3125,-0.52522 z m -162.22917,-1.39583 c 0.33992,-0.55 -0.0835,-1 -0.94098,-1 -0.85746,0 -1.55902,0.45 -1.55902,1 0,0.55 0.42344,1 0.94098,1 0.51754,0 1.2191,-0.45 1.55902,-1 z m 60.5,0 c 0,-0.55 -0.47656,-1 -1.05902,-1 -0.58246,0 -0.7809,0.45 -0.44098,1 0.33992,0.55 0.81648,1 1.05902,1 0.24254,0 0.44098,-0.45 0.44098,-1 z m -114,-1 c 0,-0.55 -0.19844,-1 -0.44098,-1 -0.24254,0 -0.7191,0.45 -1.05902,1 -0.33992,0.55 -0.14148,1 0.44098,1 0.58246,0 1.05902,-0.45 1.05902,-1 z m 354.34508,-0.54313 c -0.32569,-0.84872 -0.80663,-1.32866 -1.06875,-1.06653 -0.26213,0.26213 -0.17998,0.95654 0.18255,1.54313 0.98605,1.59546 1.56238,1.28551 0.8862,-0.4766 z m 31.65492,0.54313 c 0,-0.55 -0.19844,-1 -0.44098,-1 -0.24254,0 -0.7191,0.45 -1.05902,1 -0.33992,0.55 -0.14148,1 0.44098,1 0.58246,0 1.05902,-0.45 1.05902,-1 z m 31.36163,-0.5 c -0.31659,-0.825 -0.75246,-1.5 -0.96862,-1.5 -0.21615,0 -0.39301,0.675 -0.39301,1.5 0,0.825 0.43588,1.5 0.96862,1.5 0.53273,0 0.70959,-0.675 0.39301,-1.5 z m -387.86163,-0.5 c 0.33992,-0.55 0.14148,-1 -0.44098,-1 -0.58246,0 -1.05902,0.45 -1.05902,1 0,0.55 0.19844,1 0.44098,1 0.24254,0 0.7191,-0.45 1.05902,-1 z m 240.5,0.60699 c 0,-0.21616 -0.69837,-0.661 -1.55194,-0.98855 -0.88992,-0.34149 -1.29132,-0.17384 -0.94098,0.39302 0.58726,0.9502 2.49292,1.40544 2.49292,0.59553 z m 144.49292,-0.59553 c 0.35034,-0.56686 -0.0511,-0.73451 -0.94098,-0.39302 -1.73242,0.6648 -2.04939,1.38156 -0.61096,1.38156 0.51754,0 1.21592,-0.44484 1.55194,-0.98854 z m 6.50708,0.54756 c 0,-0.24254 -0.45,-0.7191 -1,-1.05902 -0.55,-0.33992 -1,-0.14147 -1,0.44098 0,0.58246 0.45,1.05902 1,1.05902 0.55,0 1,-0.19844 1,-0.44098 z m -373.47354,-2.36589 c -0.30789,-0.30789 -1.11479,-6.3e-4 -1.79313,0.68278 -0.98026,0.98762 -0.8654,1.10248 0.5598,0.5598 0.98622,-0.37553 1.54122,-0.93469 1.23333,-1.24258 z m 271.20271,1.2027 c -0.33229,-0.33229 -1.1948,-0.36781 -1.91667,-0.0789 -0.79773,0.31923 -0.56078,0.55619 0.60417,0.60417 1.05416,0.0434 1.64479,-0.19293 1.3125,-0.52522 z m 177.77083,-1.39583 c -0.33992,-0.55 -1.15398,-0.99311 -1.80902,-0.98469 -0.71561,0.009 -0.59227,0.40223 0.30902,0.98469 1.92112,1.24153 2.2673,1.24153 1.5,0 z m -874.074846,-9.1211 c -0.648061,-1.04858 -2.425158,-0.20682 -2.425158,1.14873 0,0.50028 0.672415,0.65157 1.494256,0.3362 0.821841,-0.31537 1.240747,-0.98359 0.930902,-1.48493 z m 899.711696,-0.5789 c -1.06255,-0.42255 -1.08895,-0.71157 -0.11972,-1.31058 0.7249,-0.44802 -0.0332,-0.70428 -1.81795,-0.61452 -1.68375,0.0847 -3.41616,0.50875 -3.8498,0.94238 -0.43363,0.43364 -0.0146,0.4915 0.9311,0.12859 0.98785,-0.37908 1.71952,-0.18881 1.71952,0.44714 0,0.60885 1.0125,1.07147 2.25,1.02804 1.29597,-0.0455 1.672,-0.3088 0.88685,-0.62105 z m -6.7203,-4.94313 c 0.9187,-2.39409 0.20261,-2.57794 -1.21288,-0.31139 -0.67134,1.07499 -0.81495,1.95452 -0.31913,1.95452 0.49581,0 1.18522,-0.73941 1.53201,-1.64313 z m 8.26656,-3.54437 c -0.31922,-0.79773 -0.55618,-0.56077 -0.60416,0.60417 -0.0434,1.05416 0.19293,1.64479 0.52522,1.3125 0.33229,-0.33229 0.36781,-1.19479 0.0789,-1.91667 z M 37.818556,33.500009 c 0,-0.825 -0.435877,-1.5 -0.968615,-1.5 -0.532739,0 -0.709594,0.675 -0.393011,1.5 0.316582,0.825 0.752459,1.5 0.968615,1.5 0.216156,0 0.393011,-0.675 0.393011,-1.5 z m 927.729174,0.89583 c -0.33229,-0.33229 -1.1948,-0.36781 -1.91667,-0.079 -0.79773,0.31923 -0.56078,0.55619 0.60417,0.60417 1.05416,0.0434 1.64479,-0.19293 1.3125,-0.52522 z m -656.71017,-4.91872 c 1.05678,-1.27335 0.99492,-1.41968 -0.37756,-0.89301 -0.90279,0.34643 -1.64144,1.03173 -1.64144,1.52289 0,1.28596 0.57887,1.10536 2.019,-0.62988 z m 664.981,0.52289 c 1.08997,-0.70439 1.14217,-0.97356 0.19098,-0.98469 -0.71996,-0.008 -1.0309,-0.46531 -0.69098,-1.01531 0.33992,-0.55 0.14148,-1 -0.44098,-1 -0.58246,0 -1.05902,0.47656 -1.05902,1.05902 0,0.58246 -0.44485,0.78409 -0.98855,0.44806 -0.56686,-0.35034 -0.7345,0.0511 -0.39301,0.94098 0.68827,1.7936 1.30458,1.89419 3.38156,0.55194 z m -6.65792,-2.44907 c 0.37092,-0.96661 0.0755,-1.26467 -0.88726,-0.89522 -0.79383,0.30463 -1.19436,0.95671 -0.89006,1.44908 0.76643,1.2401 1.13272,1.12595 1.77732,-0.55386 z m 14.15084,0.46053 c 0.35034,-0.56686 -0.0511,-0.73451 -0.94098,-0.39302 -1.73242,0.6648 -2.04939,1.38156 -0.61096,1.38156 0.51754,0 1.21592,-0.44484 1.55194,-0.98854 z M 22.818556,24.000009 c 0,-0.55 -0.198442,-1 -0.440983,-1 -0.242541,0 -0.719098,0.45 -1.059017,1 -0.339919,0.55 -0.141476,1 0.440983,1 0.582459,0 1.059017,-0.45 1.059017,-1 z m 5.036355,-0.45619 c -1.260868,-1.51926 -0.642912,-3.54381 1.081679,-3.54381 0.55,0 0.738716,0.42277 0.41937,0.93948 -0.319347,0.51671 0.279654,0.87468 1.331113,0.79547 2.600316,-0.19587 1.562047,-2.48529 -1.063857,-2.34584 -2.891302,0.15355 -4.822586,3.33766 -2.80466,4.62405 2.122297,1.35292 2.432218,1.21256 1.036355,-0.46935 z m 12.713645,-0.23313 c -0.9625,-0.25153 -1.75,-0.94933 -1.75,-1.55067 0,-0.60134 -0.270061,-0.82328 -0.600136,-0.49321 -0.998732,0.99874 0.605005,2.74096 2.409153,2.6172 1.524508,-0.10458 1.518698,-0.16102 -0.05902,-0.57332 z m 289.250004,-0.75166 c 0,-0.24254 -0.45,-0.7191 -1,-1.05902 -0.55,-0.33992 -1,-0.14147 -1,0.44098 0,0.58246 0.45,1.05902 1,1.05902 0.55,0 1,-0.19844 1,-0.44098 z M 21.818556,20.000009 c -0.793144,-0.49019 -1.667079,-0.66625 -1.942079,-0.39125 -0.275,0.275 0.148935,0.90106 0.942079,1.39125 0.793144,0.49019 1.667079,0.66626 1.942079,0.39126 0.275,-0.275 -0.148935,-0.90107 -0.942079,-1.39126 z m 956.274124,0.0598 c 0.43478,-1.66259 0.24607,-1.77705 -1.31868,-0.79985 -1.00434,0.62722 -1.60362,1.50034 -1.33174,1.94025 0.86743,1.40354 2.12688,0.86163 2.65042,-1.1404 z m -4.27412,-0.85975 c 0,-1.05167 -2.17195,-3.2 -3.23518,-3.2 -0.45935,0 -0.35352,0.9 0.23518,2 1.05696,1.97494 3,2.75216 3,1.2 z m -442,-2.64098 c 0,-0.24254 -0.45,-0.7191 -1,-1.05902 -0.55,-0.33992 -1,-0.14147 -1,0.44098 0,0.58246 0.45,1.05902 1,1.05902 0.55,0 1,-0.19844 1,-0.44098 z m 248.80687,-2.08548 c -0.30789,-0.30789 -0.86705,0.24711 -1.24258,1.23333 -0.54268,1.4252 -0.42782,1.54007 0.5598,0.5598 0.68342,-0.67834 0.99067,-1.48524 0.68278,-1.79313 z m -759.806874,1.13345 c 0,-0.21616 -0.698372,-0.661 -1.551938,-0.98855 -0.889925,-0.34149 -1.291322,-0.17384 -0.940983,0.39302 0.587258,0.9502 2.492921,1.40544 2.492921,0.59553 z m 731.457294,-3.67609 c -0.94036,-1.52154 -2.44282,-1.05676 -1.82112,0.56336 0.31537,0.82184 0.98359,1.24074 1.48493,0.9309 0.50134,-0.30985 0.65263,-0.98226 0.33619,-1.49426 z m 114.54271,0.62812 c 0,-0.24254 -0.45,-0.7191 -1,-1.05902 -0.55,-0.33992 -1,-0.14147 -1,0.44098 0,0.58246 0.45,1.05902 1,1.05902 0.55,0 1,-0.19844 1,-0.44098 z m 80.36163,-1.05902 c 0.31658,-0.825 0.13972,-1.5 -0.39301,-1.5 -0.53274,0 -0.96862,0.675 -0.96862,1.5 0,0.825 0.17686,1.5 0.39301,1.5 0.21616,0 0.65203,-0.675 0.96862,-1.5 z m -731.86163,-0.5 c -0.33992,-0.55 -1.15398,-0.99311 -1.80902,-0.98469 -0.71561,0.009 -0.59227,0.40223 0.30902,0.98469 1.92112,1.24153 2.2673,1.24153 1.5,0 z m 447,0 c 0.33992,-0.55 0.14148,-1 -0.44098,-1 -0.58246,0 -1.05902,0.45 -1.05902,1 0,0.55 0.19844,1 0.44098,1 0.24254,0 0.7191,-0.45 1.05902,-1 z m 80,0 c 0.33992,-0.55 0.14148,-1 -0.44098,-1 -0.58246,0 -1.05902,0.45 -1.05902,1 0,0.55 0.19844,1 0.44098,1 0.24254,0 0.7191,-0.45 1.05902,-1 z M 78.818556,5.0000586 c 0,-0.55 -0.476558,-1 -1.059017,-1 -0.582459,0 -0.780902,0.45 -0.440983,1 0.339919,0.55 0.816476,1 1.059017,1 0.242541,0 0.440983,-0.45 0.440983,-1 z m 16.000002,0.55902 c 0,-0.24254 -0.45,-0.7191 -1,-1.05902 -0.55,-0.33992 -1,-0.14147 -1,0.44098 0,0.58246 0.45,1.05902 1,1.05902 0.55,0 1,-0.19844 1,-0.44098 z m 31.500002,-0.55902 c 0.33992,-0.55 0.14148,-1 -0.44098,-1 -0.58246,0 -1.05902,0.45 -1.05902,1 0,0.55 0.19844,1 0.44098,1 0.24254,0 0.7191,-0.45 1.05902,-1 z m 68.22917,0.39583 c -0.3323,-0.33229 -1.1948,-0.36781 -1.91667,-0.0789 -0.79773,0.31922 -0.56078,0.55618 0.60417,0.60416 1.05416,0.0434 1.64479,-0.19292 1.3125,-0.52522 z m 393.25552,-2.70485 c 0.008,-0.44495 -0.43469,-0.5309 -0.98469,-0.19098 -0.55,0.33992 -0.99311,1.37898 -0.98469,2.30902 0.0132,1.4572705 0.14929,1.4836705 0.98469,0.19098 0.53316,-0.825 0.97627,-1.86406 0.98469,-2.30902 z m 76.01531,2.91601 c 0,-0.21616 -0.69837,-0.661 -1.55194,-0.98855 -0.88992,-0.34149 -1.29132,-0.17384 -0.94098,0.39302 0.58726,0.9502 2.49292,1.4054405 2.49292,0.59553 z m -552.07029,-2.69032 c 0.0387,0.77916 0.34035,1.1466 0.67043,0.81653 0.33007,-0.33008 0.29001,-1.10193 -0.089,-1.71523 -0.50339,-0.81449 -1.06655,-0.80188 -2.08913,0.0468 -0.76998,0.63903 -1.10229,1.64351 -0.73847,2.23218 0.40038,0.64782 0.9604,0.30703 1.41871,-0.8633 0.44807,-1.14421 0.7859,-1.35526 0.82749,-0.51696 z m -58.929714,0.0833 c 0,-0.55 -0.476558,-1 -1.059017,-1 -0.582459,0 -0.780902,0.45 -0.440983,1 0.339919,0.55 0.816476,1 1.059017,1 0.242541,0 0.440983,-0.45 0.440983,-1 z m 22,0.55902 c 0,-0.24254 -0.45,-0.7191 -1,-1.05902 -0.55,-0.33992 -1,-0.14147 -1,0.44098 0,0.58246 0.45,1.05902 1,1.05902 0.55,0 1,-0.19844 1,-0.44098 z M 916.63106,74.316919 c 0.72187,-0.28887 1.58438,-0.25335 1.91667,0.0789 0.33229,0.33229 -0.25834,0.56864 -1.3125,0.52522 -1.16495,-0.048 -1.4019,-0.28494 -0.60417,-0.60417 z m -712.64411,-3.41887 c -0.72385,-1.15906 -0.79271,-1.89802 -0.17686,-1.89802 0.55466,0 1.00847,0.54 1.00847,1.2 0,0.93333 0.26667,0.93333 1.2,0 0.66,-0.66 1.56,-1.2 2,-1.2 1.42244,0 0.84957,1.48795 -1.02314,2.65748 -1.47873,0.92348 -2.04706,0.78002 -3.00847,-0.75946 z m 16.83161,0.10198 c 0,-0.55 0.70156,-1 1.55902,-1 0.85746,0 1.2809,0.45 0.94098,1 -0.33992,0.55 -1.04148,1 -1.55902,1 -0.51754,0 -0.94098,-0.45 -0.94098,-1 z m 190.5,-1 c -0.33992,-0.55 -0.14148,-1 0.44098,-1 0.58246,0 1.05902,0.45 1.05902,1 0,0.55 -0.19844,1 -0.44098,1 -0.24254,0 -0.7191,-0.45 -1.05902,-1 z m -137.5,-2 c 0,-0.55 0.45,-1 1,-1 0.55,0 1,0.45 1,1 0,0.55 -0.45,1 -1,1 -0.55,0 -1,-0.45 -1,-1 z m 672.61309,-2.18298 c 0.28881,-0.4673 0.94401,-0.59074 1.45601,-0.27431 1.30838,0.80862 1.16106,1.12396 -0.52511,1.12396 -0.80081,0 -1.21971,-0.38234 -0.9309,-0.84965 z M 11.318556,25.999999 c -0.339919,-0.55 -0.141477,-1 0.440983,-1 0.582459,0 1.059017,0.45 1.059017,1 0,0.55 -0.198443,1 -0.440983,1 -0.242541,0 -0.719099,-0.45 -1.059017,-1 z m 971.500044,-5 c 0,-0.55 0.4765,-1 1.059,-1 0.5824,0 0.7809,0.45 0.441,1 -0.34,0.55 -0.8165,1 -1.0591,1 -0.2425,0 -0.4409,-0.45 -0.4409,-1 z M 820.81856,7.9999991 c 0,-0.55 0.47656,-1 1.05902,-1 0.58246,0 0.7809,0.45 0.44098,1 -0.33992,0.55 -0.81648,1 -1.05902,1 -0.24254,0 -0.44098,-0.45 -0.44098,-1 z m -280.5,-4.0000005 c -0.33992,-0.55 -0.16803,-1 0.38197,-1 0.55,0 1.27811,0.45 1.61803,1 0.33992,0.55 0.16803,1 -0.38197,1 -0.55,0 -1.27811,-0.45 -1.61803,-1 z m 35.5,0 c -0.825,-0.53315 -1.05,-0.96937 -0.5,-0.96937 0.55,0 1.675,0.43622 2.5,0.96937 0.825,0.53316 1.05,0.96938 0.5,0.96938 -0.55,0 -1.675,-0.43622 -2.5,-0.96938 z m 91,0.60699 c 0,-0.21616 0.69837,-0.661 1.55194,-0.98855 0.88992,-0.34149 1.29132,-0.17384 0.94098,0.39302 -0.58726,0.9502 -2.49292,1.40544 -2.49292,0.59553 z"
       id="path1" />
  </g>
</svg>
