<?xml version="1.0" encoding="UTF-8" standalone="no"?>
<!-- Created with Inkscape (http://www.inkscape.org/) -->

<svg
   version="1.1"
   id="svg1"
   width="1254"
   height="1254"
   viewBox="0 0 1254 1254"
   xmlns="http://www.w3.org/2000/svg"
   xmlns:svg="http://www.w3.org/2000/svg">
  <defs
     id="defs1" />
  <g
     id="g1">
    <path
       style="fill:#000000"
       d="m 554.54159,1142.6906 c -2.9234,-0.4257 -5.5342,-0.9928 -5.8017,-1.2603 -0.9208,-0.9208 19.7736,-40.2206 22.8869,-43.4636 2.0877,-2.1747 6.2744,-4.4527 12.6739,-6.8961 39.9276,-15.2447 60.5529,-35.4409 89.6151,-87.7503 7.423,-13.36067 10.4192,-16.25317 19.4412,-18.76792 4.125,-1.14979 9.9317,-3.1646 12.9038,-4.47737 2.972,-1.31277 5.6029,-2.18765 5.8464,-1.94418 0.7585,0.75855 -5.3925,9.02761 -9.4155,12.65764 -2.1091,1.90302 -5.4635,4.46525 -7.4544,5.69387 -2.6427,1.63085 -4.3297,3.87096 -6.25,8.29866 -1.4466,3.3357 -2.6303,6.3103 -2.6303,6.6103 0,0.2999 1.6875,0.2289 3.75,-0.1579 12.148,-2.278 27.0968,-15.20776 34.155,-29.54182 5.2524,-10.66686 6.9942,-19.65909 5.3377,-27.55668 -2.5842,-12.31994 -8.2392,-16.3996 -22.8084,-16.45452 -19.8321,-0.0747 -38.6266,-3.18463 -35.8613,-5.93387 1.7201,-1.71005 25.8413,-6.05702 37.1797,-6.70028 l 11.2527,-0.6384 1.1087,-4.09689 c 1.5482,-5.72132 0.6121,-16.26813 -1.8726,-21.09688 -5.578,-10.84022 -11.5619,-12.83597 -33.9963,-11.33846 -8.6598,0.57804 -19.1267,0.82799 -23.2596,0.55543 -7.7575,-0.51159 -15.9856,-2.46196 -15.9856,-3.7892 0,-1.56617 34.8443,-8.93061 49.5,-10.462 3.85,-0.40229 7.3307,-1.23416 7.7347,-1.8486 0.4041,-0.61444 0.7416,-4.38457 0.75,-8.37807 0.011,-5.39791 -0.5435,-8.44988 -2.1629,-11.89491 -2.6152,-5.56364 -7.8858,-11.05519 -12.4345,-12.95576 -4.8547,-2.0284 -16.315,-1.6902 -37.8873,1.11808 -23.3942,3.04545 -45.5,3.27462 -45.5,0.4717 0,-0.41806 5.1825,-2.66097 11.5165,-4.98426 11.1383,-4.08543 11.7048,-4.4386 17.2493,-10.75384 3.153,-3.59133 9.3331,-9.24397 13.7335,-12.56143 4.4004,-3.31746 12.5007,-10.37033 18.0007,-15.67304 8.7622,-8.44789 10.9284,-9.99482 17.5,-12.49738 10.2615,-3.90765 22.8764,-9.7539 29.7896,-13.80563 4.9196,-2.88331 7.0077,-3.46183 14.3703,-3.98141 21.3544,-1.507 36.0728,-8.36558 41.424,-19.30299 1.4758,-3.01645 2.4255,-5.74222 2.1105,-6.05726 -0.3151,-0.31503 -2.7377,0.25445 -5.3836,1.26552 -9.899,3.78265 -21.2149,1.50068 -25.295,-5.10099 -3.4007,-5.5024 -2.2545,-6.02252 2.8173,-1.27845 5.6149,5.25211 9.8315,6.36426 18.1084,4.77617 6.167,-1.18328 10.0585,-3.34828 10.0585,-5.59593 0,-0.83964 -0.6671,-2.81678 -1.4826,-4.39366 -2.1147,-4.08953 -7.0557,-5.46674 -16.432,-4.58018 -4.1719,0.39448 -16.1354,1.05371 -26.5854,1.46497 l -19,0.74774 -25.5,9.28109 c -14.025,5.1046 -28.0408,10.61753 -31.1462,12.25096 -6.386,3.35894 -31.4037,22.86576 -58.8538,45.88954 -10.175,8.53428 -22.775,18.8432 -28,22.90871 -13.2577,10.31572 -17.103,13.82875 -28.3665,25.91568 -10.0132,10.74529 -30.8904,35.32942 -38.0721,44.8322 -2.1663,2.86639 -4.106,5.04434 -4.3105,4.8399 -0.7327,-0.73275 4.9825,-16.247 9.2391,-25.0801 4.7223,-9.79923 13.4975,-23.41084 19.4587,-30.18318 3.5897,-4.07812 3.7921,-4.6842 4.3041,-12.89076 1.3693,-21.94794 -5.3449,-40.73786 -17.5287,-49.05515 -7.1342,-4.87016 -17.8543,-5.80506 -19.4317,-1.69462 -0.342,0.89145 0.2272,6.61554 1.2649,12.7202 3.3956,19.97453 2.399,29.07294 -5.2023,47.49235 -2.3713,5.746 -3.9207,11.73822 -4.9129,19 -3.5202,25.7636 -4.6641,30.93062 -10.9726,49.56516 -8.8729,26.2095 -10.2909,33.90951 -11.9778,65.04186 -0.7748,14.3 -1.8828,28.475 -2.4621,31.50004 -3.3006,17.235 -8.6592,27.8482 -32.5037,64.3766 l -7.7527,11.8766 -6.0174,-6.0175 -6.0175,-6.0174 10.9665,-16.8592 c 24.8792,-38.2475 25.5895,-40.3345 27.2574,-80.09609 0.5131,-12.23032 1.6807,-26.30617 2.5947,-31.27966 l 1.6618,-9.04271 -8.0115,-8.34502 c -9.5537,-9.95136 -16.1335,-20.74597 -19.2773,-31.62594 l -2.3029,-7.96972 h -7.4191 c -29.2759,0 -52.2079,-22.68781 -52.2079,-51.65192 v -6.23172 l 6.8014,0.57021 c 7.9023,0.6625 11.1347,-0.57183 15.9956,-6.10815 7.9266,-9.02785 6.9662,-26.32965 -2.3091,-41.59838 -5.5197,-9.08638 -10.1021,-19.76688 -11.8749,-27.67745 -1.9887,-8.87401 -2.0315,-24.10013 -0.098,-34.80259 0.795,-4.4 1.4543,-8.05436 1.4651,-8.12079 0.011,-0.0664 -3.2219,-0.44021 -7.1838,-0.83061 -26.6947,-2.63042 -47.3868,-19.98679 -53.8211,-45.14461 -1.8554,-7.25479 -2.677,-19.36907 -1.4001,-20.64593 0.3164,-0.3164 1.9791,-0.17267 3.6948,0.31941 4.543,1.30291 10.0314,-0.51791 13.5128,-4.48299 4.604,-5.24364 5.6153,-11.43744 4.8873,-29.93079 l -0.6271,-15.92866 -5.4717,-5.61752 c -7.9946,-8.20767 -12.1746,-14.09244 -16.5991,-23.36848 -10.1163,-21.20916 -9.7557,-46.40033 0.9674,-67.57305 2.1381,-4.22179 5.5014,-9.92454 7.4739,-12.67278 1.9725,-2.74824 3.585,-6.12324 3.5833,-7.5 0,-1.37676 -1.5562,-7.55732 -3.4546,-13.73457 -5.158,-16.78379 -6.581,-24.42632 -7.2254,-38.80582 -1.2066,-26.92449 6.2951,-46.84829 24.8679,-66.04683 l 8.8152,-9.11215 v -10.19408 c 0,-40.47701 26.3427,-75.98017 65.3973,-88.13863 15.4012,-4.7947 15.308,-4.7394 22.5478,-13.37509 22.4798,-26.81393 47.2208,-39.71478 79.0549,-41.22206 6.4077,-0.30339 13.2599,-1.20714 15.4744,-2.04092 2.2054,-0.83036 7.324,-4.69292 11.5,-8.67802 18.086,-17.25921 40.585,-27.41756 64.7688,-29.24319 21.7765,-1.64391 46.4928,5.88415 62.7235,19.10421 l 5.3315,4.3426 3.9794,-2.92644 c 6.3329,-4.65728 19.0028,-10.48828 28.2224,-12.98865 11.7193,-3.17828 28.0142,-3.19763 39.9078,-0.0474 19.401,5.13873 33.4946,14.32396 47.2528,30.79602 3.8358,4.59252 8.0714,9.06892 9.4124,9.94755 1.3409,0.87863 7.4981,2.61165 13.6826,3.85117 32.7283,6.55952 57.2668,25.24895 71.8416,54.71722 l 4.307,8.70813 11.0364,4.06956 c 22.6748,8.36114 38.52684,21.31654 50.13037,40.97016 8.7806,14.87224 11.98894,29.39837 11.15362,50.49925 l -0.5553,14.02723 4.23387,5.00876 c 13.09993,15.4975 20.48038,32.61839 22.78039,52.84506 1.88817,16.6049 -0.69628,31.84474 -9.18682,54.17241 -2.19818,5.7806 -3.99669,11.34924 -3.99669,12.37479 0,1.02554 1.09805,3.8338 2.4401,6.24058 1.34206,2.40677 3.87611,8.65095 5.63121,13.87595 2.56747,7.6434 3.28899,11.66563 3.69194,20.58128 1.15441,25.54247 -6.9757,44.92566 -26.72775,63.72231 l -8.98473,8.55013 -2.02539,11.24803 c -2.50699,13.92267 -2.65271,25.77399 -0.3759,30.57201 1.96502,4.14097 4.49304,5.93 9.73413,6.88862 l 3.8836,0.71033 -0.56805,6.77569 c -1.07992,12.88135 -9.66716,28.41979 -20.86565,37.75599 -7.02663,5.85812 -11.90675,8.56846 -21.33355,11.84836 -7.229,2.51523 -9.3324,2.78654 -21.8268,2.81536 l -13.8269,0.0319 0.551,3 c 0.303,1.65 0.8434,7.725 1.2009,13.5 1.1773,19.02032 -3.4914,34.78885 -15.5964,52.67719 -8.7402,12.91603 -10.6594,16.72247 -12.557,24.90474 -4.1161,17.74848 6.5381,32.4354 21.7632,30.0008 l 3.792,-0.60638 v 5.33032 c 0,10.99222 -6.7127,26.13308 -15.5815,35.1447 -9.9516,10.11192 -23.199,15.50332 -38.1685,15.53384 -5.9223,0.0121 -7.25,0.30295 -7.25,1.58846 0,3.31234 -5.253,17.01071 -8.9521,23.34444 -2.1264,3.64089 -7.9615,11.31074 -12.9669,17.04411 -10.1282,11.60142 -12.9544,17.56816 -11.64,24.57478 1.2242,6.52573 9.1952,12.43315 16.809,12.45741 2.2499,0.007 2.2358,0.10773 -0.8778,6.28882 -1.4911,2.96002 -5.9252,8.46906 -10.25,12.73488 -16.4959,16.27082 -37.4094,21.51122 -59.5802,14.92952 l -7.4244,-2.2041 -4.1502,3.5524 c -8.412,7.2003 -21.8337,12.8251 -33.9674,14.2349 l -5.5,0.639 -5.4351,8.6651 c -21.4135,34.1386 -46.1685,55.5319 -77.0649,66.5993 -4.2279,1.5145 -8.8524,3.9912 -10.6001,5.6771 -1.7596,1.6974 -6.2386,9.4543 -10.3585,17.9396 l -7.2585,14.9491 -3.6414,-0.1248 c -2.0028,-0.069 -6.0334,-0.473 -8.9569,-0.8987 z m 210.8368,-146.81711 c 3.0368,-1.17263 7.0868,-3.44995 9,-5.06072 l 3.4786,-2.92867 -4.2762,-3.68539 c -13.2511,-11.42026 -11.5127,-29.75476 4.663,-49.18002 10.0152,-12.02715 12.0421,-14.94658 15.5837,-22.44508 5.3415,-11.30938 6.9119,-18.63585 6.8289,-31.85955 -0.1146,-18.25014 -4.3966,-30.77402 -19.1284,-55.94548 -3.3623,-5.74502 -5.9118,-10.64704 -5.6654,-10.8934 0.2463,-0.24635 3.7931,2.54601 7.8816,6.20524 l 7.4338,6.65315 0.6763,-4.25976 c 0.372,-2.34286 1.8472,-9.88475 3.2783,-16.75975 3.2122,-15.43159 3.3904,-28.98036 0.5225,-39.71885 -2.1867,-8.18774 -0.8739,-8.33036 3.1661,-0.34396 6.731,13.30626 7.9638,25.44072 4.8693,47.92646 -2.092,15.20081 -1.1424,22.59427 4.287,33.37545 4.9966,9.92208 6.297,13.80909 8.2724,24.7271 l 1.7126,9.46619 3.9473,0.85732 c 8.6121,1.87051 20.1706,-1.60341 27.9182,-8.39082 3.9309,-3.4437 9.529,-11.3374 9.529,-13.43638 0,-0.63027 -1.6875,-1.6516 -3.75,-2.26963 -9.6264,-2.88456 -16.632,-10.08884 -21.4787,-22.0876 -2.1701,-5.37242 -2.266,-6.83079 -2.3096,-35.10528 -0.037,-24.26825 -0.3453,-30.69485 -1.7362,-36.23731 -4.2639,-16.99034 -11.3798,-30.4247 -26.0081,-49.10156 -7.6443,-9.75987 -18.7174,-26.70931 -18.7174,-28.65044 0,-0.55588 -0.3763,-1.01069 -0.8362,-1.01069 -1.2889,0 -3.9386,12.51187 -4.7062,22.22195 -0.6776,8.57273 -0.632,8.82936 2.6679,15 3.0165,5.64093 3.3568,7.09792 3.3526,14.35687 0,7.31853 -0.3585,8.79462 -3.7637,15.68468 -3.9382,7.96834 -9.3289,13.65787 -17.4644,18.43233 l -4.25,2.49421 0.035,6.15498 c 0.032,5.6007 1.6419,15.08589 3.4208,20.15498 0.4031,1.14847 -1.0962,0.0841 -3.5215,-2.5 -3.589,-3.82416 -8.2289,-12.03978 -10.2464,-18.14307 -0.4887,-1.47838 -1.1769,-1.51325 -6.8656,-0.34793 -3.4773,0.71232 -9.2474,1.61358 -12.8224,2.00278 -4.9839,0.5426 -8.7158,1.86356 -16,5.66356 -9.3411,4.87303 -9.5103,5.02588 -10.1198,9.14028 -0.7186,4.85181 0.4839,14.81018 2.4925,20.64008 0.7664,2.22436 1.0026,4.0443 0.525,4.0443 -2.2317,0 -10.8844,-12.71844 -15.4994,-22.78224 -0.071,-0.15523 -2.1739,0.51977 -4.6727,1.5 -3.1593,1.23936 -8.2578,5.36006 -16.7381,13.52799 -11.0126,10.60687 -11.8698,11.67747 -8.8412,11.04157 1.8445,-0.38729 8.7537,-0.72288 15.3537,-0.74575 10.9519,-0.0379 12.4957,0.1908 17.6752,2.61884 15.5981,7.31214 24.1299,22.26881 23.743,41.62274 l -0.1855,9.28315 3.6357,2.71685 c 7.7367,5.78134 14.6316,19.59904 14.6316,29.32219 0,2.14206 0.3834,3.89466 0.852,3.89466 1.4814,0 7.1495,-13.51102 8.6611,-20.64574 3.0609,-14.44707 0.943,-31.28275 -6.0577,-48.15464 -5.3526,-12.89956 -8.5732,-21.41515 -8.2293,-21.75898 0.7152,-0.71519 16.0775,21.21203 19.1864,27.38558 5.7933,11.50388 7.7121,18.61133 8.3089,30.77712 0.877,17.87886 -2.3273,28.5264 -14.2992,47.51373 l -5.4332,8.61708 2.6385,5.76327 c 5.4122,11.82175 4.1738,29.46314 -3.1589,45.00258 -1.8168,3.85 -3.4015,7.45 -3.5217,8 -0.829,3.79474 20.7308,4.26747 30.0745,0.65943 z m -309.279,-99.0565 c 5.0275,-14.07927 7.7073,-25.1334 9.2372,-38.10293 1.7742,-15.04153 2.917,-19.56827 7.7964,-30.88196 4.057,-9.40678 4.628,-11.64472 5.0054,-19.61804 0.298,-6.29542 -0.1996,-12.61697 -1.6561,-21.03613 -1.631,-9.42816 -1.856,-12.85501 -1.0386,-15.81538 0.8247,-2.98707 0.5753,-6.4381 -1.1898,-16.46387 -2.0331,-11.54807 -2.1308,-13.67023 -1.091,-23.68462 0.6282,-6.05 1.4335,-12.125 1.7895,-13.5 0.4741,-1.83112 -1.385,-0.35958 -6.9486,5.5 -19.3456,20.37477 -24.0453,33.38596 -21.1307,58.5 0.7979,6.875 1.5707,14.04066 1.7173,15.92368 l 0.2666,3.42368 4.8109,-4.17368 c 2.6459,-2.29552 5.0176,-4.17368 5.2703,-4.17368 0.7398,0 -3.479,7.8588 -8.6362,16.08781 -13.9673,22.28657 -19.6818,39.77586 -18.6312,57.02056 0.9368,15.3783 6.1118,28.33412 15.6621,39.21131 1.7772,2.02418 3.5222,3.67653 3.8777,3.67191 0.3556,-0.005 2.5555,-5.35453 4.8888,-11.88866 z m -40.0559,-42.7697 c 1.7088,-10.3215 5.3416,-19.99993 11.6765,-31.10833 7.83,-13.72985 8.6844,-17.80744 8.5341,-40.7249 -0.1788,-27.26923 1.9024,-34.49974 16.6868,-57.97499 4.0573,-6.44235 7.453,-13.42005 9.5019,-19.52501 2.8173,-8.39429 3.2466,-11.15857 3.6892,-23.75 0.2818,-8.01791 0.1125,-14.23872 -0.3871,-14.22421 -0.4883,0.0142 -2.4629,2.37032 -4.3879,5.23587 -1.925,2.86554 -9.8966,11.75483 -17.7147,19.75397 -22.0389,22.54931 -28.2525,31.69284 -34.3075,50.48437 -3.0957,9.60754 -3.2531,10.90265 -4.0106,33 -0.4337,12.65 -1.3203,25.6891 -1.9703,28.97579 -3.2688,16.52985 -14.1763,29.85362 -26.2469,32.06101 -2.0625,0.37718 -3.75,1.10066 -3.75,1.60773 0,2.74776 5.5482,11.16295 9.9967,15.16258 7.1407,6.42012 13.4641,8.68281 23.5033,8.41016 l 8,-0.21727 z m 135.0867,-42.63917 c 25.9125,-21.69346 56.8666,-47.23729 65.134,-53.74966 l 9.4072,-7.4102 -4.4072,-1.27727 c -7.9286,-2.29787 -22.8903,-2.75541 -28.5568,-0.8733 -6.2305,2.06944 -15.3706,10.03905 -19.4882,16.99257 l -3.0341,5.1238 0.5508,-6.77627 c 0.6174,-7.59589 3.242,-14.38682 7.725,-19.98757 l 3.0126,-3.76383 -1.9276,-2.73617 c -2.4123,-3.42408 -6.4399,-11.31848 -5.9993,-11.7591 0.1811,-0.18102 3.025,0.60122 6.3198,1.73831 4.6435,1.60253 9.2512,2.16245 20.4906,2.49002 8.6494,0.25209 18.3966,1.20376 24.1571,2.35861 11.646,2.33472 20.4784,2.45558 29.3358,0.40143 7.734,-1.79364 17.518,-5.31235 17.4822,-6.28728 -0.051,-1.39053 -12.9518,-10.35343 -19.5927,-13.61219 -9.9859,-4.90016 -14.0497,-5.70014 -27.6893,-5.45074 -10.1573,0.18572 -13.3376,-0.13921 -19.0484,-1.94614 -7.3904,-2.33837 -15.4968,-2.73038 -22.6021,-1.09298 -8.8938,2.04954 -25.4901,9.20149 -28.6328,12.33886 -3.4405,3.43478 -6.3759,10.53517 -9.4924,22.96122 -1.952,7.7829 -5.9012,14.95285 -7.4118,13.45641 -0.3705,-0.36708 -0.9201,-2.50458 -1.2213,-4.75 -0.3012,-2.24543 -0.6934,-4.08259 -0.8715,-4.08259 -0.1782,0 -1.9817,1.125 -4.0079,2.5 -2.0262,1.375 -4.2239,2.5 -4.8839,2.5 -2.0713,0 -3.7834,-5.21616 -4.2769,-13.02977 -0.6778,-10.73252 -0.033,-12.61047 2.1352,-6.22023 1.9866,5.8546 3.2565,6.60233 4.2458,2.5 1.3257,-5.49699 11.5774,-29.86801 14.4553,-34.36392 3.2623,-5.09635 14.6778,-16.46123 15.6042,-15.53489 0.3225,0.32251 -0.1807,1.75714 -1.1183,3.18806 -2.0691,3.1578 -4.7746,10.5857 -4.1011,11.25924 0.2676,0.26758 1.1045,-0.0264 1.8599,-0.65331 0.7554,-0.6269 5.9242,-3.13008 11.4862,-5.56262 5.562,-2.43255 11.7048,-5.63716 13.6507,-7.12137 3.3993,-2.59273 4.8807,-2.28941 2.288,0.46844 -1.7255,1.83546 6.1497,0.80343 13.9412,-1.82696 l 5.7623,-1.94534 5.8601,3.61706 c 6.8798,4.24646 10.2243,4.45722 18.3561,1.15675 4.3897,-1.78166 5.9252,-2.01751 7.2045,-1.10661 3.5057,2.49614 10.7916,5.96489 13.9754,6.65358 3.1732,0.68639 3.3118,0.60074 2.6321,-1.62679 -0.5949,-1.94964 -0.1421,-1.72122 2.6505,1.33709 1.8523,2.02863 8.4703,7.09331 14.7066,11.25485 l 11.3387,7.56644 -0.7006,-4.25485 c -0.3853,-2.34017 -1.3312,-5.78644 -2.1019,-7.65839 -0.7706,-1.87195 -1.2239,-3.58084 -1.0072,-3.79754 1.0696,-1.06957 10.1992,11.12892 13.4454,17.96505 3.1108,6.55098 3.9993,7.67767 5.6868,7.21161 14.27,-3.94115 17.5729,-4.47558 27.66,-4.47558 5.962,0 10.84,-0.23783 10.84,-0.52852 0,-1.60326 -6.4347,-12.85424 -10.5304,-18.41225 -7.0216,-9.52837 -13.067,-15.70814 -21.5549,-22.03373 -14.0631,-10.48047 -31.5799,-18.15163 -44.5772,-19.52176 -6.6489,-0.70091 -11.687,0.50004 -23.6565,5.63915 l -7.819,3.35711 0.6223,6.49776 0.6222,6.49777 -3.5485,-3.43937 -3.5485,-3.43937 -3.0186,2.892 c -2.6288,2.51853 -3.2013,2.7047 -4.4329,1.44161 -1.2031,-1.23384 -1.2143,-2.19696 -0.075,-6.4504 1.1791,-4.40221 1.152,-5.11956 -0.226,-6 -0.8608,-0.55 -4.4172,-3.14729 -7.9031,-5.77176 -7.3493,-5.53314 -9.1711,-6.32967 -17.6171,-7.70279 -4.8615,-0.79038 -8.3314,-0.65953 -15.7367,0.59343 -33.1999,5.61733 -59.5825,26.0323 -74.4989,57.64756 -6.4116,13.58948 -8.572,22.75008 -9.1346,38.73356 -0.2614,7.425 -0.113,14.01994 0.3297,14.65543 0.5888,0.84513 2.1739,0.88476 5.9024,0.14755 11.9666,-2.3661 26.47,4.31535 36.0836,16.62308 7.3886,9.45921 13.3178,26.25863 13.3178,37.7339 0,3.21202 0.2355,5.84004 0.5232,5.84004 0.2877,0 4.4502,-3.28767 9.25,-7.30594 z m 299.5749,-31.57141 c 2.5378,-3.78254 6.0823,-10.42004 7.8766,-14.75 3.1867,-7.69018 3.2625,-8.22032 3.2688,-22.87265 0.01,-12.95708 -0.3133,-16.02146 -2.3417,-22.5 -3.404,-10.87242 -8.8545,-21.67747 -18.664,-37 -10.9747,-17.14265 -15.7746,-26.61893 -18.5278,-36.57924 -4.0073,-14.49685 -3.275,-13.65414 -6.4482,-7.42076 -6.7488,13.25682 -10.3723,30.88967 -9.029,43.93649 0.8265,8.02783 5.5511,22.64376 9.7179,30.06351 1.6989,3.025 5.9539,9.69983 9.4557,14.83296 11.9805,17.56191 17.7592,32.88305 19.016,50.41704 0.3449,4.8125 0.7249,8.75 0.8443,8.75 0.1195,0 2.2936,-3.09481 4.8314,-6.87735 z m -454.3156,-36.7977 c 4.5304,-13.76988 9.9785,-22.45794 24.0065,-38.28291 13.8743,-15.65161 19.6993,-25.48877 24.5988,-41.54204 1.4219,-4.65907 1.8254,-9.24057 1.8055,-20.5 -0.025,-14.06269 -1.0322,-20.63465 -4.5638,-29.7717 -1.0352,-2.67848 -1.0962,-2.61821 -3.3381,3.30061 -5.4524,14.39474 -9.4876,20.70804 -25.5481,39.97109 -17.8063,21.35695 -23.2717,30.31224 -29.1582,47.77749 -2.5317,7.51159 -3.1988,11.35594 -3.5962,20.72251 -0.5844,13.77519 0.8113,20.40924 6.9423,33 l 4.139,8.5 1.2335,-8.17505 c 0.6784,-4.49628 2.2439,-11.24628 3.4788,-15 z m 368.6906,-42.32495 c 2.1746,-17.52648 6.7965,-32.75338 13.6519,-44.97637 l 3.0715,-5.47637 1.3152,4.97637 c 1.5889,6.01238 6.1611,16.16737 7.9461,17.64879 1.031,0.85569 1.2966,-0.11456 1.3139,-4.79998 0.026,-7.16218 2.8819,-20.4434 6.4228,-29.87244 1.4457,-3.85 5.6968,-12.4 9.4468,-19 13.1487,-23.142 17.5826,-38.66954 18.7181,-65.55097 0.5129,-12.14292 0.3135,-17.16104 -0.9318,-23.44903 -2.3593,-11.91364 -2.7946,-19.57034 -1.9446,-34.20703 0.5436,-9.35965 0.4067,-14.89461 -0.4699,-19 -0.6803,-3.18614 -1.1927,-10.51797 -1.1385,-16.29298 0.092,-9.81352 -0.1003,-10.89228 -2.9412,-16.5 -3.9999,-7.89561 -7.1079,-17.78932 -8.5743,-27.29458 l -1.1888,-7.70542 -7.4601,-0.63338 c -32.0354,-2.71987 -57.786,-24.13655 -68.0555,-56.60146 l -2.2886,-7.23485 -5.2649,-1.53055 c -2.8957,-0.84181 -8.3218,-3.12906 -12.058,-5.08279 -8.2515,-4.31483 -13.2129,-5.00952 -24.8627,-3.48129 -14.0046,1.83713 -24.7698,5.59017 -36.4995,12.72472 l -6.5691,3.9956 -5.4309,-5.00287 c -10.9644,-10.10023 -22.6074,-16.40236 -36.431,-19.71945 -10.6136,-2.54684 -12.8371,-2.45052 -23.1931,1.00476 -4.8438,1.61614 -11.8083,3.45606 -15.4767,4.0887 l -6.6699,1.15026 -2.197,5.41305 c -6.0858,14.99441 -24.1756,35.69367 -38.7728,44.36571 -9.9229,5.89511 -22.0569,9.90638 -32.6895,10.8065 l -8.7095,0.73734 -2.3056,9 c -2.8607,11.16721 -4.378,14.7448 -10.3357,24.37008 -4.3033,6.95228 -5.0044,9.00652 -7.8952,23.12992 -1.7448,8.525 -3.432,20.22501 -3.7493,26.00001 -0.3173,5.775 -2.1083,19.725 -3.98,31 -4.8005,28.91765 -5.8924,41.69573 -4.5737,53.52231 1.4458,12.9661 2.0809,15.49707 8.4389,33.6307 7.2063,20.55336 8.6091,27.73144 8.6091,44.05163 v 13.28897 l 3.4706,-4.88141 c 1.9088,-2.68477 4.494,-7.52083 5.7449,-10.7468 1.2509,-3.22597 2.5951,-5.8654 2.9871,-5.8654 0.7947,0 3.9406,10.3029 5.9542,19.5 1.4485,6.61597 1.8574,42.0348 0.5406,46.83379 -1.2849,4.68307 0.8204,2.29424 7.3672,-8.35923 3.3566,-5.46209 9.1083,-13.40735 12.7817,-17.65612 12.6339,-14.61312 33.5285,-28.0051 52.9727,-33.95177 4.7746,-1.46024 9.021,-2.9526 9.4366,-3.31638 0.4156,-0.36377 0.018,-2.82636 -0.8837,-5.47241 -2.0913,-6.13745 -1.3327,-15.54219 1.7939,-22.24159 3.585,-7.68172 11.4259,-14.871 18.4439,-16.9112 6.9984,-2.03448 11.7487,-6.32851 13.2761,-12.00083 1.2385,-4.5995 2.7008,-20.94802 3.6772,-41.11201 1.1873,-24.51873 -1.3891,-31.37978 -13.813,-36.78527 -6.0123,-2.61592 -6.3667,-2.59837 -4.7751,0.23659 1.8869,3.36094 6.0251,14.19475 6.0251,15.77369 0,1.23221 -0.5145,1.4106 -2.25,0.78013 -1.2375,-0.44957 -4.6125,-0.81739 -7.5,-0.81739 -2.8875,0 -5.25,-0.12833 -5.25,-0.28518 0,-0.15685 0.7043,-1.36007 1.5651,-2.67381 1.4257,-2.17581 1.4176,-2.67383 -0.09,-5.58998 -3.7198,-7.19338 -17.6251,-17.16153 -25.3185,-18.14991 -2.1017,-0.27 -2.3779,0.14413 -2.6722,4.00756 -1.2588,16.52076 -18.1431,24.81813 -29.5436,14.51845 -2.1672,-1.95792 -3.9472,-4.06999 -3.9557,-4.69349 -0.046,-3.41849 -1.7538,-3.71068 -4.666,-0.79841 -1.637,1.63692 -4.5757,3.41784 -6.5305,3.9576 -3.627,1.00147 -9.9753,0.32105 -13.048,-1.39851 -1.474,-0.82489 -1.224,-1.21748 1.819,-2.85624 2.1231,-1.14334 5.6621,-4.94564 8.8874,-9.54852 6.4428,-9.1945 9.985,-12.32543 18.5535,-16.39921 6.1613,-2.92933 7.1252,-3.08871 18.5,-3.05884 11.1751,0.0293 12.7217,0.28202 22.5,3.67588 l 10.5,3.64438 -4,-3.55858 c -9.1115,-8.10591 -25.242,-17.0746 -35.7317,-19.86701 -8.2111,-2.18582 -19.1157,-1.79085 -26.9555,0.97635 -7.7415,2.73248 -18.5784,9.66588 -24.2658,15.52509 -2.1741,2.23981 -4.2753,4.07238 -4.6694,4.07238 -1.2057,0 1.1683,-7.13515 4.7245,-14.19987 3.8683,-7.68481 13.2795,-18.23231 20.2715,-22.71903 8.4467,-5.42029 15.4112,-7.27831 25.6264,-6.83679 12.6745,0.54783 20.4441,3.30687 46.0285,16.34499 25.4423,12.96578 31.7953,15.22946 37.7416,13.4479 2.1859,-0.6549 5.0443,-2.26073 6.3521,-3.56851 l 2.3777,-2.37779 v 4.27304 c 0,6.49503 -2.5651,13.76808 -6.4613,18.31992 l -3.5065,4.0965 1.9703,5.72692 c 5.2255,15.18811 4.6618,38.03256 -2.0182,81.78792 -1.7216,11.27673 -6.8968,29.72157 -8.9868,32.0295 -0.4108,0.45358 -1.0304,-0.68693 -1.377,-2.53446 -1.3558,-7.227 -6.5062,-10.93494 -11.5592,-8.32192 -3.6986,1.91264 -8.7409,9.62205 -10.6993,16.3587 -2.2036,7.58001 -1.1526,13.58235 3.1278,17.8627 3.8178,3.8178 6.0087,4.32421 5.1917,1.20004 -0.6981,-2.66947 3.303,-6.89201 6.5231,-6.88418 5.3702,0.013 10.0574,2.29272 15.447,7.51281 7.1036,6.88027 12.0634,8.83642 21.1087,8.32532 5.9067,-0.33376 7.8337,-0.96867 13.8025,-4.54771 8.0726,-4.84055 12.5069,-5.89286 18.2807,-4.33816 5.2986,1.42676 7.9437,5.01915 6.3198,8.58312 -0.9941,2.18182 -0.8865,2.45904 0.9539,2.45904 3.2164,0 7.7996,-3.14475 10.2019,-7 3.3963,-5.45039 3.0679,-16.67967 -0.7017,-24 -1.5578,-3.025 -3.9931,-6.7375 -5.4119,-8.25 -3.4825,-3.71251 -1.0006,-3.64016 4.9677,0.14483 13.6279,8.64259 18.9459,30.42276 10.2921,42.15231 l -2.4497,3.32039 10.0389,5.25623 c 5.5215,2.89092 13.0799,7.51049 16.7964,10.26569 14.1928,10.52151 30.6918,30.15407 38.5757,45.90193 l 2.6491,5.29139 7.6723,-0.29139 7.6723,-0.29138 z M 650.48759,596.65859 c -2.5108,-7.20227 -3.2691,-20.18828 -2.1573,-36.94453 2.6522,-39.97542 5.7653,-54.23222 14.9826,-68.61329 1.1992,-1.87104 1.0643,-2.50149 -1.1769,-5.5 -4.0177,-5.37521 -5.4456,-11.57308 -4.927,-21.38671 l 0.2114,-4.00001 2.0775,2.78537 c 2.9969,4.01802 8.9134,6.71464 14.7322,6.71464 2.724,0 12.0794,-1.37049 20.7898,-3.04553 30.9712,-5.95589 51.6964,-7.51578 64.5379,-4.85751 14.8786,3.07997 29.7177,14.48261 36.9631,28.40304 3.8968,7.48677 6.8361,16.26166 6.8361,20.40804 0,2.29519 -0.7608,1.80272 -7.75,-5.0165 -13.3914,-13.0658 -22.2017,-18.4978 -34.8197,-21.46813 -13.0265,-3.06648 -37.4976,-0.55325 -49.9303,5.12794 l -5,2.28478 7.5,0.0993 c 15.4938,0.20513 31.4258,5.64548 42.9584,14.66908 5.1435,4.0245 8.6032,7.95128 13.6746,15.52069 3.7341,5.57322 8.2636,11.0875 10.0657,12.25396 1.8021,1.16646 3.2822,2.45834 3.289,2.87084 0.021,1.24998 -12.2771,0.75028 -15.4877,-0.62933 -2.4046,-1.03328 -3.5953,-1.04321 -6,-0.0501 -1.65,0.68148 -5.112,1.55415 -7.6933,1.93927 l -4.6934,0.70022 3.9434,-4.27144 c 2.1688,-2.34925 3.9433,-4.97562 3.9433,-5.83633 0,-2.69144 -12.5498,-13.76075 -19.223,-16.95523 -10.4591,-5.0068 -10.4397,-5.00838 -11.0072,0.89705 -0.9342,9.72236 -9.0481,17.26511 -18.6783,17.36338 -2.8601,0.0292 -7.231,-1.03759 -11.5915,-2.82902 -3.85,-1.58173 -9.25,-2.99781 -12,-3.14683 -2.75,-0.14903 -5.0983,-0.30711 -5.2186,-0.3513 -0.1202,-0.0442 1.286,-2.66784 3.125,-5.83034 1.8389,-3.1625 3.6438,-6.72678 4.0108,-7.92062 0.6555,-2.13251 0.5831,-2.14841 -4.125,-0.90577 -14.8855,3.92886 -17.9599,9.46164 -23.6588,42.57639 -1.3725,7.975 -3.0076,18.775 -3.6336,24 -1.6537,13.80225 -3.0326,23.36619 -3.4255,23.75906 -0.1886,0.18867 -0.8383,-1.07787 -1.4437,-2.81453 z m 55.3694,-44.09292 c -5.4213,-2.94802 -9.5912,-6.37572 -12.0201,-9.88063 -5.1278,-7.39943 -1.8176,-6.24285 6.7721,2.36618 8.4384,8.45742 9.33,9.73418 5.248,7.51445 z m -185.8867,-22.31931 c -6.8074,-2.79871 -11.2526,-6.61214 -13.3048,-11.4139 -2.5698,-6.01291 0.07,-5.42021 6.0601,1.36076 3.1597,3.57663 7.7443,7.67475 10.1881,9.10692 7.1409,4.18486 5.9024,4.58301 -2.9434,0.94622 z m 388.4552,169.85739 c 7.5086,-2.22612 11.6328,-4.4803 17.23847,-9.42217 4.48859,-3.95707 10.66246,-12.99275 10.68369,-15.63596 0.005,-0.64264 -1.62377,-2.17778 -3.61985,-3.41143 -7.80671,-4.82484 -10.42751,-17.69223 -7.37212,-36.1955 0.70617,-4.27646 1.02675,-8.03257 0.7124,-8.34691 -0.31434,-0.31434 -1.56829,1.38458 -2.78659,3.77537 -1.2183,2.3908 -5.4685,9.07191 -9.4449,14.84691 -8.1019,11.76633 -10.407,16.02799 -12.9816,24 -3.9696,12.29125 -10.7924,21.8761 -18.5136,26.00836 -2.8322,1.51577 -1.7507,2.29091 6.1695,4.42172 7.1392,1.92069 13.3424,1.90811 19.9146,-0.0404 z m -540.3589,-17.57634 c 5.9183,-1.09048 6.5892,-1.47871 8.2785,-4.78998 l 1.8383,-3.60333 -5.1731,-4.5609 c -6.9334,-6.11293 -10.2023,-12.51744 -13.1186,-25.70229 -2.4446,-11.0526 -4.4984,-15.93482 -12.8219,-30.4802 l -4.4768,-7.82335 -0.4859,13.32335 c -0.3253,8.921 -1.043,14.85434 -2.1722,17.95676 -2.4688,6.78294 -7.7911,12.50491 -13.5262,14.54185 l -4.8256,1.7139 1.4192,4.02265 c 4.5427,12.87514 14.4908,21.86777 27.8547,25.17917 6.5283,1.61762 9.4336,1.65516 17.2096,0.22237 z m 505.9982,-2.97455 c 4.2471,-2.58143 7.374,-6.41285 9.6867,-11.86922 5.5009,-12.97824 8.0629,-17.68064 15.9361,-29.24927 4.7346,-6.957 10.144,-15.70262 12.0207,-19.4347 10.6821,-21.24199 12.5812,-46.4441 4.1362,-54.88908 -4.904,-4.904 -14.7287,-2.167 -24.9875,6.96107 l -4,3.55915 3.1022,0.0416 c 4.2995,0.0577 9.5173,3.80938 11.8978,8.55483 3.1691,6.31724 2.7587,18.9801 -0.8992,27.74571 -1.5513,3.7174 -3.2016,6.99442 -3.6674,7.28226 -0.4657,0.28784 -0.5815,-1.71674 -0.2572,-4.45462 1.0166,-8.58388 -3.6444,-19.46741 -9.6721,-22.58447 -2.8082,-1.45216 -2.8701,-1.4198 -5.8289,3.0472 l -2.9906,4.51494 3.3643,5.58696 c 4.0186,6.67356 5.0484,12.33688 3.5302,19.41559 -2.4057,11.21781 -9.9293,21.12733 -18.3291,24.14193 -2.203,0.79066 -2.7534,1.61388 -2.7674,4.13913 -0.015,2.73876 -1.0183,9.43609 -3.5788,23.89371 -0.9409,5.31262 0.7601,7.06847 6.0176,6.21167 2.2433,-0.36557 5.5221,-1.54206 7.2864,-2.61441 z m -25.1641,-23.1081 c 1.0389,-5.95238 1.4122,-13.97403 1.2279,-26.39119 -0.2636,-17.76183 -0.2506,-17.88259 2.9882,-27.7332 1.7892,-5.44153 3.5296,-12.87018 3.8677,-16.5081 0.6287,-6.76385 -1.0256,-18.09821 -2.6414,-18.09821 -0.4796,0 -3.4852,-2.41259 -6.6791,-5.36131 l -5.807,-5.3613 -0.3167,9.1113 c -0.3553,10.22289 -1.9521,18.87687 -5.925,32.11131 -2.3749,7.91093 -2.7031,10.69412 -2.7125,23 -0.01,12.75498 0.2372,14.71144 2.7774,22 2.576,7.39159 10.5685,22.94167 11.3764,22.13376 0.1933,-0.19326 1.0231,-4.19964 1.8441,-8.90306 z m -455.8178,-1.66499 c 2.1444,-2.72044 2.2027,-3.35734 1.5951,-17.42644 -0.5555,-12.8602 -0.8456,-14.671 -2.4309,-15.17418 -3.5404,-1.12366 -10.5224,-10.16676 -12.3598,-16.00829 -2.2249,-7.07334 -1.6659,-16.47943 1.3494,-22.70827 1.1662,-2.40899 2.1203,-4.68114 2.1203,-5.04923 0,-0.36809 -1.3979,-2.94128 -3.1066,-5.71821 -2.6686,-4.33694 -3.3261,-4.86789 -4.6625,-3.76502 -2.7594,2.27708 -5.5795,10.10041 -6.2304,17.28393 l -0.6343,7 -1.6607,-3.66439 c -2.3221,-5.12359 -4.029,-17.19229 -3.2069,-22.67427 0.973,-6.48885 4.9364,-13.8178 8.457,-15.63835 1.6198,-0.83764 4.6362,-1.52299 6.703,-1.52299 h 3.7579 l -4.4582,-4.62433 c -5.9358,-6.15691 -12.6306,-10.37567 -16.4655,-10.37567 -9.5384,0 -15.6865,18.9795 -12.5373,38.70379 1.8373,11.50777 6.227,23.21723 14.0725,37.53808 6.5773,12.00587 8.7247,17.34831 12.4371,30.94163 1.6765,6.13873 5.1645,11.00946 9.9923,13.95358 3.9445,2.4054 4.6045,2.30811 7.2685,-1.07137 z m 22.0421,-21.83039 c 9.6212,-12.92902 15.2317,-29.00457 15.2325,-43.64528 3e-4,-4.44952 -0.7113,-14.39004 -1.5812,-22.09004 -1.2017,-10.63577 -1.3579,-16.28287 -0.6503,-23.5 0.5123,-5.225 0.7831,-9.6783 0.6017,-9.89621 -0.1814,-0.21792 -2.2591,1.38221 -4.6172,3.55583 -2.3581,2.17363 -5.7561,4.8196 -7.5511,5.87994 -2.4025,1.41918 -3.629,3.15785 -4.648,6.5892 -2.6934,9.06971 -2.8091,14.79496 -0.5736,28.37124 2.2242,13.50799 2.1472,18.15985 -0.4967,30 -1.8628,8.34229 -2.3968,30.51787 -0.7341,30.48532 0.4125,-0.008 2.6706,-2.59558 5.018,-5.75 z m 533.48332,-47.1699 c 9.12455,-10.14871 15.76699,-27.45023 15.73136,-40.97538 -0.045,-17.08054 -6.78085,-33.13769 -18.96578,-45.21133 -8.52967,-8.45176 -14.01828,-11.52667 -31.1322,-17.44134 -10.5128,-3.63328 -18.7145,-7.69548 -24.6347,-12.20122 -4.4081,-3.35497 -4.0853,-4.29002 0.8894,-2.57611 5.379,1.85323 30.8606,5.20282 30.8606,4.05667 0,-1.79126 -7.42,-13.46325 -13.5531,-21.31949 -13.9974,-17.93021 -34.1324,-31.56373 -55.9469,-37.88187 -7.9213,-2.29426 -23.9566,-4.72536 -24.906,-3.77598 -0.7554,0.75536 2.3725,14.15867 4.8143,20.63002 5.6666,15.01768 13.9124,25.13458 33.691,41.33594 6.5675,5.37969 11.472,9.93759 10.8988,10.12866 -1.543,0.51434 -14.5554,-3.61486 -21.9385,-6.96171 -3.5422,-1.60575 -8.8996,-4.77623 -11.9052,-7.04553 l -5.4649,-4.126 0.6752,5.74481 c 2.374,20.19862 14.8839,39.24962 31.3971,47.81364 8.2597,4.28359 13.3133,5.92018 28.7382,9.3067 15.0624,3.30693 23.046,7.02356 29.9783,13.95584 10.48261,10.48261 14.90014,24.96359 12.72826,41.72416 -0.65954,5.08975 -1.50016,10.35018 -1.86804,11.68983 l -0.66888,2.43572 3.0778,-2.19158 c 1.69279,-1.20537 5.06953,-4.40688 7.50388,-7.11445 z M 330.83939,560.46406 c -1.5641,-20.74487 6.8511,-40.80303 21.0812,-50.24843 7.0089,-4.6522 14.5718,-7.08591 28.3846,-9.13403 20.0482,-2.97271 32.3834,-8.39532 43.1051,-18.94921 8.3815,-8.25034 15.1151,-20.77099 17.2669,-32.1068 l 0.6052,-3.18846 -7.2127,3.82773 c -3.9669,2.10525 -10.1434,4.77873 -13.7255,5.94106 -7.0332,2.2822 -20.1877,5.24094 -20.7594,4.66926 -0.1932,-0.19323 6.6739,-5.15991 15.2603,-11.03705 18.3532,-12.5623 26.754,-20.11073 33.2407,-29.86815 4.6781,-7.03696 11.2219,-21.51811 11.2544,-24.90593 0.038,-3.95045 -25.2489,-1.4846 -40.3327,3.93305 -17.3791,6.24203 -29.5729,13.97964 -42.1505,26.74669 -7.7621,7.87913 -18.5,21.87004 -18.5,24.1047 0,1.2459 21.6207,-0.83094 31.5,-3.02584 l 3,-0.66652 -2.5,2.10883 c -5.2817,4.45533 -11.9561,7.67656 -26.2474,12.66762 -18.1062,6.32342 -23.8328,9.68423 -33.2325,19.50338 -18.942,19.7874 -23.6807,47.84501 -12.0671,71.44856 2.9597,6.01548 10.6829,16.42954 12.1842,16.42954 0.2569,0 0.1873,-3.7125 -0.1548,-8.25 z m 549.7998,-5.12882 c 1.7698,-0.75835 6.2906,-3.45835 10.0461,-6 3.7555,-2.54165 7.543,-4.62118 8.4167,-4.62118 3.0855,0 0.4655,-1.0383 -10.1215,-4.01107 -19.0021,-5.33571 -29.0517,-10.95499 -41.2599,-23.07077 l -7.1364,-7.0824 0.4706,4.83212 c 0.6819,7.00169 3.0553,16.15686 5.5303,21.33212 3.331,6.96517 13.4147,16.52821 19.3485,18.34952 6.2793,1.92734 10.653,2.00813 14.7056,0.27166 z m -469.9974,-25.94219 c 9.7898,-5.7372 17.9572,-17.89194 21.0762,-31.36564 l 1.4321,-6.18665 -6.5576,5.40901 c -10.9521,9.03385 -20.6782,13.38519 -44.7248,20.0094 l -5.9893,1.6499 5.4893,4.96268 c 7.8879,7.1311 12.1871,9.0256 19.2397,8.47821 3.6909,-0.28646 7.2848,-1.34551 10.0344,-2.95691 z m 549.05055,-54.42899 c 4.4751,-12.16633 5.55247,-16.39368 6.64258,-26.06377 1.70002,-15.0805 -2.1236,-32.84423 -10.05264,-46.70239 -2.35506,-4.11612 -4.58641,-7.48385 -4.95855,-7.48385 -0.83951,0 -7.91344,15.13828 -11.37037,24.33273 -3.98075,10.58761 -5.83449,21.46836 -5.442,31.94245 0.30826,8.22656 0.75732,10.09368 4.1497,17.25392 3.10827,6.56057 4.59939,8.53228 8.15265,10.78024 2.39174,1.51312 4.89752,3.41253 5.56841,4.2209 2.39892,2.89052 3.77439,1.33254 7.31022,-8.28023 z M 340.37609,446.48278 c 5.2675,-8.03692 7.4684,-17.46651 7.2984,-31.26873 -0.074,-6.05 -0.8628,-14.375 -1.7516,-18.5 -2.4951,-11.5797 -7.9848,-30.99278 -8.7653,-30.99659 -0.3847,-0.002 -2.7682,2.89563 -5.2966,6.43891 -10.9706,15.37386 -14.9059,35.67496 -10.9538,56.50827 1.5192,8.00856 5.2129,21.69206 7.4126,27.46028 l 1.1101,2.91088 3.5949,-3.41088 c 1.9772,-1.87598 5.2853,-5.98994 7.3513,-9.14214 z m 581.5496,-21.35077 c 7.47944,-29.14879 5.07858,-48.69849 -8.757,-71.3066 -5.1845,-8.47176 -15.5713,-21.11136 -17.3486,-21.11136 -0.702,0 -2.6249,3.2625 -4.273,7.25 -10.2985,24.9166 -10.8309,47.29473 -1.5833,66.55055 3.0295,6.30825 5.8836,9.9668 15.7954,20.24782 6.6538,6.9016 12.2098,12.48968 12.3465,12.41796 0.1368,-0.0717 1.8558,-6.39349 3.82,-14.04837 z m -12.8503,-14.41796 c -1.3916,-3.29488 -3.5519,-13.8606 -4.0894,-20 l -0.5689,-6.5 1.4704,3.90259 c 2.0814,5.52377 4.7009,19.03571 4.2233,21.78442 -0.2964,1.70584 -0.5682,1.91925 -1.0354,0.81299 z m -534.4941,-2.25 c 16.6634,-15.49029 24.5376,-28.04807 28.2997,-45.13267 2.5933,-11.77666 1.6543,-28.91557 -2.2961,-41.90855 -1.6373,-5.38517 -3.2719,-10.08618 -3.6324,-10.44669 -1.0657,-1.06572 -16.2673,14.65386 -21.5052,22.23791 -11.4022,16.50975 -16.2603,30.91137 -16.3605,48.5 -0.04,6.99254 0.5882,14.77691 1.6024,19.86047 0.9173,4.59826 1.6678,10.33576 1.6678,12.75 0,2.41424 0.2696,4.38953 0.5991,4.38953 0.3294,0 5.5608,-4.6125 11.6252,-10.25 z m -1.2243,-18.53102 c 0,-4.3536 7.5971,-26.95526 8.6923,-25.86003 1.0082,1.00822 -6.1693,25.19979 -7.7702,26.1892 -0.5071,0.31344 -0.9221,0.16531 -0.9221,-0.32917 z m 498.4841,11.39703 c -1.2,-2.87197 -3.5651,-5.01933 -10.6576,-9.67654 -5.0135,-3.292 -12.3245,-7.50831 -16.2467,-9.36958 -6.6779,-3.16891 -7.4795,-3.91345 -12.6056,-11.70827 -8.4234,-12.80883 -18.7318,-22.66098 -28.9772,-27.69463 -14.6017,-7.17396 -27.3677,-7.76865 -45.8515,-2.13594 -10.519,3.20555 -10.3002,2.68185 -5.2149,12.48053 11.0944,21.37736 28.4295,34.42522 49.8612,37.52963 9.0051,1.30441 12.0276,1.04506 25.8254,-2.216 l 9.1171,-2.15481 6.8829,3.74577 c 3.7856,2.06018 8.5308,5.04872 10.5449,6.64122 3.1481,2.48917 17.8438,9.20048 18.6011,8.49487 0.1447,-0.13485 -0.4309,-1.90616 -1.2791,-3.93625 z m -58.9841,-28.78086 c -5.4039,-1.81384 -22.5,-10.16157 -22.5,-10.98638 0,-1.32839 14.0751,4.11707 20.25,7.83446 3.1625,1.90387 5.75,3.654 5.75,3.88917 0,0.23518 -0.1125,0.39207 -0.25,0.34865 -0.1375,-0.0434 -1.6,-0.53207 -3.25,-1.0859 z m -395.1605,13.28964 c 4.1067,-1.58136 8.9729,-4.02032 10.8137,-5.4199 1.8407,-1.39958 6.6172,-4.2032 10.6142,-6.23026 l 7.2674,-3.68558 9.7326,2.85548 c 8.4318,2.4738 11.3366,2.84547 21.7326,2.78062 10.8413,-0.0676 12.7829,-0.36969 20.1076,-3.12817 15.1999,-5.72429 27.131,-15.37684 37.1617,-30.06484 8.5948,-12.58539 8.5885,-12.4759 0.8932,-15.55653 -15.3555,-6.14725 -33.4134,-7.18882 -46.3852,-2.67549 -12.4861,4.34429 -27.1592,16.25141 -38.0517,30.87871 -3.0222,4.05835 -6.4467,7.62537 -7.6102,7.92669 -3.7513,0.97157 -20.9775,10.06713 -25.6154,13.52511 -3.743,2.79081 -10.3073,11.66937 -8.6276,11.66937 0.2751,0 3.8603,-1.29384 7.9671,-2.87521 z m 57.1605,-31.81633 c 6.7737,-3.47698 19.7307,-8.35856 21.9252,-8.26036 1.5741,0.0704 -9.549,5.66158 -17.9769,9.03627 -10.0657,4.03051 -12.4131,3.5692 -3.9483,-0.77591 z m 394.14,4.8606 c 4.2607,-29.36183 -2.969,-51.28403 -23.7606,-72.04778 -7.4678,-7.45783 -20.1405,-17.12128 -22.4529,-17.12128 -1.6131,0 -5.0456,14.79747 -5.9386,25.60155 -1.7109,20.69687 6.0728,43.15143 20.2923,58.53949 5.6062,6.067 14.6787,13.85896 16.1364,13.85896 0.4054,0 0.5389,-1.35 0.2968,-3 -0.2422,-1.65 -0.1907,-3 0.1145,-3 0.3052,0 2.0182,2.74547 3.8067,6.10105 1.7885,3.35558 4.6274,7.51808 6.3086,9.25 l 3.0568,3.14895 0.2479,-5 c 0.1363,-2.75 0.9877,-10.09892 1.8921,-16.33094 z m -18.802,-14.66906 c -2.8991,-6.53439 -7.2289,-20.44235 -6.5694,-21.1019 0.515,-0.51502 7.1431,13.81831 8.7095,18.83455 0.6411,2.05295 1.0208,4.75295 0.8438,6 -0.2482,1.74878 -0.9307,0.89508 -2.9839,-3.73265 z m 89.80304,7 c -0.89156,-17.71238 -7.30128,-32.80213 -19.36604,-45.59138 -11.0624,-11.72673 -23.6483,-18.93927 -40.082,-22.96957 l -8.7505,-2.14604 -3.3328,-8.45704 c -6.4399,-16.34117 -19.7061,-32.98553 -33.1391,-41.57784 -15.3258,-9.80301 -35.7116,-15.00176 -50.4326,-12.86123 -3.8291,0.55678 -7.1684,0.80598 -7.4206,0.55378 -0.2522,-0.25221 0.5815,-1.5657 1.8528,-2.91888 l 2.3113,-2.46032 -4.3907,-6.75568 c -18.3171,-28.18303 -51.0195,-40.58899 -81.4692,-30.90609 -14.9641,4.75854 -25.0531,13.20777 -30.9356,25.90774 l -3.2527,7.02249 -0.7105,-4.41996 c -0.3908,-2.43099 -2.2588,-7.67963 -4.1512,-11.66365 -3.9121,-8.23634 -9.2029,-12.95068 -20.386,-18.16491 -11.3205,-5.27828 -17.9721,-6.57974 -33.4856,-6.55184 -16.3286,0.0294 -24.9506,1.98672 -37.4434,8.50041 -13.3116,6.94066 -27.3325,19.21436 -35.0566,30.68821 -1.3832,2.05474 -1.8503,2.14555 -6,1.1665 -7.6959,-1.81571 -31.3058,-0.57759 -39.4878,2.07078 -21.8687,7.07845 -41.8095,22.98183 -51.4163,41.00605 -3.0816,5.78175 -3.3718,6.02848 -7.0891,6.02848 -5.7058,0 -16.8827,2.55842 -24.5016,5.6085 -21.8365,8.74172 -39.6657,29.05933 -45.4924,51.84176 -2.1341,8.34397 -3.8124,27.55633 -2.4057,27.53826 0.4911,-0.006 1.7929,-1.90836 2.8929,-4.22677 6.5174,-13.73633 20.5938,-30.18778 34.2311,-40.00672 11.4231,-8.22466 10.6552,-8.28541 14.9212,1.18037 2.0183,4.47848 3.9728,7.78762 4.3434,7.35364 0.3706,-0.43398 1.4823,-3.03905 2.4704,-5.78905 7.6362,-21.25115 23.1379,-39.58807 43.5405,-51.50382 7.8154,-4.56446 25.2899,-11.84546 30.4318,-12.67987 l 3.3667,-0.54635 1.2566,5.61502 c 0.6911,3.08827 1.5225,5.60351 1.8475,5.58944 0.325,-0.0141 2.5873,-3.16873 5.0273,-7.01034 14.8825,-23.43095 42.2834,-38.76935 72.5739,-40.62532 9.6175,-0.58928 25.582,0.86422 28.3618,2.58221 1.2723,0.78637 -6.1927,19.43975 -14.9585,37.37765 -2.1525,4.40476 -3.9127,8.05201 -3.9115,8.10502 10e-4,0.053 5.0637,0.11851 11.25,0.14557 13.031,0.057 20.7867,1.77929 31.4207,6.97751 7.9714,3.89662 18.784,11.61557 19.7322,14.08641 0.846,2.20475 -12.6808,20.61662 -23.1343,31.48898 -4.5489,4.73116 -8.2708,8.83188 -8.2708,9.11272 0,0.28084 2.9388,1.95738 6.5307,3.72564 10.4658,5.15232 21.7265,15.02233 29.0216,25.43766 1.3336,1.90388 1.6182,1.76419 7.1682,-3.51761 7.1254,-6.78103 16.1392,-11.9008 27.4333,-15.58192 l 8.618,-2.80888 -5.1787,-7.0698 c -5.1253,-6.99686 -17.0038,-29.5623 -18.1152,-34.41304 -0.5197,-2.26821 0.087,-2.87082 6.2232,-6.18351 10.5197,-5.67901 22.8962,-8.92665 34.7989,-9.13137 5.5,-0.0946 12.321,0.1755 15.1578,0.60022 l 5.1578,0.77221 -2.9754,-9.77221 c -3.2855,-10.79032 -7.8402,-32.84345 -7.8402,-37.96082 0,-4.38638 2.6165,-4.97893 15.592,-3.53107 32.0186,3.57274 59.4429,22.32794 73.4324,50.21968 l 3.2602,6.49999 3.3882,-7.44715 c 1.8635,-4.09594 3.6094,-7.66831 3.8797,-7.93861 0.8518,-0.85182 9.5791,3.81746 19.9475,10.67232 22.1045,14.61387 38.7216,36.18052 44.1683,57.32414 0.9761,3.78912 2.0126,6.88545 2.3032,6.88074 0.2907,-0.005 2.4695,-3.15471 4.8417,-7 2.3723,-3.84529 4.5722,-6.99144 4.8887,-6.99144 1.3572,0 14.1811,11.28238 18.3773,16.16826 11.4288,13.30708 20.69891,28.8897 24.55926,41.28306 l 1.85375,5.95132 1.32609,-6.95132 c 0.83056,-4.35379 1.138,-10.68807 0.82274,-16.95132 z m -510.12494,-2.09018 c 3.7773,-5.69078 5.0643,-6.73705 4.1942,-3.40982 -0.7467,2.85545 0.687,2.50437 7.1203,-1.7436 8.1785,-5.40033 21.5498,-18.55426 26.6163,-26.18356 9.9421,-14.97102 13.8956,-28.56316 13.9828,-48.07284 0.033,-7.42499 -0.2537,-14.26891 -0.6374,-15.20869 -0.6308,-1.54457 -1.3507,-1.4131 -7.495,1.3687 -14.2786,6.46451 -26.4089,15.58608 -34.9172,26.25646 -12.7487,15.98821 -18.5991,35.25057 -18.0968,59.58353 0.1192,5.775 -0.1496,12.23238 -0.5973,14.34972 l -0.814,3.84973 3.5266,-2.6899 c 1.9397,-1.47945 5.1426,-5.12432 7.1175,-8.09973 z m 7.5165,-21.40982 c -0.068,-3.30118 12.5152,-26.78559 13.7114,-25.58943 0.5987,0.59877 -9.7636,22.02654 -12.1331,25.08943 -1.1634,1.50379 -1.5549,1.62784 -1.5783,0.5 z m 321.4674,-2.58424 c 3.3,-0.85415 9.0913,-1.85962 12.8696,-2.23438 l 6.8695,-0.68138 -7.3674,-5 c -9.2109,-6.25112 -21.9101,-18.94049 -28.2692,-28.24741 -4.2018,-6.14948 -5.6237,-7.43408 -10.6346,-9.60725 -8.412,-3.64818 -16.7893,-5.02913 -26.2868,-4.33325 -7.8485,0.57505 -18.2679,3.00117 -20.0121,4.65972 -2.0691,1.96752 10.3636,20.94199 19.8404,30.28002 7.0113,6.90862 15.2692,11.92882 24.4624,14.87121 7.0002,2.24051 20.469,2.37871 28.5282,0.29272 z m -18.5,-17.79923 c -6.9995,-2.92571 -16.6912,-8.88611 -15.2371,-9.37081 1.2657,-0.42192 16.6727,7.04782 20.3203,9.85191 3.2093,2.46707 1.6074,2.31545 -5.0832,-0.4811 z m 62.1245,12.27501 c -1.0592,-2.41535 -3.1036,-7.01025 -4.5432,-10.2109 -2.5859,-5.74928 -2.5904,-5.80045 -0.3768,-4.25 1.2323,0.86315 2.5904,1.56936 3.0181,1.56936 1.3426,0 0.8461,-15.73795 -0.7506,-23.79216 -2.1227,-10.70672 -8.8939,-24.08761 -16.331,-32.27203 -6.4785,-7.12953 -18.1083,-15.70083 -25.7984,-19.01366 -7.1859,-3.09561 -19.2762,-6.92214 -21.8712,-6.92214 h -2.2735 l 1.8532,8.48031 c 6.0702,27.77746 17.6108,50.34499 33.4297,65.37144 6.947,6.59897 18.4091,15.14824 20.3094,15.14824 0.4949,0 1.7571,0.95726 2.8049,2.12723 2.1164,2.36334 11.606,9.00504 12.1249,8.48614 0.1817,-0.18166 -0.5363,-2.30649 -1.5955,-4.72183 z m -21.5017,-31.14154 c -4.426,-6.93149 -9.8133,-17.68257 -9.4287,-18.81647 0.5645,-1.66415 9.8934,13.00766 11.8066,18.56834 1.0404,3.02397 1.6853,5.49813 1.4331,5.49813 -0.2522,0 -1.9672,-2.3625 -3.811,-5.25 z m -209.7475,23.71761 c 11.1141,-2.61992 23.2569,-9.71026 33.657,-19.65285 10.4043,-9.94662 17.9663,-19.19903 16.9868,-20.784 -1.0152,-1.64252 -7.3227,-4.58619 -15.0191,-7.00929 -9.0121,-2.83733 -22.2261,-3.1146 -32,-0.67145 -6.6418,1.66024 -7.2814,2.08333 -12.5,8.26891 -9.5045,11.26579 -23.9633,22.92349 -37.75,30.43669 -3.4375,1.87332 -6.25,3.75216 -6.25,4.1752 0,0.42305 2.9546,0.76918 6.5658,0.76918 3.6111,0 7.4521,0.47438 8.5355,1.05418 8.2508,4.41568 26.5192,6.0665 37.774,3.41343 z m -17.8753,-16.86883 c 0,-0.22068 1.5854,-1.33663 3.5231,-2.47991 4.5367,-2.67668 20.7856,-8.42728 19.9383,-7.05627 -0.7497,1.21297 -9.5747,5.29648 -17.3679,8.03651 -5.8026,2.04015 -6.0935,2.11172 -6.0935,1.49967 z m -50.2049,5.01438 c 2.0377,-1.81512 6.3724,-4.50734 9.6327,-5.98272 16.5947,-7.50975 34.0426,-22.99591 45.7772,-40.63043 6.0582,-9.10414 16.5788,-29.04076 19.8108,-37.54139 l 1.0466,-2.75287 -9.7812,0.59057 c -31.4227,1.89725 -58.6532,21.59236 -68.4088,49.47829 -2.2921,6.55187 -4.8724,18.96083 -4.8724,23.43205 v 3.03072 l 3.6819,-2.80831 3.6819,-2.8083 -3.4022,5.93961 c -6.1138,10.67368 -8.925,15.92616 -8.9434,16.70994 -0.03,1.29598 7.8482,-3.15764 11.7769,-6.65716 z m 13.1422,-27.27517 c 3.2421,-6.65327 11.7973,-17.59039 15.1725,-19.3967 2.4168,-1.29343 -8.0259,14.22381 -14.2507,21.17566 l -3.9246,4.38305 z"
       id="path1" />
  </g>
</svg>
