<?xml version="1.0" encoding="UTF-8" standalone="no"?>
<!-- Created with Inkscape (http://www.inkscape.org/) -->

<svg
   version="1.1"
   id="svg1"
   width="1254"
   height="1254"
   viewBox="0 0 1254 1254"
   xmlns="http://www.w3.org/2000/svg"
   xmlns:svg="http://www.w3.org/2000/svg">
  <defs
     id="defs1" />
  <g
     id="g1">
    <path
       style="fill:#000000"
       d="m 607.05118,1106.4531 c -18.7888,-4.8983 -28.0417,-9.9301 -39.5054,-21.4835 -6.3372,-6.3868 -9.3962,-10.4139 -12,-15.7977 -2.9023,-6.0011 -3.8336,-7.141 -5.4946,-6.7252 -1.1,0.2753 -4.457,1.1644 -7.4601,1.9758 -11.2721,3.0455 -26.019,1.302 -36.4355,-4.3077 -4.6203,-2.4882 -18.6044,-14.5925 -18.6044,-16.1035 0,-0.3543 2.1822,-1.4192 4.8494,-2.3665 2.6672,-0.9473 6.0986,-2.705 7.6253,-3.9059 5.5538,-4.3686 8.9484,-15.9323 6.9093,-23.5365 -0.5509,-2.0546 -0.8913,-1.8927 -5.3097,2.5257 -14.1734,14.1735 -38.4013,17.1005 -58.3196,7.0457 -7.4902,-3.781 -18.4681,-14.0963 -22.0964,-20.7626 l -2.6351,-4.84159 6.4259,-0.51581 c 8.3833,-0.67293 12.8656,-3.39482 15.0622,-9.14656 2.198,-5.75528 0.8259,-10.80909 -4.7831,-17.61756 -13.6361,-16.55222 -18.2821,-24.97503 -20.7433,-37.60531 l -1.1913,-6.11328 -10.6468,-0.52263 c -30.5208,-1.49823 -52.7764,-19.43263 -60.217,-48.52512 -1.0614,-4.15009 -1.9298,-9.95721 -1.9298,-12.9047 v -5.35909 l 2.75,0.76905 c 5.4372,1.52054 12.9406,0.8914 15.9273,-1.33548 5.4785,-4.08467 6.8279,-7.84959 6.7725,-18.89547 -0.059,-11.74647 -1.9248,-17.15683 -10.8068,-31.33613 -12.1042,-19.3231 -15.6755,-29.98282 -16.3993,-48.94844 -0.5456,-14.29764 0.6207,-24.6016 3.8456,-33.97497 1.0509,-3.05446 1.9107,-5.70811 1.9107,-5.89701 0,-0.1889 -3.3529,-0.34345 -7.4508,-0.34345 -16.3252,0 -30.6763,-5.92097 -42.1613,-17.39482 -10.7044,-10.6941 -18.3879,-28.08146 -18.3879,-41.61103 v -4.68593 l 4.4261,0.0959 c 11.6697,0.25282 15.9358,-12.30168 11.9886,-35.28035 l -1.5852,-9.22867 -7.7884,-7.69754 c -17.2593,-17.05794 -26.0411,-37.14578 -26.0411,-59.56743 0,-14.49952 2.6717,-25.1089 10.0963,-40.0924 l 4.1649,-8.40509 -4.1423,-11.05211 c -6.4252,-17.14298 -8.2368,-25.68928 -8.8346,-41.67849 -0.6227,-16.65518 0.9557,-26.51762 6.1967,-38.72058 4.7662,-11.09752 9.0797,-17.89683 16.3756,-25.81266 l 6.3565,-6.89673 0.2424,-15.73603 c 0.2811,-18.24759 2.0341,-26.43061 8.6193,-40.23604 6.8178,-14.29276 15.8823,-24.80222 29.247,-33.9092 7.5424,-5.13956 22.3588,-11.74091 31.63,-14.09259 4.6485,-1.17911 9.2183,-2.55409 10.1552,-3.0555 0.9369,-0.50141 3.3465,-3.84959 5.3546,-7.44039 14.7668,-26.40557 37.6628,-44.47837 65.363,-51.59393 4.2215,-1.08441 13.9754,-2.37514 21.6754,-2.8683 7.7,-0.49316 15.2943,-1.38939 16.8762,-1.99162 1.582,-0.60223 6.0536,-4.03663 9.9369,-7.63201 16.1083,-14.91385 32.125,-24.21457 49.1869,-28.56231 11.9475,-3.0445 32.2784,-3.26133 43.5,-0.46394 9.7708,2.43574 20.5615,7.40775 28.7348,13.24012 4.4102,3.147 6.9558,4.38142 7.7817,3.77336 8.2593,-6.08145 14.7358,-10.02571 20.4661,-12.46418 23.0569,-9.81159 50.3788,-8.78688 73.5174,2.75725 9.2391,4.60952 17.5159,10.59596 27.1288,19.62182 10.8186,10.15796 12.3478,10.81192 27.6096,11.80716 14.6018,0.95221 22.3926,2.55015 33.7075,6.91363 19.6296,7.57001 38.7645,24.98072 51.046,46.44643 1.7604,3.07686 4.2292,6.2682 5.4863,7.09187 1.2571,0.82367 6.5012,2.63123 11.6537,4.01682 12.0229,3.23316 29.6133,11.83661 37.6646,18.42168 21.6212,17.68381 34.0917,48.13698 31.6106,77.19344 l -0.6583,7.70961 6.2255,6.79039 c 13.3379,14.54803 20.76,31.09897 23.1443,51.6107 2.0543,17.67198 -0.5119,33.54658 -9.0541,56.01014 l -3.9289,10.3319 5.3554,10.68349 c 8.4311,16.81937 10.8954,32.12401 8.1172,50.41392 -2.739,18.03179 -9.7988,31.52688 -24.2071,46.27257 -8.1622,8.35337 -8.3702,8.68895 -9.9182,16 -2.0275,9.57619 -2.1249,24.51686 -0.1893,29.06416 2.4932,5.85763 6.136,8.41449 11.8662,8.32882 l 4.9959,-0.0747 -0.6613,6.0747 c -2.5289,23.23009 -14.4505,41.56417 -32.8971,50.59197 -10.3169,5.04913 -18.0171,6.98272 -27.8074,6.98272 -4.2844,0 -7.7793,0.3375 -7.7664,0.75 0.013,0.4125 0.8841,3.9844 1.9358,7.93756 7.7302,29.05654 3.4357,54.56246 -13.5203,80.30009 -2.5612,3.88774 -6.0685,10.31845 -7.7939,14.29048 -2.824,6.50109 -3.1375,8.21992 -3.1411,17.22187 0,11.30267 1.2399,14.75469 6.7309,18.67116 3.5151,2.50715 11.4492,3.16716 17.1467,1.42638 l 2.8817,-0.88044 -0.7213,6.73488 c -2.6178,24.44484 -15.3581,44.08551 -34.6428,53.40576 -10.5546,5.10101 -19.0186,7.10863 -30.0488,7.12748 l -8.6496,0.0148 -1.6455,7.39619 c -2.212,9.94248 -8.0263,21.60407 -15.0092,30.10381 -8.8137,10.72825 -11.2014,16.3528 -9.5481,22.49248 1.7967,6.67242 8.7562,11.0075 17.6715,11.0075 h 4.3711 l -1.9282,3.77975 c -1.0606,2.0788 -3.7119,5.9381 -5.8918,8.5761 -19.5259,23.6291 -55.3482,26.163 -75.1291,5.3144 -1.8746,-1.9758 -3.748,-3.3826 -4.1629,-3.1261 -1.5816,0.9775 -2.0744,8.6796 -0.8751,13.6787 1.551,6.4653 8.5825,13.9886 14.8212,15.8578 2.2689,0.6798 4.1253,1.5734 4.1253,1.9859 0,1.62 -9.2412,10.133 -15.1346,13.9421 -14.4401,9.3331 -32.1835,10.612 -49.0478,3.5353 -1.2229,-0.5132 -2.0838,0.067 -3.1517,2.125 -0.8081,1.5571 -4.3647,6.31 -7.9035,10.562 -7.3608,8.8439 -9.3594,13.8384 -7.8222,19.5472 0.5604,2.081 1.6888,4.6698 2.5075,5.7528 2.1238,2.8093 1.9509,3.2757 -1.7947,4.8407 -12.2099,5.1016 -31.4658,6.0127 -46.153,2.1838 z m 21.2026,-18.8054 c -0.063,-8.4531 2.3616,-13.4618 11.2289,-23.197 8.1821,-8.9828 12.6551,-16.9563 13.6284,-24.2934 0.5278,-3.9785 0.078,-6.9231 -2.1981,-14.3813 -2.4395,-7.9944 -2.8618,-11.0754 -2.8618,-20.8783 0,-15.21277 2.7085,-23.5903 14.1132,-43.65204 9.1516,-16.09848 12.6111,-25.34 14.4759,-38.67015 1.4017,-10.01947 0.1261,-24.83294 -3.1592,-36.6883 -1.1043,-3.98479 -1.829,-7.42383 -1.6105,-7.64232 0.4074,-0.40735 10.466,22.36413 12.6566,28.65276 0.6705,1.925 1.4578,8.68636 1.7496,15.02524 0.7109,15.44697 -1.3465,23.53654 -11.1843,43.97476 -8.8,18.28239 -10.5413,24.46474 -10.5413,37.42585 0,25.5584 15.0532,43.6994 35.1137,42.3166 8.9644,-0.6179 9.488,-1.1079 5.9317,-5.5513 -6.8524,-8.5616 -9.9833,-21.5195 -8.1607,-33.7739 2.1034,-14.14257 5.3967,-21.65865 17.8873,-40.82347 7.7279,-11.85713 14.3658,-25.48287 16.8527,-34.59378 2.5342,-9.28448 2.5091,-29.88686 -0.049,-40 -4.2985,-16.99438 -12.3645,-32.81072 -26.491,-51.94551 -12.568,-17.02367 -16.085,-25.30296 -18.648,-43.89796 -2.6886,-19.50585 -7.162,-28.94529 -18.8772,-39.83333 -8.1243,-7.55069 -19.7743,-13.61058 -29.477,-15.33283 -5.3196,-0.94423 -8.0925,-0.84489 -16.208,0.58064 -9.3034,1.63419 -10.3045,1.63164 -20.123,-0.0513 -12.6407,-2.16668 -20.9771,-1.12679 -31.4503,3.92313 -21.4638,10.34931 -32.0513,25.29756 -35.3049,49.84607 -1.4618,11.02984 -4.3989,21.59696 -7.9244,28.51029 -1.5989,3.13545 -7.5034,12.22582 -13.1212,20.20082 -25.681,36.45707 -32.9728,66.05511 -23.3613,94.82598 3.3586,10.05355 5.232,13.55238 15.889,29.67402 15.8605,23.99337 18.9901,32.31734 18.3462,48.79703 -0.3324,8.51 -0.8581,11.1986 -3.1682,16.203 -1.5233,3.3 -3.9006,7.1825 -5.283,8.6278 l -2.5135,2.6278 3.2192,1.1222 c 5.3688,1.8715 12.9029,1.3438 18.5851,-1.3018 14.4001,-6.7048 23.1412,-24.7728 22.0501,-45.57781 -0.6099,-11.62958 -3.4382,-20.56872 -11.6492,-36.81851 -7.2864,-14.41986 -9.9489,-22.22003 -11.3254,-33.17973 -1.2894,-10.26638 0.4438,-22.55122 4.7263,-33.5 2.991,-7.64698 15.6629,-31.7043 16.3421,-31.02514 0.2318,0.23186 -1.0324,3.91399 -2.8093,8.18251 -7.9355,19.06183 -10.3444,35.22827 -7.6069,51.0501 2.1261,12.28745 5.2826,20.30455 13.1081,33.29276 17.284,28.68646 19.6284,41.87323 12.5142,70.39002 -3.0348,12.1651 -3.153,13.3121 -2.1007,20.3871 2.0706,13.9219 10.2618,26.4916 22.3663,34.322 9.3509,6.049 26.7774,12.6577 33.8447,12.8349 2.5647,0.064 2.6236,-0.077 2.578,-6.1842 z m -23.7982,-48.75 c 1.0422,-2.475 3.4464,-7.875 5.3425,-12 7.1765,-15.6126 10.7531,-29.82368 10.7531,-42.72587 0,-13.60426 -3.5987,-26.11609 -14.4128,-50.10941 -5.8973,-13.08457 -8.5711,-24.10531 -8.5802,-35.36555 -0.01,-8.2531 1.4527,-18.49 2.8498,-19.98972 0.3537,-0.37978 0.6958,3.67022 0.7601,9 0.1529,12.67897 3.9685,24.32745 13.1648,40.1905 14.6356,25.2457 17.5571,33.87978 17.5951,52 0.047,22.27985 -7.0814,38.90995 -25.2891,59.00005 l -4.0784,4.5 z m 54.8193,-218.00005 c -0.3145,-0.825 -1.1059,-3.3 -1.7587,-5.5 -2.8558,-9.62419 -11.0456,-20.38503 -20.133,-26.45337 -5.7889,-3.86566 -6.409,-4.04663 -13.8656,-4.04663 h -7.8057 l -1.7439,5.25 -1.7439,5.25 -1.6699,-5 -1.6699,-5 -7.9962,-0.28769 c -7.895,-0.28405 -8.0739,-0.23572 -14.1499,3.82167 -9.8776,6.59599 -17.7657,17.14139 -20.3424,27.19534 -0.6725,2.62388 -1.5358,4.77068 -1.9184,4.77068 -1.4029,0 -2.0159,-10.99048 -0.9431,-16.90666 1.5026,-8.28627 3.3647,-13.25814 7.54,-20.13145 l 3.5342,-5.81785 -5.1609,-7.60643 c -2.8385,-4.18354 -4.9679,-7.79945 -4.732,-8.03535 0.2359,-0.2359 2.5598,0.21239 5.1643,0.99621 10.7899,3.24729 16.6934,3.73788 29.6713,2.46576 9.6899,-0.94983 15.2098,-0.96225 24.554,-0.0553 12.6281,1.22572 22.3696,0.44056 30.6112,-2.46726 5.1325,-1.81083 5.0301,-0.59626 -0.6652,7.89584 -2.475,3.69037 -4.5,6.91538 -4.5,7.16669 0,0.25132 1.5495,2.87922 3.4434,5.83978 4.2216,6.59951 7.2017,15.19648 8.0269,23.15599 0.6312,6.08922 -0.6872,16.2795 -1.7466,13.5 z m -186.5229,191.87675 c 7.3573,-1.5594 11.7121,-3.9737 16.4619,-9.1266 4.8828,-5.29725 6.7522,-10.30097 6.6975,-17.92697 -0.043,-5.96226 -1.1463,-8.58484 -13.2299,-31.4388 -12.6472,-23.92017 -11.9899,-51.42735 1.8417,-77.07034 2.1989,-4.07661 8.5115,-13.89293 14.028,-21.81404 12.1191,-17.40182 17.1608,-26.56483 20.0829,-36.5 1.9023,-6.46807 2.2377,-10.25182 2.4374,-27.5 0.2487,-21.49078 0.5345,-23.02819 6.3802,-34.32927 1.6134,-3.1189 3.4749,-7.47073 4.1369,-9.67073 2.21,-7.34497 7.4021,-15.85372 13.6759,-22.4119 3.4173,-3.57219 6.4283,-6.27981 6.6912,-6.01693 0.2629,0.26288 -0.8436,3.16691 -2.459,6.4534 -1.6153,3.28649 -3.2293,7.48425 -3.5868,9.32836 l -0.6499,3.35293 4.8956,-3.48917 c 2.6926,-1.91905 8.5371,-5.30971 12.9879,-7.53481 4.4508,-2.2251 9.5133,-5.2413 11.25,-6.70265 3.3265,-2.79906 3.8484,-2.63832 2.0916,0.64422 -1.0005,1.86959 -0.8316,1.95186 2.75,1.33911 2.0989,-0.35908 7.2303,-2.22161 11.4032,-4.13898 l 7.5872,-3.48611 4.8586,3.08127 c 6.4089,4.06442 11.0893,4.06679 18.7864,0.01 5.4754,-2.88613 5.9611,-2.97456 8.2176,-1.49604 3.0924,2.02619 11.0358,5.09913 15.2766,5.90977 3.0374,0.58062 3.2573,0.45653 2.6398,-1.48927 -0.6429,-2.02555 -0.52,-2.00716 2.6865,0.40206 1.8481,1.38859 6.1793,3.93413 9.6248,5.65674 3.4456,1.72262 8.7115,4.69723 11.702,6.61025 2.9905,1.91302 5.6477,3.47822 5.9048,3.47822 0.9189,0 -1.6367,-7.60489 -4.5367,-13.5 l -2.9516,-6 5.6806,5.5 c 7.2133,6.98403 13.0488,15.85214 15.1038,22.95322 0.8829,3.05073 3.1375,8.56065 5.0101,12.24426 5.1288,10.08854 6.3355,17.54717 5.6279,34.78553 -0.4809,11.71584 -0.2651,16.10085 1.0927,22.20415 2.0049,9.01167 7.6198,20.98079 13.7511,29.31284 7.9884,10.85573 18.0546,26.67583 22.0392,34.63685 12.4836,24.94138 11.6224,54.68345 -2.3008,79.46716 -7.2257,12.86184 -9.6531,25.49918 -6.8421,35.62073 2.5946,9.34234 12.1817,17.16134 22.8169,18.60894 7.6854,1.0462 13.8133,0.034 20.9829,-3.4651 l 5.3454,-2.609 -4.9761,-4.353 c -5.8883,-5.15089 -8.4657,-10.72455 -8.5119,-18.40658 -0.049,-8.08265 2.6307,-14.8069 10.049,-25.22007 14.7814,-20.74879 19.0944,-36.72081 15.8235,-58.59692 -2.1048,-14.07654 -6.1607,-25.6354 -16.1598,-46.05407 -4.6787,-9.55408 -8.3349,-17.54284 -8.125,-17.75279 0.21,-0.20995 5.419,4.57107 11.5757,10.6245 6.4703,6.36186 11.3797,10.47731 11.6342,9.75279 3.9951,-11.3729 5.7148,-20.12129 5.7505,-29.25344 0.048,-12.16302 -1.8138,-19.93238 -7.3031,-30.48339 -4.1168,-7.913 -15.707,-22.95265 -27.3706,-35.51661 l -6.4984,-7 -0.039,7.99605 c -0.022,4.39782 -1.0302,14.39228 -2.2412,22.2099 -1.9793,12.77792 -2.0726,14.98209 -0.9239,21.81848 0.7028,4.18255 2.1308,10.1631 3.1734,13.2901 l 1.8956,5.68547 -4.3727,-4.86012 c -10.0001,-11.11491 -12.5344,-19.85509 -12.5558,-43.30191 -0.01,-9.72632 -0.5787,-19.10928 -1.431,-23.56346 -2.8052,-14.66193 -9.6981,-27.67778 -20.9054,-39.47619 -9.2318,-9.71873 -18.069,-16.1156 -30.7156,-22.2339 -13.3869,-6.47687 -23.5233,-9.06489 -35.5024,-9.06489 -9.8922,0 -10.01,0.0415 -27.202,9.58908 -5.7987,3.22031 -6.3001,4.74597 -3.8324,11.66092 1.6215,4.54343 0.3891,4.90514 -3.6213,1.06291 l -2.8047,-2.68709 -2.9403,2.81699 c -3.4657,3.32038 -6.6679,2.92244 -5.6726,-0.70496 0.3377,-1.23082 0.8544,-3.81285 1.1483,-5.73785 0.5281,-3.45949 0.4455,-3.55208 -7.1397,-8 -12.0306,-7.05479 -14.6951,-7.88445 -25.5175,-7.94562 -32.6054,-0.18429 -67.8059,21.83059 -82.8284,51.80209 -5.7394,11.45059 -7.1585,19.29274 -7.4452,41.14353 -0.2244,17.09906 -0.5312,20.32376 -2.492,26.19044 -2.4016,7.18597 -8.1856,16.80274 -12.4703,20.73387 -3.1431,2.88375 -3.2579,2.20172 -0.7452,-4.42431 3.6733,-9.6861 4.6497,-19.38017 3.1505,-31.27673 -0.7432,-5.8978 -1.5478,-15.56077 -1.7879,-21.47327 -0.2402,-5.9125 -0.7703,-10.75 -1.178,-10.75 -1.3447,0 -19.9266,19.36215 -25.4479,26.5164 -13.6273,17.65773 -19.7397,37.36716 -16.745,53.99378 1.4784,8.20802 5.4286,22.48982 6.2204,22.48982 0.3563,0 2.7077,-2.41113 5.2254,-5.35806 2.5176,-2.94693 7.7564,-8.17635 11.6417,-11.62093 l 7.0642,-6.26287 -8.8927,18.05197 c -12.9044,26.19576 -17.2941,41.23236 -17.3838,59.54709 -0.086,17.47599 4.6514,30.40396 16.7453,45.70082 9.9898,12.63542 11.9399,16.87159 11.9423,25.94198 0,8.93068 -2.182,13.90148 -8.477,19.28975 l -4.0943,3.5046 5.3551,2.62 c 4.5634,2.2327 10.8641,4.0562 15.4654,4.4761 0.6604,0.06 3.5854,-0.3959 6.5,-1.0137 z m -60.2683,-105.12675 c 0.4892,-1.2375 1.4354,-5.625 2.1026,-9.75 0.6673,-4.125 2.2823,-10.47944 3.589,-14.12099 3.0704,-8.55638 3.0612,-16.26358 -0.034,-28.69779 -3.7609,-15.10785 -4.8911,-23.72231 -4.1429,-31.57665 1.4211,-14.91657 4.7769,-23.77329 15.5417,-41.01811 12.1009,-19.38512 15.9764,-34.33923 14.0208,-54.10088 -0.9941,-10.04458 -1.3849,-12.28735 -3.1725,-18.20603 l -0.9726,-3.22045 -4.7809,5.72045 c -2.6294,3.14625 -10.5101,11.79545 -17.5125,19.22045 -19.1397,20.29473 -25.0802,28.71324 -31.0992,44.07196 -5.5717,14.21734 -6.9336,32.02635 -3.8763,50.68881 2.8245,17.24129 0.9491,31.49862 -5.3384,40.5843 -2.8628,4.13684 -11.3761,9.63025 -14.9481,9.64555 -1.205,0.005 -2.4032,0.35273 -2.6625,0.77237 -0.9923,1.60556 4.7871,11.59137 9.913,17.12798 8.9497,9.66668 21.2386,14.91675 35.2119,15.04322 6.641,0.0601 7.3486,-0.12929 8.1611,-2.18419 z m 420.6597,-0.24915 c 12.4839,-4.19072 21.1982,-11.11297 26.5469,-21.08778 4.1352,-7.71161 4.4371,-9.40889 1.6783,-9.43503 -7.0434,-0.0667 -17.2881,-9.05399 -20.2717,-17.78351 -2.6539,-7.76472 -2.9842,-17.60213 -1.047,-31.18565 3.369,-23.62287 0.9917,-41.25119 -8.0251,-59.50888 -5.6373,-11.41475 -12.6477,-20.72599 -29.1294,-38.68956 -7.2214,-7.87074 -14.718,-16.22352 -16.659,-18.56172 l -3.5293,-4.25129 -1.0123,3.25129 c -3.1472,10.10836 -4.541,26.29997 -3.2206,37.4153 1.3527,11.38747 5.106,21.79421 11.9506,33.13517 13.3633,22.14217 16.4652,31.42473 16.4411,49.20081 -0.013,9.69914 -0.5088,13.3506 -3.1651,23.31758 -4.0567,15.22123 -4.0174,19.89912 0.2762,32.84947 1.8842,5.68312 3.7451,13.03295 4.1353,16.33295 0.3902,3.3 1.2111,6.33061 1.8242,6.73469 2.6324,1.73497 15.8053,0.7508 23.2069,-1.73384 z m 27.9549,-120.00085 c 5.4623,-11.13953 6.9453,-18.19417 6.8318,-32.5 -0.2052,-25.86182 -5.8085,-39.88305 -29.3651,-73.48033 -13.3278,-19.00856 -18.4198,-28.03348 -21.7336,-38.51967 -1.4774,-4.675 -2.9604,-8.84317 -3.2958,-9.2626 -0.8513,-1.06499 -6.7232,13.48488 -9.0306,22.37734 -2.95,11.36838 -4.2671,27.15156 -2.9569,35.43253 3.2741,20.6937 9.2286,32.39038 25.9384,50.95273 13.0267,14.47088 22.167,31.27071 25.7201,47.27354 2.1086,9.49668 2.1221,9.49278 7.8917,-2.27354 z m -493.1576,4.62113 c 2.0759,-15.64884 12.2847,-34.58443 27.9559,-51.85349 8.9095,-9.81788 13.8374,-16.5671 17.6141,-24.12411 9.3355,-18.67972 10.28,-44.44034 2.4899,-67.91561 -1.8748,-5.64965 -4.0366,-11.47061 -4.8042,-12.93547 l -1.3955,-2.66339 -1.6889,5.93547 c -2.5773,9.05716 -9.7794,22.94174 -17.084,32.93547 -3.6181,4.95 -9.6955,13.275 -13.5054,18.5 -7.7196,10.58672 -15.5418,25.56403 -19.4061,37.15693 -5.3527,16.05815 -5.6143,36.6678 -0.6487,51.10057 2.2936,6.66651 8.1871,18.7425 9.1469,18.7425 0.3734,0 0.9701,-2.19549 1.326,-4.87887 z m 102.016,-57.62113 c 3.7401,-3.3 9.477,-9.89944 12.7487,-14.66542 13.6306,-19.85618 32.3796,-34.40281 56.5204,-43.85202 5.5961,-2.19041 10.6269,-3.98256 11.1796,-3.98256 0.5528,0 -0.1983,-2.1375 -1.669,-4.75 -2.3473,-4.1697 -2.6745,-5.84951 -2.6784,-13.75 0,-7.80951 0.361,-9.74424 2.7585,-14.62639 3.8735,-7.88786 11.0398,-14.32503 18.296,-16.43445 3.793,-1.10265 7.1723,-2.98347 9.8555,-5.48514 l 4.0832,-3.80711 0.3531,-10.32345 c 0.1943,-5.67791 -0.1562,-18.02934 -0.7788,-27.44764 -1.7244,-26.08627 -5.3057,-36.53656 -14.3019,-41.73322 -4.0488,-2.33876 -11.7724,-4.9892 -11.7724,-4.0398 0,0.24288 1.7673,3.95661 3.9274,8.25273 l 3.9273,7.81114 h -8.9059 -8.9059 l 1.9447,-3.14658 1.9447,-3.14657 -3.1568,-3.82965 c -2.8013,-3.39851 -11.0635,-9.54387 -12.8314,-9.54387 -0.3654,0 -0.9149,2.42822 -1.2212,5.39605 -1.529,14.8148 -17.1371,22.82563 -29.8999,15.34613 -5.7692,-3.38102 -8.9253,-8.33932 -9.7154,-15.26337 l -0.6076,-5.3242 -5.2188,2.57385 c -2.8704,1.41562 -6.6374,3.75813 -8.3712,5.20557 l -3.1524,2.63171 2.2308,5.18565 c 1.2269,2.8521 2.8565,5.70491 3.6212,6.33957 5.0544,4.19475 -4.6804,1.61793 -10.4166,-2.75731 -2.8939,-2.20733 -4.5349,-2.64362 -10.2694,-2.73039 -8.2365,-0.12461 -10.5958,-1.68719 -6.0761,-4.02438 1.6925,-0.87523 5.5357,-4.67255 8.5405,-8.43849 8.0383,-10.07452 17.3433,-15.78643 32.112,-19.71195 11.3697,-3.02209 36.5719,-2.40798 45.7522,1.11486 3.76,1.44283 1.4445,-1.26311 -4.5022,-5.26141 -12.5405,-8.43167 -31.9516,-14.90757 -47.75,-15.93023 -17.4779,-1.13138 -33.8718,5.10073 -49.4201,18.78696 -2.5668,2.25931 -4.8444,3.93019 -5.0615,3.71307 -0.2172,-0.21711 0.595,-3.33608 1.8049,-6.93104 6.7961,-20.19479 24.3631,-35.42934 43.6454,-37.85051 15.6802,-1.96888 29.93,1.10632 69.1301,14.91873 29.3779,10.35149 34.7359,10.90368 41.3755,4.26408 l 2.5257,-2.52568 v 6.51064 c 0,7.92938 -2.0893,14.22731 -6.0889,18.35378 l -3.0038,3.09914 2.1304,5.40459 c 4.8506,12.30564 6.1329,21.8414 6.6805,49.67862 0.3169,16.10548 0.083,30.61869 -0.6044,37.5 -1.137,11.38192 -4.9386,30.75606 -6.022,30.68972 -0.3255,-0.0199 -1.4918,-1.93243 -2.5918,-4.25 -1.2986,-2.73596 -3.29,-4.90446 -5.6782,-6.18321 -3.5233,-1.88654 -3.8293,-1.89741 -7.2669,-0.25814 -3.912,1.8655 -8.9423,8.86338 -10.5618,14.69307 -1.599,5.75559 -1.1983,14.17955 0.8585,18.05012 1.7082,3.21459 7.2731,7.9844 9.3153,7.9844 0.4792,0 0.5994,-1.08309 0.2671,-2.40686 -0.8635,-3.44056 1.0082,-6.25396 5.0477,-7.5871 5.0778,-1.67582 12.9022,0.81925 18.772,5.98609 6.4826,5.70617 11.9929,7.95956 19.5284,7.98591 7.7215,0.027 11.9702,-1.67094 18.2026,-7.27437 7.1311,-6.41152 17.6595,-8.74248 22.902,-5.07046 1.9128,1.3398 2.2321,2.24704 1.7773,5.05001 -0.5104,3.14488 -0.3798,3.36688 1.6408,2.78954 3.4955,-0.9988 8.4706,-6.93184 9.7625,-11.64241 2.3056,-8.40669 -1.6061,-19.95037 -9.5154,-28.08035 -4.1859,-4.30274 -2.9264,-4.87639 3.7826,-1.72277 13.4096,6.30326 20.9722,24.80546 15.9298,38.97277 -1.0767,3.025 -2.2613,6.1874 -2.6326,7.02756 -0.5284,1.19592 1.4465,2.36131 9.0967,5.36793 24.0308,9.44446 43.7388,25.00331 57.1327,45.10451 3.1278,4.69408 8.9068,11.29352 13.9847,15.97001 l 8.6542,7.97 0.6368,-15.47 c 0.3954,-9.60688 1.4303,-19.17134 2.7306,-25.23606 2.1572,-10.06112 6.6601,-24.61373 8.0582,-26.04228 0.4351,-0.44458 2.2083,1.35542 3.9405,4 3.2278,4.92799 7.6689,10.30833 8.5088,10.30833 0.259,0 0.2191,-3.3284 -0.089,-7.39645 -0.9463,-12.51306 2.5187,-33.96722 7.6076,-47.10355 1.0653,-2.75 3.8227,-9.05 6.1274,-14 5.2755,-11.33022 7.4372,-17.43423 10.6243,-30 2.1831,-8.607 2.6092,-12.92531 3.0587,-31 0.8811,-35.42397 -3.7707,-68.19338 -15.3865,-108.39079 -3.5934,-12.43506 -7.4111,-25.98421 -8.4839,-30.10921 -1.0728,-4.125 -2.3738,-9.12119 -2.8911,-11.10264 l -0.9406,-3.60265 -10.4522,-0.67575 c -24.3828,-1.57638 -42.1641,-10.18237 -56.6163,-27.40167 -5.5831,-6.65209 -12.1339,-17.81964 -14.4503,-24.63444 -1.6862,-4.96055 -2.0801,-5.35445 -7.5148,-7.51309 -12.4015,-4.92585 -22.8586,-6.0973 -35.9687,-4.02938 -14.4041,2.27203 -31.0124,9.76032 -41.9409,18.91011 l -4.9719,4.16273 -7.2936,-5.44474 c -12.9407,-9.6603 -22.5559,-14.12174 -37.109,-17.21831 -8.6966,-1.85045 -23.6824,-1.86223 -30.7393,-0.0242 -8.4388,2.19808 -16.9453,5.60169 -16.9453,6.78018 0,0.58435 -1.9486,5.16451 -4.3303,10.17815 -13.3401,28.08225 -37.9472,44.30198 -70.2101,46.27879 l -10.0403,0.61519 -1.7367,7.72675 c -0.9552,4.24972 -4.9055,18.2496 -8.7785,31.11086 -3.873,12.86126 -8.3428,29.4843 -9.9329,36.94008 -6.1382,28.7801 -9.28,63.27051 -7.8419,86.08582 1.2967,20.57215 3.4663,28.4317 16.3244,59.13748 6.8578,16.37662 8.7672,26.00685 8.9154,44.96527 0.072,9.2095 0.4012,16.747 0.7315,16.75 0.5185,0.005 2.771,-2.71154 11.0717,-13.35103 l 1.6723,-2.14351 1.1583,3 c 1.9744,5.11372 5.9981,20.97454 7.5317,29.68894 0.8045,4.57108 1.4633,14.30622 1.464,21.63364 l 10e-4,13.32258 2.3027,-1.82258 c 1.2668,-1.00242 5.3631,-4.52258 9.1032,-7.82258 z m 258.1988,-64.65461 c -1.9214,-2.74315 -0.4721,-5.84539 2.7309,-5.84539 4.266,0 5.9735,3.54844 3.0934,6.42857 -2.1574,2.15732 -4.0366,1.96916 -5.8243,-0.58318 z m 5.0599,-1.41261 c 0.91,-2.37144 -1.2228,-4.04396 -3.1342,-2.45772 -1.1844,0.98298 -1.2844,1.61596 -0.4199,2.65762 1.4975,1.80435 2.8134,1.73034 3.5541,-0.1999 z m -276.1195,-10.2919 c -1.2776,-4.02546 1.9584,-7.01234 5.5277,-5.10211 2.1741,1.16355 2.5275,3.96136 0.7276,5.76123 -1.8448,1.84482 -5.5857,1.45064 -6.2553,-0.65912 z m 5.2748,-1.96921 c 0.2077,-1.41147 -0.2092,-2.17167 -1.1909,-2.17167 -1.9446,0 -2.9673,1.67512 -2.2167,3.63105 0.8143,2.12209 3.0196,1.17764 3.4076,-1.45938 z m 300.1805,-4.17167 c -2.6547,-2.65469 -2.53,-6.15344 0.3144,-8.82569 2.879,-2.70465 5.1048,-2.75513 7.6856,-0.17431 2.7177,2.7177 2.6059,7.4622 -0.2225,9.4433 -2.9913,2.09517 -5.3749,1.95931 -7.7775,-0.4433 z m 6.9602,-2.45201 c 1.8253,-2.19938 0.3297,-5.54799 -2.4779,-5.54799 -2.9289,0 -4.6921,2.73949 -3.3623,5.22418 1.1493,2.14759 4.1868,2.316 5.8402,0.32381 z m -274.639,-5.73672 c -5.11,-2.47046 -5.0312,-9.98948 0.1401,-13.37785 5.5638,-3.64555 12.2141,3.10752 9.5038,9.65071 -0.7026,1.69626 -2.3615,3.49626 -3.6864,4 -2.8767,1.09372 -3.1575,1.08086 -5.9575,-0.27286 z m 7.4872,-6.60272 c 0.42,-4.18876 -2.8106,-6.09233 -6.3755,-3.75657 -2.9953,1.96259 -3.1321,4.94485 -0.3174,6.91637 3.1116,2.17947 6.3089,0.67001 6.6929,-3.1598 z m 135.3217,-12.28115 c -3.4991,-16.4328 -4.3776,-29.32121 -3.8463,-56.4274 0.5321,-27.14259 1.8976,-36.67951 7.0655,-49.34685 l 2.5893,-6.34684 -3.0256,-3.7649 c -3.7196,-4.62859 -5.913,-11.60379 -5.913,-18.80393 v -5.44466 l 3.4257,3.00782 c 6.8581,6.02147 12.0275,5.55762 38.2182,-3.42929 40.607,-13.93364 50.0311,-16.31739 64.6376,-16.34971 7.2707,-0.0161 11.3487,0.5063 15.8866,2.03499 12.9299,4.35576 24.4497,14.67588 30.3373,27.17782 3.6501,7.75078 5.881,15.76555 4.3883,15.76555 -0.4915,0 -0.8937,-0.37612 -0.8937,-0.83583 0,-1.66843 -15.6966,-12.55383 -23.5,-16.297 -10.6083,-5.08862 -20.3663,-6.5779 -32.8926,-5.02012 -16.2992,2.02697 -37.7424,10.2057 -46.3053,17.66146 l -3.8021,3.31049 6.5,-1.58803 c 9.1193,-2.22796 31.1993,-2.15603 40.5,0.13193 14.2492,3.50531 24.2261,9.70351 32.4369,20.15146 2.7786,3.53568 6.4901,7.17224 8.248,8.08124 3.0726,1.58892 3.1211,1.70789 1.2555,3.08178 -1.2768,0.94032 -4.0283,1.35563 -8.0454,1.21437 -5.2463,-0.1845 -6.5922,0.1569 -9.5687,2.42716 -2.8728,2.1912 -10.6173,5.68109 -12.607,5.68109 -0.2911,0 0.1642,-0.7875 1.0117,-1.75 0.8476,-0.9625 2.7671,-4.19591 4.2658,-7.18535 l 2.7247,-5.43536 -3.3607,-2.75447 c -1.8485,-1.51496 -5.6108,-3.91922 -8.3608,-5.34281 l -5,-2.58834 -0.7485,5.07494 c -0.9508,6.44644 -2.7463,9.89163 -7.1873,13.79087 -4.947,4.34351 -10.6243,5.71912 -17.3717,4.20912 -9.4101,-2.10588 -15.1925,-9.14204 -15.1925,-18.48648 0,-2.49267 -0.3619,-4.53212 -0.8042,-4.53212 -1.7814,0 -9.8982,5.88038 -12.9926,9.41276 l -3.2968,3.76343 2.0728,3.51311 2.0728,3.51311 -5.776,-0.63784 c -3.1768,-0.35082 -7.2385,-0.20277 -9.026,0.32899 -4.3435,1.29214 -4.2956,-0.33174 0.25,-8.45994 1.925,-3.44223 3.5,-6.72066 3.5,-7.28541 0,-1.82921 -8.5849,1.80461 -12.8125,5.42329 -10.3737,8.87946 -12.3639,18.50872 -14.1539,68.47979 -1.1595,32.37071 -1.8395,35.26567 -4.9035,20.87611 z m 96.7807,-5.79856 c -2.9057,-2.3529 -3.1426,-8.11025 -0.4558,-11.0791 4.2537,-4.70033 12.545,-0.91605 12.545,5.72576 0,6.19481 -7.1435,9.35811 -12.0892,5.35334 z m 8.7114,-3.67522 c 2.6985,-4.08631 -3.9111,-8.76473 -7.4222,-5.25362 -1.6765,1.67652 -1.495,4.36218 0.4246,6.28179 2.0713,2.07126 5.2602,1.6027 6.9976,-1.02817 z m -284.9672,1.71764 c -3.406,-3.76352 -0.8742,-10.17126 4.0187,-10.17126 4.6779,0 7.0794,7.10345 3.4976,10.34501 -2.3992,2.1712 -5.4582,2.10048 -7.5163,-0.17375 z m 7.0355,-2.80718 c 0.7629,-1.98807 -0.8281,-4.75046 -2.9802,-5.17441 -2.2582,-0.44484 -4.2102,3.50307 -2.6573,5.37425 1.6061,1.93521 4.8625,1.81977 5.6375,-0.19984 z m 57.6536,-39.59411 c 1.0142,-0.69848 5.4017,-3.85286 9.75,-7.00972 8.683,-6.30391 10.3747,-6.29066 3.5203,0.0276 -4.5735,4.21568 -8.3785,6.5098 -12.6144,7.60547 -2.2579,0.58402 -2.3214,0.52365 -0.6559,-0.62332 z m 173.6559,-0.84515 c -4.2338,-1.91108 -13,-9.41144 -13,-11.12278 0,-0.42984 3.5577,1.80135 7.9059,4.95821 4.3482,3.15686 8.7357,6.27579 9.75,6.93094 2.9297,1.89247 0.2614,1.45326 -4.6559,-0.76637 z m -191.5933,-13.94479 c -4.9445,-0.99321 -11.9134,-3.80665 -11.1989,-4.52113 0.2831,-0.28317 1.7315,-0.0523 3.2186,0.51312 3.8668,1.47014 21.2059,1.2697 27.3181,-0.3158 6.5119,-1.68914 5.909,-0.41116 -1.0135,2.14856 -6.642,2.456 -13.1064,3.22338 -18.3243,2.17525 z m 200.9267,-0.44224 c -6.254,-1.39768 -10.886,-3.31855 -10.0407,-4.16384 0.2552,-0.2552 2.5469,0.0605 5.0927,0.70151 2.8265,0.71171 9.4929,1.00357 17.1216,0.7496 6.8712,-0.22875 12.493,-0.31913 12.493,-0.20085 0,0.11828 -2.1375,0.90251 -4.75,1.74273 -7.2707,2.33835 -13.1469,2.6838 -19.9166,1.17085 z M 653.00568,449.4431 c -2.8947,-2.89475 -3.1192,-5.5551 -0.7045,-8.34777 2.7122,-3.13668 5.574,-3.51722 8.5929,-1.14262 3.2459,2.55326 3.5436,7.05844 0.6571,9.94494 -2.6753,2.67532 -5.5695,2.52137 -8.5455,-0.45455 z m 7.5056,-1.99741 c 2.6565,-3.20083 -1.2452,-8.11777 -4.7101,-5.93574 -3.4623,2.18041 -2.2288,7.3877 1.75,7.3877 0.9653,0 2.2974,-0.65338 2.9601,-1.45196 z m -62.5056,-18.00259 c -2.6777,-2.67773 -3.0891,-5.47137 -1.3048,-8.86119 1.5594,-2.9626 2.7904,-3.65096 6.5613,-3.66895 6.6458,-0.0317 9.6388,7.72577 4.8344,12.53014 -3.1282,3.12828 -6.9626,3.12828 -10.0909,0 z m 7.9741,-2.11688 c 0.8643,-0.86428 1.5714,-2.40714 1.5714,-3.42857 0,-1.8176 -2.4498,-5 -3.8489,-5 -1.6257,0 -5.1511,3.23579 -5.1511,4.72796 0,1.98813 2.8551,5.27204 4.5836,5.27204 0.7004,0 1.9807,-0.70714 2.845,-1.57143 z m 82.0899,-11.05295 c -1.0499,-1.04987 -1.5173,-2.90416 -1.3215,-5.2429 0.2368,-2.82767 0.9157,-3.91077 3.1063,-4.95572 2.408,-1.14864 3.146,-1.11261 5.2341,0.25555 3.2554,2.13299 4.1123,5.9269 2.0498,9.07474 -1.9243,2.93682 -6.5567,3.38037 -9.0687,0.86833 z m 6.8506,-2.231 c 1.9661,-2.17249 1.2668,-4.80801 -1.5095,-5.68917 -2.1501,-0.68241 -4.8596,1.04356 -4.8596,3.09557 0,1.41944 2.6669,4.44898 3.9164,4.44898 0.4255,0 1.5292,-0.83492 2.4527,-1.85538 z m -351.7949,285.73238 c 5.6315,-1.41804 6.2484,-2.44213 3.0067,-4.99199 -3.4968,-2.75059 -11.039,-13.45867 -12.9494,-18.38501 -0.8531,-2.2 -2.7191,-8.22648 -4.1465,-13.39219 -3.0483,-11.03096 -5.6857,-16.57549 -13.3469,-28.05853 l -5.6381,-8.45072 -0.5388,12.45072 c -0.2964,6.84789 -1.1873,14.47572 -1.9799,16.95072 -1.5255,4.76396 -8.7827,13 -11.455,13 -2.0134,0 -1.8973,1.58551 0.5035,6.87668 8.3799,18.4686 28.1098,28.64221 46.5444,24.00032 z m 561.8559,-2.21385 c 3.2616,-1.49459 7.9364,-4.36137 10.3884,-6.37062 7.6675,-6.28296 15.7265,-20.9442 12.1651,-22.13133 -3.4077,-1.13589 -9.0683,-7.7529 -11.1116,-12.98892 -1.8131,-4.64607 -2.2279,-7.7978 -2.2928,-17.42083 -0.044,-6.46171 -0.1801,-11.74921 -0.3034,-11.75 -0.6248,-0.004 -12.347,18.20349 -14.6642,22.77713 -1.4708,2.90322 -3.8296,9.65322 -5.2416,15 -3.1635,11.97851 -7.2678,19.91289 -14.1434,27.34159 l -5.2733,5.69759 4.2733,1.57108 c 6.6984,2.46263 18.8032,1.66544 26.2035,-1.72569 z m -539.7469,-27.41315 c -0.3314,-4.2625 -0.9096,-11.64592 -1.2849,-16.4076 l -0.6823,-8.6576 -4.3147,-3.04126 c -12.2156,-8.61034 -17.0593,-27.10811 -10.4749,-40.00307 l 2.226,-4.35953 -2.869,-4.64047 c -1.5779,-2.55226 -3.5068,-4.64047 -4.2864,-4.64047 -1.9081,0 -5.7503,5.87013 -7.084,10.8232 -0.5956,2.21162 -0.9321,6.17828 -0.7479,8.81481 0.4341,6.21314 -1.0881,4.72731 -4.2391,-4.13801 -5.7785,-16.25771 -0.33,-33.48377 10.84,-34.27206 1.7765,-0.12536 3.2309,-0.51697 3.232,-0.87023 0.001,-0.35325 -2.7071,-3.15041 -6.0182,-6.2159 -10.1304,-9.37901 -17.4874,-9.79025 -22.4451,-1.25466 -8.8279,15.19852 -3.4258,43.33805 13.3509,69.54463 6.7345,10.51987 9.9456,17.14543 13.2576,27.35437 1.5677,4.83238 3.8643,10.1602 5.1036,11.83961 3.0464,4.12844 9.5093,7.85324 13.6461,7.86478 l 3.3929,0.009 z m 502.0319,6.08091 c 4.8801,-2.31576 8.7284,-8.0676 11.8191,-17.66508 2.9874,-9.2769 6.2843,-15.68034 15.789,-30.66583 15.3182,-24.15156 20.3243,-53.83995 11.3293,-67.18773 -5.3713,-7.97043 -12.0623,-7.37839 -21.8221,1.9309 -3.2067,3.0587 -5.8304,5.94277 -5.8304,6.40905 0,0.46628 1.5404,0.84778 3.4231,0.84778 7.5455,0 13.4044,11.23554 12.2584,23.50774 -0.5292,5.66678 -3.9205,16.88706 -5.6907,18.828 -0.4193,0.45966 -0.7292,-1.35978 -0.6887,-4.0432 0.1163,-7.71047 -2.1564,-14.14687 -6.5451,-18.53554 -2.1351,-2.1351 -4.3408,-3.72906 -4.9016,-3.54213 -0.5608,0.18693 -2.1604,2.35255 -3.5546,4.8125 l -2.535,4.47263 3.1351,5.03851 c 8.9924,14.45187 4.1102,32.72033 -11.6149,43.46149 -1.9279,1.3169 -2.3239,2.92028 -3.2444,13.13502 -0.5766,6.39926 -1.333,13.71176 -1.6809,16.25 l -0.6326,4.61498 h 3.7348 c 2.0542,0 5.3176,-0.75109 7.2522,-1.66909 z M 384.74258,656.1389 c 8.7529,-13.61347 13.8088,-29.04686 13.8084,-42.15121 -2e-4,-4.17452 -0.9259,-12.99004 -2.0573,-19.59004 -1.1314,-6.6 -2.3179,-18.39883 -2.6366,-26.21963 l -0.5796,-14.21963 -4.9951,4.49107 c -2.7474,2.47008 -6.2736,5.24625 -7.8362,6.16926 -5.6141,3.31637 -6.3246,17.91226 -1.8632,38.27893 2.2971,10.48674 2.2979,10.51957 0.6401,26 -1.2451,11.62696 -1.4197,17.24912 -0.6986,22.5 0.5287,3.85 0.976,7.7875 0.994,8.75 0.056,2.97854 1.3898,1.95481 5.2241,-4.00875 z m 459.7668,-5.25868 c 0.9129,-7.7542 0.8304,-11.87093 -0.4453,-22.22104 -1.6761,-13.59728 -1.5812,-14.87254 2.5495,-34.26153 1.5609,-7.32713 1.9706,-11.78766 1.5327,-16.68814 -0.7979,-8.93011 -1.6993,-10.94884 -6.2445,-13.98559 -2.1178,-1.41494 -5.4705,-4.16065 -7.4503,-6.10158 l -3.5996,-3.52895 -0.642,13.15213 c -0.353,7.23367 -1.6436,18.10213 -2.8678,24.15213 -1.592,7.86762 -2.2141,14.41714 -2.1847,23 0.037,10.84305 0.3528,12.91311 3.2724,21.47084 1.7772,5.20896 4.1727,11.05896 5.3234,13 5.8443,9.85847 8.1519,13.07239 8.8585,12.33749 0.4274,-0.44458 1.2814,-5.09117 1.8977,-10.32576 z m 99.1225,-78.4132 c 5.6041,-11.30958 7.7238,-23.71769 6.0433,-35.37492 -2.366,-16.41229 -8.3392,-28.33809 -20.124,-40.17877 -8.3693,-8.40896 -14.258,-11.87565 -29.7328,-17.50363 -5.628,-2.04685 -12.6709,-5.18969 -15.6508,-6.98411 -5.2775,-3.17795 -14.8331,-10.64455 -14.3022,-11.17549 0.1458,-0.14581 3.7492,0.80988 8.0076,2.12374 6.5848,2.03164 12.486,3.17811 25.4282,4.94014 1.2375,0.16848 2.25,-0.15646 2.25,-0.72208 0,-0.56563 -3.3228,-6.01573 -7.3839,-12.11133 -20.0912,-30.15593 -53.5539,-50.63581 -83.2799,-50.969 -5.59,-0.0627 -10.4547,0.17576 -10.8104,0.52982 -1.1363,1.13126 4.4473,16.11509 8.6673,23.25884 5.0614,8.56808 16.7624,20.951 27.3069,28.89824 11.8554,8.93529 21.6092,16.92335 21.1836,17.34889 -0.2062,0.2062 -4.2813,-0.75713 -9.0559,-2.14074 -8.7957,-2.54891 -22.9328,-9.1292 -29.9949,-13.9616 -2.127,-1.45542 -4.1374,-2.37612 -4.4675,-2.04601 -1.316,1.316 2.9381,17.06389 6.6972,24.79164 5.366,11.03116 13.2259,20.28375 22.4998,26.48652 9.2602,6.19363 15.4335,8.56512 32.1377,12.34588 16.8656,3.8173 26.0026,8.19485 34.0111,16.29481 11.2458,11.37416 14.8568,22.41814 14.3317,43.83167 l -0.3428,13.97876 6.2672,-6.74784 c 3.9411,-4.24333 7.769,-9.77856 10.3135,-14.91343 z m -647.5579,5.18063 c -0.016,-13.49664 0.2514,-15.99733 2.3223,-21.75 6.6973,-18.60462 20.2628,-30.11708 40.6549,-34.50209 13.5139,-2.90595 25.309,-6.36742 30.2788,-8.88584 12.6487,-6.40956 22.8359,-17.04453 29.8021,-31.11207 4.1086,-8.29674 8.5408,-23.71164 7.2025,-25.04988 -0.3107,-0.31076 -3.1761,1.10531 -6.3675,3.1468 -3.1913,2.0415 -8.978,5.17021 -12.8592,6.95268 -7.5943,3.48776 -23.5523,8.78817 -24.2769,8.06354 -0.2432,-0.24316 3.4731,-3.51809 8.2583,-7.27762 25.3502,-19.9166 29.1146,-23.18712 34.5252,-29.99588 6.2242,-7.83248 11.9173,-18.58465 14.3259,-27.0563 l 1.4832,-5.21665 -3.5757,-0.67081 c -5.6553,-1.06094 -18.0413,0.29346 -27.2967,2.98487 -22.3702,6.50512 -41.786,19.5004 -57.0572,38.18922 -5.458,6.67947 -14.9428,20.93151 -14.9428,22.45329 0,1.665 25.3501,-3.19558 34.5,-6.61498 1.9901,-0.74373 1.9903,-0.73641 0.035,1.48802 -3.77,4.28968 -15.354,11.11537 -25.6561,15.11748 -27.148,10.54623 -36.3249,17.75581 -45.8061,35.98622 -12.8146,24.64018 -9.6259,53.10306 8.1189,72.46833 3.2918,3.59242 6.0668,6.53167 6.1667,6.53167 0.1,0 0.1737,-6.8625 0.164,-15.25 z m 76.9772,-27.12298 c 9.9751,-4.69515 17.9335,-15.74816 21.0667,-29.25845 2.4478,-10.55484 1.9303,-11.09182 -5.0667,-5.25696 -10.5931,8.83365 -19.2564,12.94327 -40.8502,19.37815 l -8.8502,2.63733 6.2121,5.68646 c 3.4167,3.12755 7.8493,6.46215 9.8502,7.41023 5.1239,2.42775 11.6839,2.2058 17.6381,-0.59676 z m 496,0.39604 c 2.2,-1.06316 6.5978,-4.33462 9.773,-7.26993 l 5.7729,-5.33691 -13.6947,-4.28044 c -18.5037,-5.78351 -28.7565,-11.08652 -38.5621,-19.9453 l -3.7891,-3.4232 v 3.40626 c 0,12.36664 8.496,28.32687 18.4109,34.58586 7.4051,4.67466 15.4038,5.49435 22.0891,2.26366 z m -570.1378,-87.75446 c 9.5067,-18.77359 8.2517,-40.64806 -3.8878,-67.7686 l -2.6857,-6 -3.9454,4.5 c -5.3787,6.13486 -11.3851,18.89566 -13.2772,28.20784 -3.5448,17.44604 -1.2169,35.90104 6.9725,55.2764 l 1.684,3.98424 6.3624,-6.71563 c 3.4994,-3.6936 7.4491,-8.86151 8.7772,-11.48425 z m 644.4153,8.97496 c 5.0876,-13.36569 6.5072,-20.68912 6.5408,-33.74356 0.034,-13.20028 -2.0436,-23.01926 -6.9417,-32.80932 -2.7945,-5.58543 -9.9835,-15.69227 -11.159,-15.68818 -0.9996,0.003 -8.1712,17.13495 -10.4644,24.9975 -1.0427,3.575 -2.1454,11.225 -2.4504,17 -0.6282,11.89198 0.7645,19.20941 5.651,29.69136 2.7152,5.82445 13.761,19.35113 15.2111,18.62755 0.3657,-0.18248 1.9914,-3.81638 3.6126,-8.07535 z m -614.7775,-46.45579 c 0,-0.43327 0.7051,-0.78777 1.567,-0.78777 2.451,0 13.0126,-9.78208 18.8945,-17.5 6.1504,-8.07022 10.608,-16.56476 13.1465,-25.05228 2.1934,-7.3336 2.4421,-23.61429 0.4803,-31.44772 -1.7188,-6.86352 -6.9718,-20.80997 -8.101,-21.50783 -1.4042,-0.86785 -12.9563,10.49926 -19.3171,19.00783 -11.0482,14.77856 -17.6039,32.98418 -17.6448,49 -0.017,6.69604 1.4111,17.16844 4.0807,29.92405 l 1.2399,5.92406 2.827,-3.38628 c 1.5548,-1.86246 2.827,-3.74078 2.827,-4.17406 z m 4.5645,-23.78777 c 0.795,-5.36477 4.9043,-18.20281 7.0041,-21.8821 1.4536,-2.547 1.4772,-2.49603 0.8714,1.8821 -0.7327,5.29461 -6.118,22.0554 -7.5506,23.5 -0.6562,0.66159 -0.7661,-0.52284 -0.3249,-3.5 z m 571.9934,13.74346 c 2.7861,-14.5534 3.0526,-23.37689 1.026,-33.96895 -2.9865,-15.60907 -10.8966,-29.79781 -24.4291,-43.8201 -4.7602,-4.93239 -9.1559,-8.96492 -9.7682,-8.96119 -1.2832,0.008 -5.4432,8.97422 -7.8902,17.00678 -2.5322,8.31169 -3.1272,26.97715 -1.1158,35 2.1595,8.61341 8.5001,21.27748 13.8237,27.6096 6.0212,7.16206 17.5435,17.6643 18.6378,16.98795 0.5026,-0.31061 2.1996,1.34037 3.7712,3.66885 2.7098,4.01504 2.874,4.10454 3.18,1.7336 0.1774,-1.375 1.4215,-8.24044 2.7646,-15.25654 z m -15.1092,-14.49346 c -2.848,-6.76756 -6.6966,-24.83121 -4.9098,-23.04439 1.1079,1.10787 6.2227,17.47219 6.8902,22.04439 0.8348,5.71814 0.1506,6.06364 -1.9804,1 z m -509.6023,-4.3692 c 3.1081,-1.06932 7.2266,-2.96843 9.1523,-4.22024 1.9257,-1.2518 7.3942,-3.93319 12.1523,-5.95864 8.3732,-3.56439 8.7668,-3.63422 12.2595,-2.17486 6.9742,2.91399 20.0943,5.45892 28.0895,5.44857 16.0944,-0.0208 30.3028,-5.12376 42.5847,-15.29428 9.5502,-7.90832 22.9393,-26.57043 21.5885,-30.09055 -0.6866,-1.78918 -16.7603,-8.11381 -24.4814,-9.63284 -13.0327,-2.56403 -28.0462,0.16416 -40.0647,7.28038 -6.4116,3.79638 -20.4667,17.33326 -27.9926,26.96048 -2.8801,3.68435 -6.2261,6.99707 -7.4356,7.36161 -4.6846,1.41204 -16.5217,6.90403 -23.3399,10.82889 -5.1822,2.98315 -7.8566,5.2876 -9.75,8.40144 -3.1541,5.18713 -3.2046,5.59838 -0.5113,4.15694 1.1538,-0.61746 4.6407,-1.99757 7.7487,-3.0669 z m 50.6536,-25.74947 c 1.5004,-1.51568 16.3566,-8.7259 21.5298,-10.44916 2.4914,-0.82991 6.3164,-1.78867 8.5,-2.13057 3.4817,-0.54515 2.9095,-0.0703 -4.6505,3.8592 -10.5755,5.49687 -28.1742,11.54394 -25.3793,8.72053 z m 421.1065,25.07893 c -2.0851,-4.11487 -3.6022,-5.45421 -10.7668,-9.50568 -4.5868,-2.59377 -12.0789,-6.17589 -16.649,-7.96026 -8.039,-3.1388 -8.5349,-3.52614 -15.2479,-11.90888 -21.6932,-27.08927 -42.7727,-36.97143 -66.7875,-31.31017 -6.2532,1.47412 -20.8066,7 -22.5497,8.56199 -2.4539,2.199 8.5004,19.06511 18.2199,28.05294 8.3982,7.76601 19.9254,14.12692 29.7988,16.44356 10.7163,2.5144 26.4233,1.56362 37.7766,-2.28671 l 8.9009,-3.01863 8.5991,3.45276 c 4.7295,1.89901 9.9491,4.4681 11.5991,5.70908 1.65,1.24098 4.7971,2.84566 6.9935,3.56596 2.1965,0.7203 5.7965,2.12868 8,3.12974 2.2036,1.00107 4.1266,1.83 4.2733,1.84208 0.1468,0.0121 -0.8253,-2.13342 -2.1603,-4.76778 z m -67.6065,-26.81537 c -8.2255,-2.80102 -23.9026,-10.59403 -22.3518,-11.11096 1.6612,-0.55373 16.4856,4.65216 24.1751,8.48959 11.5476,5.76278 10.7536,6.90419 -1.8233,2.62137 z m -476.361,0.58941 c 5.4304,-16.12619 14.0245,-29.39382 27.6034,-42.61406 10.4046,-10.12988 22.423,-19.10805 23.7669,-17.75475 0.4831,0.48648 2.9192,4.93451 5.4135,9.88451 3.613,7.17016 4.657,8.57202 5.1348,6.89502 1.8871,-6.62269 7.8077,-19.36672 12.5221,-26.95355 6.4482,-10.37713 18.4959,-22.85071 29.2087,-30.24113 9.028,-6.22811 32.1131,-17.64398 34.1213,-16.87337 0.7657,0.29382 2.6742,4.16427 4.2412,8.60102 1.567,4.43675 3.0749,8.06798 3.3508,8.06941 0.276,10e-4 1.626,-2.12302 3,-4.72101 8.5758,-16.21466 26.1485,-32.39359 44.286,-40.77365 11.9804,-5.53529 21.4418,-7.60915 37.5519,-8.23104 l 14.3395,-0.55354 -0.6695,5.89092 c -1.0971,9.65359 -5.1921,25.63252 -8.9703,35.00232 -1.9466,4.82749 -3.5404,9.0273 -3.5416,9.33293 -0.001,0.30562 3.857,0.40916 8.574,0.2301 9.8443,-0.37371 21.0435,1.59031 30.1363,5.28505 10.4605,4.25047 25.292,13.65364 25.292,16.0351 0,3.21449 -14.7393,23.22484 -23.5679,31.99623 l -9.2587,9.19862 5.6633,1.77674 c 12.2736,3.8506 25.3135,12.31021 33.6305,21.81783 l 4.4871,5.1294 3.5361,-4.13113 c 7.9745,-9.31643 22.7075,-18.74625 35.6207,-22.79896 l 5.6112,-1.76102 -7.7704,-7.77041 c -6.6768,-6.67674 -23.9519,-30.48153 -23.9519,-33.00521 0,-1.45898 7.797,-6.95881 16.1578,-11.39733 14.6139,-7.75814 33.502,-11.77909 45.6731,-9.72301 4.6951,0.79316 5.2682,0.70813 4.8048,-0.71288 -0.2893,-0.8874 -1.9175,-5.40588 -3.6181,-10.04107 -3.6971,-10.07683 -6.7412,-23.24819 -7.6615,-33.15051 l -0.6712,-7.22205 12.9075,0.57369 c 14.0119,0.62277 23.8067,2.71705 35.308,7.54939 17.1657,7.21225 33.799,22.33603 42.9306,39.03443 l 2.8284,5.17224 2.8678,-7.51478 c 1.5773,-4.13314 3.3741,-7.51479 3.9929,-7.51479 0.6188,0 5.3674,2.05957 10.5525,4.57683 19.5202,9.4767 36.2083,22.66143 46.7088,36.90325 5.0592,6.86176 12.0963,20.45715 14.7033,28.40607 l 1.7665,5.38615 4.3038,-8.26552 c 2.367,-4.54603 4.7419,-8.70368 5.2774,-9.23923 0.6317,-0.63161 3.0979,0.46879 7.0198,3.13209 20.0129,13.59051 35.9983,33.55843 43.2188,53.98628 1.5376,4.34988 2.8462,6.77225 3.1836,5.893 1.3893,-3.62037 1.8596,-19.8367 0.7976,-27.49906 -4.0735,-29.38915 -22.2034,-51.02617 -51.2385,-61.14994 -6.6665,-2.32445 -22.4421,-6.12992 -25.4116,-6.12992 -0.2073,0 -2.0147,-3.2625 -4.0163,-7.25 -11.7204,-23.34834 -30.2537,-40.50286 -51.6565,-47.81341 -10.6705,-3.64474 -25.4991,-5.32201 -37.0484,-4.19059 l -8.8191,0.86396 -4.9324,-6.19865 c -13.3482,-16.77489 -31.6628,-29.21997 -49.1822,-33.42009 -9.9385,-2.38267 -25.184,-2.60555 -35.0618,-0.51258 -16.1045,3.41234 -30.6325,13.88552 -35.7254,25.75429 -1.353,3.15312 -2.6919,5.74062 -2.9753,5.75 -0.2834,0.009 -1.3475,-2.32624 -2.3648,-5.1903 -3.9196,-11.03592 -19.0303,-22.12675 -35.6838,-26.1908 -8.5788,-2.09355 -25.8451,-2.09173 -35.2387,0.004 -8.5903,1.91627 -21.0867,7.54704 -29.6403,13.3557 -8.1526,5.53628 -18.9822,15.82034 -23.1907,22.02244 -3.2054,4.72375 -3.5338,4.92994 -6.8664,4.31136 -1.925,-0.35731 -9.35,-0.64596 -16.5,-0.64144 -36.6338,0.0231 -63.7018,17.33534 -81.8099,52.3241 l -3.8701,7.4777 -11.8053,2.69978 c -14.588,3.33615 -24.8138,7.51947 -33.7904,13.82345 -23.0382,16.1791 -34.5045,44.36831 -30.2471,74.36043 0.6848,4.82457 1.4758,8.54126 1.7577,8.25932 0.282,-0.28194 1.5888,-3.70827 2.9041,-7.61408 z m 283.2853,-147.57912 c -5.8342,-6.2445 -21.0912,-13.37718 -31.9807,-14.951 l -5.4436,-0.78673 4,-0.8942 c 10.1547,-2.27007 22.8623,2.46615 31.2549,11.64897 2.8848,3.15642 5.2451,6.15269 5.2451,6.65837 0,1.38883 -0.4333,1.15279 -3.0757,-1.67541 z m 45.0135,-0.31778 c 3.8283,-5.37645 12.1108,-11.96115 17.8606,-14.19952 6.4259,-2.50161 20.3279,-3.16157 22.4249,-1.06457 0.9023,0.90225 0.058,1.17669 -3.6194,1.17669 -9.4749,0 -24.0337,5.81944 -32.7833,13.10407 -5.5796,4.64538 -6.6908,4.92681 -3.8828,0.98333 z m -251.2807,147.6626 c 2.1515,-2.3375 5.4022,-6.41912 7.2238,-9.07028 1.8215,-2.65115 3.4858,-4.64634 3.6984,-4.43376 0.2126,0.21258 -0.048,1.90189 -0.5793,3.75404 -0.5312,1.85215 -0.7749,3.55845 -0.5415,3.79179 0.7845,0.78453 11.9865,-6.59819 18.1608,-11.96889 16.9899,-14.77876 26.7479,-32.1129 29.4321,-52.28331 1.1775,-8.84818 0.2503,-20.50712 -2.1868,-27.49812 l -1.0221,-2.9319 -5.6712,3.05943 c -23.3557,12.59947 -39.2147,29.55677 -46.982,50.23555 -1.8538,4.93552 -3.9897,12.37608 -4.7464,16.53457 -1.4105,7.75182 -2.439,35.06485 -1.3203,35.0623 0.3425,-7.8e-4 2.383,-1.91392 4.5345,-4.25142 z m 12.3437,-24.7532 c 0,-3.67682 14.3727,-28.95667 15.704,-27.6253 0.2265,0.22645 -1.5828,4.623 -4.0207,9.77012 -4.5583,9.62416 -11.6847,20.51514 -11.6833,17.85518 z m 447.3882,10.7532 c -0.1223,-15.40827 -0.4872,-19.49398 -2.3433,-26.23903 -4.9544,-18.00415 -16.7317,-34.88828 -32.6905,-46.86552 -7.5475,-5.66449 -18.9557,-12.64545 -20.665,-12.64545 -1.2843,0 -3.6902,14.66287 -3.6902,22.48956 0,23.66907 10.8935,46.3387 29.5354,61.46367 5.6526,4.58622 14.0836,10.00622 15.6093,10.03472 0.3546,0.007 0.2669,-1.66282 -0.1948,-3.70988 -0.4616,-2.04705 -0.7147,-3.84658 -0.5624,-3.99893 0.1524,-0.15236 1.7649,2.01912 3.5834,4.82551 3.0255,4.66926 10.1327,12.89535 11.1412,12.89535 0.232,0 0.3566,-8.2125 0.2769,-18.25 z m -20.3957,-14.91538 c -3.5923,-5.83813 -11.2938,-22.86747 -10.6383,-23.52297 0.6123,-0.61227 9.1682,13.32696 11.471,18.68835 2.0485,4.76951 3.502,10 2.7788,10 -0.2383,0 -1.8635,-2.32442 -3.6115,-5.16538 z m -103.4933,-12.87501 c 3.3,-0.96848 9.15,-2.9211 13,-4.33915 3.85,-1.41805 8.35,-2.60208 10,-2.63117 2.882,-0.0508 2.9221,-0.11177 1.0192,-1.5501 -1.0894,-0.82346 -3.693,-2.01019 -5.7856,-2.63716 -2.0927,-0.62698 -3.3321,-1.43216 -2.7542,-1.7893 0.9431,-0.58287 -7.4008,-8.42594 -25.2926,-23.77446 -12.9185,-11.08215 -31.26,-13.75006 -50.0606,-7.28168 -4.4807,1.54158 -13.3408,5.58775 -14.4968,6.62029 -0.8784,0.78454 9.217,13.46765 15.5091,19.48447 19.2157,18.37511 37.8891,24.05323 58.8615,17.89826 z m -14.2936,-17.51811 c -8.4032,-2.48442 -18.8116,-7.1696 -17.9165,-8.06478 0.8389,-0.83888 12.6287,2.59818 20.0848,5.85527 12.2366,5.3454 11.3824,6.21583 -2.1683,2.20951 z m -165.9649,16.30137 c 8.6022,-3.1753 16.1615,-7.7466 24.795,-14.99395 7.209,-6.05169 18.2845,-19.28585 17.6737,-21.11843 -0.62,-1.85988 -11.5887,-6.69605 -20.0264,-8.82978 -6.4106,-1.6211 -10.0886,-1.94346 -17.6415,-1.54616 -14.0439,0.73873 -17.4992,2.51467 -35.5423,18.26785 -3.85,3.36137 -9.5078,8.12044 -12.573,10.57571 -3.0651,2.45526 -5.4218,4.91746 -5.2371,5.47155 0.1847,0.55409 -2.1686,1.85869 -5.2294,2.89911 -6.7714,2.30166 -7.7943,3.53123 -2.9378,3.53123 2.0025,0 8.2165,1.56904 13.8091,3.48675 14.5807,4.9998 17.1305,5.47764 27.1682,5.09116 6.4438,-0.24811 10.9147,-1.05331 15.7415,-2.83504 z m -20.7415,-18.25741 c 7.0334,-3.3586 19.2987,-7.02012 20.2682,-6.0506 0.2858,0.2858 -2.4793,1.86516 -6.1446,3.50969 -13.7278,6.15923 -26.5205,8.46071 -14.1236,2.54091 z m -59.876,8.8344 c 2.6818,-1.47408 6.148,-3.72408 7.7027,-5 1.5547,-1.27592 3.5797,-2.32619 4.5,-2.33393 2.3522,-0.0198 15.6117,-7.36405 22.1733,-12.28144 21.0012,-15.73883 35.0425,-38.11804 41.4298,-66.03123 l 0.6468,-2.82675 -5.7883,0.70309 c -8.5101,1.03368 -21.78,5.06157 -30.0101,9.10917 -22.2805,10.95752 -38.5187,34.18855 -41.6537,59.59123 -0.3225,2.6125 -0.3268,4.75 -0.01,4.75 0.317,0 1.8834,-0.93064 3.4808,-2.06809 1.5974,-1.13746 2.9044,-1.84809 2.9044,-1.57918 0,0.2689 -2.475,4.77568 -5.5,10.01507 -5.2283,9.05562 -5.9884,10.6322 -5.1259,10.6322 0.2057,0 2.5682,-1.20606 5.25,-2.68014 z m 19.2711,-29.8816 c 3.5122,-6.68902 10.4866,-15.14978 15.3331,-18.60078 1.7374,-1.23712 2.7509,-1.58641 2.2753,-0.78415 -2.5551,4.3097 -14.6927,19.86785 -17.5118,22.44667 l -3.2794,3 z m 292.3311,27.31174 c -1.6083,-2.8875 -4.1846,-7.43947 -5.7252,-10.11548 -2.5558,-4.43938 -2.6177,-4.76732 -0.7067,-3.74462 1.1519,0.61647 2.3709,1.56844 2.709,2.11548 3.5241,5.70212 2.8471,-10.6768 -0.9334,-22.58169 -4.9281,-15.51857 -17.6647,-31.50048 -31.6368,-39.69798 -7.8138,-4.58435 -23.0667,-9.62667 -31.5036,-10.41453 l -6.2052,-0.57945 0.9458,5.20392 c 1.1811,6.49805 7.1575,23.79488 10.5425,30.51165 9.598,19.04508 30.6717,39.13086 46.7979,44.60406 2.1942,0.74472 5.1145,2.33717 6.4895,3.53879 2.5118,2.19509 9.7849,6.28315 11.3251,6.36565 0.4538,0.0243 -0.4907,-2.3183 -2.0989,-5.2058 z m -22.0924,-25.25038 c -3.3208,-3.78222 -12.0281,-16.44001 -14.1016,-20.49962 -1.7889,-3.50219 5.9777,3.95177 10.5105,10.0875 3.0025,4.06418 7.9755,13.9125 7.0253,13.9125 -0.1984,0 -1.7438,-1.57517 -3.4342,-3.50038 z"
       id="path1" />
  </g>
</svg>
