<?xml version="1.0" encoding="UTF-8" standalone="no"?>
<!-- Created with Inkscape (http://www.inkscape.org/) -->

<svg
   version="1.1"
   id="svg1"
   width="1254"
   height="1254"
   viewBox="0 0 1254 1254"
   xmlns="http://www.w3.org/2000/svg"
   xmlns:svg="http://www.w3.org/2000/svg">
  <defs
     id="defs1" />
  <g
     id="g1">
    <path
       style="fill:#000000"
       d="m 634.83818,1126.7424 c -16.0364,-2.3371 -35.5552,-11.4172 -46.7035,-21.7263 -7.4103,-6.8525 -15.8098,-18.4801 -17.8793,-24.751 -0.7999,-2.4237 -1.6271,-3.3744 -2.6083,-2.9979 -12.0589,4.6274 -26.7276,5.2841 -37.2493,1.6676 -8.3231,-2.8608 -16.1978,-7.9665 -22.9437,-14.8761 l -5.4333,-5.5652 4.7417,-1.3826 c 7.1294,-2.0789 13.94,-9.2988 15.5475,-16.4823 1.1188,-4.9989 0.6874,-14.7757 -0.6519,-14.7757 -0.277,0 -2.6384,2.1917 -5.2477,4.8705 -5.854,6.0101 -16.9628,11.4772 -26.6135,13.0975 -21.5325,3.6154 -44.9149,-7.7267 -56.0382,-27.1823 -1.3477,-2.3571 -2.4557,-4.5607 -2.4623,-4.8968 -0.01,-0.3361 2.6854,-0.8557 5.9823,-1.1546 10.8481,-0.9837 16.5405,-6.2457 16.4546,-15.21035 -0.058,-6.06929 -1.697,-8.99897 -10.9217,-19.52392 -6.7363,-7.68576 -14.0376,-21.97784 -15.8987,-31.12122 l -1.2983,-6.37878 -12.4152,-0.63606 c -14.1666,-0.7258 -24.0628,-3.69852 -34.4658,-10.35327 -16.6569,-10.65529 -27.8922,-30.55309 -29.187,-51.69065 l -0.5317,-8.67997 5.0695,1.48608 c 6.495,1.90395 12.2487,0.52506 16.7999,-4.02613 4.2367,-4.23666 5.739,-10.1218 5.1308,-20.1 -0.6281,-10.30626 -2.8891,-16.83767 -9.4958,-27.43074 -7.4065,-11.87547 -13.6895,-25.09954 -16.4245,-34.56926 -2.0495,-7.09655 -2.3021,-10.03275 -2.2364,-25.99999 0.069,-16.76748 0.2651,-18.61626 2.8639,-27 1.5344,-4.95 3.0017,-9.73294 3.2608,-10.62876 0.4104,-1.41876 -0.668,-1.62596 -8.3638,-1.60708 -10.5984,0.026 -19.2146,-2.00334 -29.1672,-6.86964 -8.7832,-4.29448 -19.1905,-13.74725 -24.0911,-21.88145 -5.0506,-8.38331 -9.0728,-20.65169 -9.7809,-29.83328 l -0.6098,-7.90865 3.907,0.64353 c 2.863,0.47157 4.8288,0.14365 7.3565,-1.2272 7.2591,-3.9367 9.2667,-14.02302 6.6863,-33.59165 l -1.5697,-11.90418 -8.8999,-9.09582 c -13.7994,-14.10314 -20.887,-26.68352 -24.2795,-43.09583 -4.286,-20.73443 -0.3437,-43.71128 10.6032,-61.80008 1.9306,-3.19004 3.5101,-6.28425 3.5101,-6.87602 0,-0.59176 -1.6065,-5.0913 -3.57,-9.99897 -12.8701,-32.16765 -13.0582,-63.11297 -0.5482,-90.19066 4.6536,-10.07276 8.7345,-16.23457 15.5377,-23.46032 l 5.0145,-5.32604 -0.2729,-11.67396 c -0.6498,-27.79118 8.3834,-51.64379 26.7021,-70.50864 14.2741,-14.69962 29.0519,-22.60896 52.585,-28.14435 l 8.9482,-2.10476 4.831,-8.40584 c 20.7991,-36.19025 51.2686,-54.99277 89.1536,-55.01594 13.3847,-0.008 15.3004,-0.79502 23.0686,-9.47454 12.1071,-13.52755 29.0767,-24.10671 46.0504,-28.70864 10.8781,-2.94927 37.5673,-3.24958 47.5,-0.53447 12.7571,3.48714 26.3932,11.05192 35.2021,19.52876 l 4.702,4.52478 3.298,-2.69988 c 21.1981,-17.35382 34.1893,-22.50935 58.7979,-23.3338 18.5865,-0.6227 29.8121,1.46296 43.3187,8.04836 11.741,5.72461 20.276,12.23639 30.5155,23.28182 l 8.1729,8.8162 15.2465,0.67739 c 28.5275,1.26745 46.4299,8.42653 65.3646,26.13898 8.1429,7.61735 13.9288,15.06378 20.9926,27.01782 l 5.443,9.21103 13.006,3.17269 c 15.9727,3.8964 28.3183,9.72232 39.5455,18.66163 23.4606,18.67972 35.6361,47.12099 34.1335,79.73369 l -0.54,11.72238 4.4463,4.36069 c 9.9077,9.71696 18.7902,25.44109 22.4642,39.7673 6.14142,23.94705 4.05542,46.99077 -6.6837,73.83246 l -4.5397,11.34662 5.4828,11.20716 c 6.693,13.68082 8.61092,20.92162 9.32552,35.20715 1.3375,26.73708 -5.88062,45.07077 -25.24362,64.11821 l -10.2859,10.1182 -1.7003,10.84307 c -2.8928,18.44792 -0.7044,30.81397 6.0971,34.45305 1.5086,0.80711 4.7596,1.4229 7.2246,1.36842 l 4.4819,-0.0991 -0.633,7.48821 c -1.2704,15.02943 -10.1964,33.53642 -20.2529,41.99237 -7.1394,6.00308 -16.2819,11.09889 -24.6626,13.74635 -6.3162,1.99534 -9.9106,2.47123 -18.6649,2.47123 h -10.8421 l 2.2879,7.25 c 5.2554,16.6529 6.6704,33.80315 4.0319,48.86901 -2.6986,15.40886 -6.43,24.40667 -17.183,41.4352 -7.0341,11.13913 -9.9,18.1987 -11.2345,27.67332 -2.6148,18.56638 6.9721,30.23084 21.7054,26.40907 l 5.1798,-1.34364 v 5.78814 c 0,8.85128 -2.6458,19.52834 -7.1661,28.91889 -3.288,6.83039 -5.6869,10.07738 -12.2128,16.53043 -13.4811,13.3306 -28.5768,19.41482 -48.2633,19.45221 l -9.1423,0.0174 -1.77,7.22241 c -2.4488,9.9925 -9.1565,22.78696 -16.9069,32.24869 -7.4376,9.07981 -8.9675,12.71318 -8.296,19.70203 0.811,8.4396 8.0671,13.8269 18.6235,13.8269 2.2736,0 4.1297,0.3375 4.1246,0.75 -0.025,2.0259 -6.3226,11.3025 -10.6336,15.6645 -21.2554,21.5069 -55.5115,22.9183 -74.2918,3.061 -2.907,-3.0738 -5.5532,-5.3209 -5.8804,-4.9937 -1.5393,1.5393 -1.355,13.7841 0.2716,18.0433 2.0383,5.3372 9.2094,11.9949 14.6878,13.6363 2.1207,0.6353 3.8557,1.4756 3.8557,1.8672 0,2.1371 -12.1961,12.37 -18.8813,15.8419 -14.3018,7.4276 -27.8778,8.6283 -42.3744,3.7478 l -6.7557,-2.2744 -2.6793,4.578 c -1.4736,2.518 -4.7877,6.8281 -7.3648,9.5781 -2.577,2.75 -5.5034,6.575 -6.5031,8.5 -2.6438,5.0909 -2.4309,12.6628 0.4888,17.387 2.7549,4.4576 2.6793,4.5468 -6.4302,7.5805 -10.9967,3.6623 -22.2313,4.6293 -33.9461,2.922 z m 13.7426,-17.6395 c -1.3128,-4.8678 -0.5758,-11.7818 1.7411,-16.3341 1.2362,-2.4288 5.2903,-7.6779 9.0093,-11.6647 8.3121,-8.9109 11.5552,-14.3171 13.6285,-22.7187 1.729,-7.0066 1.5806,-8.3917 -2.5661,-23.9425 -2.7433,-10.2875 -2.7879,-22.5709 -0.1205,-33.18 1.911,-7.60078 3.3881,-10.83829 16.6117,-36.40997 8.3427,-16.13298 9.9036,-22.76641 9.8827,-42 -0.015,-13.69604 -0.3323,-16.66385 -2.7274,-25.5 -4.1349,-15.25519 -4.1409,-15.41604 -0.3362,-9 8.4084,14.17941 14.5669,33.41702 14.5659,45.5 -10e-4,14.2882 -2.1466,22.01767 -11.935,43 -9.8464,21.10677 -11.0505,25.33857 -11.0505,38.83917 0,18.9152 8.654,35.3339 22.1888,42.0973 6.6473,3.3217 14.5831,4.0848 20.6143,1.9823 l 3.1015,-1.0812 -3.8458,-5.6688 c -6.05,-8.918 -7.4182,-13.9157 -7.4375,-27.1688 -0.015,-9.9898 0.3462,-12.5505 2.7473,-19.5 3.1398,-9.08791 7.2253,-16.75414 16.3595,-30.69761 12.917,-19.71799 18.5385,-35.95685 18.6252,-53.80236 0.123,-25.31664 -8.3181,-47.93308 -27.8234,-74.54761 -15.2372,-20.79096 -18.2997,-27.80286 -20.9433,-47.95239 -0.7937,-6.05 -1.8139,-11.98822 -2.267,-13.19605 -0.4737,-1.26285 -3.2881,-3.43904 -6.6228,-5.12114 l -5.7991,-2.92509 0.5793,3.12114 0.5792,3.12114 -2.0057,-3.65982 c -1.9476,-3.55375 -6.9188,-8.30512 -7.7841,-7.43983 -0.2356,0.2356 0.1121,1.4794 0.7727,2.764 0.804,1.56354 -0.2752,0.9119 -3.2648,-1.97122 -3.1819,-3.06864 -6.2608,-4.8655 -10.7092,-6.24999 -8.1899,-2.54901 -8.8762,-2.46078 -5.9894,0.76995 2.1642,2.4219 2.0341,2.38226 -1.2117,-0.36936 -5.3711,-4.55341 -10.2943,-4.95448 -22.3541,-1.82109 -5.4604,1.41874 -10.5089,3.06164 -11.2189,3.65089 -0.7101,0.58925 -1.291,0.65064 -1.291,0.13642 0,-1.61014 -17.4602,-5.53769 -24.4392,-5.49743 -7.1101,0.041 -15.3925,2.29957 -19.8243,5.40595 -1.52,1.06537 -4.3325,3.99175 -6.25,6.50308 -4.0224,5.26791 -4.7135,4.54842 -0.9504,-0.98942 1.4645,-2.15527 2.0298,-3.73212 1.3378,-3.73212 -2.2741,0 -9.7355,5.00829 -12.2898,8.2494 -1.8764,2.3808 -2.5649,2.78233 -2.573,1.50059 -0.014,-2.21546 0.107,-2.23408 -5.3691,0.82655 -3.9523,2.20896 -4.8202,3.2845 -6.0836,7.53888 -0.8105,2.72929 -1.9696,8.58447 -2.5757,13.01152 -2.3133,16.89478 -6.6575,26.65982 -20.4081,45.87305 -13.7184,19.16823 -19.871,31.01698 -25.1843,48.5 -2.4807,8.16258 -2.7387,10.48875 -2.7728,25 -0.035,14.94253 0.1491,16.56178 2.789,24.5 3.8006,11.42846 6.1589,15.91961 17.5913,33.5 11.5558,17.77032 13.0853,20.67307 16.0769,30.51207 1.6378,5.3866 2.2804,10.0136 2.2901,16.4879 0.016,10.8399 -1.9848,18.2485 -6.9025,25.5561 -2.1683,3.2221 -3.1838,5.6224 -2.618,6.1882 1.8965,1.8965 12.6795,2.0746 18.0289,0.2978 10.9123,-3.6244 21.5334,-17.5295 24.6602,-32.2848 3.7947,-17.9073 0.535,-32.71512 -12.9346,-58.75727 -13.5497,-26.19705 -13.3791,-49.21199 0.5707,-76.9871 4.7096,-9.37722 10.8853,-19.79151 11.4195,-19.25726 0.2051,0.20511 -1.0377,3.719 -2.7617,7.80864 -5.6913,13.50012 -7.9617,23.33363 -8.5281,36.93572 -0.4368,10.49126 -0.1823,13.91437 1.5836,21.30135 2.3879,9.98845 6.9544,20.45653 13.5171,30.98586 6.3694,10.21937 12.1101,23.00121 14.1407,31.48486 2.4299,10.1519 1.5686,25.3731 -2.1631,38.2279 -4.9986,17.2193 -3.3937,30.4453 5.2973,43.6528 8.413,12.7852 26.1146,23.8122 44.7249,27.861 9.3177,2.0272 9.7671,1.9633 8.8968,-1.2638 z m -26.0252,-52.75 c 0.3116,-1.1 3.0516,-7.625 6.0887,-14.5 3.0372,-6.875 6.7605,-16.55 8.2741,-21.5 2.4883,-8.1376 2.7494,-10.4372 2.7256,-23.99997 -0.032,-17.92515 -1.5385,-23.92197 -11.7253,-46.66254 -10.0207,-22.36944 -11.1553,-26.78823 -10.9993,-42.83746 0.082,-8.45575 0.6734,-15.36824 1.5825,-18.5 l 1.4514,-5 0.5834,12 c 0.8957,18.42415 3.9816,27.25623 17.8275,51.02355 15.2529,26.18264 17.919,49.83652 8.4521,74.98792 -3.5605,9.4591 -7.2234,15.4991 -16.0639,26.4885 -8.9277,11.0977 -8.9348,11.105 -8.1968,8.5 z m -36.2713,-212.97691 c 0,-1.9006 5.4074,-11.63902 8.4115,-15.14863 l 3.4676,-4.05102 -6.5688,-1.21033 c -8.8471,-1.63014 -15.8397,-5.3116 -21.5859,-11.36454 -4.9732,-5.23857 -5.7513,-8.05575 -0.9639,-3.48993 3.896,3.71579 11.5192,6.70919 20.3772,8.00154 7.4418,1.08575 14.0937,0.43634 38.8623,-3.79406 1.375,-0.23484 10.2766,0.7768 19.7814,2.24809 15.0543,2.33035 18.2251,2.5391 24.6054,1.61992 8.2429,-1.1875 17.6861,-5.11228 21.9928,-9.14064 2.3112,-2.16177 2.6695,-2.2863 1.8151,-0.63081 -3.4664,6.71657 -17.8257,15.64879 -27.2378,16.94328 l -4.8872,0.67216 3.8948,5.16096 c 2.1422,2.83852 4.8248,7.33179 5.9614,9.98505 l 2.0666,4.8241 -5.3294,-4.55305 c -10.3776,-8.86583 -21.7808,-12.57278 -38.6631,-12.5685 -18.0264,0.005 -31.2722,4.17941 -41.3192,13.02315 -2.5744,2.26609 -4.6808,3.82906 -4.6808,3.47326 z m -93.7875,181.49721 c 7.0279,-2.6313 11.7198,-6.6628 15.3212,-13.1647 2.5869,-4.6706 2.9628,-6.3512 2.9386,-13.13979 l -0.028,-7.78422 -8.7682,-16.9853 c -9.2482,-17.91521 -12.0817,-26.30509 -13.2543,-39.24463 -1.3406,-14.79435 3.4157,-35.42108 11.5726,-50.1866 2.1314,-3.85827 8.2462,-13.31503 13.5884,-21.01503 19.6422,-28.31142 23.0122,-37.28932 24.3988,-65 0.609,-12.1711 1.3051,-17.42716 2.9088,-21.96371 2.3781,-6.72701 5.8038,-11.44456 4.1675,-5.73886 -0.5052,1.76142 -0.603,3.20257 -0.2173,3.20257 1.2733,0 8.1249,-14.37847 10.033,-21.05478 2.6445,-9.253 6.6579,-16.98793 11.731,-22.60904 l 4.3647,-4.83617 -2.5223,5.67175 c -2.3354,5.25177 -5.9778,19.63106 -5.1757,20.4331 0.1931,0.19311 1.9804,-1.78534 3.9717,-4.39654 6.3087,-8.27257 18.3237,-19.97202 24.8278,-24.17582 6.8396,-4.42065 14.2357,-7.03249 19.9143,-7.03249 5.6047,0 11.8913,-7.49492 13.506,-16.10199 0.6587,-3.51123 0.624,-3.5531 -5.6643,-6.83052 -3.4799,-1.8137 -8.577,-4.48335 -11.327,-5.93256 -4.4598,-2.35025 -6.0805,-2.63017 -15,-2.59084 -7.2705,0.0321 -12.1837,0.66338 -18,2.31294 -31.4042,8.90642 -57.9466,30.32714 -70.0354,56.52108 -5.5237,11.96871 -6.6766,18.15819 -7.4738,40.12188 -0.7405,20.40451 -1.2439,23.19518 -5.7919,32.11009 -2.1658,4.24525 -10.9846,15.38991 -12.1781,15.38991 -0.4037,0 0.6317,-3.7125 2.301,-8.25 2.8,-7.61065 3.0355,-9.25746 3.0401,-21.25 0,-7.15 -0.4151,-19.69633 -0.9285,-27.88073 l -0.9335,-14.88073 -5,3.96992 c -12.9386,10.27304 -30.2862,31.62828 -35.418,43.60027 -6.3256,14.75714 -7.1595,29.51951 -2.6656,47.19127 1.5385,6.05 2.9666,11.28221 3.1736,11.62714 0.2069,0.34493 4.7713,-3.85824 10.1431,-9.34036 16.2267,-16.5599 16.4593,-16.43023 6.3756,3.55312 -13.5778,26.90751 -18.4057,43.39524 -18.3481,62.6601 0.055,18.29825 5.2376,32.288 17.7987,48.0428 9.1899,11.5265 11.8902,17.52541 11.9185,26.47786 0.027,8.68941 -3.0685,15.42131 -9.2662,20.14851 l -4.1793,3.1876 3.3764,2.0868 c 8.7508,5.4083 21.2438,6.6561 30.8038,3.0767 z m 303.7875,-0.7249 c 2.475,-1.1386 5.3303,-2.7085 6.345,-3.4888 1.7412,-1.3389 1.6421,-1.556 -1.7634,-3.8626 -7.3973,-5.0102 -11.2436,-14.2036 -10.191,-24.35807 0.7495,-7.22977 3.8033,-14.03013 10.1296,-22.5569 14.3964,-19.40383 19.739,-39.15213 16.5297,-61.10048 -2.181,-14.91573 -6.5514,-26.90754 -18.6798,-51.25475 -4.0923,-8.21512 -7.2783,-15.09885 -7.08,-15.29718 0.1983,-0.19833 5.6593,4.84072 12.1355,11.19788 6.4761,6.35716 11.891,11.41606 12.0331,11.242 0.142,-0.17406 1.1802,-3.46647 2.307,-7.31647 7.9467,-27.15132 4.6928,-46.46552 -11.4559,-68 -6.5252,-8.70147 -21.8526,-25.32619 -26.211,-28.42969 l -2.7202,-1.9369 -0.016,9.6833 c -0.01,5.32581 -0.8237,14.6267 -1.811,20.66865 -2.1844,13.3676 -1.6253,21.50039 2.2809,33.17904 1.5334,4.58458 2.503,8.3356 2.1546,8.3356 -0.9596,0 -8.8653,-9.95305 -11.5858,-14.58617 -4.5096,-7.67987 -6.4006,-18.10375 -6.4084,-35.32379 -0.01,-11.94079 -0.4581,-17.46263 -1.9342,-23.59003 -4.017,-16.67493 -11.8746,-29.3829 -27.0823,-43.79973 -17.6776,-16.75839 -40.0222,-27.58634 -60.5816,-29.35724 -8.7651,-0.75499 -15.6187,0.76845 -22.0829,4.90867 -2.6466,1.69507 -6.837,3.86846 -9.312,4.82977 -4.2075,1.63424 -4.4804,1.96457 -4.1988,5.08317 0.4041,4.47642 4.1274,11.6929 7.2268,14.00689 1.3835,1.03297 3.8557,2.0921 5.4938,2.35362 1.638,0.26152 4.5532,0.73875 6.4782,1.0605 9.6045,1.60534 24.1171,12.46404 36.457,27.27809 3.2524,3.90451 6.0731,6.93956 6.2681,6.74456 0.8109,-0.81098 -2.8391,-15.18709 -5.1888,-20.43655 l -2.5388,-5.67175 3.9631,4.5 c 5.4236,6.15845 9.5145,14.07783 11.9319,23.0986 2.5492,9.51286 9.1075,23.6434 9.1075,19.62319 0,-4.44481 1.8334,-3.10524 3.4602,2.5282 2.7115,9.38957 3.4745,15.47225 3.4659,27.6303 -0.015,21.35551 3.4206,30.43431 21.9994,58.13112 13.9167,20.74663 17.6409,27.7587 22.0228,41.4657 5.2747,16.49969 5.2646,34.85347 -0.028,50.88126 -1.1154,3.37789 -4.4665,11.31662 -7.4467,17.64162 -6.5537,13.90888 -8.9091,22.4892 -8.1617,29.73136 1.1591,11.23031 8.4284,21.10841 18.6883,25.39481 6.1284,2.5604 19.5613,2.1311 26,-0.8308 z M 424.36088,918.98896 c 0.3171,-0.34982 1.1176,-4.57465 1.779,-9.38852 0.6613,-4.81387 2.5394,-12.54036 4.1734,-17.16996 3.7641,-10.66431 3.7538,-15.28543 -0.068,-30.767 -6.8805,-27.8718 -4.5562,-47.08795 8.2195,-67.95441 15.0851,-24.63819 17.299,-30.08701 19.0137,-46.79511 0.8953,-8.72418 0.8041,-12.38724 -0.5248,-21.06102 -0.8848,-5.775 -2.0877,-12.16653 -2.6731,-14.2034 l -1.0645,-3.70341 -7.8051,8.70341 c -4.2928,4.78687 -13.4227,14.63637 -20.2887,21.88778 -18.4587,19.49473 -27.1246,33.76477 -31.734,52.256 -2.6172,10.49943 -2.8097,27.28212 -0.4908,42.77934 4.3596,29.13494 -3.2785,47.18171 -21.8631,51.65626 -3.4804,0.83796 -3.4467,1.91041 0.2951,9.39831 5.963,11.93317 21.775,23.07062 35.7217,25.16123 5.7723,0.86527 16.2389,0.38184 17.3097,-0.7995 z m 437.205,-1.2285 c 12.6989,-4.27311 23.6507,-13.74962 29.6059,-25.61769 2.7301,-5.44085 2.6676,-6.11809 -0.6375,-6.91385 -4.9572,-1.19352 -11.9384,-5.21703 -14.656,-8.44671 -8.4059,-9.98987 -10.1911,-21.60215 -6.9903,-45.47082 3.0494,-22.74001 0.4448,-40.66864 -8.5651,-58.95845 -6.1185,-12.42017 -12.6192,-21.01002 -30.7453,-40.62574 -7.8136,-8.45584 -15.6886,-17.31079 -17.5,-19.67765 l -3.2933,-4.30339 -1.248,3.04153 c -2.7501,6.70224 -4.4838,21.32987 -3.9783,33.56525 0.5911,14.30407 3.339,24.00282 10.0582,35.49999 2.4108,4.125 6.4838,11.1 9.0513,15.5 8.0187,13.74204 12.4325,31.54263 11.1984,45.16175 -0.3571,3.94134 -2.0268,12.71731 -3.7103,19.50216 -4.0664,16.3886 -4.0961,22.05213 -0.172,32.83609 1.7012,4.675 3.6437,12.1 4.3167,16.5 0.6729,4.4 1.3805,8.5625 1.5724,9.25 0.6153,2.20485 18.3669,1.62278 25.6932,-0.84247 z m 28.6153,-124.90753 c 6.4461,-12.5571 7.6097,-18.04159 7.5315,-35.49999 -0.065,-14.47093 -0.3337,-16.8601 -2.8139,-25 -3.5193,-11.54981 -10.408,-25.60781 -18.1308,-37 -3.3557,-4.95 -9.9962,-14.71861 -14.7568,-21.70802 -10.2785,-15.09062 -13.9477,-22.09118 -18.1777,-34.6816 l -3.1547,-9.38962 -3.19,7.59962 c -6.5361,15.57084 -8.4134,23.92575 -8.9512,39.83647 -0.5419,16.03054 0.759,24.87571 5.3209,36.17867 2.9768,7.37554 12.0283,21.03084 18.8619,28.45566 9.5105,10.3331 16.6695,20.49657 21.6087,30.67731 4.9771,10.25886 8.9378,22.61675 8.9775,28.0114 l 0.022,3.0201 2.0145,-2.5 c 1.108,-1.375 3.285,-4.975 4.8379,-8 z m -507.6402,-12.55284 c 4.3745,-11.69851 13.0922,-25.20681 23.8686,-36.98517 9.6791,-10.57905 13.3316,-15.34574 17.2115,-22.46198 12.9693,-23.78723 13.5475,-54.88076 1.5519,-83.45773 l -3.2909,-7.83983 -2.1187,6.89878 c -3.9219,12.76974 -9.7671,23.09205 -24.0091,42.39878 -11.255,15.25753 -14.9904,21.08522 -20.3377,31.72968 -9.593,19.0962 -12.6325,32.07922 -11.8861,50.77032 0.5434,13.60718 3.1691,23.12981 9.5129,34.49999 l 3.6265,6.5 2.1778,-9 c 1.1978,-4.95 2.8597,-10.82378 3.6933,-13.05284 z m 188.5709,-12.53712 c 4.8685,-2.69988 7.1508,-4.52407 6.8009,-5.43586 -0.3443,-0.89728 -0.019,-1.17745 0.9404,-0.80936 0.8069,0.30962 2.8238,9.8e-4 4.482,-0.68587 2.7532,-1.14041 2.8818,-1.39584 1.482,-2.94262 -2.3407,-2.58642 -1.8291,-3.27654 1.0368,-1.39871 2.4127,1.58083 2.9076,1.57719 8.0998,-0.0595 3.0415,-0.95877 7.9602,-1.99402 10.9303,-2.30056 5.7656,-0.59506 5.9256,-0.76549 4.425,-4.71245 -1.3512,-3.55402 0.063,-3.14406 2.495,0.72342 2.3296,3.70407 6.9426,5.54395 16.0385,6.39682 6.8755,0.64469 16.591,-1.64816 18.9676,-4.47632 0.7899,-0.93996 2.1564,-2.60902 3.0368,-3.70902 1.5769,-1.97037 1.5773,-1.76393 0.01,3.25 -0.6641,2.12043 -0.426,2.25 4.1344,2.25 2.6615,0 7.8175,0.8259 11.4578,1.83534 5.7335,1.58984 6.9679,1.65245 9.2284,0.46806 2.6649,-1.39627 3.5048,-0.59863 1.4906,1.41558 -0.8253,0.8253 -0.1036,1.63844 2.75,3.09827 2.1279,1.08862 7.2233,4.05008 11.323,6.58103 4.0997,2.53094 8.5451,4.60172 9.8788,4.60172 2.3467,0 2.4024,-0.16908 1.7301,-5.25 -0.9846,-7.44103 -3.5974,-12.72789 -10.3889,-21.02136 -14.8576,-18.14351 -29.2612,-27.72864 -41.6677,-27.72864 -2.499,0 -7.7133,1.10738 -11.5872,2.46086 l -7.0435,2.46085 -5.1878,-2.12048 c -3.5829,-1.46452 -7.5134,-2.14844 -12.7061,-2.21085 -6.5411,-0.0786 -8.3608,0.32501 -14,3.10545 -17.4906,8.62395 -36.2352,31.10966 -38.3919,46.05417 -0.7976,5.52728 0.5222,5.54791 10.2379,0.16003 z m -86.7039,-28.37605 c 8.0273,-6.16264 11.3951,-9.5201 14.8763,-14.83076 11.0488,-16.85476 29.3,-32.33054 50.1446,-42.51895 6.7955,-3.32151 14.2038,-6.57378 16.4629,-7.22727 l 4.1074,-1.18816 -3.2968,-5.47486 c -5.4269,-9.01225 -5.8068,-20.39663 -1.0289,-30.8329 4.5888,-10.02331 13.8302,-17.46588 21.6766,-17.45734 l 3.4342,0.004 -3,1.82954 c -14.0103,8.54412 -18.1276,33.038 -6.8665,40.84919 5.2406,3.63507 6.2902,3.61851 5.6885,-0.0898 -0.4431,-2.73028 -0.07,-3.64927 2.2073,-5.44081 5.5066,-4.33149 14.7658,-2.12242 23.7707,5.67123 5.9715,5.16827 13.7157,7.63085 21.716,6.90541 6.6909,-0.60671 10.9701,-2.61569 16.6665,-7.82451 5.0418,-4.6105 10.1989,-6.90799 15.5054,-6.90799 6.9823,0 10.6853,3.57317 8.8113,8.50223 -0.9276,2.43967 -0.8357,2.58292 1.2498,1.94941 7.9624,-2.41866 12.3512,-10.38549 11.5081,-20.88966 -0.626,-7.79854 -3.618,-14.33811 -9.2488,-20.21466 -4.8857,-5.09902 -3.5401,-5.66248 4.2508,-1.78007 6.1949,3.08703 10.6389,7.92302 14.1398,15.38712 2.1653,4.61644 2.6011,6.97602 2.6011,14.08252 0,7.58741 -0.3549,9.253 -3.1912,14.97543 -1.7552,3.5412 -3.1052,6.46367 -3,6.49438 4.842,1.41393 21.186,8.84157 26.7898,12.17483 17.9338,10.66733 35.3802,27.041 43.4075,40.73866 1.5262,2.6042 6.2949,7.41643 11.6395,11.74573 14.4955,11.74192 13.2697,11.34988 12.6061,4.03152 -1.2204,-13.4579 2.378,-37.66362 8.4215,-56.65049 2.6449,-8.30918 3.3464,-9.65068 4.2475,-8.12233 2.1084,3.57603 11.7059,15.57538 12.4577,15.57538 0.4203,0 0.3859,-3.0375 -0.076,-6.75 -0.9474,-7.60898 0.4786,-25.61947 2.7117,-34.25 2.4146,-9.33195 6.0169,-18.99133 11.7472,-31.5 9.6353,-21.03265 13.8107,-36.56147 15.6931,-58.36448 2.05,-23.74373 -2.272,-67.5112 -9.5427,-96.63553 -3.8101,-15.26227 -18.4111,-67.80536 -19.3059,-69.47372 -0.5405,-1.00801 -2.0606,-1.382 -4.8102,-1.18347 -6.1827,0.4464 -20.0026,-1.72013 -27.9885,-4.38773 -10.4642,-3.49546 -20.5217,-9.91742 -28.241,-18.03257 -8.6411,-9.08414 -12.2826,-14.39834 -19.0941,-27.865 l -5.5347,-10.94249 -8.1484,-2.75023 c -4.4816,-1.51263 -11.8569,-3.25801 -16.3896,-3.87863 -20.2885,-2.77788 -43.6199,4.88718 -63.1295,20.73997 -6.7219,5.46194 -6.7336,5.46661 -9.086,3.62143 -16.4247,-12.88326 -28.06,-19.06705 -42.1835,-22.41916 -13.062,-3.10018 -30.5078,-2.41013 -42.4448,1.67885 l -8.4449,2.89275 -5.0704,10 c -6.6934,13.2007 -12.0878,20.94154 -20.1728,28.94736 -12.4579,12.33589 -27.4317,19.53218 -45.1522,21.69975 -4.7724,0.58376 -10.5508,0.80456 -12.841,0.49066 -4.152,-0.5691 -4.1658,-0.56014 -4.8574,3.14575 -0.3815,2.04407 -4.7467,17.89148 -9.7004,35.21648 -9.9091,34.65543 -12.4202,45.71183 -16.466,72.5 -2.3822,15.7728 -2.7267,21.09334 -2.7843,43 -0.09,34.34061 1.7869,43.35548 16.2948,78.25286 2.8017,6.73907 6.0021,15.73907 7.112,20 3.0026,11.52694 4.5507,29.15662 3.3822,38.51634 -0.677,5.42294 -0.6505,7.66307 0.088,7.41779 1.2109,-0.40235 10.7713,-11.45958 12.3548,-14.28916 0.5791,-1.03464 1.3002,-1.63373 1.6026,-1.33132 1.1691,1.16905 7.7445,26.90983 9.1943,35.9925 0.9653,6.04776 1.4119,14.22142 1.2158,22.25202 -0.1704,6.98116 -0.029,12.57962 0.3138,12.441 0.343,-0.13861 5.293,-3.83673 11,-8.21804 z m 7.543,-56.20065 c -1.3939,-1.39394 -0.5874,-2.36126 1.1801,-1.41532 1.2707,0.68002 2.2066,0.6286 3,-0.16481 0.871,-0.87093 1.1532,-0.73709 1.1532,0.5468 0,1.69929 -3.9098,2.45682 -5.3333,1.03333 z m 291.9281,-14.17999 c -0.3208,-0.51907 0.1535,-1.22652 1.0541,-1.57209 2.2101,-0.84811 2.727,-0.13807 0.9643,1.32481 -0.8556,0.71013 -1.6706,0.80998 -2.0184,0.24728 z m -39.3948,-3.35334 c -0.66,-0.66 -1.2,-1.875 -1.2,-2.7 0,-1.16667 0.2667,-1.23333 1.2,-0.3 2.2506,2.25054 6.612,1.42894 8.2281,-1.55 l 1.4919,-2.75 0.04,2.59501 c 0.073,4.70353 -6.5628,7.90221 -9.76,4.70499 z m -232.8257,-7.56343 c -3.3466,-0.54015 -6.5555,-4.64767 -6.6656,-8.5322 -0.1004,-3.54017 2.5024,-8.70437 4.387,-8.70437 0.5772,0 0.1168,1.18569 -1.0231,2.63486 -2.7902,3.54713 -2.6088,5.96203 0.6774,9.01787 2.3937,2.2259 3.3655,2.48495 7.5,1.99937 4.4033,-0.51714 6.1536,0.36241 3.7175,1.86803 -1.8687,1.15489 -6.4289,2.06576 -8.5932,1.71644 z m 10.7836,-10.23657 c 0,-1.375 0.227,-1.9375 0.5044,-1.25 0.2774,0.6875 0.2774,1.8125 0,2.5 -0.2774,0.6875 -0.5044,0.125 -0.5044,-1.25 z m 253.3421,-9.84168 c -6.3233,-3.86611 -7.2115,-7.71303 -1.2118,-5.2488 8.1269,3.3379 14.2888,2.0786 18.2333,-3.72629 4.1335,-6.08298 3.1902,-13.2317 -2.3657,-17.92826 -3.3517,-2.83331 -1.3509,-2.98289 2.2294,-0.16667 6.8297,5.37225 7.9697,16.16005 2.3805,22.52586 -5.5268,6.29466 -13.3749,8.14577 -19.2657,4.54416 z m -306.4666,-8.12262 c -3.2756,-3.50658 -4.2998,-7.61979 -3.0138,-12.10379 0.9618,-3.3537 4.593,-7.93191 6.2911,-7.93191 0.5291,0 -0.2456,1.20764 -1.7216,2.68365 -2.2528,2.25284 -2.6359,3.41138 -2.3864,7.21682 0.2549,3.88678 0.7818,4.85872 3.6952,6.81635 3.887,2.61181 8.8288,2.95719 11.661,0.81498 2.724,-2.06029 3.6969,-1.87822 2.4467,0.45785 -1.4784,2.76245 -6.2138,5.01035 -10.5547,5.01035 -2.7546,0 -4.3268,-0.7262 -6.4175,-2.9643 z m 16.9666,0.57129 c 0,-0.21616 0.675,-0.65203 1.5,-0.96862 0.825,-0.31658 1.5,-0.13972 1.5,0.39301 0,0.53274 -0.675,0.96862 -1.5,0.96862 -0.825,0 -1.5,-0.17686 -1.5,-0.39301 z m 113.6551,-4.10723 c -0.3478,-2.53712 -0.8656,-11.89998 -1.1508,-20.80635 -1.7566,-54.86583 -3.5103,-66.33676 -11.3816,-74.44761 -3.4158,-3.51977 -14.5658,-9.136 -15.7623,-7.93948 -0.2072,0.20717 1.202,3.7935 3.1315,7.96963 4.4785,9.69324 4.5354,10.97812 0.4226,9.54439 -1.7749,-0.61876 -5.4327,-0.79975 -8.6116,-0.42612 l -5.5262,0.64949 2.1241,-3.60006 c 2.1221,-3.59678 2.1223,-3.60258 0.1476,-6.37576 -2.7962,-3.92682 -12.796,-11.0679 -15.4987,-11.0679 -0.3023,0 -0.5497,2.26445 -0.5497,5.03212 0,6.61633 -1.8067,10.66701 -6.7454,15.12341 -8.5669,7.7302 -21.1076,7.17711 -28.7367,-1.26741 -4.45,-4.92564 -5.5179,-7.62859 -5.5179,-13.96664 v -4.94832 l -3.5098,1.46652 c -5.5446,2.31667 -14.4902,8.61208 -14.4902,10.1974 0,1.80135 3.712,9.27018 5.7715,11.61292 0.8462,0.9625 1.2258,1.75 0.8437,1.75 -1.186,0 -8.9877,-4.1753 -11.5682,-6.19105 -1.8995,-1.48383 -3.3308,-1.76785 -6.3437,-1.25882 -3.716,0.62781 -12.7033,-1.09558 -12.7033,-2.43598 0,-0.34426 1.3669,-1.23096 3.0375,-1.97045 1.6706,-0.73949 4.2581,-2.95763 5.75,-4.92921 10.263,-13.56296 20.233,-20.51124 34.7637,-24.22757 15.3886,-3.93574 28.9354,-3.62834 47.6154,1.0805 10.5535,2.66028 12.029,2.53728 7.7777,-0.64839 -7.9213,-5.93582 -28.7399,-15.0641 -43.1661,-18.92696 -26.6371,-7.13252 -47.9089,-1.97872 -68.0856,16.496 -5.5404,5.07305 -5.7763,5.18408 -5.1313,2.41474 2.6127,-11.21785 9.8252,-23.68779 18.1132,-31.31622 13.7042,-12.61366 29.423,-16.46531 51.4907,-12.61702 10.9837,1.9154 17.9328,4.09359 43.575,13.65849 32.7892,12.23087 39.5609,13.04523 46.3813,5.57783 l 2.8785,-3.15161 v 5.13376 c 0,6.57421 -2.9583,16.07977 -6.4148,20.61137 l -2.6989,3.53849 2.5262,8.33105 c 6.0319,19.89212 8.0135,49.95745 5.2114,79.06881 -1.5491,16.09518 -4.9679,35.3875 -6.5687,37.0686 -0.4223,0.4435 -1.0524,-1.26947 -1.4001,-3.80659 z m 58.6163,-3.99976 c -3.2378,-13.71192 -4.3483,-22.43265 -5.2053,-40.87706 -1.3486,-29.02383 1.0354,-50.99089 7.3635,-67.85123 3.2411,-8.63561 3.2551,-8.74708 1.3168,-10.5 -4.0106,-3.62691 -6.0744,-9.41964 -6.5096,-18.27172 -0.3981,-8.09701 -0.3396,-8.39306 1.2334,-6.24429 4.4078,6.02128 13.5529,6.82687 26.5922,2.34251 4.6407,-1.59598 15.5508,-5.6202 24.2446,-8.94272 33.8871,-12.95064 53.5815,-16.47923 70.4999,-12.63124 18.8804,4.29427 35.9734,22.79622 39.7734,43.05194 l 0.7338,3.91154 -5.5628,-5.08406 c -16.638,-15.20626 -35.8653,-21.97858 -54.988,-19.36811 -15.4625,2.11081 -30.3828,7.06899 -46.8594,15.57187 -7.6337,3.93944 -14.8267,9.4127 -12.3282,9.38073 0.5084,-0.007 5.4243,-1.14035 10.9243,-2.51966 21.3264,-5.34833 42.3063,-4.09321 58.1978,3.48166 8.2522,3.93347 12.3014,7.3741 23.8022,20.22492 2.75,3.07278 5.675,5.83118 6.5,6.12977 1.3334,0.48256 1.3334,0.65921 0,1.58983 -2.3555,1.64405 -9.9253,2.46038 -12.3922,1.33637 -1.7579,-0.80095 -2.7587,-0.60628 -4.6724,0.90884 -2.8976,2.29406 -8.527,5.32244 -11.7445,6.31796 -2.1058,0.65155 -1.9957,0.3038 1.2502,-3.94863 5.1087,-6.69271 5.5077,-9.16816 1.9437,-12.05955 -3.3344,-2.70513 -10.8602,-6.91344 -14.1348,-7.90389 -2.1058,-0.63697 -2.25,-0.3859 -2.25,3.91894 0,14.15759 -12.875,24.03918 -26.2538,20.14985 -9.2222,-2.68095 -14.9769,-10.31149 -14.9769,-19.85862 0,-2.61578 -0.3468,-4.75596 -0.7707,-4.75596 -2.1589,0 -12.8817,8.36788 -14.4467,11.27391 -1.6419,3.04878 -1.6666,3.60349 -0.2802,6.285 l 1.5207,2.94109 -8.7934,0.0449 c -10.1027,0.0516 -9.7797,0.90666 -3.9898,-10.563 1.717,-3.40137 2.9326,-6.37344 2.7015,-6.60461 -1.0694,-1.06938 -12.0628,4.26263 -15.3292,7.43497 -7.2468,7.03794 -9.7792,17.0692 -11.9126,47.18773 -0.7986,11.275 -1.4892,25.9 -1.5346,32.5 -0.045,6.6 -0.4099,14.025 -0.8101,16.5 l -0.7276,4.5 z m 109.7286,0.059 c 0,-1.34254 0.45,-2.7191 1,-3.05902 0.5835,-0.36058 1,0.65628 1,2.44098 0,1.68246 -0.45,3.05902 -1,3.05902 -0.55,0 -1,-1.09844 -1,-2.44098 z m -280,-3.62476 c 0,-1.13616 -0.4748,-3.04866 -1.0551,-4.25 -1.0193,-2.10998 -1.0023,-2.11825 0.5,-0.24313 1.4362,1.79267 2.203,6.55887 1.0551,6.55887 -0.275,0 -0.5,-0.92958 -0.5,-2.06574 z m 45.4254,-43.09233 c 4.1036,-2.1636 15.1116,-10.30855 19.8142,-14.66073 3.9941,-3.69649 4.3023,-2.14663 0.5219,2.62523 -3.9893,5.03557 -8.6719,8.65379 -15.2615,11.79248 -6.3425,3.02101 -10.7431,3.23175 -5.0746,0.24302 z m 191.4822,0.26776 c -6.3851,-2.49817 -13.1174,-7.32429 -16.9271,-12.13434 -1.7719,-2.23717 -3.0534,-4.23575 -2.8479,-4.44127 0.2055,-0.20552 4.4223,2.74383 9.3706,6.55413 4.9482,3.8103 10.9093,7.86436 13.2468,9.00901 6.8765,3.36734 4.9398,4.0572 -2.8424,1.01247 z m -207.9076,-19.65627 c -13.1609,-3.38583 -13.7288,-3.6178 -11.1873,-4.56942 1.3473,-0.50445 4.0606,-0.46247 6.5,0.10059 6.1349,1.41603 20.2927,1.19458 27.1791,-0.42514 3.2955,-0.77511 6.1516,-1.24947 6.3469,-1.05414 0.6293,0.62926 -7.1759,4.22581 -12.7702,5.88437 -6.4771,1.92031 -8.8158,1.92959 -16.0685,0.0637 z m 215.5,0.91373 c -7.8906,-1.95432 -17.2583,-5.9422 -16.2729,-6.92753 0.1592,-0.1592 2.9857,0.34472 6.2812,1.11983 7.2951,1.71586 19.2044,1.83724 28.5664,0.29114 6.7814,-1.11994 9.8033,-0.62925 6.9572,1.12973 -3.8554,2.38275 -21.4309,5.40254 -25.5319,4.38683 z m -149.3,-104.56716 c -0.66,-0.66 -1.2,-1.81714 -1.2,-2.57143 0,-1.07705 0.3373,-1.03413 1.5715,0.2 2.0822,2.0822 3.0271,1.9827 4.7674,-0.50201 0.7988,-1.1404 1.7055,-1.66373 2.015,-1.16297 0.8576,1.38766 -2.2371,5.23641 -4.2106,5.23641 -0.9588,0 -2.2833,-0.54 -2.9433,-1.2 z m 87.4667,-9.46667 c -1.2971,-1.29708 -0.6437,-2.5385 1.0034,-1.90645 0.9185,0.35247 2.019,0.0762 2.4456,-0.61405 0.4266,-0.6902 1.0892,-0.94132 1.4725,-0.55804 0.3832,0.38328 0.1276,1.38275 -0.5681,2.22104 -1.3312,1.60397 -3.2324,1.97847 -4.3534,0.8575 z m -133.6667,-5.03704 c -3.0461,-1.10839 -6.9929,-5.7418 -7.5866,-8.90627 -0.7136,-3.80385 0.9261,-9.48515 3.3743,-11.69119 0.9418,-0.84865 3.0623,-1.82534 4.7123,-2.17041 l 3,-0.6274 -3.2874,1.51696 c -3.8012,1.75404 -6.5852,7.24904 -5.6204,11.09339 1.4299,5.69684 9.3859,9.17629 14.6008,6.38538 1.5819,-0.84661 2.2552,-0.78966 2.8945,0.24484 1.6622,2.6894 -7.4793,5.8315 -12.0875,4.1547 z m 14.2176,-13.24192 c 0.046,-1.6201 -0.6877,-4.2076 -1.6305,-5.75 l -1.7141,-2.80437 2.5635,2.80576 c 2.4988,2.73491 3.6163,8.69424 1.6304,8.69424 -0.5132,0 -0.8954,-1.32553 -0.8493,-2.94563 z m -52.9676,0.22717 c -0.6875,-0.24651 -1.25,-0.90885 -1.25,-1.47186 0,-0.56301 0.6606,-0.77017 1.468,-0.46034 0.8074,0.30982 1.734,0.13297 2.059,-0.39301 0.7676,-1.24204 2.473,-1.23619 2.473,0.008 0,1.30859 -3.2037,2.87115 -4.75,2.31672 z m 206.2024,-3.63194 c -2.9505,-1.3388 -7.4211,-6.6496 -5.5975,-6.6496 0.4955,0 2.5164,0.675 4.4909,1.5 5.2417,2.19011 11.8351,1.9322 15.0394,-0.5883 6.4258,-5.05457 7.382,-14.41395 2.042,-19.98771 -2.9843,-3.11494 -2.2786,-3.90906 1.267,-1.42566 3.299,2.31072 5.7128,9.65552 4.8454,14.74355 -0.3993,2.34197 -0.7316,5.27062 -0.7385,6.50812 -0.01,1.47598 -0.6179,2.25 -1.772,2.25 -0.9676,0 -2.9934,0.9707 -4.5017,2.15712 -3.3847,2.66242 -10.8645,3.40296 -15.075,1.49248 z m -9.2232,-0.82041 c -1.6842,-1.68423 -1.5602,-3.34884 0.1441,-1.93438 0.7553,0.62683 2.1667,0.83522 3.1364,0.46309 1.2519,-0.48037 1.6271,-0.26785 1.2939,0.73275 -0.6246,1.87559 -3.0463,2.26659 -4.5744,0.73854 z m -0.2292,-16.12229 c 0,-4.62343 3.1283,-10.62815 6,-11.51698 0.9524,-0.29476 0.6698,0.44012 -0.7738,2.01278 -2.5877,2.81886 -4.4766,8.43303 -3.6808,10.94022 0.2948,0.92882 0.068,1.97819 -0.5047,2.33194 -0.6608,0.40841 -1.0407,-0.9669 -1.0407,-3.76796 z m -46.8,-0.9069 c -0.66,-0.66 -1.2,-1.85474 -1.2,-2.65499 0,-1.16419 0.3923,-1.09998 1.9628,0.32128 2.322,2.10136 4.7682,1.43525 5.8927,-1.60459 0.6452,-1.74413 0.9266,-1.8721 1.4005,-0.63697 1.4855,3.87115 -5.0489,7.5823 -8.056,4.57527 z m -11.706,314.63807 3.7383,-1.56194 -2.0364,-2.18806 c -1.1199,-1.20343 -3.1563,-4.40895 -4.5252,-7.12337 l -2.489,-4.93531 -1.4657,3.50804 c -0.8062,1.92942 -2.9056,5.14785 -4.6653,7.15208 l -3.1995,3.64404 3.3244,1.45165 c 4.3981,1.92047 6.8215,1.93179 11.3184,0.0529 z m -282.1264,-22.04765 4.7239,-1.60959 -3.2327,-2.38504 c -4.317,-3.185 -10.5276,-10.80649 -13.3432,-16.37459 -1.2574,-2.48665 -3.4747,-9.02119 -4.9273,-14.52119 -3.181,-12.04406 -7.5828,-21.64395 -14.7443,-32.15587 l -5.344,-7.84413 -0.6041,12.5 c -0.3322,6.875 -1.1911,14.075 -1.9086,16 -2.1224,5.69454 -6.5437,11.44618 -10.3915,13.51834 -1.9777,1.06506 -3.5958,2.537 -3.5958,3.27099 0,2.68503 5.1314,12.0783 8.9975,16.47042 10.751,12.21385 30.1834,17.96456 44.3701,13.13066 z m 578.5075,-0.27441 c 8.5876,-2.67274 13.9985,-6.13203 20.39,-13.03558 5.5516,-5.99636 11.0797,-17.13217 8.8705,-17.86858 -0.5533,-0.18441 -2.7859,-1.62474 -4.9616,-3.20075 -7.3457,-5.32121 -12.061,-20.35111 -10.9054,-34.76109 0.2756,-3.4375 0.2154,-6.22178 -0.1337,-6.18728 -1.2658,0.12505 -13.9823,20.58894 -16.4466,26.46659 -1.3903,3.31611 -3.4718,9.84111 -4.6254,14.5 -2.9081,11.74376 -6.2668,18.08934 -13.8029,26.07804 -6.2973,6.67543 -6.4088,6.88554 -4.1163,7.7563 7.017,2.66523 17.644,2.76945 25.7314,0.25235 z m -558.6617,-37.866 c -1.0787,-13.40823 -1.6725,-16.94951 -2.9762,-17.75 -0.8957,-0.55 -3.7322,-2.91956 -6.3033,-5.26569 -10.2226,-9.32796 -13.4331,-25.18424 -7.6433,-37.74931 l 2.7716,-6.01499 -3.1119,-5.74555 -3.1119,-5.74555 -3.0452,2.1684 c -4.4667,3.18056 -6.9757,9.67545 -7.0364,18.2145 l -0.051,7.13819 -1.9398,-4.5 c -6.4049,-14.8576 -5.6355,-30.39562 1.8296,-36.95003 2.763,-2.42597 4.3873,-3.04998 7.9389,-3.04998 2.4559,0 4.4652,-0.36115 4.4652,-0.80256 0,-1.42332 -10.1614,-11.22956 -13.339,-12.87274 -14.4649,-7.48008 -24.4417,9.50445 -20.3857,34.70448 2.204,13.69353 6.7568,25.06557 16.5097,41.23745 6.5366,10.83881 9.5918,17.18132 12.8105,26.59408 3.1366,9.17268 5.0879,13.26642 7.5656,15.87238 4.7227,4.96705 8.7834,7.25886 12.8693,7.26318 l 3.5304,0.004 z m 522.4476,14.67209 c 5.2222,-2.52803 8.6484,-6.43193 10.6481,-12.1326 0.8276,-2.35922 2.7192,-7.78229 4.2036,-12.05127 1.4843,-4.26898 5.7917,-12.69872 9.5718,-18.73277 8.8073,-14.05856 12.9871,-22.41988 16.4995,-33.00545 2.5407,-7.65753 2.825,-9.88996 2.8682,-22.5238 0.044,-13.0468 -0.1263,-14.36226 -2.4522,-18.88202 -5.4682,-10.62639 -13.2548,-10.52494 -24,0.3127 l -6.5,6.55594 4.5,0.56511 c 8.9238,1.12067 12.1909,5.77247 12.8216,18.25559 0.3287,6.50601 -0.069,9.21415 -2.4248,16.5 l -2.818,8.71648 -0.6002,-7.5 c -0.6352,-7.93714 -2.2968,-12.16347 -6.1336,-15.60099 -4.4098,-3.95096 -5.6561,-3.76635 -8.8787,1.31522 -1.6314,2.57253 -2.9663,5.04313 -2.9663,5.49021 0,0.44708 1.325,2.64189 2.9443,4.87734 3.4708,4.79132 5.4867,13.30997 4.5468,19.21337 -1.5259,9.58311 -8.0808,20.20805 -14.9511,24.23431 l -4.1471,2.43035 -1.2737,15.63978 c -0.7006,8.60188 -1.5121,16.26092 -1.8035,17.02009 -0.8241,2.1476 5.3243,1.73301 10.3453,-0.69759 z m -23.9915,-19.67209 c 0.4558,-3.7125 0.646,-11.25 0.4227,-16.75 -1.0655,-26.24074 -0.6637,-35.63936 1.8596,-43.5 1.6792,-5.23093 2.4248,-9.92034 2.4644,-15.5 0.091,-12.83123 -0.663,-14.95087 -6.7111,-18.8622 -2.8628,-1.85138 -6.3301,-4.5886 -7.7051,-6.08271 l -2.5,-2.71657 -1.1111,12.33074 c -0.6112,6.7819 -2.3544,19.08074 -3.8739,27.33074 -4.9051,26.6318 -2.4882,40.38359 11.2919,64.25 1.9848,3.4375 3.9294,6.25 4.3213,6.25 0.392,0 1.0855,-3.0375 1.5413,-6.75 z m -475.5009,-2.59656 c 6.2073,-10.27245 10.5758,-22.6798 11.9543,-33.95255 0.9388,-7.677 0.849,-11.02276 -0.542,-20.20089 -3.3963,-22.41011 -4.5423,-32.17221 -4.5613,-38.8536 l -0.02,-6.85359 -3.5278,3.09745 c -1.9403,1.7036 -5.3493,4.02673 -7.5756,5.1625 -5.3806,2.74499 -7.1832,7.07973 -7.2552,17.44724 -0.039,5.65542 0.7703,11.2217 2.7623,18.99282 2.4684,9.62981 2.7393,12.10963 2.1847,20 -1.5689,22.32062 -1.7758,29.01484 -1.1147,36.06923 0.4691,5.00654 1.0971,7.42212 1.8666,7.18086 0.6379,-0.19995 3.2606,-3.84021 5.8283,-8.08947 z m 573.3145,-73.95552 c 12.4248,-14.20349 17.6708,-33.84964 14.1111,-52.84652 -3.0131,-16.07963 -9.2161,-27.70523 -20.9989,-39.35574 -8.7158,-8.61791 -14.5432,-12.1743 -29.1399,-17.78372 -4.9745,-1.91168 -11.7245,-4.83258 -15,-6.4909 -5.8493,-2.96141 -17.7721,-11.23766 -17.1234,-11.88631 0.1817,-0.18174 3.6208,0.78869 7.6423,2.15651 12.4651,4.23965 29.0257,6.96601 29.0257,4.77847 0,-1.47594 -7.5112,-12.99647 -13.6154,-20.88314 -15.4853,-20.00687 -39.4491,-36.16403 -63.122,-42.55892 -8.4219,-2.27506 -27.3534,-3.13704 -29.1593,-1.32766 -1.5166,1.51949 3.2858,14.6885 8.725,23.92576 6.6961,11.37169 19.5505,24.37305 36.6736,37.09275 7.9882,5.93392 14.3627,10.95031 14.1654,11.14753 -0.7562,0.75627 -18.2982,-4.89966 -25.0677,-8.08242 -3.9047,-1.83589 -10.2496,-5.4 -14.0996,-7.92024 -5.1508,-3.37176 -7.0851,-4.198 -7.3224,-3.12764 -0.587,2.64857 3.7913,17.85035 7.19,24.96426 9.6806,20.26245 27.1977,34.08425 50.1324,39.55677 21.996,5.24852 26.8933,6.93387 33.849,11.64872 10.4333,7.07212 17.2428,17.16431 20.2574,30.02319 1.7331,7.39252 2.1589,22.07602 0.9338,32.1995 l -0.7779,6.42818 4.1057,-3.25179 c 2.2582,-1.78848 6.1349,-5.57147 8.6151,-8.40664 z m -666.2544,-3.94793 c -0.378,-11.21738 -0.127,-15.6333 1.1793,-20.75 2.774,-10.86534 6.9582,-18.55298 13.8247,-25.4004 7.5363,-7.51529 15.7609,-11.79697 28.2673,-14.71578 4.95,-1.15525 12.5302,-2.94084 16.8449,-3.96797 26.6011,-6.33258 46.6572,-26.77076 53.7346,-54.75839 2.8574,-11.29942 2.5802,-11.80875 -4.0795,-7.49504 -8.3168,5.38711 -22.932,12.03687 -32.636,14.84896 -4.77,1.38228 -8.8149,2.37097 -8.9888,2.19708 -0.1739,-0.17389 4.058,-3.40979 9.4043,-7.19089 20.4256,-14.44576 34.3235,-27.5884 41.0511,-38.82013 3.581,-5.97855 9.5678,-19.51035 10.5597,-23.86794 0.5995,-2.63345 0.5178,-2.68015 -5.8854,-3.36588 -27.9656,-2.99486 -66.8614,17.44393 -88.8162,46.67071 -4.4456,5.91811 -12.6887,19.12081 -12.6887,20.32306 0,1.10596 21.3436,-2.96889 28.7603,-5.49082 4.5431,-1.54483 8.0027,-2.3921 7.688,-1.88282 -0.8115,1.31302 -11.1829,8.24561 -15.9982,10.69373 -2.2274,1.13245 -9.5854,4.32805 -16.351,7.10134 -14.1026,5.7808 -20.3844,9.50853 -27.9728,16.59962 -9.3951,8.7794 -17.8753,23.1792 -20.7719,35.27154 -2.0099,8.3905 -2.2501,23.95405 -0.4823,31.25002 2.471,10.19825 8.4892,21.1134 16.1843,29.35323 3.9276,4.20573 7.2562,7.64678 7.3968,7.64678 0.1406,0 0.04,-6.4125 -0.2245,-14.25001 z m 77.7889,-28.44467 c 7.3632,-2.37805 14.9976,-9.61337 19.374,-18.36114 3.2069,-6.41025 4.6333,-11.48704 5.9872,-21.30917 0.4922,-3.57042 0.4028,-3.75305 -1.173,-2.39641 -13.5206,11.64033 -27.4199,18.92935 -45.3959,23.80629 l -11.69,3.17157 6.0659,5.64177 c 7.2309,6.72526 10.8508,9.16065 15.1298,10.1791 4.8917,1.16429 6.0559,1.09147 11.702,-0.73201 z m 512.0818,0.57995 c 4.1493,-0.88987 6.4284,-2.25141 11.2992,-6.75 3.3558,-3.0994 7.1726,-6.32943 8.4818,-7.17783 2.3089,-1.49624 2.0087,-1.65702 -10,-5.35439 -19.505,-6.00547 -31.3103,-12.06776 -42.2474,-21.69489 l -4.6135,-4.06104 0.4609,2.82643 c 0.2535,1.55454 0.9574,6.04511 1.5642,9.97904 2.5293,16.39768 11.9451,28.48983 24.906,31.98542 2.5022,0.67485 4.6398,1.25736 4.7502,1.29449 0.1104,0.0371 2.5398,-0.43413 5.3986,-1.04723 z m -587.2595,-94.62229 c 5.5344,-11.06774 6.617,-15.78637 6.5991,-28.76299 -0.013,-9.29873 -0.5298,-13.9134 -2.2962,-20.5 -2.2698,-8.46334 -10.0109,-28.01374 -11.0809,-27.98481 -1.3654,0.0369 -8.6768,11.18558 -12.1224,18.48481 -4.7442,10.04994 -6.9395,20.60639 -6.9395,33.36987 0,13.83433 2.4303,25.11062 8.9722,41.63013 l 1.188,3 6.399,-6.73701 c 3.5194,-3.70536 7.6957,-9.33036 9.2807,-12.5 z m 670.901,11.48701 c 4.2706,-10.25851 6.0387,-16.97653 7.2257,-27.45479 2.4065,-21.24353 -3.65,-43.37016 -15.9565,-58.29521 l -2.8859,-3.5 -4.468,9.5 c -6.4232,13.65732 -8.7122,22.46362 -9.3572,36 -0.6198,13.00658 0.6739,19.96712 5.6477,30.38747 2.5584,5.36 14.5073,20.59287 16.1647,20.60723 0.3362,0.003 1.9695,-3.2572 3.6295,-7.2447 z m -639.7557,-51.10699 c 0.01,-0.47134 0.7252,-0.58439 1.5935,-0.25121 2.4868,0.95427 21.2514,-18.34868 26.1418,-26.8918 12.1895,-21.29398 13.3449,-42.82993 3.6033,-67.16406 -1.395,-3.48477 -3.0985,-6.33594 -3.7855,-6.33594 -2.2353,0 -14.7593,12.3028 -20.8684,20.5 -16.3546,21.94441 -21.5625,45.97819 -15.7879,72.86008 1.1649,5.42304 2.1349,11.27304 2.1556,13 l 0.038,3.13992 3.4476,-4 c 1.8961,-2.2 3.4542,-4.38564 3.4624,-4.85699 z m 3.6511,-23.39301 c 0.8079,-6.41748 4.8712,-18.55342 7.9987,-23.89015 1.4053,-2.39792 2.6974,-4.35985 2.8714,-4.35985 0.4895,0 -2.3659,11.91692 -4.1884,17.48013 -2.0039,6.11658 -6.1156,15.51987 -6.7862,15.51987 -0.2714,0 -0.2244,-2.1375 0.1045,-4.75 z m 594.3637,27.36008 c 0,-2.41446 0.9617,-8.82696 2.137,-14.25 2.4366,-11.24259 2.9219,-29.76136 0.9884,-37.71332 -4.3714,-17.97779 -16.6122,-37.49566 -31.1487,-49.66633 l -4.8903,-4.0944 -3.0179,5.97836 c -7.0303,13.92686 -9.6183,32.28056 -6.6503,47.16104 2.18,10.92935 8.8144,24.60378 15.7557,32.47457 7.7571,8.79599 18.0205,17.80351 18.8171,16.51461 0.389,-0.62937 1.8816,0.82462 3.5402,3.44862 1.5772,2.49522 3.2279,4.53677 3.6682,4.53677 0.4404,0 0.8006,-1.97546 0.8006,-4.38992 z m -13.7649,-28.2852 c -3.6907,-8.5794 -8.4667,-28.97466 -6.2613,-26.73857 1.8471,1.87291 6.9266,16.1452 8.0523,22.62562 1.5297,8.80554 0.8748,10.30956 -1.791,4.11295 z m -521.4739,-9.24723 c 1.5063,-1.08118 7.0898,-3.61144 12.4077,-5.6228 l 9.6689,-3.65701 6.3311,2.50412 c 12.5621,4.96863 28.6252,6.43999 41.3311,3.78588 13.4672,-2.81312 29.218,-12.804 38.8016,-24.61207 4.8941,-6.03014 12.6608,-18.97942 12.6852,-21.14994 0.02,-1.79373 -19.7085,-9.10907 -28.0734,-10.40951 -14.3399,-2.22936 -27.6077,0.63557 -40.7857,8.80688 -8.0684,5.00299 -22.6938,19.07414 -28.1618,27.09456 -2.924,4.289 -4.4039,5.43015 -9.4659,7.29912 -14.9641,5.52503 -28.048,13.48897 -31.1589,18.9658 -1.2876,2.26681 -2.3411,4.23601 -2.3411,4.37602 0,0.75288 16.4397,-5.71485 18.7612,-7.38105 z m 43.2388,-21.52871 c 0,-0.24808 2.9551,-2.10364 6.5669,-4.12347 7.5233,-4.20724 17.8812,-7.96011 24.4331,-8.85259 4.3729,-0.59566 4.2536,-0.48537 -4.2198,3.90272 -4.796,2.48363 -12.6088,5.64266 -17.3619,7.02005 -9.3396,2.7065 -9.4183,2.72366 -9.4183,2.05329 z m 438.5,24.45106 c -1.3935,-2.75 -3.0075,-5 -3.5866,-5 -0.5792,0 -2.9341,-1.29017 -5.2332,-2.86705 -5.2422,-3.59546 -14.2951,-8.12177 -22.4733,-11.23631 -3.8666,-1.4725 -6.9146,-3.36063 -7.9047,-4.89664 -3.7817,-5.8667 -15.2856,-18.64842 -21.238,-23.59703 -19.9922,-16.6209 -40.6932,-19.57386 -66.5886,-9.49879 -11.2267,4.36793 -11.0715,4.23214 -9.4321,8.25346 5.6308,13.81235 21.262,30.8697 33.9565,37.05488 11.8969,5.79651 18.432,7.08594 33,6.51113 10.6511,-0.42026 13.8624,-0.96301 21.7104,-3.66926 l 9.2104,-3.17605 7.0664,2.54898 c 7.4099,2.67291 12.5817,5.07711 14.8796,6.91698 1.2272,0.98263 16.5141,7.24418 18.4001,7.53675 0.4217,0.0654 -0.3733,-2.13105 -1.7669,-4.88105 z m -70.5,-26.90097 c -8.6368,-2.80049 -18.8731,-7.60926 -22.5,-10.56993 l -2,-1.63266 2,0.51446 c 13.1146,3.37343 30.1867,10.65511 32.0501,13.67019 0.7944,1.28533 0.051,1.13097 -9.5501,-1.98206 z m -497,5.32317 c 0,-2.77455 4.9987,-15.75383 8.5985,-22.32629 8.7955,-16.05859 23.2382,-31.98625 38.4184,-42.36859 l 8.4403,-5.77269 1.725,2.27269 c 0.9487,1.24997 3.2083,5.51975 5.0214,9.48838 1.813,3.96864 3.5406,7.23114 3.839,7.25 0.2985,0.0189 1.1058,-2.1032 1.7942,-4.7157 2.0481,-7.773 9.7059,-22.51996 16.1016,-31.00765 7.3196,-9.71397 16.609,-18.52636 26.7237,-25.35174 9.0805,-6.12746 29.0191,-15.91046 32.9996,-16.19151 2.6658,-0.18822 2.9844,0.25104 5.8291,8.03859 2.6913,7.36722 4.5092,10.2562 4.5092,7.16564 0,-0.60316 2.4012,-4.76566 5.3359,-9.25 6.0156,-9.19177 17.3779,-20.94132 25.4014,-26.26702 8.2397,-5.46922 22.8395,-11.95823 32.2627,-14.33946 8.2602,-2.08732 32.1181,-3.98301 35.2075,-2.7975 1.1485,0.44075 1.2659,2.06252 0.6274,8.66739 -1.341,13.87168 -5.7211,29.27526 -12.3932,43.58326 -0.3,0.64338 3.2109,0.88044 9.845,0.66475 17.4617,-0.56772 32.0184,4.01533 49.9532,15.72727 l 7.7399,5.05436 -3.1073,5.27681 c -6.7978,11.5441 -13.7965,20.69525 -22.5618,29.50085 l -9.1893,9.23154 4.1893,1.12773 c 11.6905,3.14697 26.3622,12.51626 36.5584,23.34607 l 5.3691,5.70268 4.8943,-5.49137 c 9.1295,-10.243 25.134,-20.27973 37.6175,-23.5906 2.3375,-0.61995 4.2459,-1.22233 4.2409,-1.33863 -0.01,-0.1163 -3.7175,-4.06598 -8.25,-8.77705 -8.3368,-8.66535 -15.8584,-18.77074 -21.6464,-29.08242 l -3.1703,-5.64801 6.9771,-4.63837 c 17.3118,-11.50881 34.5376,-16.96274 51.8009,-16.40086 5.665,0.18439 10.2996,0.28399 10.299,0.22133 -7e-4,-0.0627 -1.5814,-4.33766 -3.5129,-9.5 -4.1647,-11.13135 -7.2354,-25.4931 -7.6727,-35.88608 l -0.3156,-7.5 14,0.16443 c 16.2149,0.19044 28.7982,2.88061 41.3453,8.83923 4.0493,1.92299 7.5011,3.49634 7.6706,3.49634 0.1696,0 0.6056,-1.75919 0.9688,-3.90931 0.7724,-4.57189 -0.6331,-7.8018 -7.0019,-16.09069 -7.8089,-10.16315 -17.1827,-17.81326 -29.3101,-23.9205 -20.1729,-10.15886 -48.1037,-9.89111 -69.1727,0.66311 -9.1845,4.60085 -21.1245,15.62484 -26.0423,24.04441 l -3.456,5.91685 -2.7187,-4.76018 c -4.1273,-7.22672 -13.438,-16.73394 -21.6524,-22.10953 -22.2484,-14.55945 -55.63,-14.45897 -80.3753,0.24193 -13.3604,7.93725 -28.9121,25.79885 -30.3631,34.87289 -0.332,2.07637 -1.0061,4.39978 -1.4979,5.16312 -1.2736,1.97665 -2.8589,-0.63642 -2.879,-4.74547 -0.019,-3.80474 -0.887,-4.11296 -14.0153,-4.97419 -34.4406,-2.25935 -63.8617,16.12184 -81.9111,51.17496 -2.2466,4.36293 -4.0856,8.46478 -4.0867,9.11521 0,1.41662 -1.7212,1.95801 -9.0022,2.83579 -21.3988,2.57981 -38.3617,10.61485 -52.601,24.91618 -7.6241,7.65735 -9.8571,10.67631 -13.7599,18.60308 -6.1686,12.52877 -8.7741,22.8383 -8.9622,35.46234 -0.1541,10.34566 1.8752,23.89488 3.4345,22.93116 0.4888,-0.30205 0.8886,-1.20609 0.8886,-2.00896 z m 340,-155.32102 c 0,-2.36603 12.7109,-13.7482 18.5,-16.56613 5.2184,-2.54009 7.3028,-2.95557 16,-3.18922 10.3495,-0.27803 9.9825,0.0692 -2.7997,2.64923 -7.797,1.57376 -20.378,8.0106 -26.6121,13.61555 -2.7985,2.5161 -5.0882,4.08686 -5.0882,3.49057 z m -45.0757,-2.73701 c -5.7893,-6.29445 -20.0428,-13.41324 -31.7856,-15.87502 l -6.6387,-1.39174 9,0.25467 c 7.2212,0.20433 10.1217,0.76995 14.6752,2.8617 5.7698,2.65054 13.3335,8.88311 16.9587,13.97419 2.5297,3.55271 1.0076,3.67409 -2.2096,0.1762 z m 345.776,134.13583 c -0.3371,-11.72488 -0.7184,-14.00095 -3.8876,-23.20481 -4.64,-13.47552 -8.7343,-20.18617 -17.9196,-29.37047 -14.4193,-14.4177 -27.556,-20.24018 -55.1571,-24.44693 -3.5719,-0.54439 -3.9884,-1.01804 -8.1573,-9.27574 -8.6666,-17.16635 -20.8114,-31.62648 -33.5787,-39.98021 -16.5397,-10.82205 -40.4057,-15.48888 -59.5943,-11.65329 -2.8223,0.56415 -2.9032,0.74812 -2.8181,6.4153 l 0.088,5.83449 8.7651,8.29685 c 8.7084,8.24323 14.2065,15.31114 18.5419,23.83583 l 2.2636,4.45102 3.4625,-8.65276 3.4626,-8.65277 5.1646,2.00258 c 6.9512,2.69535 23.4841,11.97284 30.4834,17.10592 8.1375,5.96774 18.5891,16.25375 24.187,23.80384 5.5934,7.54397 13.2214,22.6972 15.084,29.96485 0.7086,2.76447 1.5407,5.01998 1.8492,5.01226 0.3085,-0.008 2.4602,-3.49522 4.7815,-7.75 2.3214,-4.25478 4.6381,-8.36345 5.1483,-9.13038 2.3064,-3.46679 26.1581,16.49261 37.1655,31.1005 6.5665,8.71442 13.8409,22.87696 16.5874,32.29392 l 1.7499,6 1.3512,-5.5 c 0.9074,-3.69355 1.2284,-9.76979 0.9774,-18.5 z m -558.4589,17.67302 c 2.4833,-2.65484 5.7005,-6.70484 7.1494,-9 1.4489,-2.29516 2.7933,-4.17302 2.9875,-4.17302 0.1943,0 0.024,1.8 -0.3783,4 -0.4023,2.2 -0.5909,4 -0.4193,4 1.3339,0 13.1893,-7.90283 18.6573,-12.43694 23.3028,-19.32293 35.1499,-48.26248 30.7989,-75.23417 -0.6891,-4.27177 -1.6419,-8.79017 -2.1175,-10.0409 l -0.8646,-2.27404 -7.7774,4.12991 c -27.2611,14.47606 -45.3262,36.94969 -50.6932,63.06398 -0.9858,4.79619 -1.5932,12.91786 -1.608,21.5 -0.013,7.58569 -0.4158,15.47966 -0.8947,17.54216 -0.479,2.0625 -0.5298,3.75 -0.113,3.75 0.4168,0 2.7896,-2.17214 5.2729,-4.82698 z m 12.3121,-26.42302 c 2.8136,-9.19779 8.0945,-18.72401 15.3832,-27.75 3.0897,-3.82611 2.4819,-1.61491 -2.3742,8.63625 -3.8771,8.18463 -12.0662,21.36375 -13.2747,21.36375 -0.2324,0 -0.1128,-1.0125 0.2657,-2.25 z m 465.9217,10.5 c -0.1422,-19.39263 -0.327,-21.32615 -2.8259,-29.55747 -3.1675,-10.43366 -6.3531,-17.03489 -12.1573,-25.19253 -7.8666,-11.0564 -23.4101,-24.33263 -36.3374,-31.03709 -4.4064,-2.28533 -5.4996,-2.52554 -6.2234,-1.36759 -2.1591,3.45375 -3.4249,13.28689 -3.3347,25.90468 0.084,11.73175 0.4415,14.54785 2.7307,21.5 6.6466,20.18517 22.8797,39.93276 40.0095,48.67175 l 3.8882,1.98363 -0.3888,-4.07769 c -0.2139,-2.24273 -0.3114,-4.07769 -0.2167,-4.07769 0.095,0 1.681,2.3625 3.5252,5.25 3.5688,5.58777 9.6275,12.75 10.7854,12.75 0.3836,0 0.6289,-9.3375 0.5452,-20.75 z m -22.8244,-16.75447 c -4.316,-7.36504 -7.3511,-14.21136 -9.086,-20.49553 l -0.6901,-2.5 2.0913,2.5 c 6.0629,7.24779 13.9008,23.89971 12.8016,27.19742 -0.2372,0.7115 -2.5397,-2.30435 -5.1168,-6.70189 z m -301.6508,-8.0525 c 8.7556,-2.05743 19.1469,-7.33086 27.5553,-13.98375 7.0147,-5.55026 18.5451,-17.97347 21.8073,-23.49583 l 1.7712,-2.9985 -7.3169,-3.4557 c -10.5699,-4.99207 -18.7158,-6.84014 -29.8169,-6.76459 -15.6771,0.1067 -21.1454,2.74131 -40,19.27219 -5.775,5.06327 -12.1779,10.39331 -14.2286,11.84454 -4.1735,2.9534 -4.5725,3.81693 -2.0214,4.37428 0.9808,0.21426 -0.6676,1.10627 -3.75,2.02928 -3.025,0.90583 -6.3532,2.27132 -7.3961,3.03442 -1.7293,1.26543 -1.4478,1.44054 3.2014,1.99116 2.8036,0.33205 8.6069,2.01133 12.8961,3.73175 15.0748,6.0465 25.2486,7.25233 37.2986,4.42075 z m -16.8039,-20.47987 c 5.6091,-2.89581 22.7094,-8.39103 23.5368,-7.56363 1.6509,1.65089 -20.8631,10.64684 -26.4092,10.55237 -2.4786,-0.0422 -2.1276,-0.40748 2.8724,-2.98874 z m 208.2417,20.51104 c 3.2219,-0.83919 9.2339,-2.87761 13.3601,-4.52982 4.1262,-1.6522 9.7972,-3.37011 12.6022,-3.81756 l 5.0999,-0.81354 -4.5,-2.13468 c -2.475,-1.17407 -5.2609,-2.14456 -6.1909,-2.15664 -2.3024,-0.0299 -3.3906,-2.01695 -1.1181,-2.04153 1.2805,-0.0139 0.5024,-1.1094 -2.6636,-3.75 -2.4599,-2.05174 -9.2438,-8.05285 -15.0752,-13.33582 -11.7296,-10.62645 -16.7995,-13.94937 -24.8837,-16.30915 -6.9613,-2.03203 -21.8054,-2.05904 -29.6084,-0.0539 -6.7686,1.73937 -20.4601,7.92464 -20.4601,9.2431 0,1.07782 5.1561,8.26501 10.5,14.63629 9.2937,11.08032 26.3762,22.14218 38.8789,25.17619 7.1511,1.73534 17.1428,1.68843 24.0589,-0.11297 z m -11.0589,-18.88703 c -5.5158,-1.33851 -20.983,-8.31638 -20.1906,-9.10878 0.9785,-0.97848 16.536,3.66628 23.3117,6.95981 7.5524,3.67101 6.4054,4.46075 -3.1211,2.14897 z m -256.8789,6.26519 c 2.75,-1.44991 5.8573,-3.58483 6.905,-4.74427 1.0478,-1.15945 2.7111,-2.10809 3.6962,-2.10809 2.5921,0 15.7917,-7.03438 23.438,-12.49072 18.388,-13.12141 31.3204,-31.20559 39.5251,-55.27064 3.7074,-10.87412 4.697,-17.23864 2.6803,-17.23864 -3.98,0 -19.0709,3.21735 -25.7087,5.48105 -28.2638,9.63874 -48.8813,35.64813 -51.544,65.02362 l -0.7247,7.99533 2.9211,-2.75 c 1.6067,-1.5125 3.1947,-2.75 3.5291,-2.75 0.3343,0 -2.0528,4.6053 -5.3047,10.23399 -3.252,5.6287 -5.9127,10.6162 -5.9127,11.08334 0,0.9777 -0.1056,1.01775 6.5,-2.46497 z m 19.0124,-31.6326 c 2.5773,-4.9807 6.1471,-9.63717 11.302,-14.74212 4.1441,-4.10402 7.7264,-7.27025 7.9605,-7.03607 0.8941,0.89406 -11.9332,18.30957 -17.3518,23.55843 l -5.6779,5.5 z m 308.4876,33.99255 c 0,-0.43323 -2.4375,-5.04571 -5.4167,-10.24995 -2.9792,-5.20424 -5.2274,-9.65156 -4.996,-9.88292 0.2313,-0.23136 1.4603,0.55611 2.7311,1.74995 1.2708,1.19384 2.5073,2.17061 2.7479,2.17061 0.2405,0 0.138,-4.8375 -0.2278,-10.75 -1.0646,-17.20783 -6.6769,-29.81013 -19.0996,-42.88804 -8.745,-9.20627 -19.0234,-15.70021 -30.8894,-19.51609 -8.7709,-2.82057 -24.507,-5.52168 -25.6294,-4.3993 -1.0719,1.07197 4.0395,19.2792 8.1563,29.05343 6.9492,16.49857 18.7475,32.09208 31.9933,42.28447 6.0527,4.65745 21.6051,13.21553 24.0162,13.21553 0.7173,0 2.1614,0.95219 3.2091,2.11599 1.8605,2.06649 11.1645,7.85598 12.655,7.87463 0.4125,0.005 0.75,-0.34508 0.75,-0.77831 z m -26.5664,-32.46231 c -3.8619,-4.26691 -10.9309,-14.33827 -15.9199,-22.68143 -1.9382,-3.24131 7.1017,4.80422 11.4856,10.2221 3.8461,4.75344 10.8098,17.70933 9.5185,17.70933 -0.1828,0 -2.4707,-2.3625 -5.0842,-5.25 z"
       id="path1" />
  </g>
</svg>
