<?xml version="1.0" encoding="UTF-8" standalone="no"?>
<!-- Created with Inkscape (http://www.inkscape.org/) -->

<svg
   version="1.1"
   id="svg1"
   width="1254"
   height="1254"
   viewBox="0 0 1254 1254"
   xmlns="http://www.w3.org/2000/svg"
   xmlns:svg="http://www.w3.org/2000/svg">
  <defs
     id="defs1" />
  <g
     id="g1">
    <path
       style="fill:#000000"
       d="m 605.73421,1115.3882 c -1.375,-0.4632 -5.3705,-1.5799 -8.8788,-2.4815 -9.0232,-2.3191 -26.6467,-11.7148 -32.4639,-17.3077 -2.6635,-2.5608 -7.2831,-8.256 -10.2657,-12.656 -8.3281,-12.2854 -7.7998,-11.783 -11.5713,-11.0037 -1.8262,0.3773 -5.2486,1.32 -7.6053,2.0949 -9.3733,3.0818 -26.8179,1.1023 -35.8844,-4.0719 -11.1515,-6.3641 -19.0927,-14.3699 -17.7429,-17.8874 0.2429,-0.633 2.4107,-2.1955 4.8172,-3.4722 7.055,-3.7426 9.5332,-7.0246 11.1541,-14.772 1.28,-6.1176 1.2649,-7.4016 -0.1365,-11.6208 -0.8665,-2.6088 -2.0136,-5.0141 -2.5491,-5.3451 -0.5355,-0.3309 -3.1413,1.4259 -5.7907,3.9041 -8.6498,8.0909 -20.7377,12.6914 -33.2366,12.6496 -10.5503,-0.035 -21.2491,-3.9989 -32.5788,-12.0694 -7.3493,-5.235 -13.6824,-16.906 -9.1738,-16.906 0.636,0 3.8289,-1.1994 7.0954,-2.6653 7.2876,-3.2705 9.8111,-7.34579 9.8111,-15.84456 0,-6.36824 -0.7857,-8.13994 -9.5297,-21.49018 -6.3119,-9.63691 -11.0381,-19.58202 -12.3926,-26.07706 -0.4103,-1.96739 -1.1118,-4.16899 -1.5589,-4.89245 -0.4471,-0.72346 -1.0843,-3.83878 -1.4159,-6.92294 l -0.6029,-5.60755 -5.5,-0.67957 c -10.2385,-1.26505 -14.4795,-2.45769 -22.1815,-6.23774 -14.5319,-7.13218 -24.5266,-20.63979 -27.8086,-37.58269 -0.4794,-2.475 -1.1626,-5.25271 -1.5181,-6.17268 -1.1674,-3.02047 2.8933,-5.82732 8.4304,-5.82732 4.0172,0 5.7094,-0.60032 9.2025,-3.26465 5.6035,-4.27389 7.5276,-7.76843 8.8522,-16.07673 1.1563,-7.25302 0.4461,-13.70088 -2.448,-22.22528 -1.8478,-5.44232 -6.2388,-14.34328 -8.1494,-16.51925 -2.3157,-2.63737 -10.5139,-20.04246 -12.2062,-25.91409 -1.2002,-4.16445 -1.6374,-10.9636 -1.8004,-28 l -0.2152,-22.5 -2.3289,-0.25325 c -22.1048,-2.40378 -40.5436,-11.74226 -50.7697,-25.71275 -8.9282,-12.1974 -13.807,-24.58484 -14.3887,-36.534 -0.1548,-3.1787 0.2105,-3.6836 3.9793,-5.5 9.4205,-4.54035 12.296,-9.85398 12.3283,-22.78212 0.014,-5.59049 -0.5232,-10.08681 -1.478,-12.37212 -0.825,-1.97451 -1.5,-4.54977 -1.5,-5.72282 0,-1.31238 -2.7071,-4.82362 -7.0374,-9.12788 -3.8706,-3.84728 -7.7482,-8.34506 -8.617,-9.99506 -0.8688,-1.65 -2.4084,-3.90924 -3.4213,-5.02053 -2.8302,-3.1049 -12.1514,-22.4225 -13.2595,-27.47947 -0.5423,-2.475 -0.998,-10.575 -1.0127,-18 -0.027,-13.46675 1.032,-20.19942 4.6382,-29.5 7.7505,-19.98892 7.5949,-18.14163 2.7372,-32.5 -5.4048,-15.97553 -6.2211,-18.87781 -5.5948,-19.89121 0.3318,-0.53677 -0.073,-2.91833 -0.9002,-5.29236 -2.1393,-6.14219 -2.1211,-32.98307 0.027,-40.12857 0.8579,-2.8533 2.059,-6.9879 2.6692,-9.1879 2.0395,-7.3533 11.1223,-24.9479 15.2287,-29.5 5.0011,-5.5439 9.8359,-11.7825 11.38,-14.6842 0.7573,-1.4233 1.1623,-8.3667 1.1623,-19.929 0,-9.7596 0.4353,-19.1267 0.9674,-20.8158 0.532,-1.689 1.7294,-5.771 2.6609,-9.071 5.1552,-18.2648 16.3156,-33.0709 34.1022,-45.2424 5.7146,-3.9105 20.5231,-9.3479 34.6968,-12.7399 12.14,-2.9054 15.2539,-5.2321 24.0727,-17.9869 7.3853,-10.6816 18.9433,-22.5966 30.2571,-31.1919 8.9503,-6.7997 25.8104,-12.2974 39.2514,-12.7991 5.3887,-0.2011 10.7116,-0.8548 11.8288,-1.4527 1.1172,-0.5979 3.3646,-1.0871 4.9943,-1.0871 3.6629,0 12.5672,-4.3416 25.6684,-12.5154 12.7323,-7.9437 18.519,-10.8242 26,-12.9421 3.3,-0.9342 7.382,-2.1135 9.071,-2.6205 1.6891,-0.5071 9.7891,-0.9185 18,-0.9143 16.2352,0.01 17.3981,0.2817 41.929,9.8611 4.4,1.7182 8.9819,3.1256 10.1819,3.1276 1.2,0 5.7,-1.7365 10,-3.8634 15.1951,-7.5158 24.4984,-9.416 43.3181,-8.8478 16.2125,0.4896 21.5667,1.3668 27.7102,4.5401 2.3156,1.1961 4.7227,2.1747 5.3492,2.1747 0.6266,0 3.907,1.6615 7.2899,3.6922 3.3829,2.0306 8.0771,4.8431 10.4316,6.25 2.3545,1.4068 5.8592,3.7598 7.7882,5.229 3.769,2.8703 14.3137,6.8288 18.1908,6.8288 1.3044,0 3.3473,0.5222 4.5399,1.1605 1.1925,0.6382 6.5466,1.2995 11.898,1.4695 7.5375,0.2395 11.8508,0.9987 19.1432,3.3693 15.3331,4.9846 34.2905,18.5727 41.1926,29.5254 1.0312,1.6365 3.2455,4.6156 4.9207,6.6204 1.6751,2.0049 4.1707,5.2868 5.5457,7.2933 5.0879,7.4246 6.278,8.6628 10.2964,10.7129 5.7986,2.9582 14.5388,5.8487 17.685,5.8487 4.0096,0 15.408,4.2236 25.5186,9.4557 12.8438,6.6466 23.9693,17.708 30.2185,30.0443 4.3757,8.6382 5.2171,10.726 7.455,18.5 2.1806,7.5749 3.0584,15.2092 3.6793,32 0.384,10.3817 1.1236,18.3136 1.8185,19.5 0.6442,1.1 3.3442,4.0536 6,6.5634 8.9437,8.4523 14.5237,18.0932 20.5105,35.4366 2.7963,8.101 3.8663,32.27987 2.0356,46.00004 -1.0377,7.7775 -5.5079,25.52245 -8.6596,34.37573 -2.3609,6.63177 -1.9352,10.89311 1.8844,18.86333 4.1594,8.67924 5.5123,12.88237 6.6824,20.76094 1.8431,12.40925 2.1037,17.90173 1.0855,22.87659 -0.5768,2.81787 -1.5339,7.82341 -2.127,11.12341 -1.2507,6.95855 -7.5051,20.55576 -12.8352,27.90374 -2.0332,2.80294 -7.1729,8.75196 -11.4216,13.22003 -4.2486,4.46807 -8.0675,9.41807 -8.4863,11 -0.4188,1.58193 -0.7791,8.50802 -0.8007,15.39131 -0.05,16.09025 1.2872,19.62401 8.7468,23.10518 7.4513,3.4773 7.7001,5.09581 3.2726,21.28754 -5.59,20.44298 -26.5558,40.64108 -46.2924,44.59735 -3.1715,0.63573 -7.6531,1.56964 -9.9591,2.07536 -2.3061,0.50572 -5.3791,0.91949 -6.829,0.91949 h -2.6362 l 0.6419,7.75 c 1.1791,14.23611 1.0099,33.56243 -0.348,39.75 -1.7941,8.1749 -5.9143,17.57265 -11.8723,27.0794 -7.1589,11.42299 -9.1675,15.68642 -11.4421,24.28745 -2.7043,10.22564 -2.1185,17.62077 2.0499,25.87833 3.7218,7.37298 8.187,10.25482 15.8888,10.25482 2.6619,0 5.3798,0.54 6.0398,1.2 1.7513,1.75127 1.4744,6.80363 -0.8533,15.56838 -4.0098,15.09902 -13.158,26.64873 -26.2414,33.12995 -6.294,3.11789 -9.4703,4.1063 -13.2426,4.12096 -2.7295,0.0106 -7.2127,0.59978 -9.9627,1.30927 -4.5264,1.16779 -5.0681,1.61588 -5.7195,4.73071 -5.0286,24.0476 -6.4566,27.8216 -15.3592,40.59043 -6.5742,9.4293 -10.4213,17.32971 -10.4213,21.40086 0,4.76283 6.8462,14.94948 10.0472,14.94948 2.1497,0 10.954,3.8572 10.949,4.7968 -0.02,3.8159 -12.7316,16.7366 -20.5266,20.8644 -9.6062,5.0871 -16.3997,6.6324 -26.8641,6.1108 -13.3472,-0.6654 -23.6564,-5.0127 -33.2691,-14.0294 -1.74,-1.6321 -3.6073,-2.6933 -4.1495,-2.3582 -1.6345,1.0102 -3.4429,10.4132 -2.768,14.3926 0.3472,2.0476 1.5502,5.7605 2.6732,8.2509 1.6507,3.6606 3.0907,5.0773 7.5171,7.3948 9.1851,4.809 9.2013,6.8951 0.1181,15.1937 -5.7343,5.239 -15.93,10.7289 -22.9192,12.3409 -6.3528,1.4653 -19.1992,1.2573 -23.5379,-0.3811 -2.0736,-0.7831 -5.8367,-1.7 -8.3625,-2.0376 -4.5044,-0.6022 -4.6435,-0.5364 -7.2766,3.4426 -1.4765,2.231 -4.8976,6.5003 -7.6026,9.4871 -6.1896,6.8348 -7.7262,11.5277 -6.3181,19.296 1.4627,8.07 1.7198,7.7452 -8.7814,11.0961 -4.0919,1.3057 -30.1112,1.3706 -33.929,0.085 z m 17,-18.4561 c 0,-8.4103 2.3253,-13.3725 10.5806,-22.579 8.8508,-9.8707 11.8294,-16.2877 12.2586,-26.4101 0.1961,-4.6265 -0.331,-11.5255 -1.25,-16.3604 -3.6773,-19.3452 -0.7021,-35.23173 10.0456,-53.63954 13.038,-22.33066 16.305,-30.4588 18.4738,-45.96205 1.7363,-12.41157 -0.5849,-31.27071 -5.6665,-46.03795 -0.6774,-1.96848 -0.6642,-1.96802 0.8368,0.0291 0.8387,1.11599 2.0569,4.04099 2.707,6.5 0.6501,2.459 2.9896,8.50969 5.1988,13.44598 5.492,12.27151 7.1586,20.67692 6.4488,32.52493 -0.7329,12.23432 -3.521,22.05401 -9.7862,34.46662 -12.4246,24.61563 -14.7263,42.42201 -7.8566,60.78001 2.7627,7.3829 10.7839,16.2736 17.5062,19.4041 5.6208,2.6174 14.2109,3.1163 20.6161,1.1973 l 3.845,-1.152 -3.4224,-3.7883 c -6.5915,-7.296 -9.5048,-15.8535 -9.5238,-27.9754 -0.022,-13.7281 4.8566,-27.44402 16.1316,-45.35781 9.2759,-14.73762 16.3068,-29.31364 18.7975,-38.96977 7.583,-29.3982 -0.074,-57.8783 -24.4928,-91.10475 -15.9528,-21.70668 -19.8362,-30.2923 -22.8776,-50.57885 -2.0302,-13.54248 -3.0284,-16.98607 -7.3684,-25.42115 -7.6899,-14.94556 -25.3805,-28.02966 -41.493,-30.68856 -5.6489,-0.93219 -8.5334,-0.82194 -17.154,0.65569 -9.8793,1.69335 -10.7292,1.6949 -18.1982,0.0332 -18.1173,-4.03071 -37.6276,2.8851 -51.2467,18.16534 -8.5715,9.61706 -13.6191,22.01446 -15.6078,38.33432 -2.0785,17.05794 -6.595,27.34219 -20.4211,46.5 -17.797,24.65989 -24.6171,38.52596 -28.1595,57.25149 -1.5499,8.19286 -0.6276,30.77291 1.5827,38.74851 2.3827,8.59774 8.1407,20.45098 16.0576,33.05579 16.8123,26.76729 21.6232,44.69995 16.8974,62.98405 -1.535,5.9387 -7.5881,16.4601 -9.4697,16.4601 -0.5444,0 -0.9898,0.406 -0.9898,0.9022 0,1.58 6.0957,3.0981 12.3992,3.088 11.4084,-0.018 21.5978,-7.1098 27.4744,-19.1216 3.7151,-7.5936 5.1264,-14.4332 5.1264,-24.8451 0,-10.8789 -2.8705,-20.88243 -10.8655,-37.8661 -8.6893,-18.45842 -10.6217,-26.01566 -10.5237,-41.15734 0.09,-13.91699 2.3068,-22.80348 9.3545,-37.5 6.3671,-13.27726 8.719,-16.23338 5.5269,-6.94688 -4.0273,11.71613 -5.7864,24.41799 -5.1862,37.44688 0.6496,14.1037 3.115,23.21562 9.5984,35.47536 2.6249,4.96355 7.325,13.80886 10.4447,19.65623 9.8574,18.47626 12.0193,33.11555 7.8075,52.86835 -3.1457,14.7528 -3.3716,17.2958 -2.1437,24.1247 2.5419,14.1354 12.5693,27.7137 25.5334,34.5753 8.7706,4.642 25.8398,10.7685 31.2037,11.1995 0.8823,0.071 1.25,-1.8148 1.25,-6.4104 z m -26,-41.3986 c 0,-0.5222 1.9604,-5.1733 4.3566,-10.3359 8.6826,-18.7072 11.6434,-30.8489 11.6434,-47.74781 0,-13.95966 -2.1619,-22.36657 -12.0881,-47.00673 -9.7698,-24.25203 -11.8263,-34.55907 -10.0868,-50.55282 1.6377,-15.0565 3.0336,-17.24928 3.1115,-4.88757 0.105,16.67126 5.4679,33.12542 16.7997,51.54383 9.3754,15.23856 13.2699,27.48778 13.9925,44.00939 0.7874,18.00341 -3.0708,33.41311 -11.6829,46.66201 -3.9807,6.124 -16.0459,19.8958 -16.0459,18.3156 z m 55.6235,-231.59044 c -3.1314,-13.14805 -6.895,-20.7765 -13.9692,-28.31388 -2.8349,-3.02049 -7.1549,-6.77303 -9.6001,-8.33896 -3.8546,-2.46853 -5.4239,-2.84716 -11.801,-2.84716 h -7.3553 l -1.449,3.46788 c -0.7969,1.90734 -1.4489,4.38234 -1.4489,5.5 0,3.97255 -1.7007,1.94769 -2.9126,-3.46788 l -1.2309,-5.5 h -7.5907 c -6.759,0 -8.1124,0.33475 -12.3517,3.05513 -5.4439,3.49328 -11.5277,9.7883 -15.422,15.9574 -3.2873,5.20734 -7.4921,16.15725 -7.4921,19.5103 0,5.28449 -1.7758,2.12879 -2.4045,-4.27283 -1.1759,-11.97449 1.3023,-22.94018 7.8947,-34.93359 l 3.409,-6.20188 -4.4496,-6.63553 c -4.8697,-7.26198 -5.4063,-8.91741 -2.602,-8.02736 7.9432,2.52109 18.6118,3.20897 47.1524,3.04025 25.787,-0.15244 31.3999,-0.45045 36.3241,-1.92861 3.2033,-0.96157 6.049,-1.5235 6.3238,-1.24873 0.7145,0.71456 -2.4154,6.54089 -5.8864,10.95744 l -2.9644,3.77199 4.0447,6.72801 c 6.8861,11.45425 9.4676,25.06074 7.2531,38.22801 -0.7359,4.37507 -0.7767,4.41671 -1.4714,1.5 z m -187.5101,190.76534 c 6.6622,-2.9601 10.8772,-7.066 13.9722,-13.6104 5.6452,-11.93679 4.8981,-22.16891 -3.0149,-41.28876 -7.8785,-19.03657 -10.1703,-32.51486 -8.1324,-47.82822 2.2717,-17.07121 9.0802,-33.22013 20.0937,-47.6596 3.3049,-4.3331 5.8005,-7.87836 5.5457,-7.87836 -0.2549,0 -2.1766,0.95528 -4.2706,2.12284 -3.3839,1.88683 -3.1627,1.53952 1.9898,-3.12404 10.4143,-9.42607 18.2145,-23.18416 21.1204,-37.25242 2,-9.68275 2.0088,-20.62258 0.028,-34.82565 -0.8552,-6.13142 -1.4029,-12.55939 -1.2171,-14.28438 l 0.3377,-3.13635 1.3777,2.75 c 0.7577,1.5125 1.6665,2.75 2.0196,2.75 0.353,0 1.437,-2.21111 2.4088,-4.91358 0.9718,-2.70247 3.1505,-7.08997 4.8415,-9.75 1.691,-2.66003 3.4994,-6.41142 4.0186,-8.33642 1.5836,-5.87099 7.554,-15.65471 13.4189,-21.98955 3.0606,-3.30575 6.0213,-6.01045 6.5794,-6.01045 0.6421,0 0.6097,0.48796 -0.088,1.32883 -1.2937,1.55875 -6.346,14.67117 -5.653,14.67117 0.2596,0 2.8433,-1.51415 5.7414,-3.36478 2.8982,-1.85062 8.1945,-4.8232 11.7695,-6.60572 3.575,-1.78252 7.7967,-4.43087 9.3816,-5.88522 1.9486,-1.78817 3.0278,-2.23958 3.3333,-1.39428 0.7011,1.94016 3.6844,1.5065 12.1832,-1.77096 l 7.8336,-3.02097 6.3841,3.02018 c 7.9676,3.76928 10.2546,3.77214 17.3842,0.0217 3.1367,-1.65 6.278,-3 6.9807,-3 0.7027,0 3.8946,1.1981 7.0931,2.66244 3.8378,1.75699 7.4364,2.64136 10.5818,2.60047 2.9966,-0.039 5.2106,0.47348 5.9631,1.38021 0.6583,0.79319 4.3884,2.93309 8.2891,4.75534 3.9007,1.82224 9.5177,4.96503 12.4822,6.98398 2.9645,2.01894 5.5568,3.50402 5.7607,3.30017 0.5211,-0.52112 -2.0394,-7.54798 -4.6569,-12.77985 l -2.2027,-4.40276 5.668,5.5 c 7.1019,6.89145 13.0845,15.72416 14.985,22.12376 0.8039,2.70726 3.0524,7.49943 4.9966,10.64927 7.227,11.70865 7.9624,15.24753 8.0481,38.72697 0.074,20.30728 0.1686,21.26389 2.8674,29 1.535,4.4 4.1558,10.38873 5.8241,13.3083 3.6193,6.33414 12.1383,15.75452 17.787,19.66906 4.7735,3.30805 4.6459,4.66405 -0.1647,1.75073 -1.8165,-1.10003 -4.403,-2.33457 -5.7479,-2.74344 -2.0162,-0.61292 -1.5179,0.28847 2.8389,5.13598 10.5149,11.69904 18.7988,28.93994 21.5868,44.92724 3.0399,17.43224 1.2267,30.85024 -6.9471,51.40976 -6.0011,15.09466 -7.975,23.84703 -6.9563,30.8445 2.5505,17.51896 13.2044,27.52176 29.4414,27.64216 6.5535,0.049 8.3822,-0.3694 14.25,-3.257 7.0595,-3.474 8.0328,-4.6395 4.7455,-5.6829 -3.0006,-0.9523 -8.0897,-6.4626 -10.1429,-10.9822 -2.2908,-5.04287 -2.4718,-16.568 -0.3545,-22.5692 0.8342,-2.36415 4.1942,-8.63077 7.4667,-13.92582 11.3218,-18.31912 14.3602,-28.0834 14.3225,-46.02717 -0.043,-20.28823 -5.426,-35.71035 -21.3242,-61.0899 -4.3871,-7.00341 -8.2915,-13.55418 -8.6764,-14.55726 -0.7755,-2.02092 1.5345,-0.23782 13.3657,10.31698 l 6.916,6.16982 0.2333,-3.16982 c 0.1284,-1.7434 0.6679,-5.86982 1.1991,-9.16982 3.637,-22.5976 -1.4528,-42.35062 -16.5198,-64.11192 -3.6181,-5.22567 -8.5267,-12.63196 -10.908,-16.45842 l -4.3296,-6.95719 -0.5099,13.26376 c -0.3264,8.4897 -1.3064,16.68314 -2.7229,22.76377 -2.5209,10.82164 -2.3776,23.19227 0.3592,31 l 1.5773,4.5 -3.9417,-4.33238 c -2.168,-2.3828 -4.958,-6.8828 -6.2001,-10 -2.1006,-5.27188 -2.2659,-7.2736 -2.3677,-28.66762 -0.098,-20.62166 -0.3384,-23.77555 -2.3235,-30.5 -9.4959,-32.16584 -36.7139,-58.9325 -69.6239,-68.46946 -10.2581,-2.97269 -23.6806,-3.67918 -30.0086,-1.57951 -3.8213,1.26792 -20.1503,10.67404 -21.0459,12.12324 -0.2357,0.38126 0.2243,2.86202 1.022,5.5128 0.7978,2.65078 1.2561,5.01406 1.0184,5.25173 -0.2377,0.23766 -1.6169,-0.34419 -3.065,-1.29302 -2.5699,-1.68388 -2.7011,-1.65975 -5.4865,1.00883 -2.7822,2.66545 -2.9194,2.69089 -5.4768,1.01524 -1.8174,-1.19081 -2.4151,-2.23339 -1.9461,-3.39429 0.3723,-0.92156 0.8793,-3.25056 1.1267,-5.17556 0.4459,-3.46985 0.374,-3.54419 -8.3485,-8.62989 -11.4237,-6.66058 -13.8032,-7.37006 -24.7177,-7.37006 -20.1879,0 -44.1123,11.05214 -61.9306,28.60956 -21.0359,20.7278 -30.5668,46.65489 -27.6983,75.34806 1.6973,16.97702 -0.4395,26.47014 -8.1688,36.29238 -1.6231,2.0625 -3.2933,3.75 -3.7118,3.75 -0.4184,0 0.126,-2.5875 1.2098,-5.75 2.6118,-7.62103 2.4821,-18.1131 -0.3741,-30.25 -1.6554,-7.0348 -2.2578,-12.79486 -2.3212,-22.19723 -0.047,-6.98347 -0.3782,-12.38347 -0.7358,-12 -0.3575,0.38348 -6.0693,8.92798 -12.6929,18.98779 -19.3806,29.43504 -22.5122,40.88032 -18.64,68.12473 0.8142,5.72841 1.6407,10.57563 1.8366,10.7716 0.196,0.19597 3.6841,-2.66434 7.7514,-6.35624 4.0673,-3.6919 8.6871,-7.86412 10.2663,-9.2716 l 2.8713,-2.55905 -1.7601,3.46877 c -0.968,1.90782 -4.8743,8.43282 -8.6805,14.5 -14.5515,23.19495 -19.6835,37.50155 -20.5401,57.26039 -0.8421,19.42184 2.5328,31.3939 13.7165,48.65783 9.3313,14.40454 11.6426,23.52537 8.6074,33.96621 -1.6129,5.54799 -7.9495,13.70414 -11.5128,14.81854 -2.0837,0.6516 -0.5199,2.5596 3.9794,4.8549 8.5375,4.3556 18.9713,4.8332 27.0611,1.2387 z m -59.6049,-113.86906 c 1.4583,-0.35714 2.5091,-2.1911 3.8355,-6.69409 1.0048,-3.41121 3.7831,-10.70219 6.174,-16.20219 6.1685,-14.18997 7.0681,-20.52146 5.5412,-39 -2.11,-25.53604 0.4396,-35.36628 16.2544,-62.67169 11.7893,-20.35513 15.0843,-35.86314 12.2496,-57.65276 -1.2541,-9.63949 -3.9738,-21.17555 -4.9922,-21.17555 -0.1326,0 -3.1879,3.9375 -6.7896,8.75 -3.6017,4.8125 -10.7963,13.50222 -15.988,19.31049 -16.8693,18.87269 -23.4246,28.93722 -28.2934,43.43951 -4.8203,14.35776 -5.6977,30.15577 -2.9067,52.33684 2.5508,20.27223 0.3935,33.964 -6.9215,43.92911 -3.674,5.00492 -10.4915,9.45345 -16.4008,10.70166 l -3.2289,0.68204 2.5977,5.12631 c 3.8096,7.51792 6.1652,10.34623 11.9155,14.30659 8.2521,5.68345 17.013,7.2481 26.9532,4.81373 z m 423.1026,-1.81852 c 7.2159,-3.30356 12.807,-8.72728 16.4024,-15.91134 l 3.086,-6.16642 -3.8836,-1.13842 c -13.1004,-3.8401 -20.8288,-14.14111 -23.2435,-30.9804 -0.9565,-6.67091 -0.8795,-10.45322 0.4317,-21.2084 1.986,-16.28987 2.0501,-34.88259 0.1513,-43.90911 -4.2118,-20.02256 -11.8174,-32.91495 -33.4864,-56.76367 -4.4976,-4.95 -10.9585,-12.93955 -14.3576,-17.75456 l -6.1801,-8.75456 -1.2741,3.68008 c -2.9198,8.43364 -4.5173,22.49719 -4.0039,35.24796 0.6497,16.13648 3.208,24.30832 12.8671,41.10019 16.236,28.22542 17.3693,33.45758 15.917,73.48089 -0.4585,12.63424 0.056,14.95447 6.9888,31.5 2.6501,6.325 5.1252,13.17028 5.5002,15.21174 0.6149,3.3475 1.0886,3.80842 4.8277,4.69698 5.8426,1.38844 14.2445,0.42164 20.257,-2.33096 z m 16.8746,-125.5227 c 3.8218,-14.74863 2.8535,-33.16967 -2.6046,-49.55506 -3.4825,-10.45461 -8.8997,-20.96052 -18.0471,-35 -13.7942,-21.17136 -19.6988,-33.31889 -22.232,-45.73757 -1.4497,-7.10713 -2.0967,-6.67307 -6.5205,4.37508 -4.5558,11.37758 -6.116,18.27609 -6.7696,29.93289 -1.0357,18.47245 4.0796,33.44326 16.7184,48.9296 11.4343,14.01036 18.1549,23.41776 21.5597,30.17876 4.0619,8.06586 7.8983,20.88365 8.9177,29.7949 l 0.7406,6.47366 3.3049,-6.55564 c 1.8177,-3.6056 4.0373,-9.38208 4.9325,-12.83662 z m -469.001,8.69273 c 3.2107,-18.41128 9.965,-32.01406 24.7273,-49.79931 13.3274,-16.05648 18.6257,-26.05471 20.7527,-39.16187 1.5083,-9.29443 1.2387,-18.17966 -0.8583,-28.28661 -1.862,-8.9742 -7.4656,-24.98591 -9.0973,-25.99435 -0.4729,-0.29224 -1.5963,2.06193 -2.4966,5.2315 -4.1557,14.63113 -8.3635,23.21533 -20.8319,42.49804 -16.2663,25.1562 -21.444,37.93682 -23.7704,58.67418 -1.638,14.60091 0.8411,28.86439 7.2457,41.68843 1.2053,2.41344 2.335,4.24465 2.5103,4.06934 0.1753,-0.1753 0.9936,-4.18901 1.8185,-8.91935 z m 95.1329,-50.99779 c 11.9268,-23.22523 34.4648,-43.50773 61.0762,-54.96413 6.4934,-2.79544 11.9501,-5.19725 12.1259,-5.33734 0.1759,-0.1401 -0.7142,-2.21083 -1.978,-4.60162 -1.8694,-3.53628 -2.302,-5.93479 -2.3198,-12.86172 -0.02,-7.62458 0.321,-9.21215 3.2586,-15.18482 4.2473,-8.63546 10.8803,-14.69776 18.8197,-17.20043 3.9808,-1.25484 7.1617,-3.12657 9.8041,-5.769 l 3.9115,-3.91151 -0.6576,-21.87018 c -0.8918,-29.65805 -3.187,-40.58863 -9.8109,-46.72314 -2.6825,-2.48431 -14.8473,-9.53271 -14.8473,-8.60267 0,0.33817 1.35,3.00692 3,5.93055 4.0788,7.22725 3.9542,7.7253 -1.75,6.99826 -2.6125,-0.33298 -6.4375,-0.21334 -8.5,0.26586 -4.0905,0.95038 -4.4402,0.57847 -2.2182,-2.35924 2.1146,-2.79583 1.8525,-4.0515 -1.6872,-8.08299 -2.6485,-3.01654 -9.3918,-7.47588 -11.3048,-7.47588 -0.2969,0 -0.5497,1.4625 -0.5618,3.25 -0.027,3.95513 -2.9487,10.5859 -5.7706,13.09508 -2.7383,2.43487 -8.8398,4.55642 -13.2611,4.61103 -4.9408,0.061 -13.4375,-4.39665 -15.864,-8.32281 -1.0964,-1.77411 -2.296,-5.11737 -2.6657,-7.42948 -0.3698,-2.3121 -1.1772,-4.1996 -1.7944,-4.19444 -1.6322,0.0136 -10.9939,5.52854 -12.533,7.38314 -1.6418,1.97825 -0.8803,5.1627 2.3854,9.97499 1.389,2.04672 2.5254,3.9349 2.5254,4.19595 0,1.02609 -5.7334,-0.93606 -10,-3.4223 -3.6442,-2.12354 -5.8313,-2.6345 -11.5,-2.68668 -3.85,-0.0354 -7.8595,-0.54785 -8.9099,-1.13869 -1.8236,-1.02572 -1.801,-1.13012 0.5,-2.3102 1.3254,-0.67976 6.4599,-5.38434 11.4099,-10.45461 9.651,-9.88557 16.1015,-13.80079 28,-16.9951 11.1475,-2.99271 32.4886,-2.98524 45.5,0.0159 2.4509,0.56532 2.4607,0.54425 0.5,-1.07332 -10.1151,-8.34468 -34.4969,-16.77643 -52.2094,-18.05507 -16.3947,-1.1835 -30.6584,3.77431 -46.0406,16.00295 -4.5375,3.60724 -8.25,6.41417 -8.25,6.23763 0,-0.17654 0.7252,-2.76516 1.6115,-5.75249 3.5867,-12.08867 10.8512,-22.30629 21.0165,-29.56014 18.8785,-13.47142 36.6958,-12.72359 85.5375,3.59017 13.0161,4.34753 26.4292,8.4483 29.8068,9.11281 7.6211,1.49936 12.765,0.21492 16.3894,-4.0924 1.38,-1.64007 2.8275,-2.98194 3.2166,-2.98194 0.3891,0 0.4628,3.56959 0.1638,7.93242 -0.5339,7.78913 -3.7456,16.16569 -7.3427,19.15106 -1.0154,0.84265 -0.9859,1.83718 0.1498,5.05599 4.2441,12.02925 4.9522,20.15938 4.9086,56.36053 -0.04,32.96904 -0.1767,35.58028 -2.3593,45 -1.2743,5.5 -2.6061,11.53237 -2.9593,13.40528 l -0.6424,3.40527 -2.3239,-5.14208 c -7.2067,-15.94598 -21.4571,-10.22732 -25.2185,10.12015 -1.7433,9.4304 2.0583,18.12575 8.9793,20.53843 2.8868,1.00634 2.9099,0.98427 2.3815,-2.27221 -0.706,-4.35009 2.3009,-6.55484 8.9394,-6.55484 6.1358,0 10.7389,1.94409 16.3983,6.92569 10.5733,9.30704 26.5912,9.09846 35.3471,-0.46029 3.5493,-3.87477 9.6777,-6.41788 15.5275,-6.44344 6.5989,-0.0288 9.8244,2.12669 9.2311,6.16897 -0.4011,2.73313 -0.2468,2.89798 2.1547,2.30236 6.338,-1.57195 10.7768,-10.01819 9.7631,-18.57733 -0.7955,-6.71665 -4.9166,-15.52808 -9.4316,-20.16596 -4.2257,-4.3406 -2.7153,-5.05097 3.7387,-1.75839 5.4054,2.75762 10.5195,8.29713 13.7695,14.91491 2.3781,4.84247 2.747,6.80186 2.747,14.59348 0,8.49815 -0.5688,10.86149 -4.2482,17.65272 -0.1945,0.359 2.0318,1.43508 4.9473,2.39128 7.8855,2.58627 23.3534,10.60064 31.326,16.23097 14.3143,10.10902 26.5809,23.45553 34.7788,37.84081 2.3078,4.04964 4.5017,7.36776 4.8752,7.3736 0.8468,0.0132 2.5051,-8.39898 3.3493,-16.98938 1.6759,-17.0559 7.7156,-38.75727 14.4729,-52.00257 1.6555,-3.24501 2.4113,-3.95618 3.0808,-2.8987 0.488,0.7707 0.8941,2.13666 0.9026,3.03547 0.01,0.89882 1.9208,5.39882 4.2499,10 l 4.2346,8.3658 0.7517,-9.5 c 1.43,-18.07103 4.2583,-27.36271 16.5893,-54.5 11.4428,-25.18271 14.3441,-48.47164 10.6652,-85.6099 -3.1948,-32.25082 -7.5783,-53.3256 -15.2949,-73.53369 -5.5589,-14.55775 -8.5704,-26.42153 -10.3073,-40.60643 l -1.1938,-9.75 h -7.2087 c -15.2462,0 -31.8194,-4.4221 -43.7619,-11.6768 -12.3015,-7.4728 -25.5547,-23.5411 -30.6462,-37.1558 -2.2078,-5.9035 -2.4678,-6.1752 -7.8272,-8.1804 -9.2876,-3.475 -15.0512,-4.2834 -26.2098,-3.6761 -16.3143,0.8878 -33.2363,7.2372 -45.2098,16.9634 -2.9237,2.375 -5.865,4.6532 -6.5363,5.0627 -0.7391,0.4509 -4.0675,-1.4246 -8.4389,-4.7551 -14.7568,-11.2429 -28.6117,-16.3932 -46.5205,-17.2929 -11.8077,-0.5933 -16.9071,0.1872 -25.5687,3.9133 -4.4673,1.9218 -5.0315,2.6006 -8.7424,10.5196 -13.8863,29.6326 -39.9466,46.2781 -72.4532,46.2781 h -8.2683 l -0.6835,8.25 c -1.0725,12.9451 -4.0687,25.42604 -9.4537,39.38116 -12.0299,31.17482 -17.8074,68.21972 -16.8938,108.32051 0.5762,25.28879 2.2412,33.44655 10.8011,52.92173 13.3009,30.26149 15.3432,36.82937 16.6752,53.62664 l 0.793,10 2.9534,-4.37599 c 1.6243,-2.40679 3.9563,-7.35654 5.1823,-10.99945 l 2.229,-6.62347 4.517,9.53547 c 5.3676,11.33112 9.7664,27.76534 12.0349,44.96344 1.5207,11.52914 3.1366,19 4.1094,19 0.2183,0 1.1478,-1.4625 2.0658,-3.25 z m 159.1146,-105.53628 c -3.565,-13.99838 -5.1834,-37.7333 -4.3445,-63.71372 0.6708,-20.77561 1.5978,-28.44412 4.6982,-38.86706 l 2.0427,-6.86706 -2.0154,-2.1454 c -3.6564,-3.89204 -6.4609,-11.72752 -6.7541,-18.87048 -0.1524,-3.7125 -0.023,-6.75 0.288,-6.75 0.3107,0 1.4221,1.08963 2.4697,2.4214 1.0476,1.33177 3.9617,3.20699 6.4759,4.16716 4.0855,1.56027 5.2797,1.60523 11.2392,0.42315 3.6675,-0.72745 16.5681,-4.65927 28.6681,-8.73739 32.7186,-11.02732 40.1686,-12.70776 56.5,-12.7442 l 13.5,-0.0301 8,3.89033 c 13.443,6.53726 25.9298,21.13661 29.4741,34.46061 0.6365,2.39302 0.9296,4.57864 0.6513,4.85694 -0.2783,0.27829 -2.7788,-1.45463 -5.5568,-3.85095 -11.0198,-9.50603 -23.0171,-15.17386 -35.9212,-16.97011 -16.4269,-2.28665 -40.4815,3.33878 -57.8803,13.53591 -6.337,3.71402 -9.1001,6.27163 -5.6424,5.22266 3.591,-1.08937 18.8704,-2.6453 25.849,-2.63225 10.4752,0.0196 24.22,3.19136 32.3553,7.46637 5.0475,2.65236 9.3645,6.14493 15.6172,12.63448 4.7527,4.93284 9.8591,9.4498 11.3476,10.03768 l 2.7062,1.06886 -4,1.45895 c -2.7137,0.98976 -5.8222,1.26298 -9.6662,0.84957 -3.7777,-0.40629 -5.9016,-0.22846 -6.3725,0.53356 -0.9484,1.53444 -10.4717,5.91537 -12.8856,5.92762 -1.8581,0.009 -1.8534,-0.0677 0.1371,-2.24023 1.1338,-1.2375 3.0044,-4.12913 4.1568,-6.42584 l 2.0953,-4.17584 -3.116,-2.62196 c -3.3131,-2.78782 -10.0778,-6.52638 -11.8091,-6.52638 -0.5719,0 -1.0398,1.13945 -1.0398,2.53212 0,6.75447 -6.3484,14.46554 -13.5749,16.48884 -11.7221,3.28197 -22.4429,-3.57544 -24.0624,-15.39116 -0.349,-2.54639 -0.9353,-4.6298 -1.3029,-4.6298 -1.7931,0 -10.0237,6.14046 -12.0558,8.99433 -2.196,3.08394 -2.226,3.3599 -0.6553,6.0189 l 1.6462,2.78677 h -8.4975 c -4.6736,0 -8.4974,-0.25611 -8.4974,-0.56914 0,-0.31303 1.3795,-3.01352 3.0656,-6.00108 1.686,-2.98756 2.8558,-5.6417 2.5994,-5.89809 -0.7759,-0.77584 -10.969,4.70098 -14.0066,7.52577 -7.3151,6.80264 -9.2606,17.45923 -10.7062,58.64254 -0.5598,15.95 -1.3406,30.48087 -1.7351,32.29082 -0.6433,2.95193 -1.0022,2.17164 -3.4849,-7.5771 z m -109.2322,-53.0025 c 0.55,-0.499 4.15,-3.08583 8,-5.74851 5.3006,-3.66597 6.3931,-4.15934 4.5,-2.03233 -1.375,1.54491 -4.075,3.80045 -6,5.01233 -3.8489,2.42301 -8.1282,4.24568 -6.5,2.76851 z m 163.4457,-2.07032 c -2.4451,-1.5725 -5.5707,-4.12285 -6.9457,-5.66744 -1.8927,-2.12607 -0.7994,-1.63233 4.5,2.0323 8.3854,5.79872 9.231,6.49424 7.8957,6.49424 -0.5523,0 -3.0048,-1.28659 -5.45,-2.8591 z m -184.116,-12.16422 c -9.5403,-1.60986 -8.0063,-2.61195 3.3731,-2.20344 6.2134,0.22305 13.2641,-0.0491 15.668,-0.6047 2.5664,-0.59317 3.9853,-0.62466 3.4369,-0.0763 -0.9882,0.98816 -13.7605,3.943 -16.3077,3.77275 -0.825,-0.0551 -3.6017,-0.45489 -6.1703,-0.88834 z m 194.938,-0.31753 c -3.1527,-0.70965 -5.928,-1.48577 -6.1673,-1.72471 -0.2392,-0.23894 6.3055,-0.43444 14.5439,-0.43444 13.0691,0 14.5833,0.16187 11.8762,1.26962 -4.7117,1.92806 -13.8549,2.32964 -20.2528,0.88953 z m -351.4708,143.45262 2.7968,-1.09792 -2.6202,-2.75693 c -7.0852,-7.4548 -10.5352,-14.16549 -13.684,-26.61736 -2.5688,-10.15802 -6.1707,-18.0281 -13.0598,-28.53475 l -5.5047,-8.39518 -0.3902,11.39518 c -0.334,9.75165 -0.7763,12.22741 -3.0664,17.16521 -1.7811,3.84026 -3.7127,6.3486 -5.7754,7.5 -2.6696,1.49014 -3.0198,2.14256 -2.5259,4.70599 1.4698,7.62988 9.751,19.02352 17.1506,23.59673 7.6975,4.75731 19.0172,6.04674 26.6792,3.03903 z m 547.3456,-1.1732 c 8.479,-4.09134 16.0918,-13.26547 19.8523,-23.9238 1.2724,-3.6065 1.2306,-3.73368 -2.1007,-6.39179 -6.0803,-4.85161 -7.7273,-9.51332 -8.346,-23.62298 l -0.5481,-12.5 -4.9189,7.5 c -6.5572,9.99797 -12.0743,21.95509 -14.0266,30.39955 -2.1408,9.25991 -6.5235,18.09082 -11.8252,23.82723 l -4.3686,4.72679 4.0696,1.50521 c 5.7942,2.14306 16.0792,1.43915 22.2122,-1.52021 z m -522.9775,-16.50807 c 0.3313,-0.86322 -0.236,-8.54028 -1.2606,-17.06013 l -1.863,-15.49064 -3.2535,-2.01078 c -4.85,-2.9975 -9.9931,-9.50521 -12.4785,-15.7896 -1.8587,-4.69964 -2.1807,-7.33071 -2.0419,-16.68698 0.1604,-10.81539 0.084,-11.23532 -2.913,-15.96075 l -3.0778,-4.85312 -1.5678,2.96075 c -0.9091,1.71688 -1.7591,6.50315 -2.0233,11.39267 l -0.4555,8.43193 -1.8246,-3.55639 c -5.0831,-9.90804 -5.8973,-24.3637 -1.8885,-33.53079 1.8608,-4.25503 6.8216,-8.26565 10.233,-8.27293 0.9625,-0.002 1.75,-0.39643 1.75,-0.87638 0,-1.70871 -9.2236,-9.33873 -13.6632,-11.30257 -5.5527,-2.45622 -8.4715,-1.84761 -11.6681,2.43298 -3.9867,5.33864 -5.1612,10.37036 -5.0751,21.74223 0.1259,16.61926 4.7443,30.43638 17.1705,51.37033 7.2736,12.25364 10.9031,19.89517 14.159,29.81032 2.7064,8.24182 6.8593,14.12938 11.8093,16.74226 4.5991,2.42763 9.1074,2.65802 9.9326,0.50759 z m 484.2843,0.0957 c 4.9976,-2.58436 9.5207,-8.99172 12.5223,-17.73879 3.3884,-9.87408 6.148,-15.55518 15.4046,-31.71225 11.7101,-20.43942 16.7778,-37.75707 15.7496,-53.82011 -0.8472,-13.23548 -5.2847,-20.74615 -12.1426,-20.55176 -4.2214,0.11966 -8.6193,2.78007 -14.4414,8.73601 -3.5977,3.68032 -4.0803,4.5614 -2.5,4.56442 3.4376,0.007 8.3085,3.78373 10.5835,8.20703 1.5139,2.94348 2.3521,6.73589 2.6716,12.08732 0.3943,6.60343 0.043,9.09558 -2.2895,16.26748 -1.5152,4.65818 -3.0368,8.64357 -3.3812,8.85643 -0.3444,0.21286 -0.6262,-2.83251 -0.6262,-6.76749 0,-5.85013 -0.5224,-8.21825 -2.865,-12.98911 -2.7183,-5.53611 -7.6919,-10.11853 -10.135,-9.33797 -0.55,0.17572 -2.0174,2.14655 -3.2607,4.37962 l -2.2608,4.06014 3.4916,5.18844 c 4.4018,6.54108 5.9038,12.04592 5.1961,19.04437 -1.1591,11.46372 -5.636,19.86973 -13.7906,25.89402 l -4.6244,3.4163 -0.6661,9.59484 c -0.3664,5.27716 -1.1269,12.2325 -1.6899,15.4563 -0.563,3.22381 -0.7839,6.48631 -0.4908,7.25 0.6996,1.82335 5.9446,1.77651 9.5449,-0.0852 z m -21.7756,-45.5262 c -0.1591,-22.95193 0,-25.28835 2.4492,-36.97649 2.1566,-10.27346 2.5386,-14.28716 2.163,-22.73083 l -0.456,-10.25434 -8.165,-7.93774 -8.1649,-7.93775 v 11.85082 c 0,8.61802 -0.8184,16.61731 -3,29.32385 -1.656,9.64481 -3,21.11848 -3,25.60991 0,14.59662 4.8271,31.39461 12.7974,44.53377 l 3.6283,5.9812 0.9589,-3.4812 c 0.5274,-1.91466 0.8825,-14.5062 0.7891,-27.9812 z m -442.0799,20.75275 c 10.1787,-19.95109 12.0315,-35.89315 7.3574,-63.30506 -1.4019,-8.22123 -2.8189,-21.14213 -3.149,-28.71312 l -0.6002,-13.76542 -6.601,6.23453 c -4.446,4.19911 -7.1581,7.71375 -8.3073,10.76542 -2.2825,6.06135 -2.1843,16.39396 0.2619,27.5309 3.7286,16.97618 4.0845,21.23299 2.9319,35.0691 -1.0239,12.29102 -0.3759,24.90874 1.7121,33.33872 0.576,2.32548 0.6454,2.34258 2.0293,0.5 0.788,-1.0493 2.7523,-4.49408 4.3649,-7.65507 z m -90.5738,-68.38194 c -1.7109,-18.25785 -0.3781,-27.82118 5.4796,-39.31853 4.0441,-7.93784 7.7194,-12.44588 14.0004,-17.17257 6.8206,-5.13284 10.598,-6.77737 26.1417,-11.38119 26.0704,-7.72164 41.0799,-18.82013 50.8505,-37.60046 3.6731,-7.06026 8.8511,-23.38806 7.7622,-24.47693 -0.2345,-0.23453 -4.1433,1.80748 -8.6861,4.5378 -7.6749,4.61275 -24.67,11.88376 -31.5412,13.49425 l -2.9728,0.69679 1.9728,-2.23093 c 1.0851,-1.22701 9.4616,-8.19936 18.6144,-15.49411 22.3502,-17.81289 30.3924,-27.91697 36.2959,-45.60127 3.9613,-11.8663 4.5283,-11.2166 -9.1874,-10.5283 -7.2385,0.3633 -14.6297,1.4009 -19.25,2.7025 -22.5933,6.3647 -44.0861,22.7056 -58.4526,44.44107 -6.3504,9.60772 -11.9789,20.56107 -10.5655,20.56107 2.8796,0 24.2494,-5.07119 28.9585,-6.87203 2.9922,-1.14428 5.5992,-1.92164 5.7934,-1.72747 0.4876,0.48755 -8.4447,8.32501 -12.8284,11.25614 -1.9771,1.32191 -9.5573,5.08092 -16.8449,8.35335 -7.2877,3.27243 -16.0932,7.97854 -19.5679,10.45803 -14.6321,10.44124 -24.5661,27.23193 -27.5715,46.60205 -2.7227,17.54875 3.5894,37.57408 16.1892,51.36026 2.7997,3.06332 5.3231,5.56967 5.6075,5.56967 0.2844,0 0.1954,-3.43313 -0.1978,-7.62919 z m 630.1505,-11.91489 c 9.7712,-18.92562 9.7416,-39.07851 -0.087,-58.99396 -5.0052,-10.142 -13.2836,-19.94764 -21.7714,-25.78773 -2.9218,-2.01035 -11.3176,-6.35043 -18.6573,-9.64464 -13.2328,-5.93917 -23.3424,-12.25211 -28.155,-17.58145 -2.1909,-2.42603 -2.2527,-2.67707 -0.5,-2.0299 10.5744,3.90459 28.9182,8.58176 33.6575,8.58176 0.5151,0 -1.2089,-4.15415 -3.8312,-9.23145 -18.3042,-35.44029 -52.9283,-58.76859 -87.2252,-58.76859 -4.3907,0 -8.1814,0.3375 -8.4238,0.75 -0.7466,1.2707 2.2378,11.4229 5.2701,17.9277 6.4773,13.8949 14.5368,23.20912 31.2445,36.10858 11.0345,8.51944 22.1356,18.21957 21.5365,18.81867 -1.4576,1.45763 -26.7337,-9.21766 -35.9667,-15.19044 -3.719,-2.40577 -6.7617,-4.00519 -6.7617,-3.55426 0,3.37248 4.7336,18.00945 8.0203,24.79968 3.0413,6.28329 5.8595,10.16038 11.7408,16.15225 11.23,11.44113 18.7826,15.40101 44.9851,23.58605 13.4475,4.2007 18.8864,7.2279 26.2333,14.6011 11.7216,11.76352 16.4442,29.96758 13.7497,53.00071 l -0.7604,6.5 5.797,-6.04408 c 3.3908,-3.53532 7.502,-9.34639 9.9047,-14 z m -557.8593,-27.51944 c 7.0968,-3.54631 13.0836,-9.83569 17.305,-18.17958 3.3258,-6.57371 5.8838,-15.56548 5.8838,-20.68284 v -3.50574 l -5.25,5.08363 c -9.0331,8.74681 -20.3727,15.49373 -37.4167,22.26242 -12.6007,5.00414 -12.5396,4.90045 -6.1194,10.38537 9.9582,8.50755 15.7512,9.5569 25.5973,4.63674 z m 487.7811,1.58938 c 4.4605,-1.8637 14.7559,-10.58639 13.7,-11.60718 -0.4358,-0.4213 -5.5173,-2.63229 -11.2923,-4.91331 -18.0017,-7.1103 -28.0224,-13.10638 -38.25,-22.88754 -4.4775,-4.28202 -4.7492,-4.40137 -4.7353,-2.08024 0.01,1.35433 0.6986,5.36361 1.5344,8.90952 5.4438,23.09611 24.227,38.76935 39.0432,32.57875 z m -560.7324,-80.89294 c 4.8118,-9.77405 6.3262,-16.78527 6.2927,-29.13292 -0.041,-15.17594 -3.3613,-30.25374 -10.1149,-45.93514 l -2.1254,-4.9352 -3.5734,4.9352 c -9.025,12.4643 -13.3885,26.9551 -13.4083,44.52789 -0.014,12.85897 1.5739,22.17127 5.9669,34.98269 4.7117,13.7408 3.8019,13.04422 9.186,7.03282 2.5978,-2.90035 6.0971,-8.06425 7.7764,-11.47534 z m 632.9861,6.36708 c 8.5272,-23.50938 9.2158,-44.80954 2.0808,-64.36534 -3.2274,-8.8456 -11.5779,-22.3956 -12.9419,-21 -0.4651,0.4759 -2.2491,4.6903 -3.9644,9.3653 -9.7043,26.4496 -10.4852,50.79435 -2.1942,68.40598 3.2548,6.91377 12.0243,18.1785 13.1752,16.924 0.4188,-0.45647 2.1488,-4.65494 3.8445,-9.32994 z m -585.2627,-70.58334 c 10.8444,-16.2956 13.8708,-26.4403 13.8467,-46.4167 -0.018,-15.3711 -1.6739,-24.52 -6.4235,-35.5 l -2.1628,-5 -7.1816,7.5 c -16.1152,16.8299 -26.0837,37.3544 -28.7356,59.1653 -1.3069,10.748 -0.7847,17.4004 2.8092,35.7866 l 2.6293,13.4519 9.9195,-10.4519 c 5.4557,-5.7485 12.3401,-14.0894 15.2988,-18.5352 z m -16.5833,-3.5 c 0,-3.881 7.6499,-28.6 8.5671,-27.6828 0.5969,0.5968 -4.2213,21.0028 -5.9179,25.0632 -1.5204,3.6389 -2.6492,4.7551 -2.6492,2.6196 z m 566.7521,14.5833 c 2.3576,-12.4879 2.2724,-33.6726 -0.1727,-42.9155 -2.6405,-9.9816 -6.8227,-19.6032 -12.6546,-29.1131 -5.2667,-8.5882 -14.3756,-19.7486 -19.1419,-23.453 l -2.7171,-2.1117 -1.6218,3.7967 c -4.3008,10.0682 -6.6114,22.5215 -6.6419,35.7966 -0.034,14.97 1.9082,24.1004 7.7513,36.4328 4.8002,10.1315 8.9773,15.7591 20.8327,28.0672 l 10.1139,10.5 1.2765,-4 c 0.702,-2.2 2.0411,-8.05 2.9756,-13 z m -15.1523,-16.9153 c -1.8692,-4.4737 -6.0149,-23.5029 -5.2804,-24.2374 0.2939,-0.294 1.6431,2.9952 2.9981,7.3092 4.5065,14.3472 6.0798,26.0169 2.2823,16.9282 z m -504.9001,-3.5333 c 3.9598,-1.697 12.4143,-5.8243 18.7876,-9.1718 l 11.588,-6.0864 11.7124,3.2851 c 9.8567,2.7648 13.3758,3.2844 22.2123,3.2798 11.176,-0.01 22.0025,-2.3198 30.3232,-6.4809 7.0893,-3.5453 17.96,-12.4235 23.3296,-19.0537 5.4117,-6.6818 12.3403,-17.5786 12.3446,-19.4145 0,-1.5195 -8.5733,-6.0297 -17.2335,-9.0623 -9.8649,-3.4546 -24.0299,-4.279 -32.3288,-1.8817 -12.0874,3.4916 -19.0952,8.107 -31.9351,21.0325 -6.6,6.644 -13.0944,13.6927 -14.432,15.6638 -1.9689,2.9013 -5.2061,4.9206 -17,10.604 -17.2822,8.3282 -22.2888,11.7871 -25.134,17.3641 -1.4153,2.7742 -1.6737,3.9651 -0.7772,3.5818 0.7388,-0.3159 4.583,-1.9628 8.5429,-3.6598 z m 54.8003,-28.6649 c 5.4076,-4.1907 25.5782,-12.525 29.8553,-12.3358 1.9931,0.088 -16.5582,9.1296 -23.7805,11.5901 -8.0719,2.7499 -8.7719,2.8358 -6.0748,0.7457 z m 413.3486,27.4419 c -2.8888,-5.2368 -9.3059,-9.3637 -26.9349,-17.3221 -9.7149,-4.3857 -12.9845,-6.356 -14.3317,-8.6367 -3.2129,-5.439 -25.8939,-27.429 -32.082,-31.1046 -12.4246,-7.3799 -27.1288,-9.5908 -41.4051,-6.2256 -8.0688,1.9019 -23.0949,8.8768 -23.0949,10.7202 0,3.1249 12.2582,19.7841 19.609,26.6488 18.6332,17.4014 42.3168,22.6669 68.0835,15.1369 l 11.1091,-3.2464 6.3492,2.8138 c 3.492,1.5476 8.5992,4.129 11.3492,5.7364 4.9473,2.8918 22.6675,10.4898 23.3575,10.0152 0.1967,-0.1353 -0.7073,-2.1764 -2.0089,-4.5359 z m -70.8486,-28.7262 c -9.4196,-3.5173 -22.8573,-10.2855 -21.4124,-10.7848 1.7488,-0.6042 18.3568,5.5825 25.1624,9.3734 9.5086,5.2965 8.0871,5.8315 -3.75,1.4114 z m -392.8667,3.6103 c 1.9983,-1.7669 5.7651,-6.4957 8.3707,-10.5085 5.1025,-7.8583 6.7258,-8.7349 4.1211,-2.2252 -0.8938,2.2339 -1.6251,4.5041 -1.6251,5.0449 0,2.1406 12.6821,-6.9932 20.86,-15.0237 10.0625,-9.881 15.1504,-17.1733 20.2336,-29 5.1769,-12.0449 6.9085,-20.7592 6.8945,-34.6974 -0.01,-9.9457 -1.6005,-21.2483 -3.2177,-22.8654 -0.1958,-0.1958 -3.321,1.4499 -6.945,3.6572 -29.5201,17.9799 -48.1093,45.6195 -51.7235,76.9056 -1.1757,10.1778 -1.929,32.0279 -1.1019,31.9637 0.275,-0.021 2.135,-1.4844 4.1333,-3.2512 z m 14.3977,-30.9687 c 0.7734,-2.6221 10.6075,-20.3187 12.9166,-23.2438 1.5211,-1.9267 1.2511,-1.0673 -3.5795,11.3937 -2.9337,7.5679 -11.1496,17.995 -9.3371,11.8501 z m 441.4225,15.2562 c -0.8854,-21.4615 -2.5464,-29.2179 -9.2842,-43.3541 -9.3453,-19.6068 -25.079,-36.0879 -45.9152,-48.096 -3.6015,-2.0755 -4.861,-2.4113 -5.2233,-1.3924 -2.9033,8.1634 -3.3714,27.8475 -0.9426,39.6347 4.6329,22.4839 18.4666,43.3424 37.1683,56.0425 8.9704,6.0917 9.5296,6.2073 8.7026,1.7994 -0.3749,-1.9987 -0.4814,-3.6341 -0.2366,-3.6341 0.2447,0 2.1695,2.5039 4.2772,5.5642 3.2288,4.6881 11.4213,12.9816 12.0314,12.1797 0.1021,-0.1341 -0.1579,-8.5689 -0.5776,-18.7439 z m -20.6773,-14.2076 c -2.6029,-3.2375 -11.6901,-23.7118 -10.8826,-24.5193 0.5088,-0.5088 6.5159,9.4922 10.5717,17.6003 1.9381,3.8746 2.8277,6.7336 2.2689,7.2924 -0.5587,0.5587 -1.3264,0.4123 -1.958,-0.3734 z m -498.4364,-0.526 c 4.7746,-8.1664 13.8584,-19.7383 20.3248,-25.8921 6.215,-5.9146 17.0353,-14.3743 18.3852,-14.3743 0.6325,0 3.355,4.7153 6.0501,10.4783 4.5453,9.7197 6.3772,12.3672 6.4155,9.2717 0.01,-0.6875 1.7433,-5.1309 3.8551,-9.8742 11.5107,-25.855 31.279,-45.8603 61.7065,-62.4464 10.1982,-5.559 9.8278,-5.7256 13.572,6.1057 1.293,4.086 2.6162,7.4371 2.9404,7.447 0.3243,0.01 1.1514,-1.2196 1.8382,-2.7321 2.3446,-5.1639 9.2946,-14.7426 14.937,-20.5867 7.4894,-7.757 16.1542,-13.879 26.2268,-18.5301 l 8.2702,-3.8188 -11.7085,-1.7699 c -8.5453,-1.2917 -15.4156,-1.6484 -25.4308,-1.3203 -12.2797,0.4023 -14.5921,0.7757 -21.9955,3.5513 -16.8144,6.304 -29.4948,17.4406 -42.6683,37.4739 -5.6472,8.5879 -7.5329,12.256 -7.0625,13.7383 0.7682,2.4201 1.5155,2.1738 -14.996,4.9433 -25.9021,4.3447 -38.2956,9.7641 -50.5568,22.1071 -12.7915,12.8768 -19.4963,29.6382 -20.647,51.6158 -0.7792,14.8816 0.019,16.7456 3.5709,8.3392 1.5089,-3.5712 4.6466,-9.7482 6.9727,-13.7267 z m 304.0625,4.3915 c 5.5991,-4.3989 21.0822,-12.6579 23.7297,-12.6579 0.6808,0 2.4012,-0.4423 3.8233,-0.983 2.5566,-0.972 2.4707,-1.0977 -7.6849,-11.25 -5.8362,-5.8342 -13.8571,-15.3394 -18.5778,-22.0156 l -8.3073,-11.7486 2.8073,-2.511 c 5.2911,-4.7326 15.8089,-11.2257 22.3939,-13.8248 7.6609,-3.0238 21.6539,-5.667 30.001,-5.667 h 5.8256 l -6.1745,-11.75 c -3.396,-6.4625 -7.8359,-15.8 -9.8664,-20.75 -5.3286,-12.9899 -9.106,-14.2923 -22.2672,-7.6779 -4.1828,2.1021 -7.605,3.6249 -7.605,3.3839 0,-0.2409 1.6203,-2.6454 3.6008,-5.3433 3.8348,-5.2241 9.5136,-9.6301 15.7938,-12.2542 5.0865,-2.1253 5.9425,-2.052 10.6357,0.9107 3.9192,2.4741 4.1562,2.4991 13.2302,1.3956 9.2924,-1.13 18.4294,-0.7385 28.8865,1.2377 5.8428,1.1042 6.369,0.9798 21.353,-5.0508 1.7574,-0.7073 1.4543,-1.0832 -2.5,-3.1 -2.475,-1.2623 -9.1743,-5.4306 -14.8874,-9.2629 -20.0411,-13.4435 -31.9032,-17.3612 -49.6126,-16.3854 -11.4541,0.6312 -19.4285,2.5688 -28,6.8037 -10.3513,5.1141 -15.7134,11.644 -19.5789,23.8429 -0.9849,3.1084 -1.9652,4.8478 -2.2544,4 -0.2813,-0.825 -1.2598,-3.8689 -2.1743,-6.7643 -3.452,-10.9295 -11.268,-18.7481 -23.2532,-23.2611 -22.2277,-8.3699 -44.9563,-5.9727 -65.1126,6.8674 -7.1063,4.5268 -20.0082,12.4319 -25.9384,15.8926 -0.8248,0.4813 2.1449,1.9497 8,3.9557 l 9.3118,3.1902 10,-1.5273 c 11.004,-1.6807 22.4787,-1.2577 33.5,1.2348 9.5716,2.1647 9.4712,2.0268 6.9213,9.504 -2.7532,8.0735 -9.7465,23.4938 -14.9378,32.9381 -2.191,3.9858 -3.9835,7.4096 -3.9835,7.6084 0,0.1989 2.5875,0.3649 5.75,0.3691 13.2397,0.017 26.8167,3.6916 38.6681,10.4645 4.355,2.4887 8.1569,4.2862 8.4488,3.9943 0.2919,-0.2918 -0.023,-2.6017 -0.7003,-5.133 -0.677,-2.5313 -1.0348,-4.7985 -0.7952,-5.0382 0.7328,-0.7327 6.6144,8.4239 9.2745,14.4389 1.3809,3.1225 3.3755,6.8917 4.4324,8.376 1.0569,1.4843 1.9217,4.0992 1.9217,5.8109 v 3.1122 l -5.1122,-3.5166 c -2.8118,-1.9341 -5.4981,-3.5166 -5.9696,-3.5166 -0.4715,0 -3.1955,3.4875 -6.0533,7.75 -2.8578,4.2625 -10.0109,12.5477 -15.8957,18.4114 l -10.6996,10.6614 8.6938,3.1099 c 11.1778,3.9983 22.2261,11.2885 30.1796,19.9136 l 6.3058,6.8383 4.2785,-5.197 c 2.3532,-2.8584 6.9319,-7.2818 10.175,-9.8297 z m -44.4933,-122.7398 c -3.25,-3.3534 -8.153,-7.6319 -10.8957,-9.5076 -2.7426,-1.8758 -4.6407,-3.4105 -4.2179,-3.4105 1.9212,0 8.2383,3.2547 11.8142,6.0869 3.8799,3.073 10.4961,11.6408 9.6458,12.4911 -0.2406,0.2405 -3.0965,-2.3064 -6.3464,-5.6599 z m 329.591,127.1924 c 0,-33.3693 -15.7356,-58.8044 -43.5516,-70.3972 -7.1002,-2.9591 -21.0761,-6.1905 -35.3085,-8.1636 -5.698,-0.79 -10.574,-1.6504 -10.8356,-1.912 -0.2616,-0.2616 0.5754,-1.023 1.86,-1.6921 1.2846,-0.6691 2.4608,-1.3181 2.6136,-1.4423 0.1529,-0.1242 -2.9615,-5.1258 -6.9209,-11.1146 -4.7015,-7.1111 -10.6956,-14.3729 -17.278,-20.932 -8.3505,-8.3209 -11.5367,-10.7589 -18.579,-14.2162 -11.5122,-5.6517 -18.8704,-7.2116 -34,-7.2077 -11.2733,0 -30.4071,2.041 -31.748,3.3818 -0.2912,0.2912 0.5455,0.9529 1.8593,1.4704 12.9511,5.1016 21.3804,10.7675 31.0021,20.8383 4.0912,4.2823 9.6414,11.3202 12.3337,15.6399 l 4.8952,7.8539 2.9197,-8.3585 c 1.6058,-4.5972 3.294,-8.7513 3.7516,-9.2314 1.0108,-1.0603 15.4597,6.5007 26.4774,13.8555 20.9422,13.9797 36.4664,32.2757 45.8138,53.9936 2.1361,4.9631 4.0186,9.1635 4.1834,9.3343 0.1648,0.1709 2.5697,-4.4416 5.3443,-10.25 2.7746,-5.8083 5.4777,-10.5606 6.007,-10.5606 3.8486,0 25.0158,20.3137 33.3491,32.0045 5.1527,7.2287 13.8114,23.2278 13.8114,25.52 0,0.8116 0.45,1.4755 1,1.4755 0.5992,0 1,-3.9631 1,-9.8895 z m -372.1711,-23.6162 c 13.813,-4.3635 31.2865,-17.8754 40.6325,-31.4201 2.8214,-4.0889 2.8747,-4.3552 1.1277,-5.6327 -1.0086,-0.7374 -5.7162,-2.8046 -10.4615,-4.5937 -8.0798,-3.0463 -9.4532,-3.2559 -21.6276,-3.3003 -16.4246,-0.06 -19.158,1.0583 -36.471,14.9211 -6.891,5.5176 -16.4445,12.5069 -21.23,15.5318 -4.7855,3.0248 -8.723,5.7861 -8.75,6.1361 -0.027,0.3501 1.958,0.9374 4.4111,1.3053 2.453,0.3678 8.1905,2.0311 12.75,3.6962 18.4133,6.7243 26.7274,7.4287 39.6188,3.3563 z m -19.5603,-18.4762 c 5.8695,-3.1226 16.8757,-6.4699 18.9741,-5.7705 1.7523,0.5841 -15.8835,7.6891 -20.6088,8.3028 l -4.1339,0.5368 z m 189.7314,19.6034 c 3.025,-0.7411 9.2304,-2.7342 13.7899,-4.4291 4.5594,-1.695 10.2969,-3.3828 12.75,-3.7506 2.453,-0.3679 4.438,-0.9552 4.411,-1.3053 -0.027,-0.35 -3.9254,-3.0893 -8.6631,-6.0872 -4.7378,-2.9979 -13.8282,-9.7011 -20.201,-14.8959 -6.3728,-5.1949 -14.5118,-10.8421 -18.0868,-12.5493 -6.2502,-2.9847 -6.9998,-3.1032 -19.5,-3.0822 -12.2497,0.021 -13.4907,0.2102 -21.5,3.2865 -4.675,1.7956 -9.3504,3.9064 -10.3897,4.6906 -1.7763,1.3403 -1.791,1.5763 -0.2455,3.9351 0.9043,1.3801 3.6842,4.8063 6.1777,7.6138 19.4962,21.9517 41.4951,31.4638 61.4575,26.5736 z m -9.5,-18.4933 c -7.1019,-2.0469 -18.0357,-6.9258 -17.2598,-7.7017 1.0987,-1.0987 22.8163,6.3628 25.2098,8.6612 1.3821,1.3273 -1.0231,1.037 -7.95,-0.9595 z m -232.6282,3.2017 c 26.3468,-14.0562 35.9617,-21.0795 48.9852,-35.7822 11.7742,-13.2922 32.1671,-47.8568 29.6942,-50.3297 -0.3948,-0.3949 -5.2929,-0.6917 -10.8846,-0.6596 -34.3152,0.1969 -62.4919,21.5008 -73.0653,55.2433 -2.41,7.6911 -3.5525,19.1983 -1.9061,19.1983 0.3825,0 1.9575,-1.2091 3.5,-2.687 4.1583,-3.9839 3.4421,-1.4833 -2.6952,9.4108 -5.3916,9.5704 -6.1296,11.2762 -4.8782,11.2762 0.3419,0 5.4044,-2.5515 11.25,-5.6701 z m 12.4048,-27.4762 c 3.0984,-5.9079 15.9546,-20.8537 17.9383,-20.8537 0.5283,0 -1.1774,3.0375 -3.7906,6.75 -6.5509,9.3068 -15.4737,20.25 -16.5111,20.25 -0.473,0 0.5906,-2.7658 2.3634,-6.1463 z m 285.4506,26.8963 c -1.901,-3.4375 -4.5115,-8.0217 -5.8011,-10.1873 -1.6089,-2.7017 -1.8868,-3.7517 -0.8854,-3.3459 5.2585,2.131 4.9593,2.325 4.9593,-3.2154 0,-15.3429 -10.8121,-37.3174 -24.5301,-49.8548 -11.2741,-10.304 -25.289,-16.6153 -42.3857,-19.0875 -9.1194,-1.3187 -20.0842,-0.611 -20.0842,1.2963 0,1.8 13.0267,25.267 19.5473,35.2136 7.6909,11.7317 24.3796,28.5433 35.4527,35.7136 8.3025,5.3763 34.6691,19.6701 36.3417,19.7016 0.463,0.01 -0.7135,-2.7967 -2.6145,-6.2342 z m -25.8102,-27.9781 c -5.6491,-6.9887 -14.0705,-18.9518 -13.6424,-19.3798 0.9393,-0.9394 12.6982,12.6208 15.1641,17.487 1.4826,2.9259 2.5156,5.4999 2.2956,5.72 -0.2201,0.2201 -1.9379,-1.5021 -3.8173,-3.8272 z"
       id="path1" />
  </g>
</svg>
