<?xml version="1.0" encoding="UTF-8" standalone="no"?>
<!-- Created with Inkscape (http://www.inkscape.org/) -->

<svg
   version="1.1"
   id="svg1"
   width="1254"
   height="1254"
   viewBox="0 0 1254 1254"
   xmlns="http://www.w3.org/2000/svg"
   xmlns:svg="http://www.w3.org/2000/svg">
  <defs
     id="defs1" />
  <g
     id="g1">
    <path
       style="fill:#000000"
       d="m 636.67716,1122.6388 c -19.3281,-6.9034 -30.8653,-23.5224 -34.4199,-49.5807 -1.2962,-9.5022 -1.3315,-30.5929 -0.074,-44.1776 4.5287,-48.92338 4.6896,-57.13081 1.4796,-75.50003 -1.5802,-9.04295 -2.8233,-12.45994 -6.0921,-16.74557 -3.2434,-4.25235 -5.7269,-4.18094 -15.0627,0.43307 -6.1836,3.05609 -8.5271,3.6875 -13.6864,3.6875 -11.905,0 -22.1187,-7.63958 -28.2693,-21.14469 -8.7419,-19.19469 -10.0268,-21.60992 -12.6888,-23.85079 -3.6819,-3.09939 -7.7287,-3.0514 -10.9095,0.12937 -4.5586,4.55863 -5.2949,9.77773 -4.9403,35.01841 0.3625,25.80753 -0.4737,31.87472 -5.865,42.55493 -3.9237,7.77271 -10.0057,13.83371 -17.5207,17.46026 -4.9887,2.4074 -7.2165,2.86995 -13.9378,2.89398 -6.9271,0.0248 -8.8971,-0.39405 -14.6892,-3.12296 -8.4862,-3.99818 -15.0656,-10.71323 -19.4131,-19.81351 -6.9668,-14.58285 -7.6198,-21.61207 -5.9925,-64.5 0.732,-19.29401 0.6156,-23.78239 -0.8173,-31.5 -4.2859,-23.08539 -14.2519,-43.51141 -29.6628,-60.79658 -2.8425,-3.18812 -11.9374,-11.50295 -20.2111,-18.4774 -30.6808,-25.86313 -43.0674,-45.84129 -55.6306,-89.72602 -5.832,-20.37187 -8.0094,-26.26796 -16.0461,-43.44969 -14.3749,-30.73248 -18.6007,-49.19764 -17.7477,-77.55031 0.3028,-10.06493 1.2143,-20.46753 2.2344,-25.5 1.3697,-6.75754 1.7573,-14.54736 1.8907,-38 0.1363,-23.9574 0.4927,-30.90914 1.897,-37 2.7368,-11.87073 7.4081,-25.05111 12.0952,-34.12759 2.3779,-4.60482 7.2383,-14.01981 10.801,-20.92218 4.6431,-8.99563 8.3989,-18.48294 13.2619,-33.5 6.8852,-21.26149 12.5528,-34.11249 19.8241,-44.95023 14.7843,-22.03562 38.1988,-42.99821 77.6666,-69.53364 8.5033,-5.71702 21.3283,-15.29346 28.5,-21.28098 16.514,-13.78716 25.2788,-19.73527 37.9464,-25.75187 16.6445,-7.90545 27.4256,-10.90299 53.5931,-14.90079 17.519,-2.67651 22.4616,-3.93079 41.0489,-10.41699 23.7292,-8.2805 28.6992,-9.11868 53.9511,-9.09884 25.25181,0.0198 32.81501,1.23022 62.21992,9.95741 10.05405,2.98398 23.45508,6.38715 29.78008,7.5626 6.325,1.17546 16.225,3.02365 22,4.10709 18.54845,3.47986 37.78667,10.9614 53,20.61113 3.025,1.91874 9.71352,6.92128 14.86339,11.11675 17.27848,14.07637 24.5591,19.2818 38.6606,27.64119 30.69516,18.19613 50.21912,35.09799 66.88029,57.89818 11.87527,16.25087 17.54436,27.77307 26.58329,54.02949 6.43907,18.70432 8.16699,22.57485 18.55327,41.55927 11.00935,20.12327 16.12733,34.85329 18.415,53 0.5893,4.675 1.5026,19.3 2.0296,32.5 0.6758,16.93039 1.5966,27.38752 3.1258,35.5 3.2566,17.27559 3.2692,44.39783 0.028,59.5 -2.4942,11.62082 -6.41578,23.16549 -12.90802,38 -2.16634,4.95 -9.20329,25.83523 -15.63767,46.41163 -14.45403,46.22233 -19.10305,59.28544 -26.55957,74.62879 -12.75673,26.24967 -27.19025,40.21983 -49.08795,47.51211 -11.31869,3.7693 -14.60851,6.07446 -18.26986,12.80157 -4.63374,8.5137 -5.73176,16.59093 -5.56299,40.92242 0.19639,28.31288 -1.63873,35.45678 -11.93592,46.46532 -6.36237,6.80188 -12.87992,9.95258 -21.79798,10.53753 -15.51345,1.01756 -27.56638,-7.13563 -33.46086,-22.63455 -1.62652,-4.27676 -2.33052,-9.12034 -2.90483,-19.98535 -0.81838,-15.48242 -2.13661,-19.27794 -6.94252,-19.98935 -3.44198,-0.50951 -9.36226,6.41208 -12.39952,14.49665 -5.00428,13.32043 -6.06297,21.06963 -5.71518,41.83323 0.55537,33.15663 0.39207,38.70076 -1.33709,45.39482 -4.68557,18.13916 -16.46525,29.10681 -32.14777,29.93171 -8.90936,0.4686 -13.72973,-0.843 -20.44933,-5.56441 -11.25277,-7.90654 -15.60128,-18.45875 -16.90469,-41.02132 -0.69114,-11.9639 -1.16568,-14.83042 -2.82431,-17.06043 -2.82387,-3.79667 -5.53072,-3.87492 -8.58248,-0.24812 -8.62251,10.24727 -11.92657,39.55907 -8.20951,72.83038 2.48441,22.238 3.004,31.031 2.87993,48.7374 -0.13448,19.1925 -1.94897,28.7285 -7.7046,40.4915 -4.14745,8.4763 -13.29599,17.7748 -21.17632,21.5233 -7.8375,3.7283 -21.2067,4.5316 -29.013,1.7435 z m 20.9348,-18.6611 c 5.7642,-2.4085 11.0455,-8.0836 14.50282,-15.5844 6.67592,-14.4836 7.54859,-31.073 3.44625,-65.5128 -3.06546,-25.73511 -3.72785,-56.05025 -1.49674,-68.50003 6.77757,-37.81926 26.37723,-56.5125 43.26031,-41.25965 8.16752,7.37887 10.71395,15.943 11.22732,37.75965 0.37553,15.95872 1.25352,19.68459 6.15206,26.1069 1.37583,1.80381 4.43036,3.97014 6.96015,4.93628 6.07007,2.31818 12.21671,0.71217 16.66515,-4.35432 6.72099,-7.65479 6.5565,-6.05071 5.8134,-56.68886 -0.32631,-22.23652 0.75283,-29.40752 7.02013,-46.64981 9.17204,-25.23367 27.26892,-37.07986 41.44325,-27.1287 8.33437,5.85118 11.55253,15.65712 11.57789,35.27851 0.0188,14.54598 0.78136,18.85489 4.26819,24.11763 3.01436,4.54963 10.63778,8.31137 15.13411,7.46786 5.30867,-0.99592 9.84572,-4.67072 13.10399,-10.61364 l 3,-5.47185 0.0624,-31.5 c 0.0575,-28.99917 0.23455,-32.15352 2.2305,-39.73168 5.0373,-19.12542 12.98965,-34.68669 23.42923,-45.84663 5.54824,-5.93108 16.73601,-15.42169 18.17948,-15.42169 0.30444,0 -1.93058,3.81096 -4.96672,8.46881 -7.30423,11.20568 -15.65329,29.64613 -14.11774,31.18167 0.94905,0.94905 16.12432,-3.73504 20.68285,-6.38409 7.29705,-4.24045 10.79644,-7.33511 17.1363,-15.15432 10.46632,-12.90856 18.81156,-32.95763 31.88906,-76.61207 8.68822,-29.00243 15.0058,-47.52104 20.46884,-60 11.8443,-27.05532 13.84764,-35.75103 13.93815,-60.5 0.0542,-14.82464 -0.37594,-21.08268 -2.16518,-31.5 -1.46566,-8.53339 -2.41615,-19.18454 -2.76637,-31 -0.83887,-28.30117 -1.38341,-34.49714 -3.96247,-45.08636 -3.06554,-12.58665 -6.86187,-21.72931 -15.53536,-37.41364 -9.62636,-17.4074 -14.04996,-27.28655 -19.47805,-43.5 -9.63815,-28.7887 -20.78618,-46.84008 -41.99492,-68 -14.34955,-14.31651 -22.51611,-20.46359 -45.58391,-34.31161 -8.77524,-5.26795 -21.06052,-13.81823 -28.44609,-19.79786 -31.56705,-25.55785 -49.11821,-33.47173 -86.19248,-38.86452 -11.39244,-1.65714 -18.60296,-3.45973 -39.60134,-9.9001 -17.32805,-5.31466 -31.76401,-7.70736 -50.20616,-8.32146 -19.1086,-0.6363 -33.3754,1.47735 -49.2154,7.29136 -21.6298,7.93913 -21.9239,8.01475 -56.2846,14.47326 -30.037,5.64582 -47.383,14.19791 -74,36.48412 -6.325,5.29588 -20.5,15.63131 -31.5,22.96761 -39.766,26.52137 -60.2364,45.90154 -74.0419,70.0985 -5.3921,9.45063 -8.9174,18.36955 -14.9828,37.90595 -5.0532,16.27617 -8.7675,24.90873 -18.7989,43.69114 -14.9078,27.91295 -17.5599,41.33884 -16.7477,84.78361 0.226,12.08346 -0.1969,18.69612 -1.9182,30 -4.8849,32.07906 -0.1697,60.19709 15.1763,90.5 7.6468,15.09976 11.9306,26.1527 15.3125,39.50892 6.4931,25.64322 12.1574,39.6437 22.0459,54.49108 7.9821,11.98494 13.1875,17.37353 30.3398,31.4076 8.5882,7.02693 18.2777,15.88488 21.5322,19.68432 15.6814,18.30739 25.9923,39.55245 31.2592,64.40808 2.0608,9.7257 2.4205,33.50559 0.9527,63 -0.9667,19.42679 0.01,26.17769 5.0327,34.8276 2.7881,4.80043 9.7737,9.78828 15.1112,10.7896 9.0696,1.70147 17.816,-5.16147 21.3325,-16.73869 2.0242,-6.6643 2.1221,-8.22239 1.3065,-20.79134 -1.3889,-21.40249 -1.0201,-37.63662 1.0119,-44.54446 3.6563,-12.42917 8.8847,-20.05735 16.0589,-23.42965 8.9505,-4.2072 18.6852,-1.99846 26.7517,6.06975 5.5763,5.57749 9.0809,11.94267 13.389,24.31719 4.4597,12.80984 7.4196,17.81807 11.7435,19.86987 6.5914,3.12782 10.3602,2.07209 17.633,-4.93935 9.2108,-8.87983 16.4881,-9.39351 24.9752,-1.76291 6.3774,5.73382 10.325,13.9142 13.8002,28.59711 2.5016,10.56965 2.659,12.68678 2.6553,35.73528 0,18.60699 -0.4354,27.26613 -1.798,36.00003 -1.0293,6.598 -2.0234,20.0251 -2.3322,31.5 -0.446,16.5768 -0.2414,21.4549 1.1952,28.5 3.0072,14.7465 9.3922,24.772 18.7452,29.4328 5.9117,2.9459 13.7745,3.4232 19.1808,1.1644 z m -13.4217,-11.6668 c -3.2303,-1.3504 -7.7957,-5.6975 -9.5893,-9.1307 -2.0834,-3.988 -1.7517,-4.2644 1.6663,-1.3883 1.6924,1.4241 4.2799,2.8516 5.75,3.1724 1.4702,0.3208 3.2837,0.775 4.0301,1.0094 5.3833,1.6906 14.2695,-5.2793 18.6054,-14.5932 l 2.5604,-5.5 -0.592,4.5 c -1.3562,10.3096 -4.1562,16.2616 -9.5175,20.2313 -3.1094,2.3023 -9.469,3.1391 -12.9134,1.6991 z m 98.99998,-122.43043 c -1.04159,-1.25503 -0.89016,-1.5 0.92722,-1.5 3.50638,0 7.91732,-2.79868 9.62959,-6.10986 0.87486,-1.6918 1.82733,-2.83933 2.11659,-2.55007 0.94555,0.94554 -1.81038,7.70964 -3.95538,9.70801 -2.49034,2.32011 -6.97464,2.55256 -8.71802,0.45192 z m -273.54278,-8.90765 c -1.7785,-1.30044 -1.6447,-1.39971 1.757,-1.30329 4.7489,0.13462 7.7075,-1.50158 10.7537,-5.94717 1.349,-1.96882 2.6139,-3.09646 2.8108,-2.50586 0.5623,1.68707 -2.8199,8.0794 -5.1316,9.69858 -2.6518,1.85741 -7.6897,1.88596 -10.1899,0.0577 z m 209.54278,-54.21819 c 0,-2.00431 5.96601,-11.3928 9.4599,-14.88669 7.52363,-7.52363 16.90258,-8.40987 24.80845,-2.34421 1.53491,1.17764 0.74288,1.35674 -6,1.35674 -9.76288,0 -13.61171,1.76749 -22.01835,10.11143 -3.4375,3.41186 -6.25,6.00509 -6.25,5.76273 z m 161.62699,-4.16869 c -0.29774,-0.48174 0.99406,-1.60807 2.87065,-2.50295 1.87659,-0.89489 4.11887,-2.99404 4.98285,-4.66479 0.86398,-1.67075 1.7529,-3.03773 1.97538,-3.03773 0.98705,0 -1.6128,6.59378 -3.19735,8.1092 -2.18476,2.08943 -5.90831,3.26647 -6.63153,2.09627 z m -289.47687,-31.2509 c -3.3077,-4.82248 -9.2854,-10.81584 -14.1501,-14.18707 l -2.5,-1.7325 2.7568,0.96033 c 7.6869,2.67775 13.3952,7.84285 16.269,14.72077 2.3226,5.55878 1.3411,5.65731 -2.3757,0.23847 z m 61.4556,-6.92518 c -7.8624,-13.97996 -23.768,-28.03286 -37.3021,-32.95717 -3.192,-1.16141 -7.7183,-2.81583 -10.0585,-3.6765 -2.3402,-0.86067 -7.0153,-3.6643 -10.3892,-6.23029 -10.691,-8.13091 -12.2987,-9.11031 -20.6513,-12.58043 -9.056,-3.76232 -21.6129,-10.5101 -20.8947,-11.22829 0.4411,-0.44103 9.9933,1.90582 27.1772,6.67704 13.5933,3.77426 38.7034,12.98012 45.1932,16.56874 12.7619,7.05679 22.424,18.62815 27.6486,33.11176 2.3013,6.37972 4.5518,17.32382 3.5499,17.2626 -0.2084,-0.0127 -2.1313,-3.13909 -4.2731,-6.94746 z m 84.2043,-29.9679 c 5.67051,-2.7534 15.2478,-7.98125 21.28287,-11.61745 11.826,-7.12532 26.37943,-14.21074 34.40711,-16.75132 7.17621,-2.2711 15.84397,-3.11419 18.33127,-1.78302 2.00534,1.07323 1.91861,1.31577 -2.62875,7.35085 -2.58639,3.43256 -6.2601,8.82816 -8.16381,11.99023 -3.87104,6.42982 -5.36477,7.37291 -3.9689,2.50582 1.35299,-4.7176 1.32544,-4.7566 -3.35971,-4.7566 -6.23128,0 -14.17359,2.31507 -25.67302,7.48333 -12.36077,5.55538 -24.22583,9.0701 -33.53708,9.9345 l -7,0.64983 z m -52.1011,-7.68586 c -1.2829,-1.28293 -0.8293,-32.8553 0.4911,-34.17563 1.6682,-1.66818 10.2783,-1.53355 11.7029,0.18299 0.7869,0.94816 1.0612,6.52895 0.8724,17.75 l -0.2753,16.36701 -6.0411,0.29229 c -3.3225,0.16076 -6.36,-0.0267 -6.75,-0.41666 z m -171.6731,-13.60784 c -1.3553,-4.52221 -5.0449,-13.45614 -8.199,-19.85318 -10.273,-20.83512 -22.3965,-37.095 -45.6811,-61.26683 -25.8628,-26.84828 -29.9931,-33.76929 -40.2265,-67.40623 -2.8013,-9.20785 -7.7027,-23.49155 -10.8919,-31.74155 -7.5744,-19.59356 -8.676,-23.17178 -10.6219,-34.5 -1.6702,-9.72343 -1.4686,-22.10813 0.6024,-37 1.551,-11.15315 1.894,-14.98028 3.0028,-33.5 1.8359,-30.66409 5.2701,-44.91568 15.4222,-64 2.9258,-5.5 8.2954,-15.57038 11.9324,-22.37862 3.6371,-6.80824 8.9621,-17.38324 11.8333,-23.5 6.4149,-13.66603 8.5278,-17.17532 15.8376,-26.30502 3.1634,-3.951 8.1111,-11.376 10.9948,-16.5 9.2455,-16.42772 13.447,-21.70085 25.3703,-31.84059 3.0884,-2.62636 2.6555,-0.99125 -0.7343,2.77423 -1.1141,1.2375 -1.7603,2.25 -1.4361,2.25 0.7398,0 22.8573,-15.1368 28.2519,-19.33498 2.204,-1.71524 7.8323,-6.74233 12.5073,-11.1713 4.675,-4.42896 10.525,-9.68663 13,-11.6837 4.3589,-3.51723 20,-12.49679 20,-11.48205 0,0.27593 -2.2712,2.16887 -5.047,4.20653 -5.9102,4.33844 -5.8995,5.49914 0.023,2.47782 4.2871,-2.18711 23.0252,-7.33939 31.0241,-8.53047 17.6076,-2.62185 36.6847,-8.52866 55,-17.02956 15.1919,-7.05115 23.5944,-10.01762 32.4436,-11.45408 9.9306,-1.61197 10.5066,-1.06823 2.1555,2.03462 -4.3454,1.61457 -8.0314,3.06621 -8.1911,3.22586 -0.1596,0.15965 5.6457,0.31467 12.9009,0.34448 9.7769,0.0402 18.1088,0.85508 32.19113,3.14841 10.45,1.70182 25.75,3.6033 34,4.22552 8.25,0.62223 17.87864,1.79079 21.39697,2.5968 3.51834,0.80602 6.60086,1.26161 6.85005,1.01241 0.24919,-0.24919 -2.17945,-1.84543 -5.39697,-3.5472 -6.52036,-3.44866 -4.70951,-3.17111 7.14995,1.09587 9.45017,3.40014 14.5124,6.41599 30.25584,18.02504 14.68067,10.82538 21.99564,14.97817 40.25715,22.85444 17.83182,7.69095 25.86196,12.30599 32.98701,18.95812 l 5.5,5.13495 -4.58786,-2.55377 c -6.57154,-3.65795 -6.94868,-3.19003 -1.77017,2.19624 2.51173,2.6125 7.43121,8.575 10.93218,13.25 3.50097,4.675 14.26548,17.5 23.92113,28.5 28.59737,32.57897 32.72461,38.18198 39.07762,53.05068 2.82733,6.61711 4.35066,11.7427 4.54839,15.30401 0.63016,11.34976 6.40547,32.24059 14.77643,53.45028 10.32917,26.17126 11.36185,37.17067 6.07389,64.69503 -3.3481,17.42722 -4.25946,23.632 -5.96851,40.63509 -2.01591,20.05598 -4.17203,32.16003 -7.59656,42.64571 -3.60714,11.0448 -12.35795,29.12275 -15.23035,31.46375 -5.26824,4.29361 -16.56877,19.20874 -25.19619,33.25545 -7.27754,11.8489 -11.95019,17.95948 -22.90854,29.95821 -10.66971,11.68271 -19.33561,24.2097 -25.11887,36.31061 -3.6774,7.69463 -4.43201,8.73182 -4.53349,6.23118 -0.24088,-5.93611 0.31055,-10.11527 2.45926,-18.63833 l 2.18427,-8.66409 -7.53132,3.75191 c -9.62603,4.79545 -32.04589,14.36926 -32.52584,13.88931 -0.56223,-0.56222 17.3637,-15.2515 33.26969,-27.26263 26.20885,-19.79114 33.79042,-28.20475 48.27787,-53.57617 4.55384,-7.975 11.60927,-19.81113 15.67873,-26.30251 12.051,-19.22313 18.02223,-34.70704 21.28639,-55.19749 7.00253,-43.95774 8.53308,-69.2963 5.44288,-90.10775 -2.47345,-16.65785 -17.65875,-64.57432 -22.46659,-70.89225 -0.41854,-0.55 -4.27205,-9.1 -8.56335,-19 -12.61167,-29.09492 -16.84898,-35.73734 -32.55743,-51.03703 -6.19073,-6.02963 -16.21256,-16.13797 -22.27074,-22.46297 -25.87142,-27.01087 -35.28734,-34.53299 -55.03892,-43.96908 -17.7608,-8.48502 -51.49191,-20.90166 -76.06405,-27.99968 -21.53177,-6.21976 -48.58008,-8.96711 -69.49998,-7.05925 -15.4237,1.40662 -21.1127,2.6879 -42,9.45908 -9.075,2.94192 -23.925,6.98816 -33,8.99165 -37.7623,8.33681 -51.921,15.87779 -79.206,42.18535 -8.9617,8.64067 -21.2615,19.84642 -27.3329,24.90166 -24.3337,20.26094 -33.3843,32.26042 -45.2514,59.99543 -6.8065,15.90773 -10.4751,23.55099 -18.4765,38.49484 -10.2884,19.21521 -14.0677,33.98569 -15.7357,61.5 -0.6002,9.9 -1.4832,23.69935 -1.9623,30.66523 -0.9524,13.84711 0.05,30.0639 2.518,40.74325 2.8138,12.17472 23.6525,72.49881 28.1347,81.44476 7.0259,14.02254 14.3039,24.16981 27.3605,38.14676 25.2374,27.0164 35.9445,45.00052 40.9964,68.85964 2.2163,10.46709 3.7114,28.64289 2.3555,28.63536 -0.4952,-0.003 -2.0092,-3.70499 -3.3645,-8.22721 z m 151.7619,-32.69859 c -21.4843,-6.86936 -35.2085,-28.68647 -31.832,-50.60252 2.4425,-15.85337 13.5158,-30.23521 27.6495,-35.91074 30.914,-12.41381 64.36104,9.64345 64.36104,42.44406 0,20.86791 -14.12864,39.2272 -34.32644,44.60507 -7.173,1.90989 -18.9675,1.6654 -25.8521,-0.53587 z m 18.7561,-15.15633 c 1.0305,-1.66742 -1.2872,-3.57951 -2.6667,-2.2 -1.1539,1.15392 -0.4317,3.28713 1.1129,3.28713 0.4851,0 1.1843,-0.48921 1.5538,-1.08713 z m -16.8683,-9.08718 c 1.273,-1.19588 2.3145,-3.19578 2.3145,-4.44424 0,-3.36552 -4.1025,-7.63145 -7.3391,-7.63145 -6.2851,0 -8.8393,7.1625 -4.2064,11.79545 3.0327,3.03269 6.1989,3.12881 9.231,0.28024 z m 37.0645,-4.46227 c 2.6713,-2.9384 2.8039,-4.58832 0.635,-7.8986 -3.4461,-5.25942 -11.385,-1.78787 -11.385,4.97848 0,6.47584 6.0287,8.11347 10.75,2.92012 z m -44.25,-28.36342 c 0,-3.28065 -4.0038,-4.13891 -4.9787,-1.06724 -0.8754,2.75827 0.2092,4.2469 2.823,3.87443 1.5508,-0.22099 2.1557,-1.00869 2.1557,-2.80719 z m 29.2775,-2.5567 c 4.8408,-3.39068 1.2257,-11.4433 -5.1373,-11.4433 -4.0467,0 -6.6402,2.57717 -6.6402,6.59828 0,3.76077 2.8877,6.40172 7,6.40172 1.4052,0 3.5551,-0.70052 4.7775,-1.5567 z m -238.7775,52.2347 c -6.8632,-5.43372 -11.9694,-10.41908 -14.7422,-14.39331 -5.7247,-8.20514 -6.4181,-10.65103 -1.64,-5.78469 2.1601,2.2 7.7423,7.42333 12.4048,11.60739 6.7875,6.09095 16.2614,16.90916 14.7895,16.88816 -0.1717,-0.002 -5.0371,-3.74535 -10.8121,-8.31755 z m 88,-29.94528 c 0,-5.46948 2.2027,-11.9986 5.5113,-16.33644 2.7345,-3.58509 10.8711,-7.91566 16.8727,-8.98021 l 3.884,-0.68893 -0.724,4.88643 c -1.7319,11.68945 -7.5896,19.23775 -17.7064,22.81646 -2.9357,1.03847 -5.9001,2.08968 -6.5876,2.33603 -0.8807,0.31558 -1.25,-0.87611 -1.25,-4.03334 z m 294.96792,-10.72026 c -12.60419,-5.52692 -19.11237,-13.88151 -20.58691,-26.42757 l -0.69311,-5.89731 3.34341,0.66869 c 5.0799,1.01598 14.12461,5.43087 17.31192,8.45027 4.42432,4.19124 7.8604,11.86133 8.41633,18.78713 0.27075,3.37295 0.0837,6.38517 -0.41571,6.69381 -0.49939,0.30864 -3.81856,-0.71512 -7.37593,-2.27502 z M 354.80666,679.13047 c -0.7757,-1.7875 -3.4548,-7.57245 -5.9535,-12.85545 -4.818,-10.18666 -9.2336,-22.65722 -8.3392,-23.55161 0.2949,-0.29492 1.3775,1.19477 2.4057,3.31042 1.0283,2.11565 3.5269,6.80072 5.5525,10.41126 3.7902,6.75597 6.9807,15.59506 8.0079,22.18538 0.7183,4.60888 0.1796,4.76984 -1.6734,0.5 z M 700.1061,678.8518 c -3.7917,-1.88076 -8.04447,-4.97193 -10.02737,-7.2885 -3.80572,-4.44613 -8.7205,-17.75082 -7.14076,-19.33056 1.35143,-1.35143 9.94372,0.78766 14.96838,3.72644 7.41683,4.33789 12.28389,12.87371 12.28389,21.54341 0,5.92521 -0.67629,6.01569 -10.08414,1.34921 z m 112.58414,-11.00808 c -15.4,-7.97582 -39.25,-20.15442 -53,-27.06356 -20.10747,-10.10366 -27.44627,-14.37658 -37.5,-21.83391 -11.79823,-8.7513 -45.72357,-33.45433 -52.71092,-38.38192 l -3.21096,-2.26439 -4.289,2.25328 c -3.1467,1.65308 -6.0205,2.26055 -10.7891,2.28059 -11.0725,0.0465 -19.8159,-5.71657 -24.7518,-16.31484 -2.1391,-4.59325 -2.4301,-6.38437 -2.0307,-12.5 0.2937,-4.4959 1.2434,-8.65431 2.5655,-11.23318 2.2156,-4.32192 7.8111,-9.80762 11.9076,-11.67413 2.2204,-1.01169 2.3901,-1.53154 1.8519,-5.67247 -0.3259,-2.5073 -1.2446,-13.55872 -2.0415,-24.55872 -0.7968,-11 -1.8768,-24.5 -2.3998,-30 -2.773,-29.15869 -2.6533,-32.15388 2.178,-54.5 2.4377,-11.275 6.1397,-28.69727 8.2267,-38.71616 2.087,-10.01888 4.1162,-18.01735 4.5094,-17.77438 0.3931,0.24298 0.9645,2.14025 1.2697,4.21616 0.3052,2.07591 3.7409,19.23282 7.6349,38.12646 3.8941,18.89365 7.0801,36.68021 7.0801,39.52569 0,2.84548 -1.1275,19.33704 -2.5055,36.64792 -1.3781,17.31087 -2.7937,36.04133 -3.1458,41.62324 l -0.6403,10.14894 2.8958,1.51507 c 8.12273,4.24982 13.57711,13.28014 14.00515,23.18706 l 0.25924,6 35.81569,22.14658 c 22.5308,13.93189 38.77278,24.68868 43.78791,29 9.33487,8.02486 37.21002,31.28581 64.34541,53.69427 16.80427,13.87699 20.03806,16.71949 18.93238,16.64152 -0.1375,-0.01 -12.85,-6.5433 -28.25,-14.51912 z m -253.90448,12.69137 c -1.3196,-2.13521 -1.6795,-9.12919 -0.6638,-12.90116 1.4026,-5.20892 5.1659,-9.75245 10.2083,-12.32491 l 3.8885,-1.98375 0.9857,2.5927 c 3.0667,8.06607 -0.2224,17.34087 -8.0026,22.56611 -4.5846,3.07908 -5.5834,3.39835 -6.4161,2.05101 z m 273.40448,-21.77395 c -8.525,-6.91563 -15.65,-12.9804 -15.83333,-13.47727 -0.18334,-0.49687 0.34702,-0.9034 1.17857,-0.9034 2.28239,0 4.65476,-2.83957 4.65476,-5.57143 0,-2.60528 -3.15889,-6.42857 -5.31144,-6.42857 -2.26888,0 -5.68856,3.97079 -5.68856,6.60531 0,2.45477 -0.17651,2.38899 -6.14259,-2.28896 -3.37842,-2.64899 -7.94305,-6.40992 -10.14361,-8.35762 l -4.00103,-3.54127 1.12038,-6.36049 c 4.70994,-26.73877 31.49888,-44.40113 57.03543,-37.60433 18.88975,5.02769 32.4174,19.94142 35.22782,38.83737 2.88282,19.38265 -7.71473,39.53037 -25.29881,48.0973 -10.02067,4.88205 -9.43355,5.07938 -26.79759,-9.00664 z m 19.387,-6.33771 c 3.6255,-1.37841 5.82167,-5.99717 4.29527,-9.03336 -1.7155,-3.41231 -6.10072,-4.62067 -9.25895,-2.55132 -4.9972,3.27429 -5.02048,10.87405 -0.0363,11.85394 1.16214,0.22848 2.1962,0.4767 2.29789,0.5516 0.1017,0.0749 1.31764,-0.29449 2.7021,-0.82086 z m 11.39049,-32.59966 c 4.49012,-3.145 1.7264,-11.4433 -3.81114,-11.4433 -5.79659,0 -7.62735,8.02276 -2.62958,11.52333 2.66353,1.86561 3.68098,1.85297 6.44072,-0.08 z m -32.66388,-7.5041 c 4.52761,-2.4231 4.35851,-9.2782 -0.29024,-11.76614 -3.05711,-1.63611 -7.07295,-0.24798 -9.354,3.23334 -3.85817,5.88831 3.09336,12.03872 9.64424,8.5328 z m -361.61359,51.36227 c -21.7385,-2.89028 -38.8341,-21.54202 -40.2511,-43.91512 -1.5033,-23.73711 12.9181,-43.70333 35.7738,-49.52814 7.5048,-1.91261 9.3404,-2.03649 16.0012,-1.07988 10.4312,1.49811 17.5414,4.39324 24.5184,9.98344 13.871,11.11383 20.384,27.88913 17.4898,45.04767 -4.2857,25.40833 -27.9813,42.88918 -53.5321,39.49203 z m 11.9828,-18.92719 c 2.3322,-2.33215 1.5226,-6.52884 -1.5956,-8.2709 -5.6764,-3.1713 -12.5184,3.33167 -8.3508,7.93691 2.1824,2.41145 7.6842,2.59619 9.9464,0.33399 z m -23.3918,-22.2469 c 4.572,-3.70221 1.715,-13.12738 -3.9793,-13.12738 -2.5805,0 -5.818,2.6936 -6.4991,5.40727 -0.8437,3.36168 0.891,7.45869 3.6228,8.55619 3.3485,1.34523 4.306,1.22846 6.8556,-0.83608 z m 45.909,-0.12738 c 4.1217,-4.12174 1.5492,-12.01687 -3.905,-11.98469 -3.4012,0.0201 -4.7555,0.96151 -5.9669,4.14772 -2.7631,7.26748 4.5978,13.11105 9.8719,7.83697 z m -23,-26 c 1.1,-1.1 2,-2.675 2,-3.5 0,-0.825 -0.9,-2.4 -2,-3.5 -5.3087,-5.30864 -13.3699,1.6188 -8.345,7.17126 2.1719,2.40001 5.8492,2.32455 8.345,-0.17126 z m 473.52648,59.21681 c 0.74202,-3.18076 2.55612,-8.91826 4.03134,-12.75 1.47522,-3.83175 3.96861,-10.56681 5.54089,-14.96681 2.47994,-6.94011 2.8615,-7.52437 2.87997,-4.40996 0.035,5.8972 -3.52437,17.97039 -8.3293,28.25266 -2.48208,5.31151 -4.72869,9.6573 -4.99245,9.6573 -0.26377,0 0.12753,-2.60244 0.86955,-5.78319 z M 391.61096,561.03444 c -0.2939,-0.7658 -0.3963,-3.81373 -0.2275,-6.77317 l 0.3068,-5.3808 18.2962,-0.27274 18.2962,-0.27273 -0.2962,6.77273 -0.2962,6.77274 -17.7725,0.27317 c -14.45,0.22209 -17.8724,0.0129 -18.3068,-1.1192 z m 482.64665,-0.0728 c -0.67832,-0.81733 -1.04819,-3.67894 -0.87244,-6.75 l 0.30507,-5.33117 17.92628,-0.27379 c 13.67228,-0.20882 18.11812,0.0285 18.73469,1 1.24444,1.96085 0.98666,10.22616 -0.36097,11.57379 -1.86756,1.86756 -34.16524,1.66977 -35.73263,-0.21882 z M 330.72496,534.22971 c -0.5501,-7.71392 -0.082,-14.82767 1.6026,-24.34924 0.5422,-3.06509 1.4386,10.62951 1.3275,20.2825 -0.1682,14.61453 -1.9968,17.15258 -2.9301,4.06674 z m 410.98551,5.1835 c -0.84406,-1.36573 0.53926,-10.91256 2.13661,-14.74551 3.14489,-7.54639 10.4918,-13.19155 19.91723,-15.30383 6.56239,-1.47066 7.10345,-0.54372 4.45957,7.64 -3.57767,11.0741 -6.38898,14.31798 -17.25868,19.91422 -7.19265,3.70313 -8.32025,4.00714 -9.25473,2.49512 z M 530.48236,525.56185 c 1.4863,-12.54922 10.8662,-21.56583 23.5434,-22.63153 7.212,-0.60626 7.4837,0.009 3.6026,8.15744 -5.2862,11.09824 -11.7137,16.05842 -24.3408,18.78417 l -3.4027,0.73452 z m 314.05048,-20.18514 c 0.74713,-7.14808 4.34144,-14.71114 8.75725,-18.42681 4.32768,-3.6415 14.72253,-8.79724 16.06452,-7.96784 1.76361,1.08997 0.41878,13.34327 -1.98004,18.04096 -2.84366,5.56883 -9.50442,11.07806 -15.57215,12.87998 -7.95248,2.36163 -7.98724,2.33999 -7.26958,-4.52629 z m -383.84258,-0.23342 c -9.1613,-2.22329 -13.1112,-4.24359 -18.1521,-9.28443 -4.1584,-4.15843 -5.5829,-6.49919 -7.2606,-11.93123 -2.1738,-7.03766 -2.6177,-10.54716 -1.3341,-10.54716 2.0345,0 14.2788,3.9757 17.8408,5.79289 5.6661,2.89064 10.7877,8.9386 13.3351,15.74723 2.1815,5.83068 2.4311,10.63885 0.5709,10.99954 -0.55,0.10664 -2.8,-0.24293 -5,-0.77684 z m 303.29768,-40.69362 c -14.14436,-4.5225 -25.39678,-15.33685 -30.76702,-29.5692 -2.96775,-7.86519 -3.61327,-21.17323 -1.39043,-28.66522 5.56359,-18.75191 20.58782,-32.20087 39.18898,-35.08006 25.85497,-4.00198 51.18396,14.58958 55.17043,40.49528 3.59511,23.36246 -12.29843,47.16483 -35.53462,53.21709 -7.86486,2.04854 -19.56185,1.87401 -26.66734,-0.39789 z m 4.54218,-22.23538 c 2.17273,-3.46711 -3.6276,-6.60192 -6.28683,-3.39774 -0.89941,1.08372 -0.91285,1.95737 -0.0548,3.56068 1.32137,2.46901 4.74742,2.38098 6.34161,-0.16294 z m 28.80673,-0.82658 c 3.33788,-3.33788 3.23276,-6.16426 -0.34429,-9.25724 -2.79267,-2.41474 -5.45302,-2.19021 -8.34777,0.70455 -4.62042,4.62042 -2.15805,11.07796 4.37237,11.4665 0.72981,0.0434 2.67367,-1.26779 4.31969,-2.91381 z m 9.85339,-22.57067 c 0,-2.1699 -2.08304,-2.78211 -3.76006,-1.10508 -1.29764,1.29764 -1.34445,1.83766 -0.27136,3.13065 0.9882,1.19071 1.62214,1.29249 2.6641,0.42775 0.75203,-0.62413 1.36732,-1.72812 1.36732,-2.45332 z m -48.91078,0.69227 c 4.61097,-3.73374 1.93159,-13.12884 -3.74421,-13.12884 -3.47037,0 -6.34501,3.39792 -6.34501,7.5 0,3.89202 2.83309,7.5 5.88922,7.5 1.03906,0 2.92906,-0.84202 4.2,-1.87116 z m 32.68827,-14.68554 c 6.68137,-4.67981 -2.41502,-16.53172 -9.25061,-12.05287 -3.08907,2.02403 -3.99415,5.06727 -2.54649,8.56223 1.93926,4.68178 7.67394,6.37861 11.7971,3.49064 z M 509.19026,460.9475 c -17.8343,-4.97038 -32.079,-21.10447 -34.9336,-39.56703 -3.4007,-21.99481 11.3868,-46.00853 32.4181,-52.64429 5.9855,-1.88855 18.8306,-2.51466 24.7613,-1.20695 13.6866,3.01787 27.2907,13.88568 33.4738,26.74102 3.0869,6.41784 3.642,8.69497 4.0579,16.64754 0.2964,5.66578 -0.01,11.28213 -0.7856,14.58771 -4.0211,17.0515 -17.6164,30.7627 -35.1229,35.42221 -6.4821,1.72528 -17.7161,1.73459 -23.869,0.0198 z m 22.4247,-19.48384 c 3.5615,-3.93539 -2.0807,-8.28439 -5.8533,-4.51176 -1.8591,1.85909 -1.875,1.99275 -0.5362,4.49431 1.321,2.46848 4.1643,2.47624 6.3895,0.0174 z m -25.2535,-11.73818 c 4.2815,-3.8747 0.8939,-12.36208 -4.9212,-12.3297 -3.3354,0.0186 -4.5802,0.78142 -6.1557,3.77246 -3.4532,6.55556 5.5788,13.53301 11.0769,8.55724 z m 42.3742,-10.79956 c 4.4647,-4.46471 2.2444,-12.54545 -3.4471,-12.54545 -3.3415,0 -5.6304,2.34531 -6.5604,6.72212 -0.5619,2.64456 -0.2315,3.67525 1.8433,5.75 3.1687,3.16875 5.0519,3.18567 8.1642,0.0733 z m -50.5454,-20.60447 c 0,-0.51754 -0.675,-0.94098 -1.5,-0.94098 -1.5464,0 -1.9867,1.17996 -0.8605,2.30615 0.7989,0.79893 2.3605,-0.10419 2.3605,-1.36517 z m 24.0589,-2.99994 c 2.9299,-2.92984 2.3099,-8.01285 -1.1802,-9.67695 -5.6843,-2.71028 -12.0549,2.51216 -9.9186,8.13104 1.5449,4.06327 7.7212,4.92355 11.0988,1.54591 z m -158.5762,24.55896 c 0.3605,-1.1 1.7937,-6.49519 3.1849,-11.98931 3.067,-12.1119 6.8401,-20.67753 12.7116,-28.85702 4.4594,-6.21246 12.9771,-15.03922 9.3156,-9.65367 -4.4212,6.50283 -7.9103,13.10044 -10.3126,19.5 -6.6395,17.68731 -8.6819,22.36797 -11.9995,27.5 -1.9556,3.025 -3.2606,4.6 -2.9,3.5 z m 555.30236,-7.2474 c -9.93635,-14.23586 -19.78508,-29.11174 -19.78508,-29.88412 0,-1.28267 11.79314,10.66428 15.58975,15.79308 3.36985,4.55228 9.72046,18.40782 9.18011,20.02885 -0.14938,0.44814 -2.39253,-2.22388 -4.98478,-5.93781 z M 587.51856,358.47669 c -9.3701,-3.19518 -13.17,-6.90367 -18.3276,-17.88658 -3.4216,-7.28612 -3.0165,-7.8454 4.9952,-6.89653 10.0126,1.18584 18.6381,8.34791 21.4476,17.8088 2.8651,9.64755 1.9729,10.41431 -8.1152,6.97431 z M 715.2122,347.67578 c 0.0337,-4.29544 3.39633,-10.74491 6.90453,-13.24297 4.07964,-2.90495 15.07351,-4.19892 15.07351,-1.77413 0,2.52228 -3.58304,10.08083 -5.65701,11.93365 -2.39373,2.13849 -7.68896,4.32786 -12.59299,5.20672 -3.60253,0.64562 -3.74914,0.56212 -3.72804,-2.12327 z m -70.31304,-8.91968 c -0.3899,-0.38993 -0.7089,-8.68582 -0.7089,-18.43531 0,-19.81801 -0.3457,-18.94032 7.4593,-18.94032 2.4348,0 4.7925,0.5985 5.4424,1.38153 0.7896,0.95144 1.0612,6.7885 0.8724,18.75 l -0.2741,17.36847 -6.0411,0.29229 c -3.3225,0.16076 -6.36,-0.0267 -6.75,-0.41666 z"
       id="path1" />
  </g>
</svg>
