<svg xmlns="http://www.w3.org/2000/svg" viewBox="0 0 24 24" width="24" height="24" fill="none" stroke="currentColor" stroke-width="1.5" stroke-linecap="round" stroke-linejoin="round">
  <!-- Stem -->
  <line x1="12" y1="22" x2="12" y2="4"/>
  <!-- Top grain -->
  <ellipse cx="12" cy="4" rx="2" ry="3" fill="currentColor" stroke="none"/>
  <!-- Left grains -->
  <path d="M12 9 C9 8 7 9 7 11 C7 13 9 13 12 12"/>
  <path d="M12 14 C9 13 7 14 7 16 C7 18 9 18 12 17"/>
  <!-- Right grains -->
  <path d="M12 9 C15 8 17 9 17 11 C17 13 15 13 12 12"/>
  <path d="M12 14 C15 13 17 14 17 16 C17 18 15 18 12 17"/>
</svg>
