<svg xmlns="http://www.w3.org/2000/svg" viewBox="0 0 24 24" width="24" height="24" fill="none" stroke="currentColor" stroke-width="1.5" stroke-linecap="round" stroke-linejoin="round">
  <!-- Simple teardrop seeds, three of them -->
  <path d="M12 3 C10 3 8.5 5 8.5 7.5 C8.5 10 10 11.5 12 11.5 C14 11.5 15.5 10 15.5 7.5 C15.5 5 14 3 12 3Z"/>
  <path d="M7 13 C5 13 3.5 15 3.5 17.5 C3.5 20 5 21.5 7 21.5 C9 21.5 10.5 20 10.5 17.5 C10.5 15 9 13 7 13Z"/>
  <path d="M17 13 C15 13 13.5 15 13.5 17.5 C13.5 20 15 21.5 17 21.5 C19 21.5 20.5 20 20.5 17.5 C20.5 15 19 13 17 13Z"/>
</svg>
